<svg id="Grupo_87978" data-name="Grupo 87978" xmlns="http://www.w3.org/2000/svg" xmlns:xlink="http://www.w3.org/1999/xlink" width="315" height="224.785" viewBox="0 0 315 224.785">
  <defs>
    <clipPath id="clip-path">
      <rect id="Rectángulo_8108" data-name="Rectángulo 8108" width="315" height="224.785" fill="none"/>
    </clipPath>
    <clipPath id="clip-path-2">
      <rect id="Rectángulo_8050" data-name="Rectángulo 8050" width="314.999" height="224.786" fill="none"/>
    </clipPath>
    <clipPath id="clip-path-3">
      <rect id="Rectángulo_8059" data-name="Rectángulo 8059" width="194.364" height="134.272" fill="none"/>
    </clipPath>
    <clipPath id="clip-path-5">
      <rect id="Rectángulo_8061" data-name="Rectángulo 8061" width="8.571" height="12.117" fill="none"/>
    </clipPath>
    <clipPath id="clip-path-6">
      <path id="Trazado_153684" data-name="Trazado 153684" d="M924.491,86.207a2.672,2.672,0,0,1-.146-.419c-.469-1.741-.221-11.472-.221-11.472l-7.631.282S916.4,84.2,916.2,85.74a1.543,1.543,0,0,1-.282.693Z" transform="translate(-915.92 -74.316)" fill="none"/>
    </clipPath>
    <linearGradient id="linear-gradient" x1="-15.97" y1="22.219" x2="-15.953" y2="22.219" gradientUnits="objectBoundingBox">
      <stop offset="0" stop-color="#f0c3a8"/>
      <stop offset="1" stop-color="#fff"/>
    </linearGradient>
    <clipPath id="clip-path-7">
      <rect id="Rectángulo_8062" data-name="Rectángulo 8062" width="7.134" height="8.539" fill="none"/>
    </clipPath>
    <clipPath id="clip-path-8">
      <rect id="Rectángulo_8063" data-name="Rectángulo 8063" width="32.933" height="9.153" fill="none"/>
    </clipPath>
    <clipPath id="clip-path-9">
      <rect id="Rectángulo_8064" data-name="Rectángulo 8064" width="11.415" height="6.249" fill="none"/>
    </clipPath>
    <clipPath id="clip-path-10">
      <rect id="Rectángulo_8065" data-name="Rectángulo 8065" width="2.932" height="0.692" fill="none"/>
    </clipPath>
    <clipPath id="clip-path-11">
      <rect id="Rectángulo_8066" data-name="Rectángulo 8066" width="1.873" height="0.466" fill="none"/>
    </clipPath>
    <clipPath id="clip-path-13">
      <rect id="Rectángulo_8068" data-name="Rectángulo 8068" width="2.601" height="0.606" fill="none"/>
    </clipPath>
    <clipPath id="clip-path-14">
      <rect id="Rectángulo_8069" data-name="Rectángulo 8069" width="18.665" height="8.342" fill="none"/>
    </clipPath>
    <clipPath id="clip-path-15">
      <rect id="Rectángulo_8070" data-name="Rectángulo 8070" width="123.254" height="140.561" fill="none"/>
    </clipPath>
    <clipPath id="clip-path-16">
      <rect id="Rectángulo_8073" data-name="Rectángulo 8073" width="13.094" height="11.996" fill="none"/>
    </clipPath>
    <clipPath id="clip-path-17">
      <rect id="Rectángulo_8074" data-name="Rectángulo 8074" width="30.955" height="28.159" fill="none"/>
    </clipPath>
    <clipPath id="clip-path-18">
      <rect id="Rectángulo_8076" data-name="Rectángulo 8076" width="10.306" height="12.169" fill="none"/>
    </clipPath>
    <clipPath id="clip-path-19">
      <path id="Trazado_153741" data-name="Trazado 153741" d="M1064.575,649.5a2.509,2.509,0,0,0,.033-.419c.013-1.707-2.435-10.182-2.435-10.182l7.056-1.568s2.273,8.4,2.825,9.758a1.456,1.456,0,0,0,.424.567Z" transform="translate(-1062.174 -637.333)" fill="none"/>
    </clipPath>
    <linearGradient id="linear-gradient-2" x1="-17.258" y1="5.707" x2="-17.242" y2="5.707" xlink:href="#linear-gradient"/>
    <clipPath id="clip-path-20">
      <rect id="Rectángulo_8077" data-name="Rectángulo 8077" width="5.204" height="6.763" fill="none"/>
    </clipPath>
    <clipPath id="clip-path-21">
      <rect id="Rectángulo_8078" data-name="Rectángulo 8078" width="38.185" height="31.291" fill="none"/>
    </clipPath>
    <clipPath id="clip-path-22">
      <rect id="Rectángulo_8079" data-name="Rectángulo 8079" width="23.106" height="21.333" fill="none"/>
    </clipPath>
    <clipPath id="clip-path-23">
      <rect id="Rectángulo_8080" data-name="Rectángulo 8080" width="72.552" height="12.44" fill="none"/>
    </clipPath>
    <clipPath id="clip-path-24">
      <rect id="Rectángulo_8081" data-name="Rectángulo 8081" width="28.033" height="9.286" fill="none"/>
    </clipPath>
    <clipPath id="clip-path-25">
      <rect id="Rectángulo_8083" data-name="Rectángulo 8083" width="13.286" height="12.879" fill="none"/>
    </clipPath>
    <clipPath id="clip-path-26">
      <path id="Trazado_153772" data-name="Trazado 153772" d="M223.24,769.007a2.533,2.533,0,0,1,.178-.381c.832-1.49,7.148-7.649,7.148-7.649l-5.359-4.85s-6.126,6.178-7.278,7.087a1.46,1.46,0,0,1-.649.283Z" transform="translate(-217.28 -756.128)" fill="none"/>
    </clipPath>
    <linearGradient id="linear-gradient-3" x1="-2.472" y1="3.218" x2="-2.46" y2="3.218" xlink:href="#linear-gradient"/>
    <clipPath id="clip-path-27">
      <rect id="Rectángulo_8084" data-name="Rectángulo 8084" width="5.755" height="7.637" fill="none"/>
    </clipPath>
    <clipPath id="clip-path-28">
      <rect id="Rectángulo_8085" data-name="Rectángulo 8085" width="14.206" height="11.972" fill="none"/>
    </clipPath>
    <clipPath id="clip-path-29">
      <rect id="Rectángulo_8086" data-name="Rectángulo 8086" width="37.524" height="30.643" fill="none"/>
    </clipPath>
    <clipPath id="clip-path-30">
      <rect id="Rectángulo_8087" data-name="Rectángulo 8087" width="23.107" height="21.333" fill="none"/>
    </clipPath>
    <clipPath id="clip-path-31">
      <rect id="Rectángulo_8088" data-name="Rectángulo 8088" width="4.449" height="12.298" fill="none"/>
    </clipPath>
    <clipPath id="clip-path-32">
      <rect id="Rectángulo_8089" data-name="Rectángulo 8089" width="10.088" height="21.587" fill="none"/>
    </clipPath>
    <clipPath id="clip-path-33">
      <rect id="Rectángulo_8090" data-name="Rectángulo 8090" width="9.744" height="5.598" fill="none"/>
    </clipPath>
    <clipPath id="clip-path-34">
      <path id="Trazado_153803" data-name="Trazado 153803" d="M1064.4,291.514c.937-3.641.925-3.1.544-3.305-.937,3.641-.925,3.1-.544,3.305" transform="translate(-1064.161 -288.209)" fill="none"/>
    </clipPath>
    <linearGradient id="linear-gradient-4" x1="-177.808" y1="40.501" x2="-177.641" y2="40.501" gradientUnits="objectBoundingBox">
      <stop offset="0" stop-color="#f8b33e"/>
      <stop offset="1" stop-color="#e72552"/>
    </linearGradient>
    <clipPath id="clip-path-35">
      <path id="Trazado_153804" data-name="Trazado 153804" d="M1069.37,291.7c.835-3.516.81-2.98.447-3.157-.836,3.516-.809,2.98-.447,3.157" transform="translate(-1069.13 -288.542)" fill="none"/>
    </clipPath>
    <linearGradient id="linear-gradient-5" x1="-194.093" y1="41.538" x2="-193.912" y2="41.538" xlink:href="#linear-gradient-4"/>
    <clipPath id="clip-path-37">
      <rect id="Rectángulo_8094" data-name="Rectángulo 8094" width="19.822" height="1.531" fill="none"/>
    </clipPath>
    <clipPath id="clip-path-38">
      <path id="Trazado_153810" data-name="Trazado 153810" d="M1242.68,872.312l1.568,11.7a4.51,4.51,0,0,0,4.47,3.911h6.2a4.51,4.51,0,0,0,4.47-3.911l1.567-11.7Z" transform="translate(-1242.68 -872.312)" fill="none"/>
    </clipPath>
    <linearGradient id="linear-gradient-6" x1="-15.122" y1="1.972" x2="-15.109" y2="1.972" gradientUnits="objectBoundingBox">
      <stop offset="0" stop-color="#d6925a"/>
      <stop offset="0.004" stop-color="#d6925a"/>
      <stop offset="0.33" stop-color="#c37b40"/>
      <stop offset="1" stop-color="#804b1f"/>
    </linearGradient>
    <clipPath id="clip-path-40">
      <rect id="Rectángulo_8097" data-name="Rectángulo 8097" width="13.786" height="13.193" fill="none"/>
    </clipPath>
    <clipPath id="clip-path-41">
      <rect id="Rectángulo_8098" data-name="Rectángulo 8098" width="10.439" height="9.975" fill="none"/>
    </clipPath>
    <clipPath id="clip-path-42">
      <rect id="Rectángulo_8099" data-name="Rectángulo 8099" width="11.391" height="13.271" fill="none"/>
    </clipPath>
    <clipPath id="clip-path-43">
      <rect id="Rectángulo_8100" data-name="Rectángulo 8100" width="15.187" height="15.898" fill="none"/>
    </clipPath>
    <clipPath id="clip-path-44">
      <rect id="Rectángulo_8101" data-name="Rectángulo 8101" width="10.47" height="0.547" fill="none"/>
    </clipPath>
    <clipPath id="clip-path-46">
      <rect id="Rectángulo_8103" data-name="Rectángulo 8103" width="1.201" height="40.719" fill="none"/>
    </clipPath>
    <clipPath id="clip-path-47">
      <rect id="Rectángulo_8104" data-name="Rectángulo 8104" width="0.858" height="45.129" fill="none"/>
    </clipPath>
    <clipPath id="clip-path-48">
      <rect id="Rectángulo_8105" data-name="Rectángulo 8105" width="0.6" height="45.492" fill="none"/>
    </clipPath>
    <clipPath id="clip-path-49">
      <rect id="Rectángulo_8106" data-name="Rectángulo 8106" width="0.774" height="39.343" fill="none"/>
    </clipPath>
  </defs>
  <g id="Grupo_87977" data-name="Grupo 87977" clip-path="url(#clip-path)">
    <g id="Grupo_87845" data-name="Grupo 87845" transform="translate(0 0)">
      <g id="Grupo_87844" data-name="Grupo 87844" clip-path="url(#clip-path-2)">
        <path id="Trazado_153652" data-name="Trazado 153652" d="M1300.259,690.161c.5-4.741-11.311-5.222-17.806,1.9s-15.4,22.909-15.4,22.909l1.938.984s12.2-21.408,17.441-22.132,13.308,1.288,13.824-3.657" transform="translate(-985.275 -533.942)" fill="#a4d6e2"/>
        <path id="Trazado_153653" data-name="Trazado 153653" d="M1256.556,620.195a27.244,27.244,0,0,1,6.474-13.8c5.668-6.329,10.755-8.015,11.792-6.823s-16.734,23.371-16.734,23.371Z" transform="translate(-977.11 -465.956)" fill="#95dcca"/>
        <path id="Trazado_153654" data-name="Trazado 153654" d="M1283.076,642.014a31.434,31.434,0,0,1,12.011-12.846c8.471-4.932,14.654-4.975,15.37-3.3s-26.675,19.707-26.675,19.707Z" transform="translate(-997.733 -485.908)" fill="#7fd4bf"/>
        <path id="Trazado_153655" data-name="Trazado 153655" d="M1106.153,622.277a11.644,11.644,0,0,0-5.5-9.9,5.122,5.122,0,0,1-2.335-5.387,8.719,8.719,0,0,0-6.62-10.321,2.092,2.092,0,0,1-1.627-2.243,6.087,6.087,0,0,0,.012-1.285c-.313-2.407-1.67-3.721-3.626-4.794a2.5,2.5,0,0,1-1.215-2.825,7.7,7.7,0,0,0,.236-1.716c.118-4.438-2.273-6.267-3.934-7.089a3.17,3.17,0,0,1-1.64-2.017,5.326,5.326,0,0,0-10.433.815c0,.02,0,.04-.006.06a1.63,1.63,0,0,1-1.711,1.472,6.642,6.642,0,0,0-6.88,7.668,2.838,2.838,0,0,1-1.281,2.85,9.8,9.8,0,0,0-3.984,4.95,2.629,2.629,0,0,1-1.771,1.63,8.652,8.652,0,0,0-5.776,11.367,2.875,2.875,0,0,1-1.6,3.675,10.716,10.716,0,0,0-5.359,14.886,5.582,5.582,0,0,1-1.147,6.76,13.188,13.188,0,0,0-4.361,9.813v4.819h71.668v-4.819c0-1.952-1.232-3.8-2.69-5.472a5.326,5.326,0,0,1-.362-6.462,11.6,11.6,0,0,0,1.94-6.44" transform="translate(-805.291 -443.843)" fill="#63bea7"/>
        <path id="Trazado_153656" data-name="Trazado 153656" d="M1040.715,637.908a11.087,11.087,0,0,0-5.236-9.424,4.878,4.878,0,0,1-2.223-5.13,8.3,8.3,0,0,0-6.3-9.828,1.992,1.992,0,0,1-1.55-2.136,5.517,5.517,0,0,0-3.442-5.789,2.382,2.382,0,0,1-1.156-2.69,7.325,7.325,0,0,0,.224-1.633c.113-4.226-2.164-5.967-3.746-6.751a3.02,3.02,0,0,1-1.562-1.92,5.072,5.072,0,0,0-9.934.776c0,.019,0,.038-.006.057a1.551,1.551,0,0,1-1.629,1.4,6.325,6.325,0,0,0-6.551,7.3,2.7,2.7,0,0,1-1.22,2.714,9.335,9.335,0,0,0-3.794,4.714,2.5,2.5,0,0,1-1.686,1.552,8.238,8.238,0,0,0-5.5,10.824,2.738,2.738,0,0,1-1.522,3.5,10.2,10.2,0,0,0-5.1,14.175,5.315,5.315,0,0,1-1.092,6.437,12.558,12.558,0,0,0-4.153,9.344v4.589h68.244V655.4c0-1.858-1.173-3.622-2.562-5.21a5.071,5.071,0,0,1-.345-6.154,11.041,11.041,0,0,0,1.847-6.132" transform="translate(-757.027 -457.911)" fill="#41b093"/>
        <path id="Trazado_153657" data-name="Trazado 153657" d="M113.867,595.751a12.954,12.954,0,0,0-5.5-10.77,5.783,5.783,0,0,1-2.335-5.863,10.308,10.308,0,0,0,.191-1.98,9.338,9.338,0,0,0-6.811-9.252,2.263,2.263,0,0,1-1.627-2.441,7.2,7.2,0,0,0,.012-1.4,6.581,6.581,0,0,0-3.626-5.218,2.82,2.82,0,0,1-1.214-3.074,9.082,9.082,0,0,0,.236-1.867c.118-4.829-2.273-6.82-3.934-7.715a3.4,3.4,0,0,1-1.64-2.195,5.387,5.387,0,0,0-5.5-4.259,5.566,5.566,0,0,0-4.931,5.146c0,.021,0,.043-.006.065a1.68,1.68,0,0,1-1.711,1.6,6.209,6.209,0,0,0-.872.016,6.983,6.983,0,0,0-6.071,6.687,7.921,7.921,0,0,0,.064,1.642,3.2,3.2,0,0,1-1.281,3.1,10.543,10.543,0,0,0-3.985,5.387,2.73,2.73,0,0,1-1.771,1.774,9.323,9.323,0,0,0-6.325,9.065,10.114,10.114,0,0,0,.55,3.305,3.226,3.226,0,0,1-1.6,4,11.708,11.708,0,0,0-6.595,10.763,12.424,12.424,0,0,0,1.235,5.438,6.465,6.465,0,0,1-1.147,7.357,14.941,14.941,0,0,0-4.361,10.68v5.245h71.668v-5.245c0-2.124-1.232-4.14-2.69-5.955a6.2,6.2,0,0,1-.362-7.033,13.428,13.428,0,0,0,1.94-7.009" transform="translate(-33.679 -419.68)" fill="#63bea7"/>
        <path id="Trazado_153658" data-name="Trazado 153658" d="M169.833,626.652a11.584,11.584,0,0,0-4.917-9.631,5.171,5.171,0,0,1-2.088-5.242,9.21,9.21,0,0,0,.171-1.771,8.35,8.35,0,0,0-6.09-8.273,2.024,2.024,0,0,1-1.455-2.183,6.428,6.428,0,0,0,.01-1.25,5.886,5.886,0,0,0-3.243-4.666,2.522,2.522,0,0,1-1.086-2.749,8.113,8.113,0,0,0,.211-1.669c.106-4.318-2.032-6.1-3.518-6.9a3.045,3.045,0,0,1-1.466-1.963,4.817,4.817,0,0,0-4.92-3.808,4.977,4.977,0,0,0-4.409,4.6l-.005.058a1.5,1.5,0,0,1-1.53,1.433,5.513,5.513,0,0,0-.78.015,6.244,6.244,0,0,0-5.429,5.98,7.087,7.087,0,0,0,.057,1.468,2.861,2.861,0,0,1-1.146,2.773,9.432,9.432,0,0,0-3.563,4.817,2.441,2.441,0,0,1-1.584,1.587,8.337,8.337,0,0,0-5.656,8.106,9.042,9.042,0,0,0,.491,2.955,2.885,2.885,0,0,1-1.429,3.577,10.469,10.469,0,0,0-5.9,9.624,11.107,11.107,0,0,0,1.1,4.862,5.78,5.78,0,0,1-1.026,6.578,13.361,13.361,0,0,0-3.9,9.55v4.69h64.086v-4.69c0-1.9-1.1-3.7-2.406-5.325a5.547,5.547,0,0,1-.324-6.289,12.006,12.006,0,0,0,1.735-6.267" transform="translate(-83.004 -448.321)" fill="#41b093"/>
        <path id="Trazado_153659" data-name="Trazado 153659" d="M309.36,906.886H1.436a1.436,1.436,0,0,1,0-2.872H309.36a1.436,1.436,0,1,1,0,2.872" transform="translate(0 -702.97)" fill="#9fd4e0"/>
        <path id="Trazado_153660" data-name="Trazado 153660" d="M762.413,145.564a11.644,11.644,0,0,0-5.5-9.9,5.122,5.122,0,0,1-2.335-5.387,8.717,8.717,0,0,0-6.62-10.321,2.091,2.091,0,0,1-1.627-2.243,6.112,6.112,0,0,0,.012-1.285c-.313-2.407-1.67-3.721-3.626-4.794a2.5,2.5,0,0,1-1.214-2.825,7.72,7.72,0,0,0,.236-1.716c.118-4.438-2.273-6.267-3.934-7.089a3.17,3.17,0,0,1-1.64-2.017,5.326,5.326,0,0,0-10.433.816l-.006.06a1.63,1.63,0,0,1-1.711,1.472,6.641,6.641,0,0,0-6.879,7.668,2.838,2.838,0,0,1-1.282,2.85,9.8,9.8,0,0,0-3.984,4.95,2.629,2.629,0,0,1-1.771,1.63,8.651,8.651,0,0,0-5.776,11.367,2.875,2.875,0,0,1-1.6,3.675,10.716,10.716,0,0,0-5.359,14.886,5.581,5.581,0,0,1-1.147,6.76,13.188,13.188,0,0,0-4.361,9.813v4.819h71.668v-4.819c0-1.951-1.233-3.8-2.69-5.472a5.326,5.326,0,0,1-.362-6.462,11.6,11.6,0,0,0,1.94-6.44" transform="translate(-537.995 -73.146)" fill="#c2e4eb"/>
        <path id="Trazado_153661" data-name="Trazado 153661" d="M425.078,441.541H228.5a13.4,13.4,0,0,1-13.4-13.4V314.376a13.4,13.4,0,0,1,13.4-13.4H425.078a13.4,13.4,0,0,1,13.4,13.4V428.145a13.4,13.4,0,0,1-13.4,13.4" transform="translate(-167.269 -234.045)" fill="#d8dfe2"/>
        <path id="Trazado_153662" data-name="Trazado 153662" d="M416.432,447.1H220.405a14.167,14.167,0,0,1-14.167-14.167V319.171A14.167,14.167,0,0,1,220.405,305H416.432A14.167,14.167,0,0,1,430.6,319.171V432.93A14.167,14.167,0,0,1,416.432,447.1" transform="translate(-160.373 -237.174)" fill="#0c252e"/>
        <path id="Trazado_153663" data-name="Trazado 153663" d="M421.808,445.633H223.586a12.573,12.573,0,0,1-12.573-12.573V317.645a12.574,12.574,0,0,1,12.573-12.573H421.808a12.573,12.573,0,0,1,12.573,12.573V433.06a12.573,12.573,0,0,1-12.573,12.573" transform="translate(-164.086 -237.227)" fill="#184657"/>
        <rect id="Rectángulo_8048" data-name="Rectángulo 8048" width="194.364" height="134.273" transform="translate(61.429 70.99)" fill="#fff"/>
        <rect id="Rectángulo_8049" data-name="Rectángulo 8049" width="143.325" height="133.328" transform="translate(83.432 71.348)" fill="#fff"/>
        <path id="Trazado_153664" data-name="Trazado 153664" d="M1160.148,201.511a1.9,1.9,0,1,0,0-3.809c-.054,0-.107,0-.16.008a2.858,2.858,0,0,0-5.4.008,1.854,1.854,0,0,0-1.075.181,2.453,2.453,0,1,0-2.162,3.612Z" transform="translate(-893.394 -152.251)" fill="#9fd4e0"/>
        <path id="Trazado_153665" data-name="Trazado 153665" d="M351.259,468.088a1.9,1.9,0,0,0,0-3.809c-.054,0-.107,0-.16.008a2.858,2.858,0,0,0-5.4.008,1.852,1.852,0,0,0-1.075.181,2.453,2.453,0,1,0-2.162,3.612Z" transform="translate(-264.394 -359.544)" fill="#9fd4e0"/>
        <path id="Trazado_153666" data-name="Trazado 153666" d="M300.676,177.867a2.02,2.02,0,0,1,0-4.04c.057,0,.113,0,.169.009a3.032,3.032,0,0,1,5.728.008,2.042,2.042,0,0,1,.249-.017,2.009,2.009,0,0,1,.891.209,2.6,2.6,0,1,1,2.294,3.831Z" transform="translate(-232.238 -133.595)" fill="#9fd4e0"/>
        <path id="Trazado_153667" data-name="Trazado 153667" d="M636.991,79.108a3.651,3.651,0,1,0-1.246-7.079,5.646,5.646,0,0,0-10.854-.235,3.934,3.934,0,1,0-2.012,7.314Z" transform="translate(-481.296 -52.736)" fill="#9fd4e0"/>
        <path id="Trazado_153668" data-name="Trazado 153668" d="M106.93,265.8a3.66,3.66,0,1,0-1.249-7.1,5.66,5.66,0,0,0-10.881-.235,3.944,3.944,0,1,0-2.017,7.332Z" transform="translate(-69.081 -197.888)" fill="#9fd4e0"/>
      </g>
    </g>
    <g id="Grupo_87847" data-name="Grupo 87847" transform="translate(61.155 70.558)">
      <g id="Grupo_87846" data-name="Grupo 87846" clip-path="url(#clip-path-3)">
        <path id="Trazado_153669" data-name="Trazado 153669" d="M227.914,639.745a11.643,11.643,0,0,0-5.5-9.9,5.122,5.122,0,0,1-2.335-5.387,8.718,8.718,0,0,0-6.62-10.321,2.092,2.092,0,0,1-1.627-2.243,6.078,6.078,0,0,0,.012-1.285c-.313-2.408-1.67-3.722-3.626-4.795A2.5,2.5,0,0,1,207,602.993a7.7,7.7,0,0,0,.236-1.716c.118-4.438-2.273-6.266-3.934-7.089a3.17,3.17,0,0,1-1.64-2.017,5.326,5.326,0,0,0-10.433.815l-.006.06a1.63,1.63,0,0,1-1.711,1.472,6.642,6.642,0,0,0-6.879,7.668,2.838,2.838,0,0,1-1.281,2.85,9.8,9.8,0,0,0-3.985,4.95,2.629,2.629,0,0,1-1.771,1.63,8.651,8.651,0,0,0-5.776,11.367,2.875,2.875,0,0,1-1.6,3.675,10.715,10.715,0,0,0-5.359,14.886,5.582,5.582,0,0,1-1.147,6.76,13.187,13.187,0,0,0-4.361,9.813v4.819h71.668v-4.819c0-1.951-1.232-3.8-2.69-5.472a5.326,5.326,0,0,1-.362-6.462,11.6,11.6,0,0,0,1.94-6.44" transform="translate(-183.518 -527.985)" fill="#9ad5c6"/>
        <path id="Trazado_153670" data-name="Trazado 153670" d="M1013.722,497.759a12.382,12.382,0,0,0-5.849-10.525,5.447,5.447,0,0,1-2.483-5.729,9.271,9.271,0,0,0-7.04-10.976,2.225,2.225,0,0,1-1.731-2.385,6.453,6.453,0,0,0,.012-1.367c-.332-2.56-1.776-3.957-3.856-5.1a2.66,2.66,0,0,1-1.292-3,8.2,8.2,0,0,0,.251-1.824c.126-4.72-2.417-6.664-4.184-7.539a3.373,3.373,0,0,1-1.744-2.145,5.665,5.665,0,0,0-11.1.867c0,.021,0,.042-.006.064a1.733,1.733,0,0,1-1.82,1.566,7.063,7.063,0,0,0-7.316,8.155,3.018,3.018,0,0,1-1.363,3.031,10.424,10.424,0,0,0-4.238,5.264,2.8,2.8,0,0,1-1.883,1.734,9.2,9.2,0,0,0-6.142,12.088,3.058,3.058,0,0,1-1.7,3.908,11.4,11.4,0,0,0-5.7,15.831,5.936,5.936,0,0,1-1.22,7.189c-2.848,2.573-8.9,10.18-2.324,17.966,6.714,7.953,3.539,25.379,3.539,25.379h68.048L1014.9,517.3c0-2.075-1.311-4.046-2.861-5.819a5.665,5.665,0,0,1-.385-6.873,12.332,12.332,0,0,0,2.063-6.849" transform="translate(-790.591 -415.032)" fill="#9ad5c6"/>
        <path id="Trazado_153671" data-name="Trazado 153671" d="M463.544,505.222v2.406a8.241,8.241,0,0,0-5.836,14.058l-1.706,1.7a10.648,10.648,0,0,1,7.542-18.164" transform="translate(-413.332 -463.424)" fill="#f9d4d3"/>
        <path id="Trazado_153672" data-name="Trazado 153672" d="M485.051,515.869a10.648,10.648,0,0,1-18.189,7.517l1.706-1.7a8.24,8.24,0,1,0,5.836-14.058v-2.406a10.647,10.647,0,0,1,10.647,10.647" transform="translate(-424.192 -463.424)" fill="#e85f5b"/>
        <path id="Trazado_153673" data-name="Trazado 153673" d="M480.2,524.282a8.24,8.24,0,1,1-8.24-8.24,8.241,8.241,0,0,1,8.24,8.24" transform="translate(-421.749 -471.838)" fill="#fff"/>
        <path id="Trazado_153674" data-name="Trazado 153674" d="M582.369,522.214a10.647,10.647,0,1,1-8.55-16.992v11.031l6.618,4.526Z" transform="translate(-499.082 -463.424)" fill="#b3dfd4"/>
        <path id="Trazado_153675" data-name="Trazado 153675" d="M621.7,515.869a10.6,10.6,0,0,1-2.1,6.345l-1.933-1.434-6.618-4.526V505.222A10.647,10.647,0,0,1,621.7,515.869" transform="translate(-536.313 -463.424)" fill="#41b093"/>
        <path id="Trazado_153676" data-name="Trazado 153676" d="M592.66,527.342a7.366,7.366,0,1,1-7.366-7.366,7.331,7.331,0,0,1,7.366,7.366" transform="translate(-510.558 -474.897)" fill="#fff"/>
        <path id="Trazado_153677" data-name="Trazado 153677" d="M413.711,424.247a.449.449,0,0,1-.364-.713L426.38,405.5a.45.45,0,0,1,.668-.068l9.434,8.655,6.214-9.637a.449.449,0,0,1,.536-.177l8.308,3.122,9.213-10.616a.449.449,0,1,1,.679.589l-9.418,10.852a.45.45,0,0,1-.5.126l-8.261-3.105-6.306,9.78a.45.45,0,0,1-.682.088l-9.454-8.674-12.737,17.621a.45.45,0,0,1-.365.186" transform="translate(-382.511 -378.981)" fill="#184657"/>
        <path id="Trazado_153678" data-name="Trazado 153678" d="M664.068,413.74a.636.636,0,1,1-.636-.636.636.636,0,0,1,.636.636m8.463-.636a.636.636,0,1,0,.636.636.636.636,0,0,0-.636-.636m9.1,0a.636.636,0,1,0,.636.636.636.636,0,0,0-.636-.636m-18.2,7.381a.636.636,0,1,0,.636.636.636.636,0,0,0-.636-.636m9.1,0a.636.636,0,1,0,.636.636.636.636,0,0,0-.636-.636m9.1,0a.636.636,0,1,0,.636.636.636.636,0,0,0-.636-.636m-18.2,7.381a.636.636,0,1,0,.636.636.636.636,0,0,0-.636-.636m9.1,0a.636.636,0,1,0,.636.636.636.636,0,0,0-.636-.636m9.1,0a.636.636,0,1,0,.636.636.636.636,0,0,0-.636-.636" transform="translate(-576.552 -391.792)" fill="#035e80"/>
        <path id="Trazado_153679" data-name="Trazado 153679" d="M739.056,453.085l12.45-28.121,3.822,3.822,4.15-6.007,6.443,2.4,7.645-11.467,3.713,3.713,3.9-5.679,2.876,1.529v39.971l-44.994-.164" transform="translate(-635.852 -390.738)" fill="#3a829c"/>
        <path id="Trazado_153680" data-name="Trazado 153680" d="M739.056,513.036l11.393-16.873,7.161-2.075,5.1,2.184,12.044-7.426,9.332,6.553v17.637Z" transform="translate(-635.852 -450.69)" fill="#fcc14a"/>
        <rect id="Rectángulo_8051" data-name="Rectángulo 8051" width="50.819" height="2.184" transform="translate(102.075 62.001)" fill="#498ba3"/>
        <rect id="Rectángulo_8052" data-name="Rectángulo 8052" width="7.225" height="13.651" transform="translate(70.569 104.746)" fill="#ef7e68"/>
        <rect id="Rectángulo_8053" data-name="Rectángulo 8053" width="7.225" height="14.989" transform="translate(77.794 103.408)" fill="#fcc14a"/>
        <rect id="Rectángulo_8054" data-name="Rectángulo 8054" width="7.225" height="22.006" transform="translate(85.019 96.391)" fill="#58b9a0"/>
        <rect id="Rectángulo_8055" data-name="Rectángulo 8055" width="7.225" height="27.036" transform="translate(92.244 91.362)" fill="#ed6d53"/>
        <rect id="Rectángulo_8056" data-name="Rectángulo 8056" width="7.225" height="33.2" transform="translate(99.47 85.307)" fill="#72c0d1"/>
        <rect id="Rectángulo_8057" data-name="Rectángulo 8057" width="7.225" height="38.459" transform="translate(106.695 79.938)" fill="#41b093"/>
        <rect id="Rectángulo_8058" data-name="Rectángulo 8058" width="46.963" height="2.513" transform="translate(69.914 117.141)" fill="#498ba3"/>
        <path id="Trazado_153681" data-name="Trazado 153681" d="M590.114,726.276a.628.628,0,0,1-.628-.628V690.81a.628.628,0,0,1,1.256,0v34.838a.628.628,0,0,1-.628.628" transform="translate(-519.545 -607.251)" fill="#498ba3"/>
      </g>
    </g>
    <g id="Grupo_87933" data-name="Grupo 87933" transform="translate(0 0)">
      <g id="Grupo_87932" data-name="Grupo 87932" clip-path="url(#clip-path-2)">
        <path id="Trazado_153682" data-name="Trazado 153682" d="M469.641,452.536H274.519V317.505H469.641Zm-194.364-.758H468.883V318.264H275.277Z" transform="translate(-213.469 -246.895)"/>
        <path id="Trazado_153683" data-name="Trazado 153683" d="M900.064,85.788c-.469-1.741-.221-11.472-.221-11.472l-7.631.282s-.09,9.605-.291,11.142-2.826,2.151-5.911,3.721a8.331,8.331,0,0,0-1.315,1.073c.5,1.117,10.771,4.864,11.5,5.828.8,1.059,8.439-4.582,9.327-7.027-3.589-1.971-5.019-1.913-5.46-3.547" transform="translate(-687.947 -57.788)" fill="#f29d7e"/>
        <g id="Grupo_87852" data-name="Grupo 87852" transform="translate(203.692 16.528)" style="mix-blend-mode: multiply;isolation: isolate">
          <g id="Grupo_87851" data-name="Grupo 87851">
            <g id="Grupo_87850" data-name="Grupo 87850" clip-path="url(#clip-path-5)">
              <g id="Grupo_87849" data-name="Grupo 87849" transform="translate(0 0)">
                <g id="Grupo_87848" data-name="Grupo 87848" clip-path="url(#clip-path-6)">
                  <rect id="Rectángulo_8060" data-name="Rectángulo 8060" width="12.627" height="9.31" transform="matrix(0.062, -0.998, 0.998, 0.062, -0.754, 12.07)" fill="url(#linear-gradient)"/>
                </g>
              </g>
            </g>
          </g>
        </g>
        <g id="Grupo_87855" data-name="Grupo 87855" transform="translate(204.373 16.357)" opacity="0.61" style="mix-blend-mode: multiply;isolation: isolate">
          <g id="Grupo_87854" data-name="Grupo 87854">
            <g id="Grupo_87853" data-name="Grupo 87853" clip-path="url(#clip-path-7)">
              <path id="Trazado_153685" data-name="Trazado 153685" d="M926.118,73.548l-7.05.26s-.027,2.255-.084,4.986c.542,1.279,1.628,3.323,3.52,3.293,2.172-.035,2.855-1.927,3.538-3.047-.022-2.877.076-5.491.076-5.491" transform="translate(-918.984 -73.548)" fill="#cbc7ff"/>
            </g>
          </g>
        </g>
        <path id="Trazado_153686" data-name="Trazado 153686" d="M909.893,65.3a2.478,2.478,0,1,1-2.3-2.646,2.478,2.478,0,0,1,2.3,2.646" transform="translate(-703.692 -48.712)" fill="#f29d7e"/>
        <path id="Trazado_153687" data-name="Trazado 153687" d="M912.823,69.314a1.306,1.306,0,1,1-1.211-1.394,1.306,1.306,0,0,1,1.211,1.394" transform="translate(-707.792 -52.812)" fill="#ed6d53"/>
        <path id="Trazado_153688" data-name="Trazado 153688" d="M906.228,15.771c-1.132-.991-1.394-4.564.679-6,.755-.523,1.784-.7,2-1.454A3.21,3.21,0,0,1,913.153,6.6c2.1,1.049,3.117.242,4.324-.984,1.3-1.317,2.107-2.709,5.683-2.083s4.629.2,5.3-1.5,3.946-3.087,6.98-.969,4,3.78,6.048,3.019,4.118-1.937,5.93-.034.323,5.608-2.048,5.565-1.187,2.778-.551,4.475-1.123,4.281-4.113,3.244-3.655-.174-4.627,1.382-3.525,1.482-4.764.565-2.743-1.647-4.52-.559-2.364,1.778-4.449.9-2.5-.562-3.682.07-3.561-.266-3.561-.266Z" transform="translate(-704.018 0.002)" fill="#e85f5b"/>
        <g id="Grupo_87858" data-name="Grupo 87858" transform="translate(207.998 10.878)" opacity="0.71" style="mix-blend-mode: multiply;isolation: isolate">
          <g id="Grupo_87857" data-name="Grupo 87857">
            <g id="Grupo_87856" data-name="Grupo 87856" clip-path="url(#clip-path-8)">
              <path id="Trazado_153689" data-name="Trazado 153689" d="M935.436,54.912l-.153-1.827,6.956.444c2.787-1.623,3.448-1.607,5.649-1.035s1.911-2.029,4.223-2.805,2.759,1.292,4.885,1.229,1.5-2.163,4.206-2c2.557.154,2.865,2.076,6.447,2.023.145.422.3.831.438,1.19.635,1.7-1.123,4.281-4.113,3.244s-3.655-.174-4.627,1.382-3.525,1.482-4.764.565-2.743-1.647-4.52-.559-2.364,1.778-4.449.9-2.417-.672-3.6-.04-3.5.072-3.5.072Z" transform="translate(-935.283 -48.91)" fill="#e1deff"/>
            </g>
          </g>
        </g>
        <path id="Trazado_153690" data-name="Trazado 153690" d="M944.208,65.3a2.478,2.478,0,1,0,2.3-2.646,2.478,2.478,0,0,0-2.3,2.646" transform="translate(-734.221 -48.712)" fill="#f29d7e"/>
        <path id="Trazado_153691" data-name="Trazado 153691" d="M949.477,69.314a1.306,1.306,0,1,0,1.211-1.394,1.306,1.306,0,0,0-1.211,1.394" transform="translate(-738.32 -52.812)" fill="#ed6d53"/>
        <path id="Trazado_153692" data-name="Trazado 153692" d="M914.461,55.361c.244,3.484,1.454,6,4.991,5.946,2.216-.034,4.091-2.481,4.069-5.974-.022-3.662-.784-6.6-4.926-6.6-4.014,0-4.379,3.146-4.135,6.631" transform="translate(-711.048 -37.892)" fill="#f29d7e"/>
        <path id="Trazado_153693" data-name="Trazado 153693" d="M942.151,83.233a1.086,1.086,0,1,0,1.007-1.159,1.086,1.086,0,0,0-1.007,1.159" transform="translate(-732.624 -63.819)" fill="#ed6d53"/>
        <path id="Trazado_153694" data-name="Trazado 153694" d="M917.861,83.131a1.086,1.086,0,1,0,1.007-1.159,1.086,1.086,0,0,0-1.007,1.159" transform="translate(-713.736 -63.739)" fill="#ed6d53"/>
        <path id="Trazado_153695" data-name="Trazado 153695" d="M932.168,78.332,931.319,80a.3.3,0,0,0,.262.433l1.007.013Z" transform="translate(-724.177 -60.911)" fill="#ed6d53"/>
        <g id="Grupo_87861" data-name="Grupo 87861" transform="translate(203.528 11.148)" opacity="0.58" style="mix-blend-mode: multiply;isolation: isolate">
          <g id="Grupo_87860" data-name="Grupo 87860">
            <g id="Grupo_87859" data-name="Grupo 87859" clip-path="url(#clip-path-9)">
              <path id="Trazado_153696" data-name="Trazado 153696" d="M926.518,56.006a3.7,3.7,0,0,1-3.9-.437c-.932-.536-.813-3.081-2.184-3.508s-1.709.66-3.183.282c-1.719-.441-2.063.592-2.063.592s-.049-1.282,2.489-2.19,5.434-.921,6.932.648c.491.514.475,1.3,1.025,1.795a2.85,2.85,0,0,1,.888,2.818" transform="translate(-915.185 -50.124)" fill="#cbc7ff"/>
            </g>
          </g>
        </g>
        <g id="Grupo_87864" data-name="Grupo 87864" transform="translate(208.749 15.65)" style="mix-blend-mode: multiply;isolation: isolate">
          <g id="Grupo_87863" data-name="Grupo 87863">
            <g id="Grupo_87862" data-name="Grupo 87862" clip-path="url(#clip-path-10)">
              <path id="Trazado_153697" data-name="Trazado 153697" d="M941.477,70.95c-.12-.018-.234-.046-.349-.07s-.229-.044-.343-.058a4.7,4.7,0,0,0-.678-.051,3.541,3.541,0,0,0-.666.069,2.988,2.988,0,0,0-.639.207l-.013.006a.092.092,0,0,1-.106-.147,1.633,1.633,0,0,1,.66-.408,2.4,2.4,0,0,1,.761-.129,2.8,2.8,0,0,1,.755.108,3.485,3.485,0,0,1,.355.127c.113.054.224.112.331.176a.093.093,0,0,1-.061.172Z" transform="translate(-938.659 -70.369)" fill="#c3b9dd"/>
            </g>
          </g>
        </g>
        <g id="Grupo_87867" data-name="Grupo 87867" transform="translate(209.489 17.329)" style="mix-blend-mode: multiply;isolation: isolate">
          <g id="Grupo_87866" data-name="Grupo 87866">
            <g id="Grupo_87865" data-name="Grupo 87865" clip-path="url(#clip-path-11)">
              <path id="Trazado_153698" data-name="Trazado 153698" d="M942.065,78.009c.151.029.3.059.441.079a2.881,2.881,0,0,0,.431.029,2.227,2.227,0,0,0,.422-.05,1.9,1.9,0,0,0,.4-.138l.009,0a.061.061,0,0,1,.072.1,1.265,1.265,0,0,1-.9.363,1.73,1.73,0,0,1-.485-.066,2.069,2.069,0,0,1-.228-.082c-.072-.037-.143-.072-.211-.114a.062.062,0,0,1,.044-.114Z" transform="translate(-941.989 -77.919)" fill="#1a1a1a"/>
            </g>
          </g>
        </g>
        <g id="Grupo_87870" data-name="Grupo 87870" transform="translate(204.635 17.329)" style="mix-blend-mode: multiply;isolation: isolate">
          <g id="Grupo_87869" data-name="Grupo 87869">
            <g id="Grupo_87868" data-name="Grupo 87868" clip-path="url(#clip-path-11)">
              <path id="Trazado_153699" data-name="Trazado 153699" d="M920.24,78.009c.151.029.3.059.441.079a2.883,2.883,0,0,0,.431.029,2.228,2.228,0,0,0,.422-.05,1.907,1.907,0,0,0,.4-.138l.009,0a.061.061,0,0,1,.072.1,1.266,1.266,0,0,1-.9.363,1.729,1.729,0,0,1-.485-.066,2.065,2.065,0,0,1-.228-.082c-.072-.037-.143-.072-.211-.114a.062.062,0,0,1,.044-.114Z" transform="translate(-920.163 -77.919)" fill="#1a1a1a"/>
            </g>
          </g>
        </g>
        <g id="Grupo_87873" data-name="Grupo 87873" transform="translate(204.406 15.61)" style="mix-blend-mode: multiply;isolation: isolate">
          <g id="Grupo_87872" data-name="Grupo 87872">
            <g id="Grupo_87871" data-name="Grupo 87871" clip-path="url(#clip-path-13)">
              <path id="Trazado_153700" data-name="Trazado 153700" d="M921.619,70.745c-.106-.012-.207-.035-.308-.054s-.2-.035-.3-.048a4.8,4.8,0,0,0-.593-.049,3.466,3.466,0,0,0-.582.041,2.908,2.908,0,0,0-.564.151l-.015.006a.092.092,0,0,1-.1-.15,1.41,1.41,0,0,1,.592-.352,2.127,2.127,0,0,1,.674-.1,2.512,2.512,0,0,1,.664.106,3.224,3.224,0,0,1,.311.116c.1.049.2.1.289.159a.093.093,0,0,1-.06.172Z" transform="translate(-919.13 -70.193)" fill="#c3b9dd"/>
            </g>
          </g>
        </g>
        <path id="Trazado_153701" data-name="Trazado 153701" d="M929.937,91.793c-.005.165.571.317,1.264.3s1.236-.149,1.245-.351c.01-.241-.563.04-1.256.054s-1.245-.256-1.253-.006" transform="translate(-723.128 -71.266)" fill="#ed6d53"/>
        <path id="Trazado_153702" data-name="Trazado 153702" d="M912.954,84.716a.123.123,0,0,1-.123-.123V81.958a.123.123,0,1,1,.245,0v2.635a.123.123,0,0,1-.123.123" transform="translate(-709.826 -63.635)" fill="#1b4e61"/>
        <path id="Trazado_153703" data-name="Trazado 153703" d="M956.332,85.218a.123.123,0,0,1-.123-.123V82.46a.123.123,0,1,1,.245,0v2.635a.123.123,0,0,1-.123.123" transform="translate(-743.558 -64.026)" fill="#1b4e61"/>
        <path id="Trazado_153704" data-name="Trazado 153704" d="M926.13,50.434c-2.009.814-2.8,1.049-3.729.513s-.813-3.081-2.184-3.508-1.685.816-3.195.639a2.919,2.919,0,0,0-2.343.521,2.881,2.881,0,0,1,2.006-3.308c2.538-.908,6.209-.088,7.707,1.481a7.047,7.047,0,0,1,1.737,3.663" transform="translate(-711.227 -34.924)" fill="#e85f5b"/>
        <path id="Trazado_153705" data-name="Trazado 153705" d="M879.519,250.3c-4.638,0-5.837-4.9-4.837-9.934,1.172-5.9,7.064-8.721,12.545-8.721s11.2,3.378,12.753,9.176c1.208,4.505-.407,9.479-5.045,9.479Z" transform="translate(-679.906 -180.129)" fill="#035e80"/>
        <g id="Grupo_87876" data-name="Grupo 87876" transform="translate(197.43 61.526)" style="mix-blend-mode: multiply;isolation: isolate">
          <g id="Grupo_87875" data-name="Grupo 87875">
            <g id="Grupo_87874" data-name="Grupo 87874" clip-path="url(#clip-path-14)">
              <path id="Trazado_153706" data-name="Trazado 153706" d="M904.563,285H889.632a1.872,1.872,0,0,1-1.867-1.867v-4.609a1.872,1.872,0,0,1,1.867-1.867h14.932a1.872,1.872,0,0,1,1.866,1.867v4.609A1.872,1.872,0,0,1,904.563,285" transform="translate(-887.765 -276.656)" fill="#cbc7ff"/>
            </g>
          </g>
        </g>
        <path id="Trazado_153707" data-name="Trazado 153707" d="M881.23,132.493s-4.651,1.694-6.294,3.413a15.638,15.638,0,0,0-1.946,2.376l4.752,15.445h16.886l5.915-15.47a11.087,11.087,0,0,0-4.171-3.918,38.631,38.631,0,0,0-4.019-1.921s-4.12,5.03-5.182,5.081-5.94-5-5.94-5" transform="translate(-678.846 -102.968)" fill="#e289a9"/>
        <path id="Trazado_153708" data-name="Trazado 153708" d="M914.756,137.952c1.281.023,4.94-4.648,5.509-5.385a2.316,2.316,0,0,1-.327-.151s-4.12,5.03-5.182,5.081-5.94-5.005-5.94-5.005-.13.048-.351.133c.534.572,4.985,5.3,6.291,5.327" transform="translate(-706.431 -102.968)" fill="#faf8dc"/>
        <path id="Trazado_153709" data-name="Trazado 153709" d="M848.628,158.9c.709,2.73,3.388,3.033,3.842,6.572a102.24,102.24,0,0,0-4.7,10.718s9.049.455,12.69,1.567l-.1,4.3H845.594c-3.236,0-4.785-2.2-3.741-7.179a50.7,50.7,0,0,1,6.774-15.976" transform="translate(-654.382 -123.562)" fill="#f29d7e"/>
        <path id="Trazado_153710" data-name="Trazado 153710" d="M955.136,158.9c-.232,2.781-4.594,4.714-3.842,6.572,1.719,4.247,4.418,10.819,4.418,10.819s-8.958-.253-12.295.809v4.954h14.752c3.236,0,4.825-2.432,3.659-7.381-1.143-4.853-3.438-11.223-6.693-15.773" transform="translate(-733.61 -123.562)" fill="#f29d7e"/>
        <path id="Trazado_153711" data-name="Trazado 153711" d="M880.973,279.676c3.629-.544,5.07,2.957,6.4,8.472s4.8,20.278,6.537,25.348c1.6,4.667-.267,3.2-1.067,5.737-.743,2.352-1.95,4.108-3.736,4.2-1.267.066-.022-3.8,1.4-6.737-.2-2.735-3.068-8.071-7.538-17.743-4.4-9.521-4.491-11.029-4.758-14.23s1.423-4.847,2.757-5.047" transform="translate(-682.888 -217.435)" fill="#f29d7e"/>
        <path id="Trazado_153712" data-name="Trazado 153712" d="M887.337,288.843a1.551,1.551,0,1,0,1.551-1.551,1.551,1.551,0,0,0-1.551,1.551" transform="translate(-690.002 -223.401)" fill="#ed6d53"/>
        <path id="Trazado_153713" data-name="Trazado 153713" d="M843.175,248.949a1.753,1.753,0,0,0-.92.261,3.337,3.337,0,0,0,2.273,2.633,1.763,1.763,0,0,0-1.352-2.894" transform="translate(-654.946 -193.585)" fill="#ed6d53"/>
        <path id="Trazado_153714" data-name="Trazado 153714" d="M1017.187,249.949a1.761,1.761,0,0,0-2.432,2.483,3.389,3.389,0,0,0,2.432-2.483" transform="translate(-788.819 -194.115)" fill="#ed6d53"/>
        <path id="Trazado_153715" data-name="Trazado 153715" d="M911.469,279.27c3.4,0,3.335,6.737,3.135,10.339a114.608,114.608,0,0,1-5,22.613c-2.668,7.671-3.068,8.938-3.135,11.139s-2.535,2.6-4.2,2.535-1.668-.467.067-5.2,3.935-18.077,4.336-25.948-1.334-15.475,4.8-15.475" transform="translate(-700.643 -217.163)" fill="#f6b7a0"/>
        <path id="Trazado_153716" data-name="Trazado 153716" d="M938.327,289.144a1.551,1.551,0,1,0,1.551-1.551,1.551,1.551,0,0,0-1.551,1.551" transform="translate(-729.652 -223.635)" fill="#ed6d53"/>
        <path id="Trazado_153717" data-name="Trazado 153717" d="M875.49,267c1.416-2.376,17.265-2.427,22.042-.3l-.3-6.749-20.323.379Z" transform="translate(-680.79 -202.138)" fill="#035e80"/>
        <path id="Trazado_153718" data-name="Trazado 153718" d="M897.282,204.352H875.288a1.389,1.389,0,0,1-1.389-1.389v-13.8a1.389,1.389,0,0,1,1.389-1.389h21.994a1.389,1.389,0,0,1,1.389,1.389v13.8a1.389,1.389,0,0,1-1.389,1.389" transform="translate(-679.553 -146.011)" fill="#fcfbeb"/>
        <path id="Trazado_153719" data-name="Trazado 153719" d="M898.67,205.716H873.9V190.523a1.389,1.389,0,0,1,1.389-1.389h21.994a1.389,1.389,0,0,1,1.389,1.389Z" transform="translate(-679.552 -147.072)" fill="#e6e5ce"/>
        <path id="Trazado_153720" data-name="Trazado 153720" d="M898.67,263.7H873.9v.481a.3.3,0,0,0,.3.3h24.169a.3.3,0,0,0,.3-.3Z" transform="translate(-679.552 -205.054)" fill="#184657"/>
        <path id="Trazado_153721" data-name="Trazado 153721" d="M923.712,218.588a2.174,2.174,0,1,1-2.174-2.174,2.174,2.174,0,0,1,2.174,2.174" transform="translate(-714.906 -168.285)" fill="#faf8dc"/>
        <path id="Trazado_153722" data-name="Trazado 153722" d="M1177.735,600.906a.8.8,0,0,1-.8-.8v-9.449a.8.8,0,1,1,1.6,0v9.449a.8.8,0,0,1-.8.8" transform="translate(-915.196 -458.677)" fill="#035e80"/>
        <g id="Grupo_87879" data-name="Grupo 87879" transform="translate(46.927 67.845)" opacity="0.25">
          <g id="Grupo_87878" data-name="Grupo 87878">
            <g id="Grupo_87877" data-name="Grupo 87877" clip-path="url(#clip-path-15)">
              <path id="Trazado_153723" data-name="Trazado 153723" d="M334.267,305.072H223.586a12.574,12.574,0,0,0-12.573,12.573V433.06a12.573,12.573,0,0,0,12.573,12.573h12.4Z" transform="translate(-211.013 -305.072)" fill="#fff"/>
            </g>
          </g>
        </g>
        <path id="Trazado_153724" data-name="Trazado 153724" d="M242.538,610.458a1.213,1.213,0,1,1-1.213-1.213,1.213,1.213,0,0,1,1.213,1.213" transform="translate(-186.713 -473.755)"/>
        <path id="Trazado_153725" data-name="Trazado 153725" d="M480.682,189.175a11.325,11.325,0,1,1-11.325-11.325,11.325,11.325,0,0,1,11.325,11.325" transform="translate(-356.17 -138.297)" fill="#fcc14a"/>
        <path id="Trazado_153726" data-name="Trazado 153726" d="M487.176,224.085a1.236,1.236,0,1,1-1.236-1.236,1.236,1.236,0,0,1,1.236,1.236" transform="translate(-376.911 -173.289)" fill="#fff"/>
        <path id="Trazado_153727" data-name="Trazado 153727" d="M506.3,224.085a1.236,1.236,0,1,1-1.236-1.236,1.236,1.236,0,0,1,1.236,1.236" transform="translate(-391.786 -173.289)" fill="#fff"/>
        <path id="Trazado_153728" data-name="Trazado 153728" d="M525.434,224.085a1.236,1.236,0,1,1-1.236-1.236,1.236,1.236,0,0,1,1.236,1.236" transform="translate(-406.66 -173.289)" fill="#fff"/>
        <path id="Trazado_153729" data-name="Trazado 153729" d="M718.934,189.175a11.325,11.325,0,1,1-11.325-11.325,11.325,11.325,0,0,1,11.325,11.325" transform="translate(-541.437 -138.297)" fill="#e289a9"/>
        <path id="Trazado_153730" data-name="Trazado 153730" d="M726.88,224.085a1.236,1.236,0,1,1-1.236-1.236,1.236,1.236,0,0,1,1.236,1.236" transform="translate(-563.307 -173.289)" fill="#fff"/>
        <path id="Trazado_153731" data-name="Trazado 153731" d="M746.008,224.085a1.236,1.236,0,1,1-1.236-1.236,1.236,1.236,0,0,1,1.236,1.236" transform="translate(-578.181 -173.289)" fill="#fff"/>
        <path id="Trazado_153732" data-name="Trazado 153732" d="M765.137,224.085a1.236,1.236,0,1,1-1.236-1.236,1.236,1.236,0,0,1,1.236,1.236" transform="translate(-593.056 -173.289)" fill="#fff"/>
        <path id="Trazado_153733" data-name="Trazado 153733" d="M600.858,203.813H585.39a2.27,2.27,0,0,1-2.264-2.264V186.081a2.27,2.27,0,0,1,2.264-2.264h15.468a2.271,2.271,0,0,1,2.264,2.264v15.468a2.27,2.27,0,0,1-2.264,2.264" transform="translate(-453.445 -142.938)" fill="#035e80"/>
        <rect id="Rectángulo_8071" data-name="Rectángulo 8071" width="10.066" height="1.118" transform="translate(134.436 48.244)" fill="#fff"/>
        <rect id="Rectángulo_8072" data-name="Rectángulo 8072" width="10.066" height="1.118" transform="translate(134.436 51.39)" fill="#fff"/>
        <path id="Trazado_153734" data-name="Trazado 153734" d="M876.809,867.783c-.342,1.853-1.89,9.513-1.916,11.106-.021,1.351-3.677.713-6.168.733-3.185.025-4.68.5-4.525-.632.1-.733,3.539-.606,5.981-4.039l1.308-6.7Z" transform="translate(-672.003 -674.796)" fill="#f29d7e"/>
        <path id="Trazado_153735" data-name="Trazado 153735" d="M872.166,908.241a21.119,21.119,0,0,1-3.735-.312,7.634,7.634,0,0,0-.869-1.64c-1.952,1.087-5.452,2.054-5.5,2.94-.035.584,1.641.534,5.647.425,2.489-.067,5,.435,5.437-.574a6.379,6.379,0,0,0,.272-1.039c-.456.057-.948.128-1.247.2" transform="translate(-670.344 -704.738)" fill="#faf8dc"/>
        <path id="Trazado_153736" data-name="Trazado 153736" d="M873.258,916.634c-.436,1.009-2.947.506-5.437.574-3.714.1-5.425.151-5.626-.308a.526.526,0,0,0-.138.3c-.035.584,1.641.533,5.647.425,2.489-.067,5,.436,5.437-.573a3.578,3.578,0,0,0,.155-.513c-.013.037-.026.071-.038.1" transform="translate(-670.344 -712.706)" fill="#41b093"/>
        <g id="Grupo_87882" data-name="Grupo 87882" transform="translate(191.713 192.987)" opacity="0.7" style="mix-blend-mode: multiply;isolation: isolate">
          <g id="Grupo_87881" data-name="Grupo 87881">
            <g id="Grupo_87880" data-name="Grupo 87880" clip-path="url(#clip-path-16)">
              <path id="Trazado_153737" data-name="Trazado 153737" d="M873.3,878.114c.3-2.507,1.547-8.691,1.85-10.33l-5.319.469-1.308,6.7a8.5,8.5,0,0,1-1.65,1.747c-1.741.828-4.09,1.586-4.677,2.293a.8.8,0,0,0-.054.072l0,.007a.608.608,0,0,0-.037.065c0,.008-.007.017-.01.025a.447.447,0,0,0-.018.049.359.359,0,0,0-.014.077c-.035.584,1.642.534,5.647.425,2.188-.059,4.393.322,5.191-.271a.634.634,0,0,0,.34-.552c0-.01,0-.021,0-.032s.048-.179.061-.232c.038-.153.076-.329.116-.526l-.112.014" transform="translate(-862.057 -867.784)" fill="#cbc7ff"/>
            </g>
          </g>
        </g>
        <path id="Trazado_153738" data-name="Trazado 153738" d="M1004.641,719.344c-2.721,3.469-8.569,14.332-8.569,14.332s-8.114-14.56-9.934-17.9-2.376-3.16-2.376-3.16a3.135,3.135,0,0,0-.758,4.045,37.43,37.43,0,0,1,1.365,4.247c.657,2.174,4.474,18.857,11.248,19.818s15.362-12.743,17.012-15.217c3.438-5.156-3.488-11.906-7.988-6.168" transform="translate(-764.078 -554.139)" fill="#f29d7e"/>
        <g id="Grupo_87885" data-name="Grupo 87885" transform="translate(218.52 158.48)" opacity="0.7" style="mix-blend-mode: multiply;isolation: isolate">
          <g id="Grupo_87884" data-name="Grupo 87884">
            <g id="Grupo_87883" data-name="Grupo 87883" clip-path="url(#clip-path-17)">
              <path id="Trazado_153739" data-name="Trazado 153739" d="M1004.641,719.344c-2.721,3.469-8.569,14.332-8.569,14.332s-8.114-14.56-9.934-17.9-2.376-3.16-2.376-3.16a3.135,3.135,0,0,0-.758,4.045,37.43,37.43,0,0,1,1.365,4.247c.657,2.174,4.474,18.857,11.248,19.818s15.362-12.743,17.012-15.217c3.438-5.156-3.488-11.906-7.988-6.168" transform="translate(-982.598 -712.619)" fill="#cbc7ff"/>
            </g>
          </g>
        </g>
        <path id="Trazado_153740" data-name="Trazado 153740" d="M1067.838,655c-2.578,2.578-7.187,1.729-8.114,1.138-1.669-1.064-1.82-1.593-2.389-3.3,3.185-2.541,3.5-2.211,3.511-3.756.013-1.707-2.434-10.182-2.434-10.182l7.055-1.568s2.273,8.4,2.825,9.758c.334.822,2.238,2.146,3.072,3.093-.688,2.076-1.983,3.272-3.526,4.815" transform="translate(-822.194 -495.597)" fill="#f29d7e"/>
        <g id="Grupo_87890" data-name="Grupo 87890" transform="translate(236.216 141.737)" style="mix-blend-mode: multiply;isolation: isolate">
          <g id="Grupo_87889" data-name="Grupo 87889">
            <g id="Grupo_87888" data-name="Grupo 87888" clip-path="url(#clip-path-18)">
              <g id="Grupo_87887" data-name="Grupo 87887" transform="translate(0.001)">
                <g id="Grupo_87886" data-name="Grupo 87886" clip-path="url(#clip-path-19)">
                  <rect id="Rectángulo_8075" data-name="Rectángulo 8075" width="13.592" height="14.78" transform="matrix(0.95, -0.313, 0.313, 0.95, -3.613, 1.189)" fill="url(#linear-gradient-2)"/>
                </g>
              </g>
            </g>
          </g>
        </g>
        <g id="Grupo_87893" data-name="Grupo 87893" transform="translate(236.216 142.161)" opacity="0.58" style="mix-blend-mode: multiply;isolation: isolate">
          <g id="Grupo_87892" data-name="Grupo 87892">
            <g id="Grupo_87891" data-name="Grupo 87891" clip-path="url(#clip-path-20)">
              <path id="Trazado_153742" data-name="Trazado 153742" d="M1064.529,645.866a5.163,5.163,0,0,1-.86.138c-.745-2.91-1.5-5.619-1.5-5.619l5.043-1.144c.551,3.213-.309,6.07-2.687,6.625" transform="translate(-1062.172 -639.241)" fill="#cbc7ff"/>
            </g>
          </g>
        </g>
        <path id="Trazado_153743" data-name="Trazado 153743" d="M1045.1,614.412c.794,3.405,2.71,5.908,5.97,5.108,2.5-.584,3.887-3.818,3.093-7.223s-2.293-5.966-5.97-5.108c-4.049.944-3.887,3.818-3.092,7.223" transform="translate(-812.332 -472.026)" fill="#f29d7e"/>
        <path id="Trazado_153744" data-name="Trazado 153744" d="M1085.367,604.19c1.163,1.517,2.907,3.033.329,7.811l-2.5-.253.505-5.435Z" transform="translate(-842.302 -469.824)" fill="#1b4e61"/>
        <path id="Trazado_153745" data-name="Trazado 153745" d="M1052.644,632.484a.35.35,0,1,0,.261-.421.35.35,0,0,0-.261.421" transform="translate(-818.539 -491.492)"/>
        <path id="Trazado_153746" data-name="Trazado 153746" d="M1076.3,626.189a2.481,2.481,0,0,0-1.128-4.832Z" transform="translate(-836.063 -483.122)" fill="#ed6d53"/>
        <path id="Trazado_153747" data-name="Trazado 153747" d="M1076.963,629.151a1.307,1.307,0,1,0-.594-2.546Z" transform="translate(-836.995 -487.227)" fill="#bd422a"/>
        <path id="Trazado_153748" data-name="Trazado 153748" d="M1056.29,637.226a1.087,1.087,0,1,0,.812-1.305,1.087,1.087,0,0,0-.812,1.305" transform="translate(-821.359 -494.475)" fill="#ed6d53"/>
        <path id="Trazado_153749" data-name="Trazado 153749" d="M1043.607,634.117l-1.023,2.308a.4.4,0,0,0,.385.566l1.36-.056Z" transform="translate(-810.696 -493.095)" fill="#ed6d53"/>
        <path id="Trazado_153750" data-name="Trazado 153750" d="M1072.907,624.284l.476,1.891-.66.193a13.774,13.774,0,0,0-.595-1.961Z" transform="translate(-833.697 -485.449)" fill="#1b4e61"/>
        <path id="Trazado_153751" data-name="Trazado 153751" d="M1043.035,590.053c-.99-.509-1.416-2.477.96-4.07a8.1,8.1,0,0,1,5.915-1.39,7.3,7.3,0,0,1,2.679,1.112,2.51,2.51,0,0,1-.455-1.795c.285-1.993,3.3-2.524,4.525-1.34s1.719,3.286-.025,4.6c-.78.588-2.553.025-3.109-.278.01.441.783,1.112.758,2.781-.042,2.813-4.006,2.416-5.03,2.225-1.365-.256-2.255-1.609-3.134-3.362,0,0-1.184-.21-3.084,1.517" transform="translate(-810.46 -452.527)" fill="#1b4e61"/>
        <path id="Trazado_153752" data-name="Trazado 153752" d="M1050.686,626.685c-.183.074-.367.131-.547.186l-.535.162c-.176.055-.351.108-.524.168-.086.03-.173.059-.258.092l-.27.1-.022.008a.1.1,0,0,1-.037,0,.111.111,0,0,1-.082-.042.1.1,0,1,1,.166-.127.1.1,0,0,0-.077-.041.147.147,0,0,0-.033,0l-.013,0s0,0,0,0l.009-.011.024-.028.054-.055c.037-.037.077-.07.116-.1a2.075,2.075,0,0,1,.256-.172,2.68,2.68,0,0,1,.56-.238,2.987,2.987,0,0,1,1.187-.117.108.108,0,0,1,.028.207" transform="translate(-815.238 -487.141)" fill="#035e80"/>
        <path id="Trazado_153753" data-name="Trazado 153753" d="M1049.133,636.16s-.3,4.519,1.315,4.7c2.452.278,4.807-1.446,5.64-2.041.751-.537-.2-4.26-.2-4.26l-.4-1.772-.66.193s.2,2.345-1.521,2.9c-.591.191-2.4-.43-4.171.278" transform="translate(-815.8 -492.062)" fill="#1b4e61"/>
        <path id="Trazado_153754" data-name="Trazado 153754" d="M1049.4,650.4a2.43,2.43,0,0,1-.287.047c0,.2,0,.422.014.661a1.672,1.672,0,0,0,.436-.044c.556-.129.945-.5.87-.819s-.477.025-1.032.155" transform="translate(-815.801 -505.533)" fill="#fff"/>
        <path id="Trazado_153755" data-name="Trazado 153755" d="M919.165,777.786c-3.1-4.568-10.855-17.532-19.653-16.636-9.309.948-11.895,30.944-11.895,30.944l7.025.3,6.422-20.989,14.653,20.342,10.085-3.879Z" transform="translate(-690.22 -591.843)" fill="#e85f5b"/>
        <g id="Grupo_87896" data-name="Grupo 87896" transform="translate(197.397 169.263)" style="mix-blend-mode: multiply;isolation: isolate">
          <g id="Grupo_87895" data-name="Grupo 87895">
            <g id="Grupo_87894" data-name="Grupo 87894" clip-path="url(#clip-path-21)">
              <path id="Trazado_153756" data-name="Trazado 153756" d="M919.165,777.786c-3.1-4.568-10.855-17.532-19.653-16.636-9.309.948-11.895,30.944-11.895,30.944l7.025.3,6.422-20.989,14.653,20.342,10.085-3.879Z" transform="translate(-887.617 -761.106)" fill="#cbc7ff"/>
            </g>
          </g>
        </g>
        <g id="Grupo_87899" data-name="Grupo 87899" transform="translate(202.041 173.849)" opacity="0.16">
          <g id="Grupo_87898" data-name="Grupo 87898">
            <g id="Grupo_87897" data-name="Grupo 87897" clip-path="url(#clip-path-22)">
              <path id="Trazado_153757" data-name="Trazado 153757" d="M916.759,781.73c-5,.154-8.129,20.423-8.26,21.286l.3.046c.008-.052.812-5.306,2.206-10.507,1.829-6.823,3.822-10.461,5.763-10.521h.063c4.8,0,14.415,16.517,14.513,16.684l.262-.152c-.4-.694-9.888-16.99-14.847-16.835" transform="translate(-908.499 -781.729)"/>
            </g>
          </g>
        </g>
        <path id="Trazado_153758" data-name="Trazado 153758" d="M717.951,882.652c-1.86.3-10.127,1.613-11.386,1.447-1.09-.144-1.293-2.7-2.038-5.073-1.2-3.823-1.706-5.422-1.135-5.548,1.113-.246,3.908,4.94,5.573,5.359l6.746-1.033Z" transform="translate(-546.782 -679.218)" fill="#f29d7e"/>
        <path id="Trazado_153759" data-name="Trazado 153759" d="M833.967,821.516c-2.241,5-5.172,16.895-15.946,17.5s-22.756-2.414-31.375-2.241-32.237,2.413-32.237,2.413a24.07,24.07,0,0,1-.776-4.4,16.9,16.9,0,0,1,0-3.44s21.719-4.059,33.356-4.749,30.082.948,30.082.948l-6.551-1.9,5.344-10.085Z" transform="translate(-585.973 -634.193)" fill="#e85f5b"/>
        <g id="Grupo_87902" data-name="Grupo 87902" transform="translate(167.649 188.308)" opacity="0.18">
          <g id="Grupo_87901" data-name="Grupo 87901">
            <g id="Grupo_87900" data-name="Grupo 87900" clip-path="url(#clip-path-23)">
              <path id="Trazado_153760" data-name="Trazado 153760" d="M823,853.272a6.046,6.046,0,0,1-2.026-1.853c-1.086-1.484-.547-4.592-.542-4.623l-.3-.053c-.024.133-.567,3.267.6,4.856a6.391,6.391,0,0,0,2.08,1.918,12,12,0,0,1-4.694,3.755c-3.653,1.488-9.916.736-17.168-.135-3.522-.423-7.163-.86-10.874-1.09-8.775-.543-19.171.753-28.344,1.9-2.79.348-5.426.677-7.876.937,0,.05.007.1.01.151l.016.151c2.454-.26,5.093-.589,7.887-.938,9.159-1.142,19.54-2.437,28.287-1.895,3.7.229,7.339.666,10.857,1.088,7.294.876,13.594,1.632,17.319.114,5.46-2.224,8.148-9.721,8.175-9.8l-.286-.1A23.032,23.032,0,0,1,823,853.272" transform="translate(-753.852 -846.743)"/>
            </g>
          </g>
        </g>
        <path id="Trazado_153761" data-name="Trazado 153761" d="M1030.686,697.775a6.5,6.5,0,0,0,5.826,3.21c3.994-.2,8.2-5.864,8.2-5.864s10.5,4.752,7.217,17.745c-2.087,8.251-6.016,20.071-6.016,20.071a39.9,39.9,0,0,1-22.851-6.572l1.011-20.526s1.188-4.095,6.61-8.064" transform="translate(-795.545 -540.533)" fill="#d4ecf1"/>
        <path id="Trazado_153762" data-name="Trazado 153762" d="M983.128,701.426l3.22.075a1.012,1.012,0,0,1,.9.607l2.73,6.249a.382.382,0,0,1-.369.534l-3.457-.171a.834.834,0,0,1-.729-.514l-2.613-6.323a.331.331,0,0,1,.313-.457" transform="translate(-764.226 -545.435)" fill="#184657"/>
        <path id="Trazado_153763" data-name="Trazado 153763" d="M1027.286,722.74c-2.721,3.469-10.111,15.066-10.111,15.066s-6.572-15.293-8.392-18.63-3.868-2.957-3.868-2.957l.682.758s-1.264-.278-1.289.051,1.137.531,1.441.935c0,0-1.163-.556-1.39-.278s1.112.733,1.365,1.062c0,0-1.062-.455-1.188-.177s.607.582,1.113,1.492a26.21,26.21,0,0,1,1.365,4.246c.657,2.174,2.376,19.312,9.151,20.273s17.46-13.2,19.11-15.672c3.437-5.157-3.489-11.906-7.988-6.168" transform="translate(-780.96 -556.928)" fill="#f29d7e"/>
        <path id="Trazado_153764" data-name="Trazado 153764" d="M1052.271,837.112a5.4,5.4,0,0,0,1.692-.047,1.62,1.62,0,0,0-1.612-1.865,1.629,1.629,0,0,0-1.61,1.385,4.381,4.381,0,0,0,1.53.526" transform="translate(-817.067 -649.46)" fill="#ed6d53"/>
        <path id="Trazado_153765" data-name="Trazado 153765" d="M707.105,882.931a21.128,21.128,0,0,1-.72-3.678,7.62,7.62,0,0,0,1.34-1.285c-1.579-1.58-3.465-4.683-4.333-4.491-.571.126-.064,1.725,1.135,5.548.745,2.376.948,4.929,2.038,5.073a6.324,6.324,0,0,0,1.074-.022c-.179-.423-.382-.876-.533-1.145" transform="translate(-546.782 -679.218)" fill="#faf8dc"/>
        <path id="Trazado_153766" data-name="Trazado 153766" d="M706.994,884.1c-1.09-.144-1.292-2.7-2.038-5.073-1.112-3.545-1.628-5.177-1.242-5.5a.526.526,0,0,0-.323-.052c-.571.126-.064,1.725,1.135,5.548.745,2.376.948,4.929,2.038,5.073a3.546,3.546,0,0,0,.536.009c-.039,0-.076-.005-.107-.009" transform="translate(-546.782 -679.219)" fill="#41b093"/>
        <path id="Trazado_153767" data-name="Trazado 153767" d="M190.4,1004.494H94.172a.931.931,0,0,1,0-1.795H190.4a.931.931,0,0,1,0,1.795" transform="translate(-72.698 -779.708)" fill="#9fd4e0"/>
        <path id="Trazado_153768" data-name="Trazado 153768" d="M224.7,823.011c1.82,4.474,2.54,10.825,2.768,15.375l-9.858.986Z" transform="translate(-169.215 -639.981)" fill="#faf8dc"/>
        <path id="Trazado_153769" data-name="Trazado 153769" d="M276.9,881.531s-.786-1.929-4.577-1.661c-3.294.233-16.121,2.315-19.429,2.857-1.295,2.01-2.615,4-4.027,5.93,5.878,2.205,18.154-3.979,20.09-4.529a26.2,26.2,0,0,1,4.312-1.142c1.039-.065,1.69.388,1.856.132s-.79-.9-.79-.9c.413.036,1.519.918,1.63.576s-.984-1.021-.984-1.021c.5.037,1.3.907,1.565.708s-.653-1.113-.653-1.113Z" transform="translate(-193.521 -684.176)" fill="#f29d7e"/>
        <g id="Grupo_87905" data-name="Grupo 87905" transform="translate(55.345 195.669)" opacity="0.7" style="mix-blend-mode: multiply;isolation: isolate">
          <g id="Grupo_87904" data-name="Grupo 87904">
            <g id="Grupo_87903" data-name="Grupo 87903" clip-path="url(#clip-path-24)">
              <path id="Trazado_153770" data-name="Trazado 153770" d="M276.9,881.531s-.786-1.929-4.577-1.661c-3.294.233-16.121,2.315-19.429,2.857-1.295,2.01-2.615,4-4.027,5.93,5.878,2.205,18.154-3.979,20.09-4.529a26.2,26.2,0,0,1,4.312-1.142c1.039-.065,1.69.388,1.856.132s-.79-.9-.79-.9c.413.036,1.519.918,1.63.576s-.984-1.021-.984-1.021c.5.037,1.3.907,1.565.708s-.653-1.113-.653-1.113Z" transform="translate(-248.867 -879.845)" fill="#cbc7ff"/>
            </g>
          </g>
        </g>
        <path id="Trazado_153771" data-name="Trazado 153771" d="M201.459,770.316c.967,3.516,5.393,5.054,6.492,5,1.977-.1,1.087.536,2.424-.667-.257-3.781-.666-4.672.086-6.021.832-1.49,7.148-7.649,7.148-7.649l-5.359-4.85s-6.126,6.178-7.278,7.087c-.7.549-3.006.759-4.2,1.171-.427,2.145.107,3.825.686,5.929" transform="translate(-156.002 -587.973)" fill="#f29d7e"/>
        <g id="Grupo_87910" data-name="Grupo 87910" transform="translate(48.321 168.156)" style="mix-blend-mode: multiply;isolation: isolate">
          <g id="Grupo_87909" data-name="Grupo 87909">
            <g id="Grupo_87908" data-name="Grupo 87908" clip-path="url(#clip-path-25)">
              <g id="Grupo_87907" data-name="Grupo 87907" transform="translate(0 0)">
                <g id="Grupo_87906" data-name="Grupo 87906" clip-path="url(#clip-path-26)">
                  <rect id="Rectángulo_8082" data-name="Rectángulo 8082" width="18.493" height="18.465" transform="translate(-6.408 5.805) rotate(-42.17)" fill="url(#linear-gradient-3)"/>
                </g>
              </g>
            </g>
          </g>
        </g>
        <g id="Grupo_87913" data-name="Grupo 87913" transform="translate(55.366 169.857)" opacity="0.58" style="mix-blend-mode: multiply;isolation: isolate">
          <g id="Grupo_87912" data-name="Grupo 87912">
            <g id="Grupo_87911" data-name="Grupo 87911" clip-path="url(#clip-path-27)">
              <path id="Trazado_153773" data-name="Trazado 153773" d="M250.091,770.893a5.162,5.162,0,0,0,.7.52c2.007-2.235,3.927-4.289,3.927-4.289l-3.941-3.348c-1.975,2.593-2.535,5.524-.684,7.117" transform="translate(-248.96 -763.776)" fill="#cbc7ff"/>
            </g>
          </g>
        </g>
        <path id="Trazado_153774" data-name="Trazado 153774" d="M249.134,729.411c-1.594,1.054-3.832,1.877-2.955,7.235l2.542.619,1.3-5.3Z" transform="translate(-191.277 -567.197)" fill="#d6b88d"/>
        <path id="Trazado_153775" data-name="Trazado 153775" d="M260.482,748.318c-1.121,1.78-2.717,3.9-4.267,4.283-1.026.257-1.867-.284-3.409-1.86-1.5-1.529-2.062-4.423-.2-7.382s4.115-4.89,7.311-2.879c3.518,2.215,2.427,4.878.564,7.837" transform="translate(-195.515 -575.162)" fill="#f29d7e"/>
        <path id="Trazado_153776" data-name="Trazado 153776" d="M286.25,768.856a.35.35,0,1,1-.11-.483.35.35,0,0,1,.11.483" transform="translate(-222.088 -597.452)"/>
        <path id="Trazado_153777" data-name="Trazado 153777" d="M255.358,754.529a2.481,2.481,0,1,1,2.644-4.2Z" transform="translate(-197.667 -583.167)" fill="#ed6d53"/>
        <path id="Trazado_153778" data-name="Trazado 153778" d="M260.087,757.64a1.307,1.307,0,0,1,1.393-2.213Z" transform="translate(-201.771 -587.271)" fill="#bd422a"/>
        <path id="Trazado_153779" data-name="Trazado 153779" d="M275.4,771.163a1.087,1.087,0,1,1-.341-1.5,1.087,1.087,0,0,1,.341,1.5" transform="translate(-212.594 -598.368)" fill="#ed6d53"/>
        <path id="Trazado_153780" data-name="Trazado 153780" d="M287.94,772.607l.214,2.516a.4.4,0,0,1-.549.409l-1.267-.5Z" transform="translate(-222.659 -600.786)" fill="#ed6d53"/>
        <path id="Trazado_153781" data-name="Trazado 153781" d="M266.25,754.064l-1.067,1.632.561.4a13.835,13.835,0,0,1,1.2-1.66Z" transform="translate(-206.209 -586.367)" fill="#d6b88d"/>
        <path id="Trazado_153782" data-name="Trazado 153782" d="M262.853,728.428c-.895-1.674-2.392-1.406-5.3-2.8-3.323-1.6-5.558,1.272-6.039,2.734-.878,2.673,3.2,3.715,4.229,3.868,1.373.2,2.657-.784,4.061-2.154,0,0,1.187.188,2.419,2.441,1.1-.158,1.973-1.563.625-4.086" transform="translate(-195.488 -563.888)" fill="#d6b88d"/>
        <path id="Trazado_153783" data-name="Trazado 153783" d="M285.091,761.529a2.992,2.992,0,0,1,1.134.368,2.683,2.683,0,0,1,.5.353,2,2,0,0,1,.214.223c.032.041.064.082.092.126l.04.066.017.033a.091.091,0,0,1,.006.013s0,0,0,0l-.012-.007a.141.141,0,0,0-.032-.011.1.1,0,0,0-.084.024.1.1,0,1,1,.135.16.111.111,0,0,1-.089.023c-.039-.01-.03-.011-.035-.012l-.02-.012-.034-.023-.207-.135c-.076-.05-.155-.1-.233-.146-.156-.1-.316-.184-.476-.276l-.488-.273c-.164-.092-.33-.185-.493-.3a.11.11,0,0,1-.03-.151.108.108,0,0,1,.1-.046" transform="translate(-221.598 -592.172)" fill="#ed6d53"/>
        <path id="Trazado_153784" data-name="Trazado 153784" d="M280.489,786.034c.072.069.145.133.216.192-.066.089-.143.186-.23.287a3,3,0,0,1-.336-.279c-.4-.388-.6-.783-.429-.883s.375.294.779.682" transform="translate(-217.458 -610.684)" fill="#ed6d53"/>
        <path id="Trazado_153785" data-name="Trazado 153785" d="M325.707,949.617c.343,1.853,1.89,9.513,1.915,11.106.021,1.351,3.677.713,6.168.733,3.185.025,6.273.5,6.117-.632-.1-.733-5.131-.607-7.573-4.039l-1.308-6.7Z" transform="translate(-253.273 -738.431)" fill="#f29d7e"/>
        <g id="Grupo_87916" data-name="Grupo 87916" transform="translate(72.434 211.186)" opacity="0.7" style="mix-blend-mode: multiply;isolation: isolate">
          <g id="Grupo_87915" data-name="Grupo 87915">
            <g id="Grupo_87914" data-name="Grupo 87914" clip-path="url(#clip-path-28)">
              <path id="Trazado_153786" data-name="Trazado 153786" d="M325.707,949.617c.343,1.853,1.89,9.513,1.915,11.106.021,1.351,3.677.713,6.168.733,3.185.025,6.273.5,6.117-.632-.1-.733-5.131-.607-7.573-4.039l-1.308-6.7Z" transform="translate(-325.707 -949.617)" fill="#cbc7ff"/>
            </g>
          </g>
        </g>
        <path id="Trazado_153787" data-name="Trazado 153787" d="M193.958,859.623c3.1-4.568,10.855-17.525,19.653-16.636,8.049.813,11.234,24.549,11.234,24.549l-7.507,2.389-5.278-16.68-14.653,20.343-10.085-3.879Z" transform="translate(-145.663 -655.481)" fill="#184657"/>
        <g id="Grupo_87919" data-name="Grupo 87919" transform="translate(41.658 187.463)" style="mix-blend-mode: multiply;isolation: isolate">
          <g id="Grupo_87918" data-name="Grupo 87918">
            <g id="Grupo_87917" data-name="Grupo 87917" clip-path="url(#clip-path-29)">
              <path id="Trazado_153788" data-name="Trazado 153788" d="M193.958,859.623c3.1-4.568,10.855-17.525,19.653-16.636,8.049.813,11.234,24.549,11.234,24.549l-7.507,2.389-5.278-16.68-14.653,20.343-10.085-3.879Z" transform="translate(-187.321 -842.943)" fill="#cbc7ff"/>
            </g>
          </g>
        </g>
        <g id="Grupo_87922" data-name="Grupo 87922" transform="translate(52.092 192.048)" opacity="0.16">
          <g id="Grupo_87921" data-name="Grupo 87921">
            <g id="Grupo_87920" data-name="Grupo 87920" clip-path="url(#clip-path-30)">
              <path id="Trazado_153789" data-name="Trazado 153789" d="M249.085,863.564c5,.154,8.129,20.424,8.259,21.286l-.3.046c-.008-.052-.812-5.306-2.206-10.508-1.829-6.823-3.822-10.461-5.763-10.521h-.063c-4.8,0-14.416,16.517-14.512,16.685l-.262-.152c.4-.694,9.888-16.99,14.847-16.835" transform="translate(-234.238 -863.563)"/>
            </g>
          </g>
        </g>
        <path id="Trazado_153790" data-name="Trazado 153790" d="M106.79,916.7c-1.972,6.9-2.414,17.67,4.474,19.186,3.792.834,8.721.3,21.461.379,12.589.075,20.778.683,20.7-6.218s-15.318-5.157-18.579-5.46-18.352-.455-18.352-.455Z" transform="translate(-82.055 -712.833)" fill="#184657"/>
        <path id="Trazado_153791" data-name="Trazado 153791" d="M135.605,795.5s-.937,1.593-3.943.038a10.1,10.1,0,0,1-4.285-5.005s-9.327,1.972-15.7,13.726c-4.055,7.482-7.28,18.2-7.28,18.2s4.348,5.283,21.941,3.691c0,0,5.283-10.061,8.013-14.914s4.967-8.91,1.251-15.735" transform="translate(-81.182 -614.724)" fill="#faf8dc"/>
        <g id="Grupo_87925" data-name="Grupo 87925" transform="translate(50.315 184.932)" opacity="0.63" style="mix-blend-mode: multiply;isolation: isolate">
          <g id="Grupo_87924" data-name="Grupo 87924">
            <g id="Grupo_87923" data-name="Grupo 87923" clip-path="url(#clip-path-31)">
              <path id="Trazado_153792" data-name="Trazado 153792" d="M226.248,831.564c3.292,3.709,4.449,10.023,4.449,10.023l-1.8,2.275Z" transform="translate(-226.248 -831.564)" fill="#cbc7ff"/>
            </g>
          </g>
        </g>
        <g id="Grupo_87928" data-name="Grupo 87928" transform="translate(39.595 188.092)" opacity="0.63" style="mix-blend-mode: multiply;isolation: isolate">
          <g id="Grupo_87927" data-name="Grupo 87927">
            <g id="Grupo_87926" data-name="Grupo 87926" clip-path="url(#clip-path-32)">
              <path id="Trazado_153793" data-name="Trazado 153793" d="M178.349,845.772c-1.466,4.272,2.629,18.4,6.168,21.587l3.615-6.673Z" transform="translate(-178.043 -845.772)" fill="#cbc7ff"/>
            </g>
          </g>
        </g>
        <path id="Trazado_153794" data-name="Trazado 153794" d="M340.053,850.007l-.117-.036-4.541,14.619H319.679v.152a.726.726,0,0,0,.726.725H335.4a.878.878,0,0,0,.86-.7l4.29-13.811a.755.755,0,0,0-.5-.945" transform="translate(-248.586 -660.945)" fill="#035e80"/>
        <path id="Trazado_153795" data-name="Trazado 153795" d="M189.468,825.867c1.583,3.492,5.651,19.086,5.651,19.086s15.413-6.286,19.051-7.386,4.831.606,4.831.606l-1.018.062s1.1.688.883.94-1.183-.42-1.683-.345c0,0,1.219.42,1.186.777s-1.307-.258-1.717-.2c0,0,1.076.421.971.707s-.84-.011-1.839.282a26.2,26.2,0,0,0-3.952,2.068c-1.994,1.088-15.243,12.094-20.744,8.025s-12.008-18.708-11.7-23.561c.387-6.186,7.075-7.7,10.086-1.062" transform="translate(-139.481 -638.837)" fill="#f29d7e"/>
        <path id="Trazado_153796" data-name="Trazado 153796" d="M228.082,945.541a5.4,5.4,0,0,1-1.219-1.174,1.654,1.654,0,0,1,.144-.186,1.629,1.629,0,0,1,2.56,2,4.374,4.374,0,0,1-1.484-.642" transform="translate(-176.411 -733.791)" fill="#ed6d53"/>
        <path id="Trazado_153797" data-name="Trazado 153797" d="M155.669,887.451l.149.03c.764-3.769,4.822-15.7,6.361-18.277l-.13-.078c-1.543,2.589-5.614,14.548-6.379,18.325" transform="translate(-121.05 -675.841)" fill="#e289a9"/>
        <g id="Grupo_87931" data-name="Grupo 87931" transform="translate(44.552 199.239)" opacity="0.7" style="mix-blend-mode: multiply;isolation: isolate">
          <g id="Grupo_87930" data-name="Grupo 87930">
            <g id="Grupo_87929" data-name="Grupo 87929" clip-path="url(#clip-path-33)">
              <path id="Trazado_153798" data-name="Trazado 153798" d="M210.076,897.763l-.086-.315-1.417-1.55-8.241,1.871.717,2.337q.395.708.8,1.391a19.08,19.08,0,0,0,8.224-3.733" transform="translate(-200.332 -895.898)" fill="#cbc7ff"/>
            </g>
          </g>
        </g>
        <path id="Trazado_153799" data-name="Trazado 153799" d="M191.924,836.446c-1.435-5.222-3.387-12.023-4.4-14.261-3.281-7.237-10.569-5.583-10.991,1.157-.2,3.152,2.242,10.091,5.514,16.123a41.091,41.091,0,0,0,9.878-3.019" transform="translate(-137.264 -635.672)" fill="#faf8dc"/>
        <path id="Trazado_153800" data-name="Trazado 153800" d="M297.09,938.27l1.132-13.7a3.606,3.606,0,0,1,3.574-3.29H326.79a3.608,3.608,0,0,1,3.573,3.285l1.154,13.7h1.522l-1.165-13.829a5.134,5.134,0,0,0-5.085-4.674H301.8a5.132,5.132,0,0,0-5.085,4.682l-1.142,13.821Z" transform="translate(-229.837 -715.219)" fill="#fcc14a"/>
        <path id="Trazado_153801" data-name="Trazado 153801" d="M197.1,898.154l.021.15a61.568,61.568,0,0,0,10.381-3.038l-.055-.141a61.4,61.4,0,0,1-10.347,3.029" transform="translate(-153.268 -696.057)" fill="#e289a9"/>
        <path id="Trazado_153802" data-name="Trazado 153802" d="M191.771,797.791c-.006.012-.589,1.153-3.812.665-3.109-.471-5.332-3.512-6.157-6.316l-.145.043a11.01,11.01,0,0,0,1.677,3.379,7.84,7.84,0,0,0-2.416,1.6,6.071,6.071,0,0,0-1.283.234,5.232,5.232,0,0,0-3.351,4.176,11.406,11.406,0,0,0,.115,5.372l.145-.043c-.824-2.78-.481-8.285,3.134-9.36a6.249,6.249,0,0,1,4.867.609,5.293,5.293,0,0,1,2.571,2.775l.147-.039a5.516,5.516,0,0,0-2.643-2.869,6.6,6.6,0,0,0-3.468-.87,7.469,7.469,0,0,1,2.278-1.462,7.146,7.146,0,0,0,4.507,2.918,10.051,10.051,0,0,0,1.506.125c2.037,0,2.447-.833,2.467-.876Z" transform="translate(-136.873 -615.976)" fill="#e289a9"/>
      </g>
    </g>
    <g id="Grupo_87935" data-name="Grupo 87935" transform="translate(236.659 64.095)">
      <g id="Grupo_87934" data-name="Grupo 87934" clip-path="url(#clip-path-34)">
        <rect id="Rectángulo_8092" data-name="Rectángulo 8092" width="1.33" height="3.976" transform="translate(-0.15 -0.335)" fill="url(#linear-gradient-4)"/>
      </g>
    </g>
    <g id="Grupo_87937" data-name="Grupo 87937" transform="translate(237.764 64.169)">
      <g id="Grupo_87936" data-name="Grupo 87936" clip-path="url(#clip-path-35)">
        <rect id="Rectángulo_8093" data-name="Rectángulo 8093" width="1.224" height="3.875" transform="translate(-0.149 -0.359)" fill="url(#linear-gradient-5)"/>
      </g>
    </g>
    <g id="Grupo_87942" data-name="Grupo 87942" transform="translate(0 0)">
      <g id="Grupo_87941" data-name="Grupo 87941" clip-path="url(#clip-path-2)">
        <path id="Trazado_153805" data-name="Trazado 153805" d="M1058.551,242.6v-4.209c0-2.279-1.228-3.549-2.742-3.549s-2.742,1.27-2.742,3.549V242.6c0,2.871,1.547,4.363,3.455,4.363h1.425c1.908,0,3.455-1.492,3.455-4.363Z" transform="translate(-818.875 -182.613)" fill="#ffeee3"/>
        <path id="Trazado_153806" data-name="Trazado 153806" d="M1047.142,245.5l1.731.983v-1.967Z" transform="translate(-814.268 -190.136)" fill="#f69548"/>
        <path id="Trazado_153807" data-name="Trazado 153807" d="M1060.476,245.162c0,.265-.131.479-.293.479s-.293-.215-.293-.479.131-.479.293-.479.293.215.293.479" transform="translate(-824.181 -190.267)"/>
        <path id="Trazado_153808" data-name="Trazado 153808" d="M1069.154,255.265s1.021,2.794-1.247,4.44c-1.509,1.1-3.252,1.244-3.852.388s.153-2.417,1.681-3.487a8.96,8.96,0,0,1,3.418-1.341" transform="translate(-827.26 -198.496)" fill="#f2d79d"/>
        <g id="Grupo_87940" data-name="Grupo 87940" transform="translate(280.796 208.067)" style="mix-blend-mode: multiply;isolation: isolate">
          <g id="Grupo_87939" data-name="Grupo 87939">
            <g id="Grupo_87938" data-name="Grupo 87938" clip-path="url(#clip-path-37)">
              <path id="Trazado_153809" data-name="Trazado 153809" d="M1282.454,936.359c0-1.02-19.821-1.021-19.821,0s19.821,1.021,19.821,0" transform="translate(-1262.632 -935.594)" fill="#b3b3b3"/>
            </g>
          </g>
        </g>
      </g>
    </g>
    <g id="Grupo_87944" data-name="Grupo 87944" transform="translate(276.36 193.994)">
      <g id="Grupo_87943" data-name="Grupo 87943" clip-path="url(#clip-path-38)">
        <rect id="Rectángulo_8096" data-name="Rectángulo 8096" width="18.276" height="15.612" fill="url(#linear-gradient-6)"/>
      </g>
    </g>
    <g id="Grupo_87976" data-name="Grupo 87976" transform="translate(0 0)">
      <g id="Grupo_87975" data-name="Grupo 87975" clip-path="url(#clip-path-2)">
        <path id="Trazado_153811" data-name="Trazado 153811" d="M1272.856,874.4c-.2,0-.213-.31-.013-.31s.213.31.013.31" transform="translate(-989.664 -679.704)" fill="#9c5f2d"/>
        <path id="Trazado_153812" data-name="Trazado 153812" d="M1264.1,875.532c.2-.212.758.262.054.262a.168.168,0,0,1-.054-.262" transform="translate(-982.947 -680.78)" fill="#9c5f2d"/>
        <path id="Trazado_153813" data-name="Trazado 153813" d="M1244.9,874.872c-.011.124.083.156.02.163.036.006.029.022.043.063.055.162-.2.258-.379-.064-.288-.509.377-.816.316-.163" transform="translate(-967.744 -680.02)" fill="#9c5f2d"/>
        <path id="Trazado_153814" data-name="Trazado 153814" d="M1316.882,872.722c.091.106-.009.535-.17.362-.347-.371-.2-.789.17-.362" transform="translate(-1023.736 -678.497)" fill="#9c5f2d"/>
        <path id="Trazado_153815" data-name="Trazado 153815" d="M1320.526,872.32c0-.079.242-.1.286.07.106.241-.308.508-.286-.07" transform="translate(-1026.853 -678.278)" fill="#9c5f2d"/>
        <path id="Trazado_153816" data-name="Trazado 153816" d="M1299.231,872.312h.333c.086.185-.24.185-.333,0" transform="translate(-1010.295 -678.318)" fill="#9c5f2d"/>
        <path id="Trazado_153817" data-name="Trazado 153817" d="M1281.791,872.3c.246,0,.216-.021.234.063.032.147-.188.2-.234-.063" transform="translate(-996.733 -678.31)" fill="#9c5f2d"/>
        <path id="Trazado_153818" data-name="Trazado 153818" d="M1289.435,929.017c.144-.111.432.15.277.393-.058.792-.825.03-.277-.393" transform="translate(-1002.525 -722.392)" fill="#9c5f2d"/>
        <path id="Trazado_153819" data-name="Trazado 153819" d="M1290.168,921.225a.342.342,0,0,1,.162-.418.155.155,0,0,1,.164.263c-.055.034-.038.047-.03.063a.155.155,0,0,1-.3.092" transform="translate(-1003.228 -716.007)" fill="#9c5f2d"/>
        <path id="Trazado_153820" data-name="Trazado 153820" d="M1286.745,928.358a.154.154,0,0,1-.3,0c-.375-.311.417-.791.3,0" transform="translate(-1000.274 -721.566)" fill="#9c5f2d"/>
        <path id="Trazado_153821" data-name="Trazado 153821" d="M1281.462,915.365c.054.094.216.151.238.37s-.381.263-.542-.218c-.053-.159.2-.321.3-.152" transform="translate(-996.236 -711.741)" fill="#9c5f2d"/>
        <path id="Trazado_153822" data-name="Trazado 153822" d="M1286.682,911.466c.05.4-.535.168-.307-.079.175-.19.317-.037.307.079" transform="translate(-1000.257 -708.633)" fill="#9c5f2d"/>
        <path id="Trazado_153823" data-name="Trazado 153823" d="M1283.525,907.307c.061-.081.1-.035.138-.072.188-.171.4.143.346.394-.2.948-.945.288-.485-.322" transform="translate(-997.967 -705.436)" fill="#9c5f2d"/>
        <path id="Trazado_153824" data-name="Trazado 153824" d="M1277.266,908.993c0-.191.354-.318.381.053.021.295-.385.354-.381-.053" transform="translate(-993.215 -706.698)" fill="#9c5f2d"/>
        <path id="Trazado_153825" data-name="Trazado 153825" d="M1271.789,920.142c-.164.331-.369.114-.335-.042.09-.414.523-.338.335.042" transform="translate(-988.692 -715.262)" fill="#9c5f2d"/>
        <path id="Trazado_153826" data-name="Trazado 153826" d="M1277.354,933.856c-.051.2-.209.288-.212.391-.005.2-.315.213-.31.013.007-.27.187-.345.22-.474a.155.155,0,0,1,.3.07" transform="translate(-992.878 -726.032)" fill="#9c5f2d"/>
        <path id="Trazado_153827" data-name="Trazado 153827" d="M1263.822,908.915c.2,0,.213.31.013.31s-.213-.31-.013-.31" transform="translate(-982.649 -706.781)" fill="#9c5f2d"/>
        <path id="Trazado_153828" data-name="Trazado 153828" d="M1296.108,925.382c.112-.126.332-.026.262.214-.142.49-.612-.108-.262-.214" transform="translate(-1007.767 -719.543)" fill="#9c5f2d"/>
        <path id="Trazado_153829" data-name="Trazado 153829" d="M1300.689,927.836c-.115.549-.735.215-.482-.475.15-.408.7-.579.482.475" transform="translate(-1011.007 -720.878)" fill="#9c5f2d"/>
        <path id="Trazado_153830" data-name="Trazado 153830" d="M1297.058,935.836c.18-.2.431.19.177.423s-.463-.4-.177-.423" transform="translate(-1008.497 -727.673)" fill="#9c5f2d"/>
        <path id="Trazado_153831" data-name="Trazado 153831" d="M1296.337,941.64c.082,0,.322.122-.141.167a.14.14,0,0,1,.141-.167" transform="translate(-1007.935 -732.228)" fill="#9c5f2d"/>
        <path id="Trazado_153832" data-name="Trazado 153832" d="M1288.664,936.132c.2,0,.213.31.013.31s-.213-.31-.013-.31" transform="translate(-1001.967 -727.945)" fill="#9c5f2d"/>
        <path id="Trazado_153833" data-name="Trazado 153833" d="M1313.6,931.826a.1.1,0,0,1,.045-.109c0-.064.215-.238-.045.109" transform="translate(-1021.465 -724.433)" fill="#9c5f2d"/>
        <path id="Trazado_153834" data-name="Trazado 153834" d="M1305.835,916.756c-.127.01-.237-.369-.161-.446.159-.315.535.677.161.446" transform="translate(-1015.286 -712.483)" fill="#9c5f2d"/>
        <path id="Trazado_153835" data-name="Trazado 153835" d="M1315.6,908.452c-.043.084-.195.127-.236-.177-.026-.195.37-.088.236.177" transform="translate(-1022.84 -706.205)" fill="#9c5f2d"/>
        <path id="Trazado_153836" data-name="Trazado 153836" d="M1302.944,892.47c-.137-.313.342.121.369.314.113.318-.123.594-.273.419-.32-.013-.611-.767-.1-.733" transform="translate(-1012.965 -693.907)" fill="#9c5f2d"/>
        <path id="Trazado_153837" data-name="Trazado 153837" d="M1299.625,901.5c.114.456-.437.271-.37-.158.025-.158.3-.132.37.158" transform="translate(-1010.309 -700.814)" fill="#9c5f2d"/>
        <path id="Trazado_153838" data-name="Trazado 153838" d="M1296.509,910.07a.135.135,0,0,1-.224.016c-.26.341-.554-.078-.4-.394-.015-.639.821-.055.626.379" transform="translate(-1007.659 -707.165)" fill="#9c5f2d"/>
        <path id="Trazado_153839" data-name="Trazado 153839" d="M1313.514,890.092c.117-.217.591.15.387.414-.043.414-.605-.008-.387-.414" transform="translate(-1021.363 -692.093)" fill="#9c5f2d"/>
        <path id="Trazado_153840" data-name="Trazado 153840" d="M1320.714,890.094c.158-.027.071.509-.191.145-.062-.086.064-.334.191-.145" transform="translate(-1026.839 -692.092)" fill="#9c5f2d"/>
        <path id="Trazado_153841" data-name="Trazado 153841" d="M1318.241,893.554c.269-.295.4.571.084.524-.17.068-.469-.466-.084-.524" transform="translate(-1024.932 -694.789)" fill="#9c5f2d"/>
        <path id="Trazado_153842" data-name="Trazado 153842" d="M1313.384,894.32c.05.089-.027.214-.168.154-.213-.091.038-.383.168-.154" transform="translate(-1021.106 -695.365)" fill="#9c5f2d"/>
        <path id="Trazado_153843" data-name="Trazado 153843" d="M1304.116,880.925c-.486-.038-.427-.917,0-.586.1,0,.192.6,0,.586" transform="translate(-1013.827 -684.502)" fill="#9c5f2d"/>
        <path id="Trazado_153844" data-name="Trazado 153844" d="M1291.892,880.78c-.006-.024-.113-.3.07-.285.418.034,0,.6-.07.285" transform="translate(-1004.56 -684.681)" fill="#9c5f2d"/>
        <path id="Trazado_153845" data-name="Trazado 153845" d="M1291.9,886.8c.213-.168.42.5.15.542-.284.262-.46-.3-.15-.542" transform="translate(-1004.469 -689.563)" fill="#9c5f2d"/>
        <path id="Trazado_153846" data-name="Trazado 153846" d="M1287.243,899.543c-.128-.218-.024-.326.1-.278.284.112-.007.435-.1.278" transform="translate(-1000.927 -699.268)" fill="#9c5f2d"/>
        <path id="Trazado_153847" data-name="Trazado 153847" d="M1282.859,897.276c.031-.206.349-.084.457.158.207.466-.567.583-.457-.158" transform="translate(-997.556 -697.649)" fill="#9c5f2d"/>
        <path id="Trazado_153848" data-name="Trazado 153848" d="M1285.687,895.047c.024-.192.3-.14.245.1.1.306-.3.1-.245-.1" transform="translate(-999.759 -695.905)" fill="#9c5f2d"/>
        <path id="Trazado_153849" data-name="Trazado 153849" d="M1255.55,928.261a.814.814,0,0,1,.734.173c.231.249,0,.66-.246.309a.214.214,0,0,1-.274-.161c-.355-.047-.362-.27-.214-.32" transform="translate(-976.257 -721.802)" fill="#9c5f2d"/>
        <path id="Trazado_153850" data-name="Trazado 153850" d="M1250.5,923.159c.589.773-.143.64-.143.453-.28-.336-.007-.65.143-.453" transform="translate(-972.199 -717.809)" fill="#9c5f2d"/>
        <path id="Trazado_153851" data-name="Trazado 153851" d="M1254.807,925.247c.182-.014.026.58-.2.068-.039-.089.091-.211.2-.068" transform="translate(-975.589 -719.429)" fill="#9c5f2d"/>
        <path id="Trazado_153852" data-name="Trazado 153852" d="M1267,924.34c.315.22,0,.616-.2.09a.112.112,0,0,1,.2-.09" transform="translate(-985.065 -718.727)" fill="#9c5f2d"/>
        <path id="Trazado_153853" data-name="Trazado 153853" d="M1256.788,897.159c-.087-.13-.135-.418-.007-.477.164-.461.654.2.347.547-.024.3-.434.1-.339-.07" transform="translate(-977.224 -697.145)" fill="#9c5f2d"/>
        <path id="Trazado_153854" data-name="Trazado 153854" d="M1250.28,890.109a.106.106,0,0,1-.2-.066c-.115.034-.183-.122-.182-.213,0-.529.631-.091.38.278" transform="translate(-971.935 -691.75)" fill="#9c5f2d"/>
        <path id="Trazado_153855" data-name="Trazado 153855" d="M1276.493,884.751c.1-.274.5.152.238.485-.147.184-.466-.309-.238-.485" transform="translate(-992.552 -687.923)" fill="#9c5f2d"/>
        <path id="Trazado_153856" data-name="Trazado 153856" d="M1266.569,884.2c.072.1-.012.3-.157.11a.108.108,0,0,1-.083-.16c-.106-.269.349-.2.24.049" transform="translate(-984.698 -687.391)" fill="#9c5f2d"/>
        <path id="Trazado_153857" data-name="Trazado 153857" d="M1272.267,886.236c.011-.107.15-.154.273-.037.618.3-.4,1.294-.273.037" transform="translate(-989.319 -689.063)" fill="#9c5f2d"/>
        <path id="Trazado_153858" data-name="Trazado 153858" d="M1271.081,882.422a.121.121,0,0,1-.207-.067c-.137.03-.156-.178-.14-.317.034-.3.533.122.347.384" transform="translate(-988.132 -685.801)" fill="#9c5f2d"/>
        <path id="Trazado_153859" data-name="Trazado 153859" d="M1274.681,882.2c-.083.009-.2-.2-.112-.273.157-.132.332.248.112.273" transform="translate(-991.092 -685.771)" fill="#9c5f2d"/>
        <path id="Trazado_153860" data-name="Trazado 153860" d="M1244.424,884.656c.01.035.006.716-.121-.235a.582.582,0,0,1,.121.235" transform="translate(-967.582 -687.734)" fill="#9c5f2d"/>
        <path id="Trazado_153861" data-name="Trazado 153861" d="M1254.944,884.262c.129.383-.379.447-.346.128-.166-.276.2-.55.346-.128" transform="translate(-975.555 -687.441)" fill="#9c5f2d"/>
        <path id="Trazado_153862" data-name="Trazado 153862" d="M1249.829,885.436c.01.2-.344.063-.272-.132.043-.158.305-.209.272.132" transform="translate(-971.66 -688.326)" fill="#9c5f2d"/>
        <path id="Trazado_153863" data-name="Trazado 153863" d="M1266.919,876.151c.066-.263.393-.283.4-.068,0,.045.011.062-.036.068h.031c-.031.342-.487.347-.4,0" transform="translate(-985.16 -681.136)" fill="#9c5f2d"/>
        <path id="Trazado_153864" data-name="Trazado 153864" d="M1264.715,876.9a.187.187,0,0,1-.222,0Z" transform="translate(-983.282 -681.887)" fill="#9c5f2d"/>
        <path id="Trazado_153865" data-name="Trazado 153865" d="M1248.454,876.862a.1.1,0,0,1,.065.008h-.034a.276.276,0,0,1,.133.116.119.119,0,0,1-.2.126c-.1-.155-.052-.258.037-.25" transform="translate(-970.737 -681.854)" fill="#9c5f2d"/>
        <path id="Trazado_153866" data-name="Trazado 153866" d="M1319.527,876.182a.239.239,0,0,1,.184-.134c.087-.121.169-.073.227.03.143.082.113.1-.047.1.176.017.266.089.007.349-.12.121-.483-.091-.371-.349" transform="translate(-1026.061 -681.167)" fill="#9c5f2d"/>
        <path id="Trazado_153867" data-name="Trazado 153867" d="M1260.957,836.835a9.138,9.138,0,1,0-9.138,9.138,9.138,9.138,0,0,0,9.138-9.138" transform="translate(-966.321 -643.625)" fill="#d28d54"/>
        <path id="Trazado_153868" data-name="Trazado 153868" d="M1263.929,841a7.947,7.947,0,1,0-7.947,7.947,7.947,7.947,0,0,0,7.947-7.947" transform="translate(-970.485 -647.789)" fill="#60423a"/>
        <path id="Trazado_153869" data-name="Trazado 153869" d="M1223.656,778.438c-3,1.091-2.971,1.024-2.909,1.195a.128.128,0,0,0,.165.077c3-1.09,2.971-1.023,2.909-1.194a.129.129,0,0,0-.165-.077" transform="translate(-949.253 -605.314)" fill="#7aba8e"/>
        <path id="Trazado_153870" data-name="Trazado 153870" d="M1221.394,786.505a.129.129,0,0,0,0,.258c3.481,0,3.385.054,3.385-.129s.046-.129-3.385-.129" transform="translate(-949.668 -611.588)" fill="#7aba8e"/>
        <path id="Trazado_153871" data-name="Trazado 153871" d="M1314.567,829.9a.129.129,0,0,0-.082-.244c-4.86,1.62-5.427,2.08.082.244" transform="translate(-1019.163 -645.14)" fill="#7aba8e"/>
        <path id="Trazado_153872" data-name="Trazado 153872" d="M1310.919,838.987c4.242-.684,4.126-.609,4.1-.791s.127-.151-4.138.537a.129.129,0,0,0,.041.254" transform="translate(-1019.268 -651.715)" fill="#7aba8e"/>
        <path id="Trazado_153873" data-name="Trazado 153873" d="M1188.367,713.938c-.126.134-.129.055,2.322,2.37a.129.129,0,0,0,.182-.005c.126-.134.13-.055-2.322-2.37a.129.129,0,0,0-.182.005" transform="translate(-924.052 -555.134)" fill="#7aba8e"/>
        <path id="Trazado_153874" data-name="Trazado 153874" d="M1196.547,707.255c-.165.081-.146,0,1.421,3.2a.129.129,0,0,0,.172.059c.165-.081.146.005-1.421-3.2a.129.129,0,0,0-.172-.059" transform="translate(-930.394 -549.958)" fill="#7aba8e"/>
        <path id="Trazado_153875" data-name="Trazado 153875" d="M1244.229,672.249a.129.129,0,0,0,.078-.231c-4.115-3.155-3.929-3.083-4.042-2.937-.135.176,3.935,3.167,3.963,3.167" transform="translate(-964.44 -520.242)" fill="#7aba8e"/>
        <path id="Trazado_153876" data-name="Trazado 153876" d="M1249.888,666.505a.129.129,0,0,0,.1-.207c-6.6-8.549-.408.207-.1.207" transform="translate(-969.648 -515.206)" fill="#7aba8e"/>
        <path id="Trazado_153877" data-name="Trazado 153877" d="M1324.6,753.415c0-4.014.056-3.926-.129-3.926s-.129-.121-.129,3.926a.129.129,0,0,0,.257,0" transform="translate(-1029.814 -582.81)" fill="#7aba8e"/>
        <path id="Trazado_153878" data-name="Trazado 153878" d="M1329.183,753.868c.143,0,.038.169,1.281-3.628a.129.129,0,0,0-.245-.08c-1.189,3.632-1.288,3.708-1.036,3.708" transform="translate(-1033.498 -583.263)" fill="#7aba8e"/>
        <path id="Trazado_153879" data-name="Trazado 153879" d="M1361.2,691.1c-1.618-4.249-1.536-4.2-1.71-4.129s-.183-.119,1.47,4.221a.129.129,0,0,0,.24-.092" transform="translate(-1057.097 -534.179)" fill="#7aba8e"/>
        <path id="Trazado_153880" data-name="Trazado 153880" d="M1371.144,690.687c.131,0-.01.3,1.6-4.4a.129.129,0,0,0-.243-.083c-1.541,4.487-1.614,4.482-1.359,4.482" transform="translate(-1066.127 -533.532)" fill="#7aba8e"/>
        <path id="Trazado_153881" data-name="Trazado 153881" d="M1180.835,771.258v6.114a8.623,8.623,0,0,0,8.624,8.624h9.653v-8.624c-10.078,0-9.138,1.182-9.138-6.114,0-6.041-9.138-6.049-9.138,0" transform="translate(-918.229 -596.211)" fill="#2c544a"/>
        <g id="Grupo_87947" data-name="Grupo 87947" transform="translate(265.229 173.694)" opacity="0.49">
          <g id="Grupo_87946" data-name="Grupo 87946">
            <g id="Grupo_87945" data-name="Grupo 87945" clip-path="url(#clip-path-40)">
              <path id="Trazado_153882" data-name="Trazado 153882" d="M1192.9,781.034c-.366,0-.258-.124-.258,6.791a6.409,6.409,0,0,0,6.4,6.4h7.113a.257.257,0,0,0,0-.515h-7.113a5.894,5.894,0,0,1-5.887-5.887c0-6.909.11-6.791-.257-6.791" transform="translate(-1192.632 -781.033)" fill="#65a36c"/>
            </g>
          </g>
        </g>
        <g id="Grupo_87950" data-name="Grupo 87950" transform="translate(268.705 173.63)" opacity="0.49">
          <g id="Grupo_87949" data-name="Grupo 87949">
            <g id="Grupo_87948" data-name="Grupo 87948" clip-path="url(#clip-path-41)">
              <path id="Trazado_153883" data-name="Trazado 153883" d="M1208.533,780.745c-.364,0-.258-.046-.258,6.086a3.894,3.894,0,0,0,3.89,3.889h6.278a.257.257,0,0,0,0-.515h-6.278a3.379,3.379,0,0,1-3.375-3.375c0-6.122.11-6.086-.257-6.086" transform="translate(-1208.261 -780.745)" fill="#65a36c"/>
            </g>
          </g>
        </g>
        <path id="Trazado_153884" data-name="Trazado 153884" d="M1302.068,719.159h-10.5l1.545,8.581h10.628a10.409,10.409,0,0,0,10.391-9.8l.414-7.114a4.933,4.933,0,0,0-4.925-5.219h-.957a4.933,4.933,0,0,0-4.912,5.39l.533,5.732a2.23,2.23,0,0,1-2.22,2.436" transform="translate(-1004.338 -548.683)" fill="#2c544a"/>
        <g id="Grupo_87953" data-name="Grupo 87953" transform="translate(291.502 160.438)" opacity="0.49">
          <g id="Grupo_87952" data-name="Grupo 87952">
            <g id="Grupo_87951" data-name="Grupo 87951" clip-path="url(#clip-path-42)">
              <path id="Trazado_153885" data-name="Trazado 153885" d="M1317.8,734.682a4.2,4.2,0,0,0,4.181-4.1l.18-8.9a.257.257,0,0,0-.515-.01l-.18,8.9a3.686,3.686,0,0,1-3.666,3.593c-7.15,0-7.031-.109-7.031.257s-.146.257,7.031.257" transform="translate(-1310.766 -721.425)" fill="#65a36c"/>
            </g>
          </g>
        </g>
        <g id="Grupo_87956" data-name="Grupo 87956" transform="translate(291.502 160.564)" opacity="0.49">
          <g id="Grupo_87955" data-name="Grupo 87955">
            <g id="Grupo_87954" data-name="Grupo 87954" clip-path="url(#clip-path-43)">
              <path id="Trazado_153886" data-name="Trazado 153886" d="M1318.548,737.889a7.275,7.275,0,0,0,7.234-7.084l.179-8.549c.006-.3-.342-.263-.257-.263-.36,0-.245-.355-.436,8.8a6.758,6.758,0,0,1-6.719,6.58h-7.518a.257.257,0,0,0,0,.515Z" transform="translate(-1310.773 -721.992)" fill="#65a36c"/>
            </g>
          </g>
        </g>
        <path id="Trazado_153887" data-name="Trazado 153887" d="M1199.084,726.725l13.3-.4v-6.693l-13.3-.4c-5.1-.153-5.106,7.644,0,7.491" transform="translate(-929.444 -559.281)" fill="#2c544a"/>
        <g id="Grupo_87959" data-name="Grupo 87959" transform="translate(268.614 162.224)" opacity="0.49">
          <g id="Grupo_87958" data-name="Grupo 87958">
            <g id="Grupo_87957" data-name="Grupo 87957" clip-path="url(#clip-path-44)">
              <path id="Trazado_153888" data-name="Trazado 153888" d="M1208.107,729.984c10.593,0,10.211.113,10.211-.257s.471-.257-10.211-.257a.257.257,0,0,0,0,.515" transform="translate(-1207.851 -729.453)" fill="#65a36c"/>
            </g>
          </g>
        </g>
        <g id="Grupo_87962" data-name="Grupo 87962" transform="translate(268.614 164.283)" opacity="0.49">
          <g id="Grupo_87961" data-name="Grupo 87961">
            <g id="Grupo_87960" data-name="Grupo 87960" clip-path="url(#clip-path-44)">
              <path id="Trazado_153889" data-name="Trazado 153889" d="M1208.107,739.243c10.593,0,10.211.113,10.211-.257s.471-.257-10.211-.257a.257.257,0,0,0,0,.515" transform="translate(-1207.851 -738.713)" fill="#65a36c"/>
            </g>
          </g>
        </g>
        <path id="Trazado_153890" data-name="Trazado 153890" d="M1266.732,675.339a6.7,6.7,0,1,0-13.406,0l.439,39.386c2.314,6.052,9.509,6.69,12.528,0Z" transform="translate(-974.598 -519.879)" fill="#2c544a"/>
        <path id="Trazado_153891" data-name="Trazado 153891" d="M1217.661,687.709a18.734,18.734,0,0,0-1.083-3.128c-.3-.006-2.719,7.178.712,7.244,2.66.051,5.39.692,4.612-3.787-.721-4.148-.706-4.641-1.919-.511-.991-5.312-1.108-5.06-2.322.182" transform="translate(-945.163 -531.62)" fill="#f08eb5"/>
        <path id="Trazado_153892" data-name="Trazado 153892" d="M1221.576,699.99c-.8-3.233-.91-3.2-1.888.1a10.125,10.125,0,0,0-.893-1.957,5.381,5.381,0,0,0-.832,2.223c-.507,2.734,1.682,2.308,3.66,2.346,2.79.054,1.034-4.494.849-4.5-.223,0-.9,1.781-.9,1.781" transform="translate(-947.043 -542.454)" fill="#d64b88"/>
        <g id="Grupo_87965" data-name="Grupo 87965" transform="translate(281.054 154.064)" opacity="0.49">
          <g id="Grupo_87964" data-name="Grupo 87964">
            <g id="Grupo_87963" data-name="Grupo 87963" clip-path="url(#clip-path-46)">
              <path id="Trazado_153893" data-name="Trazado 153893" d="M1264.734,733.46a.258.258,0,0,0,.257-.262c-.731-42.774-.55-40.411-.943-40.411a.258.258,0,0,0-.258.262c.731,42.774.551,40.411.944,40.411" transform="translate(-1263.791 -692.764)" fill="#65a36c"/>
            </g>
          </g>
        </g>
        <g id="Grupo_87968" data-name="Grupo 87968" transform="translate(283.714 151.831)" opacity="0.49">
          <g id="Grupo_87967" data-name="Grupo 87967">
            <g id="Grupo_87966" data-name="Grupo 87966" clip-path="url(#clip-path-47)">
              <path id="Trazado_153894" data-name="Trazado 153894" d="M1276.353,727.826a.265.265,0,0,0,.257-.273c-.366-47.446-.2-44.8-.6-44.8a.266.266,0,0,0-.258.273c.366,47.446.2,44.8.6,44.8" transform="translate(-1275.751 -682.724)" fill="#65a36c"/>
            </g>
          </g>
        </g>
        <g id="Grupo_87971" data-name="Grupo 87971" transform="translate(286.632 151.745)" opacity="0.49">
          <g id="Grupo_87970" data-name="Grupo 87970">
            <g id="Grupo_87969" data-name="Grupo 87969" clip-path="url(#clip-path-48)">
              <path id="Trazado_153895" data-name="Trazado 153895" d="M1289.127,727.8c.4,0,.252,2.67.344-45.167a.266.266,0,0,0-.258-.271c-.4,0-.252-2.67-.343,45.167a.265.265,0,0,0,.257.271" transform="translate(-1288.87 -682.337)" fill="#65a36c"/>
            </g>
          </g>
        </g>
        <g id="Grupo_87974" data-name="Grupo 87974" transform="translate(288.863 155.868)" opacity="0.49">
          <g id="Grupo_87973" data-name="Grupo 87973">
            <g id="Grupo_87972" data-name="Grupo 87972" clip-path="url(#clip-path-49)">
              <path id="Trazado_153896" data-name="Trazado 153896" d="M1299.158,740.2c.4,0,.241,2.243.515-39.041,0-.268-.293-.259-.258-.259-.4,0-.241-2.243-.515,39.041,0,.268.293.259.257.259" transform="translate(-1298.901 -700.875)" fill="#65a36c"/>
            </g>
          </g>
        </g>
        <path id="Trazado_153897" data-name="Trazado 153897" d="M1291.546,674.581c1.339.047,3.773-.968,3-5.886-1.011-6.426-.976-7.19-2.952-.836-1.4-8.212-1.584-7.858-3.592.224,0,0-1.275-4.848-1.6-4.859-.449-.016-4.389,11.023.922,11.21Z" transform="translate(-998.9 -514.667)" fill="#f08eb5"/>
        <path id="Trazado_153898" data-name="Trazado 153898" d="M1296.467,687.638c-.864-4.016-.841-4.5-2.406-.542-1.164-5.024-1.332-4.946-2.919.116,0,0-1.069-3.037-1.331-3.046-.374-.013-3.49,6.856.824,7.008,2.734.1,6.806.989,5.832-3.536" transform="translate(-1001.852 -531.396)" fill="#d64b88"/>
      </g>
    </g>
  </g>
</svg>
