<svg id="Grupo_87985" data-name="Grupo 87985" xmlns="http://www.w3.org/2000/svg" xmlns:xlink="http://www.w3.org/1999/xlink" width="239.389" height="153.456" viewBox="0 0 239.389 153.456">
  <defs>
    <clipPath id="clip-path">
      <rect id="Rectángulo_8140" data-name="Rectángulo 8140" width="239.389" height="153.456" fill="none"/>
    </clipPath>
    <clipPath id="clip-path-3">
      <rect id="Rectángulo_8109" data-name="Rectángulo 8109" width="130.426" height="116.669" fill="none"/>
    </clipPath>
  </defs>
  <g id="Grupo_87984" data-name="Grupo 87984" clip-path="url(#clip-path)">
    <g id="Grupo_87983" data-name="Grupo 87983">
      <g id="Grupo_87982" data-name="Grupo 87982" clip-path="url(#clip-path)">
        <path id="Trazado_153899" data-name="Trazado 153899" d="M144.291,202.7a18.082,18.082,0,0,0-7.676-15.034,8.073,8.073,0,0,1-3.259-8.183,14.393,14.393,0,0,0,.266-2.765c0-6.316-4.067-11.6-9.507-12.914a3.159,3.159,0,0,1-2.272-3.407,10.056,10.056,0,0,0,.017-1.952c-.436-3.658-2.331-5.653-5.062-7.283a3.937,3.937,0,0,1-1.7-4.291,12.662,12.662,0,0,0,.329-2.606c.165-6.741-3.172-9.519-5.491-10.769a4.751,4.751,0,0,1-2.289-3.064,7.52,7.52,0,0,0-7.681-5.944,7.769,7.769,0,0,0-6.882,7.183l-.009.091A2.345,2.345,0,0,1,90.691,134a8.611,8.611,0,0,0-1.217.023c-4.528.405-8.159,4.4-8.475,9.335a11.061,11.061,0,0,0,.089,2.292,4.466,4.466,0,0,1-1.789,4.329,14.722,14.722,0,0,0-5.562,7.52,3.81,3.81,0,0,1-2.472,2.476c-5.092,1.54-8.829,6.621-8.829,12.654a14.116,14.116,0,0,0,.767,4.614,4.5,4.5,0,0,1-2.231,5.583,16.343,16.343,0,0,0-9.205,15.024,17.34,17.34,0,0,0,1.725,7.59,9.024,9.024,0,0,1-1.6,10.269A20.856,20.856,0,0,0,45.8,230.614v7.321h100.04v-7.321c0-2.965-1.72-5.779-3.755-8.312a8.659,8.659,0,0,1-.505-9.817,18.741,18.741,0,0,0,2.708-9.783" transform="translate(-32.532 -88.405)" fill="#5cbba2"/>
        <path id="Trazado_153900" data-name="Trazado 153900" d="M201.828,233.883a16.169,16.169,0,0,0-6.864-13.444,7.219,7.219,0,0,1-2.914-7.318,12.852,12.852,0,0,0,.238-2.472c0-5.648-3.637-10.371-8.5-11.548a2.825,2.825,0,0,1-2.031-3.046,8.983,8.983,0,0,0,.015-1.746c-.39-3.27-2.085-5.055-4.526-6.513a3.52,3.52,0,0,1-1.516-3.837,11.321,11.321,0,0,0,.294-2.33c.148-6.028-2.837-8.512-4.91-9.63a4.25,4.25,0,0,1-2.047-2.74,6.725,6.725,0,0,0-6.868-5.316,6.947,6.947,0,0,0-6.154,6.423c0,.027-.005.054-.008.081a2.1,2.1,0,0,1-2.136,2,7.7,7.7,0,0,0-1.089.021,8.716,8.716,0,0,0-7.578,8.347,9.9,9.9,0,0,0,.08,2.049,3.994,3.994,0,0,1-1.6,3.871,13.16,13.16,0,0,0-4.974,6.724,3.406,3.406,0,0,1-2.211,2.214,11.637,11.637,0,0,0-7.9,11.315,12.622,12.622,0,0,0,.686,4.126,4.027,4.027,0,0,1-1.995,4.992,14.614,14.614,0,0,0-8.231,13.435,15.505,15.505,0,0,0,1.542,6.787,8.069,8.069,0,0,1-1.431,9.182,18.649,18.649,0,0,0-5.444,13.33v6.547h89.456v-6.547c0-2.651-1.538-5.168-3.358-7.433a7.743,7.743,0,0,1-.452-8.779,16.759,16.759,0,0,0,2.422-8.748" transform="translate(-80.799 -116.43)" fill="#41b093"/>
        <path id="Trazado_153901" data-name="Trazado 153901" d="M480.13,252.491a7.517,7.517,0,0,1-.439,8.524c-1.767,2.2-3.26,4.643-3.26,7.217v6.356h86.857v-6.356A18.107,18.107,0,0,0,558,255.289a7.835,7.835,0,0,1-1.39-8.916,15.055,15.055,0,0,0,1.5-6.59,14.189,14.189,0,0,0-7.992-13.044,3.91,3.91,0,0,1-1.937-4.847,12.254,12.254,0,0,0,.666-4.006,11.3,11.3,0,0,0-7.666-10.986,3.307,3.307,0,0,1-2.147-2.15,12.78,12.78,0,0,0-4.829-6.529,3.879,3.879,0,0,1-1.553-3.759,9.589,9.589,0,0,0,.078-1.99,8.463,8.463,0,0,0-7.358-8.1,7.514,7.514,0,0,0-1.057-.02,2.036,2.036,0,0,1-2.074-1.942c0-.026-.005-.052-.008-.079a6.745,6.745,0,0,0-5.975-6.237,6.529,6.529,0,0,0-6.669,5.161,4.127,4.127,0,0,1-1.988,2.66c-2.013,1.085-4.911,3.5-4.768,9.35a11,11,0,0,0,.286,2.263,3.418,3.418,0,0,1-1.472,3.726c-2.371,1.415-4.016,3.148-4.395,6.323a8.734,8.734,0,0,0,.014,1.7,2.743,2.743,0,0,1-1.972,2.958c-4.723,1.142-8.254,5.729-8.254,11.212a12.489,12.489,0,0,0,.231,2.4,7.008,7.008,0,0,1-2.83,7.1A15.7,15.7,0,0,0,477.779,244a16.271,16.271,0,0,0,2.351,8.494" transform="translate(-338.385 -125.057)" fill="#5cbba2"/>
        <path id="Trazado_153902" data-name="Trazado 153902" d="M452.452,278.666a6.722,6.722,0,0,1-.392,7.622c-1.58,1.967-2.915,4.152-2.915,6.453v5.684h77.667v-5.684a16.192,16.192,0,0,0-4.726-11.573,7.006,7.006,0,0,1-1.243-7.972,13.464,13.464,0,0,0,1.339-5.893,12.688,12.688,0,0,0-7.147-11.664A3.5,3.5,0,0,1,513.3,251.3a10.959,10.959,0,0,0,.6-3.582,10.1,10.1,0,0,0-6.855-9.824,2.957,2.957,0,0,1-1.919-1.922,11.43,11.43,0,0,0-4.318-5.838,3.467,3.467,0,0,1-1.389-3.361,8.621,8.621,0,0,0,.07-1.779,7.568,7.568,0,0,0-6.58-7.247,6.7,6.7,0,0,0-.945-.018A1.821,1.821,0,0,1,490.107,216c0-.023,0-.047-.007-.071a6.031,6.031,0,0,0-5.343-5.577,5.838,5.838,0,0,0-5.963,4.615,3.69,3.69,0,0,1-1.778,2.379c-1.8.97-4.391,3.127-4.263,8.361a9.823,9.823,0,0,0,.256,2.023,3.057,3.057,0,0,1-1.316,3.332,7.133,7.133,0,0,0-3.93,5.654,7.8,7.8,0,0,0,.013,1.515,2.452,2.452,0,0,1-1.764,2.645,10.119,10.119,0,0,0-7.381,10.026,11.156,11.156,0,0,0,.207,2.146,6.267,6.267,0,0,1-2.53,6.353,14.039,14.039,0,0,0-5.96,11.672,14.55,14.55,0,0,0,2.1,7.6" transform="translate(-319.005 -149.39)" fill="#41b093"/>
        <path id="Trazado_153903" data-name="Trazado 153903" d="M551.811,381.941a1.393,1.393,0,1,1-1.393-1.393,1.393,1.393,0,0,1,1.393,1.393m18.524-1.393a1.393,1.393,0,1,0,1.393,1.393,1.393,1.393,0,0,0-1.393-1.393m19.917,0a1.393,1.393,0,1,0,1.393,1.393,1.393,1.393,0,0,0-1.393-1.393M550.418,396.7a1.393,1.393,0,1,0,1.393,1.393,1.393,1.393,0,0,0-1.393-1.393m19.917,0a1.393,1.393,0,1,0,1.393,1.393,1.393,1.393,0,0,0-1.393-1.393m19.917,0a1.393,1.393,0,1,0,1.393,1.393,1.393,1.393,0,0,0-1.393-1.393m-39.834,16.156a1.393,1.393,0,1,0,1.393,1.393,1.393,1.393,0,0,0-1.393-1.393m19.917,0a1.393,1.393,0,1,0,1.393,1.393,1.393,1.393,0,0,0-1.393-1.393m19.917,0a1.393,1.393,0,1,0,1.393,1.393,1.393,1.393,0,0,0-1.393-1.393" transform="translate(-389.945 -270.284)" fill="#035e80"/>
        <path id="Trazado_153904" data-name="Trazado 153904" d="M237.356,518.654H2.033A2.033,2.033,0,0,1,0,516.621v-.406a2.033,2.033,0,0,1,2.033-2.033H237.356a2.033,2.033,0,0,1,2.033,2.033v.406a2.033,2.033,0,0,1-2.033,2.033" transform="translate(0 -365.198)" fill="#77a8ba"/>
        <g id="Grupo_87981" data-name="Grupo 87981" transform="translate(55.095 31.954)" opacity="0.84">
          <g id="Grupo_87980" data-name="Grupo 87980">
            <g id="Grupo_87979" data-name="Grupo 87979" clip-path="url(#clip-path-3)">
              <path id="Trazado_153905" data-name="Trazado 153905" d="M255.36,110.281h0a65.213,65.213,0,0,0-65.213,65.213V226.95H320.573V175.494a65.213,65.213,0,0,0-65.213-65.213" transform="translate(-190.147 -110.281)" fill="#fffffb"/>
            </g>
          </g>
        </g>
        <rect id="Rectángulo_8110" data-name="Rectángulo 8110" width="18.174" height="79.793" transform="translate(133.662 64.78)" fill="#fff"/>
        <rect id="Rectángulo_8111" data-name="Rectángulo 8111" width="18.174" height="82.09" transform="translate(155.323 62.483)" fill="#fff"/>
        <rect id="Rectángulo_8112" data-name="Rectángulo 8112" width="18.174" height="95.02" transform="translate(176.984 49.553)" fill="#fff"/>
        <rect id="Rectángulo_8113" data-name="Rectángulo 8113" width="18.174" height="58.991" transform="translate(112 85.582)" fill="#fff"/>
        <rect id="Rectángulo_8114" data-name="Rectángulo 8114" width="18.174" height="52.407" transform="translate(90.339 92.166)" fill="#fff"/>
        <rect id="Rectángulo_8115" data-name="Rectángulo 8115" width="18.174" height="37.467" transform="translate(68.678 107.105)" fill="#fff"/>
        <rect id="Rectángulo_8116" data-name="Rectángulo 8116" width="18.174" height="24.717" transform="translate(47.017 119.855)" fill="#fff"/>
        <rect id="Rectángulo_8117" data-name="Rectángulo 8117" width="18.174" height="61.772" transform="translate(133.662 82.8)" fill="#f1917e"/>
        <rect id="Rectángulo_8118" data-name="Rectángulo 8118" width="18.174" height="63.55" transform="translate(155.323 81.022)" fill="#f1917e"/>
        <rect id="Rectángulo_8119" data-name="Rectángulo 8119" width="18.174" height="83.2" transform="translate(176.984 61.372)" fill="#f1917e"/>
        <rect id="Rectángulo_8120" data-name="Rectángulo 8120" width="18.174" height="50.261" transform="translate(112 94.312)" fill="#f1917e"/>
        <rect id="Rectángulo_8121" data-name="Rectángulo 8121" width="18.174" height="45.06" transform="translate(90.339 99.513)" fill="#f1917e"/>
        <rect id="Rectángulo_8122" data-name="Rectángulo 8122" width="18.174" height="29.006" transform="translate(68.678 115.567)" fill="#f1917e"/>
        <rect id="Rectángulo_8123" data-name="Rectángulo 8123" width="18.174" height="19.135" transform="translate(47.017 125.438)" fill="#f1917e"/>
        <rect id="Rectángulo_8124" data-name="Rectángulo 8124" width="18.174" height="43.546" transform="translate(133.661 101.027)" fill="#fcc85e"/>
        <rect id="Rectángulo_8125" data-name="Rectángulo 8125" width="18.174" height="51.449" transform="translate(155.322 93.124)" fill="#fcc85e"/>
        <rect id="Rectángulo_8126" data-name="Rectángulo 8126" width="18.174" height="43.769" transform="translate(176.984 100.804)" fill="#fcc85e"/>
        <rect id="Rectángulo_8127" data-name="Rectángulo 8127" width="18.174" height="29.906" transform="translate(112 114.667)" fill="#fcc85e"/>
        <rect id="Rectángulo_8128" data-name="Rectángulo 8128" width="18.174" height="24.14" transform="translate(90.339 120.433)" fill="#fcc85e"/>
        <rect id="Rectángulo_8129" data-name="Rectángulo 8129" width="18.174" height="17.259" transform="translate(68.678 127.314)" fill="#fcc85e"/>
        <rect id="Rectángulo_8130" data-name="Rectángulo 8130" width="18.174" height="16.183" transform="translate(47.017 128.39)" fill="#fcc85e"/>
        <rect id="Rectángulo_8131" data-name="Rectángulo 8131" width="18.174" height="16.069" transform="translate(133.661 128.504)" fill="#315a69"/>
        <rect id="Rectángulo_8132" data-name="Rectángulo 8132" width="18.174" height="28.128" transform="translate(155.322 116.445)" fill="#315a69"/>
        <rect id="Rectángulo_8133" data-name="Rectángulo 8133" width="18.174" height="31.392" transform="translate(176.983 113.181)" fill="#315a69"/>
        <rect id="Rectángulo_8134" data-name="Rectángulo 8134" width="18.174" height="13.074" transform="translate(112 131.499)" fill="#315a69"/>
        <rect id="Rectángulo_8135" data-name="Rectángulo 8135" width="18.174" height="10.554" transform="translate(90.339 134.019)" fill="#315a69"/>
        <rect id="Rectángulo_8136" data-name="Rectángulo 8136" width="18.174" height="12.769" transform="translate(68.678 131.804)" fill="#315a69"/>
        <rect id="Rectángulo_8137" data-name="Rectángulo 8137" width="18.174" height="4.978" transform="translate(47.016 139.595)" fill="#315a69"/>
        <rect id="Rectángulo_8138" data-name="Rectángulo 8138" width="167.52" height="4.262" transform="translate(38.119 144.572)" fill="#184657"/>
        <path id="Trazado_153906" data-name="Trazado 153906" d="M192.234,240.5a.569.569,0,0,1-.289-1.059l21.661-12.75,21.627-14.917a.561.561,0,0,1,.158-.076l21.532-6.545,21.727-20.709a.569.569,0,0,1,.333-.154l21.7-2.284,21.227-12.864a.569.569,0,0,1,.589.972l-21.336,12.93a.568.568,0,0,1-.235.079l-21.63,2.276L257.61,206.067a.57.57,0,0,1-.227.132l-21.577,6.558-21.589,14.889-21.7,12.772a.567.567,0,0,1-.288.078" transform="translate(-136.13 -120.073)" fill="#184657"/>
        <path id="Trazado_153907" data-name="Trazado 153907" d="M188.446,410.009a1.5,1.5,0,1,1,1.5,1.486,1.494,1.494,0,0,1-1.5-1.486" transform="translate(-133.844 -290.154)" fill="#fff"/>
        <path id="Trazado_153908" data-name="Trazado 153908" d="M188.554,410.669a2.055,2.055,0,1,1,2.07-2.055,2.064,2.064,0,0,1-2.07,2.055m0-2.972a.917.917,0,1,0,.933.917.926.926,0,0,0-.933-.917" transform="translate(-132.45 -288.759)" fill="#184657"/>
        <path id="Trazado_153909" data-name="Trazado 153909" d="M337.963,314.446a1.5,1.5,0,1,1,1.5,1.486,1.494,1.494,0,0,1-1.5-1.486" transform="translate(-240.038 -222.28)" fill="#fff"/>
        <path id="Trazado_153910" data-name="Trazado 153910" d="M338.07,315.106a2.055,2.055,0,1,1,2.07-2.054,2.064,2.064,0,0,1-2.07,2.054m0-2.972a.917.917,0,1,0,.933.917.926.926,0,0,0-.933-.917" transform="translate(-238.644 -220.886)" fill="#184657"/>
        <path id="Trazado_153911" data-name="Trazado 153911" d="M487.554,219.929a1.5,1.5,0,1,1,1.5,1.486,1.494,1.494,0,0,1-1.5-1.486" transform="translate(-346.285 -155.149)" fill="#fff"/>
        <path id="Trazado_153912" data-name="Trazado 153912" d="M487.662,220.589a2.055,2.055,0,1,1,2.07-2.055,2.064,2.064,0,0,1-2.07,2.055m0-2.972a.917.917,0,1,0,.933.917.926.926,0,0,0-.933-.917" transform="translate(-344.892 -153.755)" fill="#184657"/>
        <path id="Trazado_153913" data-name="Trazado 153913" d="M637.867,167.378a1.5,1.5,0,1,1,1.5,1.486,1.493,1.493,0,0,1-1.5-1.486" transform="translate(-453.045 -117.825)" fill="#fff"/>
        <path id="Trazado_153914" data-name="Trazado 153914" d="M637.975,168.038a2.055,2.055,0,1,1,2.07-2.055,2.065,2.065,0,0,1-2.07,2.055m0-2.972a.917.917,0,1,0,.932.917.926.926,0,0,0-.932-.917" transform="translate(-451.652 -116.431)" fill="#184657"/>
        <path id="Trazado_153915" data-name="Trazado 153915" d="M263.2,366a1.5,1.5,0,1,1,1.5,1.486A1.494,1.494,0,0,1,263.2,366" transform="translate(-186.941 -258.9)" fill="#fff"/>
        <path id="Trazado_153916" data-name="Trazado 153916" d="M263.312,366.666a2.055,2.055,0,1,1,2.07-2.055,2.064,2.064,0,0,1-2.07,2.055m0-2.972a.917.917,0,1,0,.933.917.926.926,0,0,0-.933-.917" transform="translate(-185.547 -257.506)" fill="#184657"/>
        <path id="Trazado_153917" data-name="Trazado 153917" d="M412.723,291.723a1.5,1.5,0,1,1,1.5,1.486,1.494,1.494,0,0,1-1.5-1.486" transform="translate(-293.137 -206.141)" fill="#fff"/>
        <path id="Trazado_153918" data-name="Trazado 153918" d="M412.831,292.384a2.055,2.055,0,1,1,2.07-2.054,2.064,2.064,0,0,1-2.07,2.054m0-2.972a.917.917,0,1,0,.933.917.926.926,0,0,0-.933-.917" transform="translate(-291.743 -204.747)" fill="#184657"/>
        <path id="Trazado_153919" data-name="Trazado 153919" d="M562.239,212a1.5,1.5,0,1,1,1.5,1.486,1.494,1.494,0,0,1-1.5-1.486" transform="translate(-399.33 -149.519)" fill="#fff"/>
        <path id="Trazado_153920" data-name="Trazado 153920" d="M562.347,212.662a2.055,2.055,0,1,1,2.07-2.054,2.064,2.064,0,0,1-2.07,2.054m0-2.972a.917.917,0,1,0,.933.917.926.926,0,0,0-.933-.917" transform="translate(-397.937 -148.125)" fill="#184657"/>
        <path id="Trazado_153921" data-name="Trazado 153921" d="M299.085,28.764H283.061a6.369,6.369,0,0,1-6.369-6.369V6.37A6.369,6.369,0,0,1,283.061,0h16.024a6.369,6.369,0,0,1,6.369,6.369V22.394a6.369,6.369,0,0,1-6.369,6.369" transform="translate(-196.521 -0.001)" fill="#035e80"/>
        <path id="Trazado_153922" data-name="Trazado 153922" d="M314.9,29.544a6.451,6.451,0,0,1-.1-1.067c0-1.067.452-2.053,1.889-3.161,1.375-1.047,1.827-1.5,1.827-2.279,0-.8-.534-1.416-1.95-1.416a12.335,12.335,0,0,0-3.49.718c-.39,0-.636-.677-.636-1.252,0-.534.247-.9,1.047-1.129a11.449,11.449,0,0,1,3.1-.39c2.874,0,4.27,1.478,4.27,3.367,0,1.457-.657,2.525-2.381,3.736-1.642,1.149-1.827,2.012-1.806,3,0,.308-.226.37-.883.37-.636,0-.8-.041-.883-.493m-.308,3.675c0-1.006.308-1.5,1.375-1.5,1.026,0,1.4.431,1.4,1.5,0,1.047-.369,1.5-1.4,1.5-1.067,0-1.375-.452-1.375-1.5" transform="translate(-221.911 -13.898)" fill="#035e80"/>
        <path id="Trazado_153923" data-name="Trazado 153923" d="M299.085,28.764H283.061a6.369,6.369,0,0,1-6.369-6.369V6.37A6.369,6.369,0,0,1,283.061,0h16.024a6.369,6.369,0,0,1,6.369,6.369V22.394a6.369,6.369,0,0,1-6.369,6.369" transform="translate(-196.521 -0.001)" fill="#e85f5b"/>
        <path id="Trazado_153924" data-name="Trazado 153924" d="M314.9,29.544a6.451,6.451,0,0,1-.1-1.067c0-1.067.452-2.053,1.889-3.161,1.375-1.047,1.827-1.5,1.827-2.279,0-.8-.534-1.416-1.95-1.416a12.335,12.335,0,0,0-3.49.718c-.39,0-.636-.677-.636-1.252,0-.534.247-.9,1.047-1.129a11.449,11.449,0,0,1,3.1-.39c2.874,0,4.27,1.478,4.27,3.367,0,1.457-.657,2.525-2.381,3.736-1.642,1.149-1.827,2.012-1.806,3,0,.308-.226.37-.883.37-.636,0-.8-.041-.883-.493m-.308,3.675c0-1.006.308-1.5,1.375-1.5,1.026,0,1.4.431,1.4,1.5,0,1.047-.369,1.5-1.4,1.5-1.067,0-1.375-.452-1.375-1.5" transform="translate(-221.911 -13.898)" fill="#fff"/>
        <path id="Trazado_153925" data-name="Trazado 153925" d="M325.488,188.942H312.826a6.369,6.369,0,0,1-6.369-6.369V169.911a6.369,6.369,0,0,1,6.369-6.369h12.661a6.369,6.369,0,0,1,6.369,6.369v12.661a6.369,6.369,0,0,1-6.369,6.369" transform="translate(-217.661 -116.156)" fill="#fcc14a"/>
        <path id="Trazado_153926" data-name="Trazado 153926" d="M341.04,190.351v1.758c0,.453-.254.507-1,.507-.762,0-1.015-.054-1.015-.507v-1.686a7.849,7.849,0,0,1-2.284-.471c-.671-.254-.852-.544-.852-1.034,0-.471.181-1.16.544-1.16a10.341,10.341,0,0,0,3.336.888c1.577,0,2.338-.761,2.338-1.885s-.725-1.776-2.61-2.266c-2.32-.6-3.626-1.777-3.626-3.7a3.555,3.555,0,0,1,3.136-3.644V175.4c0-.453.254-.507,1.015-.507.743,0,1,.054,1,.507v1.686a7.754,7.754,0,0,1,1.831.326c.689.2.888.489.888.943,0,.471-.2,1.16-.562,1.16a10.166,10.166,0,0,0-2.955-.653c-1.577,0-2.175.779-2.175,1.758,0,1,.635,1.523,2.429,1.994,2.538.671,3.9,1.849,3.9,4.006a3.793,3.793,0,0,1-3.336,3.734" transform="translate(-238.555 -124.214)" fill="#fff"/>
        <path id="Trazado_153927" data-name="Trazado 153927" d="M458.351,88.761H442.327a6.369,6.369,0,0,1-6.369-6.369V66.367A6.369,6.369,0,0,1,442.327,60h16.024a6.369,6.369,0,0,1,6.369,6.369V82.391a6.369,6.369,0,0,1-6.369,6.369" transform="translate(-309.639 -42.614)" fill="#3d1f71"/>
        <path id="Trazado_153928" data-name="Trazado 153928" d="M480.879,94.476c0-1.006.308-1.5,1.375-1.5,1.026,0,1.4.431,1.4,1.5,0,1.047-.37,1.5-1.4,1.5-1.067,0-1.375-.452-1.375-1.5m.534-3.921c-.164-2.956-.349-6.22-.349-8.971,0-.534.287-.6,1.191-.6.924,0,1.211.061,1.211.6,0,2.751-.185,6.015-.349,8.971-.02.369-.226.411-.862.411-.616,0-.821-.041-.842-.411" transform="translate(-341.544 -57.522)" fill="#fff"/>
      </g>
    </g>
  </g>
</svg>
