<svg xmlns="http://www.w3.org/2000/svg" xmlns:xlink="http://www.w3.org/1999/xlink" width="571.656" height="274.168" viewBox="0 0 571.656 274.168">
  <defs>
    <clipPath id="clip-path">
      <rect id="Rectángulo_7470" data-name="Rectángulo 7470" width="89.353" height="87.002" fill="none"/>
    </clipPath>
    <clipPath id="clip-path-2">
      <rect id="Rectángulo_7470-2" data-name="Rectángulo 7470" width="57.848" height="56.326" fill="none"/>
    </clipPath>
    <clipPath id="clip-path-3">
      <rect id="Rectángulo_7466" data-name="Rectángulo 7466" width="548.2" height="173.176" fill="none"/>
    </clipPath>
    <clipPath id="clip-path-5">
      <rect id="Rectángulo_7453" data-name="Rectángulo 7453" width="15.521" height="19.342" fill="none"/>
    </clipPath>
    <clipPath id="clip-path-6">
      <path id="Trazado_152655" data-name="Trazado 152655" d="M390.7,56.776a4.275,4.275,0,0,1-.13-.689c-.325-2.826,2.223-17.31,2.223-17.31l-11.974-1.343s-2.272,14.326-2.945,16.677a2.435,2.435,0,0,1-.6,1.015Z" transform="translate(-377.271 -37.434)" fill="none"/>
    </clipPath>
    <linearGradient id="linear-gradient" x1="-10.847" y1="7.745" x2="-10.818" y2="7.745" gradientUnits="objectBoundingBox">
      <stop offset="0" stop-color="#f0c3a8"/>
      <stop offset="1" stop-color="#fff"/>
    </linearGradient>
    <clipPath id="clip-path-7">
      <rect id="Rectángulo_7454" data-name="Rectángulo 7454" width="8.601" height="10.584" fill="none"/>
    </clipPath>
    <clipPath id="clip-path-8">
      <rect id="Rectángulo_7457" data-name="Rectángulo 7457" width="13.007" height="16.209" fill="none"/>
    </clipPath>
    <clipPath id="clip-path-9">
      <path id="Trazado_152756" data-name="Trazado 152756" d="M556.25,41.57a3.5,3.5,0,0,1-.108-.577C555.869,38.624,558,26.486,558,26.486L547.97,25.361s-1.9,12-2.468,13.976a2.041,2.041,0,0,1-.5.851Z" transform="translate(-544.997 -25.361)" fill="none"/>
    </clipPath>
    <linearGradient id="linear-gradient-2" x1="-18.806" y1="9.727" x2="-18.771" y2="9.727" xlink:href="#linear-gradient"/>
    <clipPath id="clip-path-10">
      <rect id="Rectángulo_7458" data-name="Rectángulo 7458" width="7.208" height="8.869" fill="none"/>
    </clipPath>
    <clipPath id="clip-path-12">
      <path id="Trazado_152771" data-name="Trazado 152771" d="M686.463,87.2a3.579,3.579,0,0,1-.109-.577c-.273-2.369,1.863-14.507,1.863-14.507l-10.035-1.125s-1.9,12.005-2.468,13.976a2.049,2.049,0,0,1-.5.851Z" transform="translate(-675.209 -70.987)" fill="none"/>
    </clipPath>
    <linearGradient id="linear-gradient-3" x1="-23.334" y1="7.898" x2="-23.299" y2="7.898" xlink:href="#linear-gradient"/>
    <clipPath id="clip-path-14">
      <rect id="Rectángulo_7463" data-name="Rectángulo 7463" width="19.853" height="22.539" fill="none"/>
    </clipPath>
    <clipPath id="clip-path-15">
      <path id="Trazado_152792" data-name="Trazado 152792" d="M246.692,98.243a4.522,4.522,0,0,1,.007-.756c.248-3.059,5.981-17.852,5.981-17.852L240.29,75.7s-5.408,14.684-6.613,17.031a2.634,2.634,0,0,1-.85.948Z" transform="translate(-232.827 -75.704)" fill="none"/>
    </clipPath>
    <linearGradient id="linear-gradient-4" x1="-5.115" y1="4.662" x2="-5.093" y2="4.662" xlink:href="#linear-gradient"/>
    <clipPath id="clip-path-16">
      <rect id="Rectángulo_7464" data-name="Rectángulo 7464" width="9.491" height="12.679" fill="none"/>
    </clipPath>
  </defs>
  <g id="Grupo_86957" data-name="Grupo 86957" transform="translate(-154.942 -1497.401)">
    <path id="Trazado_152539" data-name="Trazado 152539" d="M355.584,949.073H36.676A36.676,36.676,0,0,1,0,912.4v-28.94H556.354V912.4a36.676,36.676,0,0,1-36.676,36.676" transform="translate(166.645 822.497)" fill="#fcfbed"/>
    <g id="Grupo_86952" data-name="Grupo 86952" transform="translate(154.942 1497.401)">
      <g id="Grupo_86951" data-name="Grupo 86951" transform="translate(0 112.159)">
        <path id="Trazado_152836" data-name="Trazado 152836" d="M48.69,378.179a18.71,18.71,0,0,0-2.9,22.621h85.237l-.029-.281a20.305,20.305,0,0,0-2.874-34.79,17.4,17.4,0,0,0-11.39-27.357,11.166,11.166,0,0,0-8.4-15.742,16.095,16.095,0,1,0-31.7.929A19,19,0,0,0,54.209,351.5a13.922,13.922,0,0,0-5.519,26.679" transform="translate(-32.769 -304.228)" fill="#41b093"/>
        <g id="Grupo_86942" data-name="Grupo 86942" transform="translate(0 9.571)" opacity="0.21" style="mix-blend-mode: overlay;isolation: isolate">
          <g id="Grupo_86941" data-name="Grupo 86941" transform="translate(0 0)">
            <g id="Grupo_86940" data-name="Grupo 86940" clip-path="url(#clip-path)">
              <path id="Trazado_152837" data-name="Trazado 152837" d="M81.831,421.837a16.856,16.856,0,0,1,2.615,20.38H7.657l.026-.253a18.293,18.293,0,0,1,2.589-31.342,15.678,15.678,0,0,1,10.261-24.646A10.06,10.06,0,0,1,28.1,371.794a14.5,14.5,0,1,1,28.558.837,17.116,17.116,0,0,1,20.2,25.172,12.542,12.542,0,0,1,4.972,24.035" transform="translate(0 -355.215)" fill="#f4ffd4"/>
            </g>
          </g>
        </g>
      </g>
      <path id="Trazado_152838" data-name="Trazado 152838" d="M547.351,10.333a3.442,3.442,0,0,1,0-6.885c.1,0,.193.007.289.015a5.167,5.167,0,0,1,9.76.014,3.35,3.35,0,0,1,1.942.327,4.434,4.434,0,1,1,3.909,6.529Z" transform="translate(-120.236 74.25)" fill="#bce1e9"/>
      <path id="Trazado_152839" data-name="Trazado 152839" d="M150.22,228.153a3.442,3.442,0,0,1,0-6.885c.1,0,.193.007.289.015a5.167,5.167,0,0,1,9.76.014,3.35,3.35,0,0,1,1.942.327,4.434,4.434,0,1,1,3.909,6.529Z" transform="translate(-40.024 -138.404)" fill="#bce1e9"/>
      <path id="Trazado_152840" data-name="Trazado 152840" d="M301.316,53.04a7.317,7.317,0,1,0-2.5-14.187,11.315,11.315,0,0,0-21.751-.471,7.884,7.884,0,1,0-4.032,14.658Z" transform="translate(-40.331 -30.415)" fill="#bce1e9"/>
      <g id="Grupo_86947" data-name="Grupo 86947" transform="translate(358.147 96.08)">
        <path id="Trazado_152849" data-name="Trazado 152849" d="M158.893,127.346h65.445V36.153L192.152,14.694,158.893,36.153Z" transform="translate(-78.938 -14.694)" fill="#ffca66"/>
        <rect id="Rectángulo_7483" data-name="Rectángulo 7483" width="22.173" height="91.194" transform="translate(57.782 21.458)" fill="#d0ecd3"/>
        <path id="Trazado_152850" data-name="Trazado 152850" d="M197.286,14.694H175.114L141.855,36.153h22.172Z" transform="translate(-84.072 -14.694)" fill="#824f47"/>
        <rect id="Rectángulo_7484" data-name="Rectángulo 7484" width="6.935" height="12.83" transform="translate(105.741 45.037)" fill="#646e6e"/>
        <rect id="Rectángulo_7485" data-name="Rectángulo 7485" width="6.935" height="12.83" transform="translate(105.741 76.244)" fill="#646e6e"/>
        <rect id="Rectángulo_7486" data-name="Rectángulo 7486" width="57.301" height="45.597" transform="translate(22.654 67.055)" fill="#f47b52"/>
        <path id="Trazado_152851" data-name="Trazado 152851" d="M120.105,73.285l-11.1-30.5-11.557,30.5v45.6h22.653Z" transform="translate(-97.452 -6.229)" fill="#d0ecd3"/>
        <path id="Trazado_152852" data-name="Trazado 152852" d="M106.332,42.787h57.3l11.1,30.5h-57.3Z" transform="translate(-94.776 -6.229)" fill="#de4545"/>
        <rect id="Rectángulo_7487" data-name="Rectángulo 7487" width="6.935" height="17.38" transform="translate(47.837 95.272)" fill="#646e6e"/>
        <rect id="Rectángulo_7488" data-name="Rectángulo 7488" width="6.935" height="17.38" transform="translate(7.859 95.272)" fill="#646e6e"/>
      </g>
      <g id="Grupo_86950" data-name="Grupo 86950" transform="translate(309.258 146.209)">
        <path id="Trazado_152853" data-name="Trazado 152853" d="M45.746,352.1a12.113,12.113,0,0,0-1.879,14.645H99.051l-.019-.182a13.146,13.146,0,0,0-1.861-22.523A11.266,11.266,0,0,0,89.8,326.334a7.229,7.229,0,0,0-5.441-10.192,10.42,10.42,0,1,0-20.523.6,12.3,12.3,0,0,0-14.514,18.089A9.013,9.013,0,0,0,45.746,352.1" transform="translate(-35.439 -304.228)" fill="#41b093"/>
        <g id="Grupo_86949" data-name="Grupo 86949" transform="translate(0 6.196)" opacity="0.21" style="mix-blend-mode: overlay;isolation: isolate">
          <g id="Grupo_86941-2" data-name="Grupo 86941" transform="translate(0 0)">
            <g id="Grupo_86940-2" data-name="Grupo 86940" clip-path="url(#clip-path-2)">
              <path id="Trazado_152837-2" data-name="Trazado 152837" d="M52.979,398.347a10.913,10.913,0,0,1,1.693,13.194H4.957l.017-.164A11.843,11.843,0,0,1,6.65,391.086a10.15,10.15,0,0,1,6.643-15.956,6.513,6.513,0,0,1,4.9-9.181,9.387,9.387,0,1,1,18.489.542,11.081,11.081,0,0,1,13.076,16.3,8.12,8.12,0,0,1,3.219,15.561" transform="translate(0 -355.215)" fill="#f4ffd4"/>
            </g>
          </g>
        </g>
      </g>
      <g id="Grupo_86939" data-name="Grupo 86939" transform="translate(23.456 42.847)">
        <g id="Grupo_86938" data-name="Grupo 86938" clip-path="url(#clip-path-3)">
          <g id="Grupo_86937" data-name="Grupo 86937">
            <g id="Grupo_86936" data-name="Grupo 86936" clip-path="url(#clip-path-3)">
              <path id="Trazado_152652" data-name="Trazado 152652" d="M439.834,80.811c-2.291-3.917-6.539-2.581-10.418-.554-4.8,2.508-15.089,2.63-20.254,2.894-2.194-1.048-9.809-9.179-12.093-11.4-7.453-7.252-18.884,4.156-11.419,11.42,6.254,6.086,13.164,14.215,22.663,14.637,5.708.253,18.02-4.113,27.454-9.044,3.864-2.019,6.192-4.315,4.066-7.951m-30.16,2.539c.149.036.121.036,0,0m1.93-.389c.369-.059.267-.039,0,0" transform="translate(-135.67 -24.579)" fill="#e28e74"/>
              <path id="Trazado_152653" data-name="Trazado 152653" d="M394.375,77.183c-1.409-6.118-4.474-12.671-10.527-14.8-4.128-1.455-8.832-.461-12.649,1.652a30.321,30.321,0,0,0-2.938,1.84c12.876,5.121,19.875,17.65,22.969,31.144.729-2.163,1.5-4.314,2.259-6.459a27.176,27.176,0,0,0,1.565-5.737,22.254,22.254,0,0,0-.678-7.635" transform="translate(-130.374 -21.84)" fill="#f29d7e"/>
              <path id="Trazado_152654" data-name="Trazado 152654" d="M390.977,58.477a2.719,2.719,0,0,1-1.2-2.389c-.326-2.826,2.222-17.311,2.222-17.311L380.02,37.434s-2.272,14.326-2.946,16.677a9.537,9.537,0,0,1-2.057,2.823c4.758,5.743,13.669,4.309,15.959,1.543" transform="translate(-132.766 -13.253)" fill="#f29d7e"/>
              <g id="Grupo_86908" data-name="Grupo 86908" transform="translate(243.707 24.181)" style="mix-blend-mode: multiply;isolation: isolate">
                <g id="Grupo_86907" data-name="Grupo 86907">
                  <g id="Grupo_86906" data-name="Grupo 86906" clip-path="url(#clip-path-5)">
                    <g id="Grupo_86905" data-name="Grupo 86905" transform="translate(0 0)">
                      <g id="Grupo_86904" data-name="Grupo 86904" clip-path="url(#clip-path-6)">
                        <rect id="Rectángulo_7452" data-name="Rectángulo 7452" width="22.162" height="19.226" transform="translate(-3.959 18.494) rotate(-77.918)" fill="url(#linear-gradient)"/>
                      </g>
                    </g>
                  </g>
                </g>
              </g>
              <g id="Grupo_86911" data-name="Grupo 86911" transform="translate(249.979 29.05)" opacity="0.58" style="mix-blend-mode: multiply;isolation: isolate">
                <g id="Grupo_86910" data-name="Grupo 86910">
                  <g id="Grupo_86909" data-name="Grupo 86909" clip-path="url(#clip-path-7)">
                    <path id="Trazado_152656" data-name="Trazado 152656" d="M392.653,55.475a8.571,8.571,0,0,0,1.45.075c.716-4.956,1.479-9.58,1.479-9.58l-8.563-1c-.34,5.424,1.594,10.007,5.634,10.5" transform="translate(-386.981 -44.971)" fill="#cbc7ff"/>
                  </g>
                </g>
              </g>
              <path id="Trazado_152657" data-name="Trazado 152657" d="M399.316,34.344c.166,5.827-1.858,10.675-7.453,10.771-4.282.122-7.888-4.5-8.054-10.329s1.161-10.591,7.453-10.771c6.927-.2,7.888,4.5,8.054,10.329" transform="translate(-135.874 -8.5)" fill="#f29d7e"/>
              <path id="Trazado_152658" data-name="Trazado 152658" d="M395.2,36.488a8.642,8.642,0,0,1-4.4-2.047,4.194,4.194,0,0,1-.334-.4c-.03-.039-.058-.081-.087-.122-.076-.107-.147-.218-.214-.332-.024-.041-.049-.081-.072-.123a6.027,6.027,0,0,1-.435-1c-.013-.036-.025-.074-.036-.11q-.075-.23-.134-.468c-.008-.028-.016-.056-.023-.085a9.983,9.983,0,0,1-.209-1.2l0-.036q-.035-.309-.054-.623c.329-.957,2.738-5.467,7.659-3.625-1.222-5.283-8.422-5.84-8.422-5.84a2.361,2.361,0,0,1,.577.63,4.483,4.483,0,0,0-3.854.131s.793.03.883,1.054c0,0-1.479-1.535-3.862.323,0,0,1.041.006.919,1.484-.044.043-.089.085-.132.13-.341.106-1.291.319-1.6-.526a1.86,1.86,0,0,0,.374,1.825,2.014,2.014,0,0,0,.252.136,4.391,4.391,0,0,0-.532,1.4,5.411,5.411,0,0,0-.3,1.037,42,42,0,0,0-1.31,6.2,4.543,4.543,0,0,0,.2,2.313,2.932,2.932,0,0,0,.543.814,7.057,7.057,0,0,0,2.091,1.427,2.038,2.038,0,0,1,.668.446c.494.579.089,1.411.022,2.147a3.574,3.574,0,0,0,1.971,3.081,6.072,6.072,0,0,0,1.663,1.814l.2.089c-.014.006-.022.015-.035.021l.749.318s-.4.529-.384.531a2.092,2.092,0,0,0,.556,2.022c-.123-1,.938-1.275,1.335-1.342l.2.064c.877,1.42-.164,1.957-.164,1.957a5.988,5.988,0,0,0,.951.106,2.9,2.9,0,0,0,3.088-1.752,1.131,1.131,0,0,1-.349,1.507,5.047,5.047,0,0,0,3.933-1.835,2.667,2.667,0,0,1-.256.926s2.827-3.809,2.37-6.431a12.082,12.082,0,0,0-.2-1.661q-.578-1.791-1.154-3.581c-.029-.093-.158-.679-.183-.777-.948-.136-1.7.176-2.468-.019" transform="translate(-134.459 -7.25)" fill="#683726"/>
              <path id="Trazado_152659" data-name="Trazado 152659" d="M402.94,37.1a.584.584,0,1,1-.6-.567.584.584,0,0,1,.6.567" transform="translate(-142.238 -12.933)"/>
              <path id="Trazado_152660" data-name="Trazado 152660" d="M387.315,42.085a4.136,4.136,0,1,1-.236-8.268Z" transform="translate(-135.614 -11.972)" fill="#ed6d53"/>
              <path id="Trazado_152661" data-name="Trazado 152661" d="M388.33,41.2a2.179,2.179,0,1,1-.124-4.357Z" transform="translate(-136.686 -13.044)" fill="#bd422a"/>
              <path id="Trazado_152662" data-name="Trazado 152662" d="M400.688,41.373a1.812,1.812,0,1,1-1.863-1.76,1.812,1.812,0,0,1,1.863,1.76" transform="translate(-140.572 -14.024)" fill="#ed6d53"/>
              <path id="Trazado_152663" data-name="Trazado 152663" d="M406.6,36.695l2.614,3.285a.672.672,0,0,1-.381,1.076l-2.233.487Z" transform="translate(-143.948 -12.991)" fill="#ed6d53"/>
              <path id="Trazado_152664" data-name="Trazado 152664" d="M399.188,34.524a6.279,6.279,0,0,1,1.328-.352,7.646,7.646,0,0,1,1.377-.08,6.087,6.087,0,0,1,1.382.2,4.734,4.734,0,0,1,.671.233c.108.052.214.106.318.164l.152.088.07.048.02.022h0c-.076-.039-.252.072-.251.152a.241.241,0,0,1,.444.185.283.283,0,0,1-.293.149l-.1-.014-.087-.008-.161-.021q-.159-.019-.318-.029l-.629-.054c-.419-.028-.838-.054-1.262-.064-.848-.042-1.7-.037-2.6-.141a.247.247,0,0,1-.065-.477" transform="translate(-141.267 -12.068)" fill="#683726"/>
              <path id="Trazado_152665" data-name="Trazado 152665" d="M406.439,46.684a4.047,4.047,0,0,0,.484-.045c.084.32.173.682.258,1.071a2.8,2.8,0,0,1-.721.114c-.95.027-1.734-.4-1.749-.951s.779-.162,1.729-.189" transform="translate(-143.278 -16.489)" fill="#fff"/>
              <path id="Trazado_152666" data-name="Trazado 152666" d="M594.691,87.936a2.125,2.125,0,0,0,.436.229,3.455,3.455,0,0,1-.436-.229" transform="translate(-210.536 -31.132)" fill="#0db2b2"/>
              <path id="Trazado_152667" data-name="Trazado 152667" d="M588.988,45.039c-.952,3.652-3.548,11.374-5.392,17.073l-.636-.833-6.651,6.73c2.352,2.579,4.393,4.832,6.135,6.407a3.891,3.891,0,0,0,6.077-1.14c3.646-7.362,5.945-22.366,6.972-26.3,1.452-5.572-5.049-7.52-6.5-1.933" transform="translate(-204.029 -14.762)" fill="#236780"/>
              <path id="Trazado_152668" data-name="Trazado 152668" d="M565.412,65.647c1.347-.919,4.7-8.852,5.448-9.988,2.592,3.155,5.586,7.081,8.243,10.564l-6.652,6.73c-2.212-2.426-4.594-5.019-7.039-7.305" transform="translate(-200.171 -19.705)" fill="#236780"/>
              <path id="Trazado_152669" data-name="Trazado 152669" d="M523.947,257.665c1.23,1.6,5.024,4.23,7.569,1.324l5.68,1.948c1.714.588,1.932,1.814,1.092,2.63a3.487,3.487,0,0,1-2.521.8l-11.79-.237c-.488-.01-.847-.256-.872-.545a.343.343,0,0,1-.007-.136Z" transform="translate(-185.189 -91.22)" fill="#161616"/>
              <path id="Trazado_152670" data-name="Trazado 152670" d="M553.608,257.688c1.286,1.6,5.249,4.234,7.9,1.33l5.931,1.953c1.791.59,2.019,1.815,1.143,2.631a3.742,3.742,0,0,1-2.632.8l-12.308-.247c-.51-.01-.884-.257-.911-.545a.32.32,0,0,1-.008-.136Z" transform="translate(-195.678 -91.228)" fill="#161616"/>
              <path id="Trazado_152671" data-name="Trazado 152671" d="M530.354,119.771c-2.8,25.774-5.688,60.952-7.567,86.8-.545,7.494,11.359,7.46,11.9,0,1.878-25.853,4.015-51.708,6.818-77.482.342-3.138-2.979-5.835-5.951-5.835-3.5,0-4.86-6.635-5.2-3.488" transform="translate(-185.074 -42.102)" fill="#184657"/>
              <path id="Trazado_152672" data-name="Trazado 152672" d="M551.635,131.608c.019.122.037.245.055.368.214,1.451-.121-1-.028-.221.176,1.468.366,2.935.524,4.406.585,5.462.973,10.945,1.226,16.43a340.027,340.027,0,0,1-1.99,54.948c-.365,3.136,3,5.834,5.951,5.834,3.521,0,5.585-2.69,5.951-5.834,3.022-25.971,3.214-58.129-.869-84.073-.49-3.117-3.823.2-6.665.965-3.394.915-4.648,4.051-4.156,7.177" transform="translate(-195.208 -43.246)" fill="#184657"/>
              <path id="Trazado_152673" data-name="Trazado 152673" d="M525.621,56.2c-1.472,14.06.524,35.006,10.818,48.467a12.023,12.023,0,0,0,6.148,4.391l-6.347-59.992c-1.074.545-10.228,3.411-10.618,7.134" transform="translate(-185.932 -17.371)" fill="#236780"/>
              <path id="Trazado_152674" data-name="Trazado 152674" d="M570.823,58.609c1.791-4.595-1.352-8.433-6.137-10.319l.574,34.123c.147-7.8,2.559-16.1,5.564-23.8" transform="translate(-199.914 -17.096)" fill="#236780"/>
              <path id="Trazado_152675" data-name="Trazado 152675" d="M557.332,81.725,556.758,47.6a18.216,18.216,0,0,0-14.465.5L548.64,108.1a7.436,7.436,0,0,0,4.408-.127c3.933-1.351,6.112-6.006,6.209-9.978s-1.277-7.631-1.72-11.507c-.072-.634-.122-1.273-.158-1.916l.017.984-.017-.984c-.053-.939-.066-1.888-.048-2.844" transform="translate(-191.986 -16.408)" fill="#9ce8ef"/>
              <path id="Trazado_152676" data-name="Trazado 152676" d="M598.021,37.863h-4.677a1.116,1.116,0,0,1-1.109-1.461l2.955-12.276A1.98,1.98,0,0,1,597,22.665h4.676a1.117,1.117,0,0,1,1.11,1.461L599.834,36.4a1.982,1.982,0,0,1-1.813,1.461" transform="translate(-209.652 -8.024)" fill="#302d2d"/>
              <path id="Trazado_152677" data-name="Trazado 152677" d="M597.2,34.072a.942.942,0,0,0,.616,1.178l2.479.777a2.649,2.649,0,0,1-.335.337l-2.431-.762a.94.94,0,1,0-.562,1.793l.986.309c-.122.105-.24.216-.353.33l-.546-.171a.939.939,0,0,0-.59,1.782,6.263,6.263,0,0,0-.326.822s6.261,1.759,6.106.442a6.011,6.011,0,0,0,1.871-4.215,5.22,5.22,0,0,0-.554-1.941l1.35-3.227a.269.269,0,0,0-.144-.351l-.55-.23a.92.92,0,0,0-.275-.145,3.692,3.692,0,0,1-.589-.217.257.257,0,0,0-.144-.013l-1.767-.554a.94.94,0,1,0-.563,1.794l1.475.463-.755,1.8q-.124.152-.235.316l-2.987-.937a.943.943,0,0,0-1.178.616" transform="translate(-210.942 -10.612)" fill="#f29d7e"/>
              <path id="Trazado_152678" data-name="Trazado 152678" d="M536.207,147.079H529.04V143.7a3.281,3.281,0,0,0-3.28-3.276h-.591l.028,1.48h.563a1.8,1.8,0,0,1,1.8,1.8v3.382H515.077V143.7a1.8,1.8,0,0,1,1.744-1.791s-.014-.273-.014-.273a4.157,4.157,0,0,1-.159-1.189A3.272,3.272,0,0,0,513.6,143.7v3.382h-7.1a2.255,2.255,0,0,0-2.249,2.248v20.832a2.255,2.255,0,0,0,2.249,2.248h29.708a2.255,2.255,0,0,0,2.248-2.248V149.327a2.255,2.255,0,0,0-2.248-2.248" transform="translate(-178.518 -49.712)" fill="#8e4233"/>
              <path id="Trazado_152679" data-name="Trazado 152679" d="M523.615,140.012s.044,2.36.044,2.36a.833.833,0,0,0,1.665-.052l0-.145V142.1c.055.036.115.072.171.1l.014.723a1,1,0,0,0,2.008-.057v-.081h.163a1.1,1.1,0,0,0,2.194-.134l0-.191-.006-.323c.06-.037.119-.079.178-.12l.007.37a1,1,0,0,0,2.009-.055l-.023-.176-.041-2.15-.027-1.48-.01-.508a1.078,1.078,0,0,0,.689-.435,1.118,1.118,0,0,0-.231-1.566l-1.267-.941-6.727.349a4.166,4.166,0,0,0-.882,2.114l-.067.581a4.046,4.046,0,0,0-.026.43,4.153,4.153,0,0,0,.158,1.189Z" transform="translate(-185.312 -47.822)" fill="#f29d7e"/>
              <path id="Trazado_152680" data-name="Trazado 152680" d="M530.763,106.944q-.127-1.176-.253-2.352c-.223-2.055-.444-4.11-.65-6.166a158.89,158.89,0,0,1-.981-19.129c.041-1.984.138-3.9.294-5.782,0,0,1.1-8.841,2.295-13.4.5-1.908-.66-3.686-2.824-4.29-2.011-.561-4.507.654-4.973,2.436A89.348,89.348,0,0,0,521.4,70.392q-.077.653-.143,1.307c-1.132,11.1.022,22.2,1.212,33.264q.129,1.2.256,2.4l.757-.039,6.727-.349Z" transform="translate(-184.374 -19.715)" fill="#184657"/>
              <path id="Trazado_152681" data-name="Trazado 152681" d="M740.989,257.563c1.286,1.6,5.249,4.234,7.9,1.33l5.931,1.953c1.791.59,2.019,1.815,1.143,2.631a3.741,3.741,0,0,1-2.632.8l-12.308-.247c-.51-.01-.884-.257-.911-.545a.32.32,0,0,1-.008-.136Z" transform="translate(-262.016 -91.184)" fill="#302d2d"/>
              <path id="Trazado_152682" data-name="Trazado 152682" d="M712.739,257.688c1.285,1.6,5.249,4.234,7.9,1.33l5.931,1.953c1.791.59,2.019,1.815,1.143,2.631a3.742,3.742,0,0,1-2.632.8l-12.308-.247c-.51-.01-.884-.257-.911-.545a.321.321,0,0,1-.008-.136Z" transform="translate(-252.015 -91.228)" fill="#161616"/>
              <path id="Trazado_152683" data-name="Trazado 152683" d="M744.727,166.437v-8.27h6.225v12.189a11.083,11.083,0,0,0-1-1.2,10.492,10.492,0,0,0-5.225-2.723" transform="translate(-263.653 -55.995)" fill="#ba8a58"/>
              <path id="Trazado_152684" data-name="Trazado 152684" d="M728.681,175.319c-2.3-3.73-6.877-4.075-10.81-4.6-4.216-.568-8.454-.979-12.7-1.273v-2.2c6.57.219,13.135.693,19.648,1.531a55.3,55.3,0,0,1,5.9.877,10.49,10.49,0,0,1,5.225,2.723,11.085,11.085,0,0,1,1,1.2c3.911,5.312,3.589,14.2,3.625,20.172a280.022,280.022,0,0,1-1.842,30.07,7.523,7.523,0,0,1-1.194,3.41,5.626,5.626,0,0,1-4.8,2.587,6.532,6.532,0,0,1-4.969-2.6,4.829,4.829,0,0,1-1.028-3.4c.972-9.513,1.817-19.092,1.835-28.665,1.2-5.909,3.5-14.328.11-19.826" transform="translate(-249.649 -59.208)" fill="#113e4e"/>
              <path id="Trazado_152685" data-name="Trazado 152685" d="M748.755,132.172a5.013,5.013,0,0,1-.156.495l1.3.97H738.681a1.671,1.671,0,0,0-1.67,1.67v.116A1.665,1.665,0,0,0,738.149,137H730.62c1.435-.658,2.367-1.7,2.367-2.878,0-1.238-1.025-2.329-2.586-2.979a.684.684,0,0,0,.374-.561.694.694,0,0,0-.651-.731l-4.083-.238c-.009-.041-.018-.081-.028-.123l.426.012q2.533.06,5.066.075c3.59.021,7.178-.034,10.766-.142a3.787,3.787,0,0,1,2.178.553,9.621,9.621,0,0,1,1.552-.313,3.976,3.976,0,0,1,1.669.121.671.671,0,0,1,.369.122l4.509,3.351a.676.676,0,0,1,.24.369h-2.065Z" transform="translate(-257.028 -45.823)" fill="#ed6d53"/>
              <path id="Trazado_152686" data-name="Trazado 152686" d="M687.276,112.984l-2.446-4.3c-.7,2.228-1.3,4.473-1.77,6.713-.592-.01-1.183-.012-1.775-.026q-1.266-.03-2.533-.072c-.619-.02-2.041-.439-1.664.114a24.716,24.716,0,0,1-1.936-3.575l-1.382-2.428a44.418,44.418,0,0,1-6.981,3.832c1.56,2.909,3.1,6.892,5.818,8.725a11.122,11.122,0,0,0,5.849,1.454v10.741h3.509v7.715q-6.007-.249-12.016-.221a7.163,7.163,0,0,0-.727.041l-5.386-.39c-7.221-12.332-7.285-26.768-5.972-39,.393-3.661,3.789-6.473,6.648-8.962a14.2,14.2,0,0,1,1.8-1.331,15.292,15.292,0,0,1,3.568-1.623c-.076.152-.3.327-.2.463,2.293,3.2,1.307,1.826,3.088,2.784a34.2,34.2,0,0,0,3.769,1.473c.907.118.515.022,1.462-1.056,0,0,1.754,1.076.879-1.594l1.276-2.091c4.665,1.246,7.965,4.126,7.96,8l5.354,9.4,1.1,1.934a44.388,44.388,0,0,1-6.981,3.832q-.155-.289-.31-.563" transform="translate(-232.67 -31.995)" fill="#9ce8ef"/>
              <path id="Trazado_152687" data-name="Trazado 152687" d="M721.484,141.027h-1.15a3.855,3.855,0,0,0,.719-.218c.138.077.281.15.431.218" transform="translate(-255.017 -49.85)" fill="#f38c65"/>
              <path id="Trazado_152688" data-name="Trazado 152688" d="M713.868,125.909c-.036,0-.068,0-.1,0q-4.282.129-8.565.132c-.328-.658-.647-1.3-.966-1.895a44.416,44.416,0,0,0,6.981-3.831l1.382,2.427c.457.8.919,2.009,1.5,2.947-.076.072-.15.147-.224.222" transform="translate(-249.317 -42.594)" fill="#ed6d53"/>
              <path id="Trazado_152689" data-name="Trazado 152689" d="M723.4,135.692c.093-.054.185-.109.274-.169l2.358.138a.692.692,0,1,0,.08-1.382l-1.5-.087c.014-.076.022-.152.031-.229l2.884.168a.692.692,0,0,0,.081-1.382l-2.935-.171q-.013-.352-.043-.7l3.8.221a.668.668,0,0,0,.357-.09c1.561.65,2.586,1.741,2.586,2.979,0,1.178-.931,2.22-2.366,2.878h-7.126q-.225-.1-.432-.218a3.629,3.629,0,0,0,1.952-1.955" transform="translate(-255.411 -46.688)" fill="#2b2222"/>
              <path id="Trazado_152690" data-name="Trazado 152690" d="M807.527,77.161a1.087,1.087,0,0,0-1.266.787l-6.618,24.833-4.69.054a1.536,1.536,0,0,0,1.355-1.1l12.421-42.9a1.535,1.535,0,0,0-1.048-1.9L804.3,55.95a1.484,1.484,0,0,0-.336-.056s9.237.088,9.237.088a1.667,1.667,0,0,1,.373.057l3.32.961a1.536,1.536,0,0,1,1.048,1.9l-12.369,42.725a1.531,1.531,0,0,1-1.343,1.1l-2.47.03,6.5-24.367a.981.981,0,0,0-.729-1.229" transform="translate(-281.435 -19.788)" fill="#2b2222"/>
              <path id="Trazado_152691" data-name="Trazado 152691" d="M804.92,56.927a1.535,1.535,0,0,1,1.048,1.9l-12.42,42.9a1.55,1.55,0,0,1-1.9,1.048l-3.383-.979a1.535,1.535,0,0,1-1.048-1.9L799.636,57a1.534,1.534,0,0,1,1.565-1.1,1.571,1.571,0,0,1,.337.056Z" transform="translate(-278.674 -19.786)" fill="#0f0b0b"/>
              <path id="Trazado_152692" data-name="Trazado 152692" d="M828,122.473H807.986a6.209,6.209,0,0,1-4.776-2.194,6.3,6.3,0,0,1-1.355-5.106l.2-.749,6.618-24.833a1.087,1.087,0,0,1,1.266-.787.981.981,0,0,1,.729,1.229l-6.5,24.367-.3,1.118a4.23,4.23,0,0,0,4.213,4.891H828.1a.975.975,0,0,1,.984,1.032A1.094,1.094,0,0,1,828,122.473" transform="translate(-283.846 -31.43)" fill="#0f0b0b"/>
              <path id="Trazado_152693" data-name="Trazado 152693" d="M679.119,203.527v6H653.17V244.9h-4V203.5c.171.012.341.026.516.026Z" transform="translate(-229.823 -72.045)" fill="#e289a9"/>
              <path id="Trazado_152694" data-name="Trazado 152694" d="M645.253,92.92h.386c.071,0,.14.008.21.01v59.3h12.724a5.2,5.2,0,0,0,1.732,1.362,5.737,5.737,0,0,0,3.342.969c3.917-.014,7.958-.026,12.016.076v9.746H646.229c-.174,0-.345-.014-.516-.026a6.818,6.818,0,0,1-6.306-6.8V98.765a5.846,5.846,0,0,1,5.846-5.845" transform="translate(-226.367 -32.896)" fill="#c5567e"/>
              <path id="Trazado_152695" data-name="Trazado 152695" d="M719.67,219.495v-6.666h1.5q-.712,3.34-1.5,6.666" transform="translate(-254.782 -75.347)" fill="#91603f"/>
              <rect id="Rectángulo_7455" data-name="Rectángulo 7455" width="4.002" height="35.375" transform="translate(434.982 137.482)" fill="#c5567e"/>
              <path id="Trazado_152696" data-name="Trazado 152696" d="M713.825,202.875a6.046,6.046,0,0,0,3.634-1.214q-.21,1.191-.438,2.379c-.311,1.616-.645,3.226-.988,4.835H705.171v-6Z" transform="translate(-249.649 -71.393)" fill="#e289a9"/>
              <path id="Trazado_152697" data-name="Trazado 152697" d="M661.741,94.251c-2.859,2.489-6.255,5.3-6.648,8.962-1.312,12.232-1.249,26.669,5.972,39-1.264,5.518-.26,8.454,1.039,10.011H649.38V92.93c0-.01,14.162-.01,14.162-.01a14.208,14.208,0,0,0-1.8,1.331" transform="translate(-229.898 -32.896)" fill="#e289a9"/>
              <path id="Trazado_152698" data-name="Trazado 152698" d="M718.087,190.413c.015.854.072,1.732.008,2.457-.015.178-.092.8-.125,1.082-.07.481-.14.961-.216,1.44-.092.579-.193,1.158-.3,1.736a6.043,6.043,0,0,1-3.634,1.214H705.17v-9.487a98.688,98.688,0,0,1,12.917,1.559" transform="translate(-249.649 -66.859)" fill="#c5567e"/>
              <path id="Trazado_152699" data-name="Trazado 152699" d="M795.459,141.242a1.669,1.669,0,0,0,.532-.094h31.42v10.994h-3.674v70.188h-6.225V152.142H788.673v-10.9Z" transform="translate(-279.211 -49.97)" fill="#ba8a58"/>
              <path id="Trazado_152700" data-name="Trazado 152700" d="M772.517,139.4H744.709a1.7,1.7,0,0,1-1.671-1.67v-.116a1.67,1.67,0,0,1,1.671-1.671H779.3a1.671,1.671,0,0,1,1.671,1.671v.116a1.7,1.7,0,0,1-1.671,1.67Z" transform="translate(-263.056 -48.127)" fill="#2b2222"/>
              <path id="Trazado_152701" data-name="Trazado 152701" d="M717.02,193.061q.229-1.188.438-2.38c.1-.578.2-1.156.3-1.736.076-.479.146-.959.216-1.439.034-.285.11-.9.125-1.082.063-.725.006-1.6-.008-2.457a98.786,98.786,0,0,0-12.917-1.559V170.648c4.247.293,8.485.7,12.7,1.273,3.933.53,8.511.874,10.81,4.6,3.389,5.5,1.095,13.918-.11,19.827-.037.185-.078.377-.114.557-1.964,9.993-4.559,19.866-7.183,29.7a6.282,6.282,0,0,1-.817,1.854c-2.4,3.639-8.053,2.853-10.162-.506a5.584,5.584,0,0,1-.587-4.537c1.672-6.263,3.336-12.544,4.829-18.86q.786-3.326,1.5-6.666c.343-1.609.677-3.22.988-4.835" transform="translate(-249.649 -60.414)" fill="#184657"/>
              <path id="Trazado_152702" data-name="Trazado 152702" d="M687.983,129.143a3.121,3.121,0,0,0,.3.32,1.927,1.927,0,0,1-.3-.32" transform="translate(-243.564 -45.72)" fill="#0db2b2"/>
              <path id="Trazado_152703" data-name="Trazado 152703" d="M667.15,169.229l5.387.389a6.954,6.954,0,0,1,.727-.041q6-.021,12.016.221v11.848c-4.058-.1-8.1-.089-12.016-.075a5.741,5.741,0,0,1-3.342-.97,5.179,5.179,0,0,1-1.732-1.362c-1.3-1.557-2.3-4.493-1.04-10.012" transform="translate(-235.983 -59.912)" fill="#184657"/>
              <path id="Trazado_152704" data-name="Trazado 152704" d="M690.548,100.806l.931.864-1.393,2.282-1.53-1.99,1.092-1.132a.643.643,0,0,1,.9-.025" transform="translate(-243.767 -35.627)" fill="#e85f5b"/>
              <path id="Trazado_152705" data-name="Trazado 152705" d="M690.812,132.86c.28-2.323.452-4.59.577-6.887s.18-4.582.141-6.873a51.98,51.98,0,0,0-1.714-13.562,51.312,51.312,0,0,1,.3,13.51c-.2,2.245-.492,4.481-.837,6.705s-.759,4.453-1.249,6.6Z" transform="translate(-243.583 -37.364)" fill="#e85f5b"/>
              <path id="Trazado_152706" data-name="Trazado 152706" d="M711.016,126.459a.693.693,0,0,1,.651.731.682.682,0,0,1-.374.561.668.668,0,0,1-.357.09l-3.8-.221c.021.233.035.467.043.7l2.935.171a.692.692,0,0,1-.081,1.382l-2.884-.168c-.008.077-.017.153-.03.229l1.5.087a.692.692,0,1,1-.08,1.382l-2.358-.138c-.089.06-.181.115-.274.169a3.628,3.628,0,0,1-1.951,1.955,3.856,3.856,0,0,1-.719.218,4.409,4.409,0,0,1-.755.09c-4.433.134-8.865.182-13.3.116-1.623-.024-3.562.109-5.475.048a11.122,11.122,0,0,1-5.849-1.454c-2.714-1.833-4.258-5.816-5.818-8.725a44.316,44.316,0,0,0,6.981-3.831l1.382,2.427a24.774,24.774,0,0,0,1.936,3.575,1.91,1.91,0,0,0,.3.32,3.1,3.1,0,0,1-.3-.32c-.377-.552,1.045-.134,1.665-.114q1.266.042,2.532.071c.592.014,1.183.016,1.775.026,1.1.019,2.194.042,3.291.048.734,0,1.467-.008,2.2-.009,2.855-.008,5.71-.047,8.565-.133.036,0,.068,0,.1,0,.074-.074.147-.149.224-.222.138-.13.279-.257.425-.379a3.981,3.981,0,0,1,1.461-.816.67.67,0,0,1,.376-.1l5.609.326a.692.692,0,1,1-.081,1.382l-3.694-.215c.043.124.081.25.113.377.01.041.019.082.028.123Z" transform="translate(-237.92 -42.43)" fill="#f29d7e"/>
              <path id="Trazado_152707" data-name="Trazado 152707" d="M693.61,171.705V152.141H690.1V141.4c1.912.061,3.853-.072,5.475-.048,4.433.066,8.867.017,13.3-.116a4.465,4.465,0,0,0,.754-.09h15.806a1.652,1.652,0,0,0,.532.095h27.808v10.9h-3.087v70.39h-6.225v-70.39H699.835v70.7H693.61V171.705Z" transform="translate(-244.314 -49.97)" fill="#e2cf8d"/>
              <path id="Trazado_152708" data-name="Trazado 152708" d="M303.6,95.454s1.086,7.212-2.326,9.538l-11.167-5.118-1.241-5.2s8.763-3.645,14.734.776" transform="translate(-102.268 -33.019)" fill="#e28e74"/>
              <path id="Trazado_152709" data-name="Trazado 152709" d="M187.138,82.243c-4.388,1.1.22,3.356-.312,4.952,12.143-4.263,8.905,9.464,21,9.354,1.285.165-.974-5.117.577-5.749,4.387-1.1,6.38,4.98,12.318,3.247,3.1-1.265,1.863-5.584,5.23-7.648,1.551-.632,3.057,2.889,5.362,4.017s4.121-.3,5.938-1.733c4.342,3.054,12.364-.907,16.706,2.147a14.62,14.62,0,0,1,8.281-4.192c-.442-.143-.8-.258-1.034-.328a32.574,32.574,0,0,0-6.5-1.294A24.454,24.454,0,0,1,244.25,81.7c-1.728-.974-3.428-2.115-5.711-2.415-1.395-.183-2.866-.026-4.253-.23-2.2-.323-3.962-1.519-6.221-1.621-1.373-.061-2.72.3-4.1.272-3.034-.058-5.094-1.866-7.67-2.863a5.079,5.079,0,0,0-3.648-.21,5.4,5.4,0,0,1-1.009.493,3.084,3.084,0,0,1-1.213-.014c-2.968-.483-5.579-1.985-8.632-1.791a13.6,13.6,0,0,0-4.512,1.306l-6.821,2.913c.359,1.548.543,3.081.795,4.4-1.285-.165-2.836.468-4.121.3" transform="translate(-65.574 -25.951)" fill="#e2cf8d"/>
              <path id="Trazado_152710" data-name="Trazado 152710" d="M265.613,90.532c-1.655-.47-3.723-1.145-5.045-1.573a14.618,14.618,0,0,0-8.281,4.192c-4.342-3.054-12.363.907-16.705-2.147-1.817,1.431-3.634,2.861-5.938,1.733s-3.81-4.65-5.362-4.017c-3.367,2.063-2.128,6.382-5.23,7.647-5.938,1.733-7.931-4.347-12.319-3.247-1.551.632.709,5.915-.577,5.749-12.1.109-8.86-13.618-21-9.354.532-1.6-4.076-3.852.311-4.952,1.285.165,2.836-.468,4.121-.3-.251-1.32-.435-2.853-.795-4.4L183.3,82.208a4.789,4.789,0,0,0-2.535,5.945l3.6,10.622a10.839,10.839,0,0,0,11.87,5.878l25.018-5.231.954,1.641c.192-.052.373-.115.576-.155,2.035-.4,4.256-.11,6.362-.322a28.85,28.85,0,0,0,5.88-1.514,76.254,76.254,0,0,1,16.735-3.087,25.745,25.745,0,0,0,7.612-1.621c1.194-.493,3.44-.59,4.24-1.264a11.753,11.753,0,0,1,2.23-1.45c.625-.306.5-.911-.229-1.117" transform="translate(-63.902 -28.273)" fill="#ba8a58"/>
              <path id="Trazado_152711" data-name="Trazado 152711" d="M229.2,73.378l-5.424-4.21-2.024,1.361s1.862,1.785-.081,2.721c0,0,4.615,2.3,7.529.128" transform="translate(-78.478 -24.487)" fill="#e2cf8d"/>
              <path id="Trazado_152712" data-name="Trazado 152712" d="M243.771,262.509h-8.343a3.814,3.814,0,0,1-3.8-3.8c0-2.091,1.112-6.372,3.2-6.372l9.435,6.02c2.091,0,4.172-1.052,4.172,1.039s-2.574,3.116-4.665,3.116" transform="translate(-82.001 -89.333)" fill="#e28e74"/>
              <path id="Trazado_152713" data-name="Trazado 152713" d="M198.5,261.89h-9.27A4.237,4.237,0,0,1,185,257.665c0-2.324,1.236-7.08,3.559-7.08l10.484,6.689c2.324,0,4.635-1.17,4.635,1.154s-2.859,3.462-5.183,3.462" transform="translate(-65.495 -88.714)" fill="#f29d7e"/>
              <path id="Trazado_152714" data-name="Trazado 152714" d="M218.359,184.117a80.914,80.914,0,0,1,8.055,42.99c-.312,3.934,1.969,5.036,5.062,5.036,3.579,0,3.769-3.23,3.876-4.812,1.194-17.536,1.2-35.514-6.394-50.589-4.059-8.056-14.675-.717-10.6,7.375" transform="translate(-76.981 -61.336)" fill="#e28e74"/>
              <path id="Trazado_152715" data-name="Trazado 152715" d="M190.973,176.531c6.2,30.9,7.42,25.443,4.1,31.558q-4.213,7.762-8.75,15.342c-4.055,6.8,4.825,11.3,8.872,4.519,3.231-5.418,8.094-9.217,11.077-14.776,5.406-10.075,2.79-8.712-3.464-39.906-.652-3.251-4.516-5.119-7.549-4.286-3.387.931-4.94,4.288-4.286,7.549" transform="translate(-65.596 -59.754)" fill="#f29d7e"/>
              <path id="Trazado_152716" data-name="Trazado 152716" d="M273.786,103.83a11.424,11.424,0,0,0-2.1,4.313c-1.877,7.314-3.53,14.365-7.2,20.6a37.289,37.289,0,0,1-3.542-3.833A31.088,31.088,0,0,1,255,110.963c-.567-4.321-3.34-8.064-8.1-8.055-3.932.008-8.625,3.748-8.054,8.1a43.364,43.364,0,0,0,23.845,33.4c3.038,1.542,6.7,2.908,9.164.156,8.615-9.612,9.2-24.219,12.347-36.485a8.266,8.266,0,0,0,.121-4.253Z" transform="translate(-84.54 -36.432)" fill="#e28e74"/>
              <path id="Trazado_152717" data-name="Trazado 152717" d="M246,102.748a18.684,18.684,0,0,0-10.928-5.353,22.368,22.368,0,0,0-14.386,3.459c16.431,6.208,18.471,24.968,15.454,41.789,2.02-2.3,4.229-4.479,6.234-6.795,4.121-4.76,7.414-10.235,8.444-16.171A19.491,19.491,0,0,0,246,102.748" transform="translate(-78.129 -34.426)" fill="#f29d7e"/>
              <path id="Trazado_152718" data-name="Trazado 152718" d="M307.333,88.259l-.02.175-.214,2.8-.125,1.635c-.044.558.567,1.084,1.369,1.174s1.488-.293,1.53-.85l.139-1.722.006-.089.214-2.8c.039-.554-.571-1.079-1.369-1.17s-1.487.287-1.53.847" transform="translate(-108.676 -30.942)" fill="#f29d7e"/>
              <path id="Trazado_152719" data-name="Trazado 152719" d="M302.334,86.845l-.027.236-.273,3.314-.213,2.592c-.061.743.669,1.432,1.638,1.543a1.559,1.559,0,0,0,1.867-1.165l.2-2.292.042-.5.28-3.343c.062-.746-.673-1.439-1.644-1.541a1.553,1.553,0,0,0-1.867,1.154" transform="translate(-106.851 -30.332)" fill="#f29d7e"/>
              <path id="Trazado_152720" data-name="Trazado 152720" d="M291.333,85.363l-.025.244-.322,3.8-.19,2.24a1.655,1.655,0,0,0,1.636,1.572,1.764,1.764,0,0,0,1.7-.707l-.108,1.206a1.846,1.846,0,0,0,1.78,1.858,1.781,1.781,0,0,0,2.076-1.45l.254-2.824c.012,0,.149-1.526.149-1.526l.286-3.183a1.85,1.85,0,0,0-1.785-1.857,1.872,1.872,0,0,0-1.946.986,1.67,1.67,0,0,0-1.638-1.554,1.569,1.569,0,0,0-1.873,1.191" transform="translate(-102.948 -29.795)" fill="#f29d7e"/>
              <path id="Trazado_152721" data-name="Trazado 152721" d="M289.827,106.312a2.44,2.44,0,0,0,2.944.933,1.7,1.7,0,0,0,.672-2.578l-3.51-5.433a2.436,2.436,0,0,0-2.942-.93,1.708,1.708,0,0,0-.675,2.577Z" transform="translate(-101.248 -34.738)" fill="#e28e74"/>
              <path id="Trazado_152722" data-name="Trazado 152722" d="M286.289,91.392l.046-.006a1.68,1.68,0,0,1,1.882,1.439l.541,4.063a1.68,1.68,0,0,1-1.439,1.882l-.046.006a1.68,1.68,0,0,1-1.882-1.439l-.541-4.063a1.68,1.68,0,0,1,1.439-1.882" transform="translate(-100.839 -32.348)" fill="#e28e74"/>
              <path id="Trazado_152723" data-name="Trazado 152723" d="M397.854,224.886a132.629,132.629,0,0,1-.99,20.967c-.383,3.3.888,6.137,3.93,6.137,3.636,0,3.975-3.26,4.36-6.568.683-5.876,1.827-13.1,2.2-21.169Z" transform="translate(-140.477 -79.392)" fill="#f29d7e"/>
              <path id="Trazado_152724" data-name="Trazado 152724" d="M318.185,242.566c-2.54,2.132-2.47,4.67-.271,6.869,2.515,2.515,4.615-.425,7.161-2.563,7.526-6.318,16.8-9.978,24.01-16.6l-8.273-8.006c-5.24,5.585-12.762,12.017-22.628,20.3" transform="translate(-111.969 -78.688)" fill="#f29d7e"/>
              <path id="Trazado_152725" data-name="Trazado 152725" d="M408.072,263.438h-8.539c-2.14,0-3.891-1.426-3.891-3.168s1.139-5.31,3.279-5.31l9.655,5.017c2.14,0,4.269-.877,4.269.866s-2.634,2.6-4.774,2.6" transform="translate(-140.068 -90.263)" fill="#f29d7e"/>
              <path id="Trazado_152726" data-name="Trazado 152726" d="M325.953,263.658h-8.135c-2.039,0-3.707-1.358-3.707-3.019s1.085-5.059,3.124-5.059l9.2,4.78c2.039,0,4.068-.836,4.068.825s-2.51,2.473-4.548,2.473" transform="translate(-111.203 -90.482)" fill="#f29d7e"/>
              <path id="Trazado_152727" data-name="Trazado 152727" d="M378.6,152.712c-3.474-5.813-11.776-2.095-11.494,3.376-2.01-7.3-13.831-6.2-12.153,1.385,4.993,22.564,4.858,21.92,4.746,25.047-.943,4.318-3.656,8.582-8.154,13.48a7.571,7.571,0,0,1-6.043,1.459,1.53,1.53,0,0,0,1.1,1.032c-1.706,1.394-1.041,3.812-1.041,3.812.335-1.532,1.885-1.315,2.446-1.185.077.072.156.14.233.207.463,2.57-3.228,3.265-3.228,3.265a8.143,8.143,0,0,0,8.239-.582c.042,1.809-1.214,1.992-1.214,1.992,4.965,2.276,9.368-2.678,10.3-4.44,13.843-14.584,9.9-22.876,5.214-43.553a6.973,6.973,0,0,0,.448.9,82.158,82.158,0,0,1,11.5,39.214,6.154,6.154,0,0,1-2.24,1.718,1.131,1.131,0,0,0,1.1.178,2.878,2.878,0,0,0,.93,2.765c-.424-1.077.615-1.582,1.012-1.733.077.012.154.021.228.031,1.342,1.386-.635,3.33-.635,3.33a6.012,6.012,0,0,0,4.811-3.747c.77,1.092.076,1.72.076,1.72,2.612-.425,3.793-2.659,4.253-4.56.59-13.461-.97-29.271-10.436-45.111" transform="translate(-122.146 -53.025)" fill="#804b1f"/>
              <path id="Trazado_152728" data-name="Trazado 152728" d="M465.439,79.451c-2.5-1.034-5.428.516-6.542,3.46s0,6.174,2.5,7.208l.632.259c2.5,1.029,5.429-.519,6.541-3.461s-.005-6.176-2.5-7.206Z" transform="translate(-162.309 -28.014)" fill="#e28e74"/>
              <path id="Trazado_152729" data-name="Trazado 152729" d="M476.474,35.629c-.333-2.245-1.275.154-1.869-.1,1.382,6.2-3.755,4.7-3.945,10.921-.087.663,1.957-.563,2.166.228.333,2.244-2.008,3.344-1.466,6.378.42,1.581,2.079.891,2.8,2.6.21.79-1.152,1.608-1.624,2.807a3.316,3.316,0,0,0,.543,3.035c-1.24,2.271.107,6.351-1.133,8.623a8.167,8.167,0,0,1,1.429,4.21c.063-.229.113-.415.144-.536a22.808,22.808,0,0,0,.614-3.36,16.719,16.719,0,0,1,1.457-5.421,10.264,10.264,0,0,0,1.024-2.968c.1-.72.065-1.475.169-2.192.165-1.138.651-2.057.733-3.221.05-.707-.061-1.4-.025-2.1.08-1.563.8-2.644,1.231-3.982a3.53,3.53,0,0,0,.149-1.88,3.149,3.149,0,0,1-.167-.514,2.171,2.171,0,0,1,.028-.624c.24-1.534.859-2.9.844-4.464a8.628,8.628,0,0,0-.408-2.306q-.486-1.737-.972-3.475c-.594.2-1.178.317-1.682.462.087-.663-.123-1.453-.036-2.117" transform="translate(-166.625 -12.271)" fill="#e2cf8d"/>
              <path id="Trazado_152730" data-name="Trazado 152730" d="M471.557,76.089c.209-.857.505-1.93.692-2.616a8.171,8.171,0,0,0-1.43-4.211c1.24-2.271-.107-6.351,1.134-8.622a3.317,3.317,0,0,1-.543-3.035c.471-1.2,1.834-2.017,1.624-2.807-.717-1.709-2.377-1.018-2.8-2.6-.543-3.035,1.8-4.134,1.466-6.379-.21-.79-2.253.436-2.167-.227.191-6.224,5.327-4.724,3.946-10.921.594.255,1.537-2.145,1.869.1-.087.663.123,1.453.036,2.117.5-.145,1.089-.258,1.682-.462l-.784-2.8a1.582,1.582,0,0,0-2.2-1.233l-4.092,1.982a6.739,6.739,0,0,0-2.453,6.18l1.5,12.812-.64.51c.016.1.037.191.048.3.113,1.042-.04,2.189,0,3.27a18.606,18.606,0,0,0,.461,3.008,50.8,50.8,0,0,1,.849,8.575,16.939,16.939,0,0,0,.468,3.9,14.5,14.5,0,0,0,.4,2.167,6.049,6.049,0,0,1,.506,1.13c.1.318.336.244.428-.131" transform="translate(-165.504 -11.414)" fill="#ba8a58"/>
              <path id="Trazado_152731" data-name="Trazado 152731" d="M482.973,57.128l1.7-2.842-.477-1.025s-.713.98-1.03-.009c0,0-.958,2.4-.193,3.876" transform="translate(-170.881 -18.853)" fill="#e2cf8d"/>
              <path id="Trazado_152732" data-name="Trazado 152732" d="M362.9,68.161c-4.346,3.1-8.118,5.5-9.33,11.109-1.6,7.417,1.578,16.494,2.1,24.008.654,9.416.546,18.892,5.151,27.2,2.239,4.037,6,7.994,10.711,7.843,4.6-.148,8.14-4.288,9.385-8.6s.821-8.886,1.109-13.355a67.285,67.285,0,0,1,3.845-17.057c-3.094-13.494-10.093-26.023-22.97-31.144" transform="translate(-125.016 -24.131)" fill="#753a09"/>
              <path id="Trazado_152733" data-name="Trazado 152733" d="M476.476,181.063c-1.056-.432-.872.971-1.4,1.326,3.254.858-1.028,4.133,1.092,6.139.177.263,1.22-1.588,1.659-1.5,1.056.432-.248,2.46,1.247,2.977.879.171,1.836-1.24,2.977-1.247.44.085-.255,1.318-.163,2.02s.794.61,1.5.517c-.078,1.581,2.382,1.829,2.3,3.41a3.374,3.374,0,0,1,2.567.227c-.037-.114-.068-.207-.089-.266a5.342,5.342,0,0,0-.773-1.454,4.559,4.559,0,0,1-.907-2.683,3.232,3.232,0,0,0-.331-1.634c-.191-.286-.488-.49-.672-.78-.293-.461-.273-1.09-.636-1.5-.22-.248-.55-.375-.781-.614-.508-.527-.374-1.377-.548-2.088-.075-.3-.262-.632-.574-.672a1.218,1.218,0,0,1-.308-.033.467.467,0,0,1-.205-.208c-.382-.634-.426-1.492-1.006-1.951a2.445,2.445,0,0,0-1.134-.4l-1.968-.338c-.358.492-.742.949-1.056,1.358-.177-.262-.617-.348-.794-.61" transform="translate(-168.191 -63.836)" fill="#42312a"/>
              <path id="Trazado_152734" data-name="Trazado 152734" d="M477.456,190.939l-.28.618c.047.018.1.03.142.054a10.617,10.617,0,0,1,1.186.981,4.989,4.989,0,0,0,1.426.568,12.369,12.369,0,0,1,3.729,1.959,4.289,4.289,0,0,0,1.754.83c.34.064.754.415,1.075.362a3.168,3.168,0,0,1,.778-.028.256.256,0,0,0,.264-.349c-.158-.409-.333-.945-.445-1.287a3.376,3.376,0,0,0-2.568-.227c.078-1.581-2.382-1.829-2.3-3.41-.7.092-1.4.185-1.5-.517s.6-1.935.163-2.02c-1.141.007-2.1,1.417-2.977,1.247-1.5-.517-.191-2.545-1.248-2.977-.439-.085-1.481,1.765-1.658,1.5-2.12-2.006,2.162-5.281-1.092-6.139.525-.355.34-1.758,1.4-1.326.178.262.617.348.794.61.315-.41.7-.868,1.056-1.358l-2.827-.485a1.019,1.019,0,0,0-.441-.01c-.328.09-.474.466-.57.794a33.845,33.845,0,0,0-1.55,8.026Z" transform="translate(-167.017 -63.553)" fill="#261c17"/>
              <path id="Trazado_152735" data-name="Trazado 152735" d="M476.581,91.431l-.135-.034-2.163-.463-1.264-.27c-.432-.093-.908.329-1.063.946s.072,1.194.5,1.285l1.331.29.068.015,2.164.462c.429.09.9-.332,1.059-.946s-.068-1.193-.5-1.285" transform="translate(-167.068 -32.093)" fill="#f29d7e"/>
              <path id="Trazado_152736" data-name="Trazado 152736" d="M477.25,87.563l-.182-.047-2.561-.563-2-.44a1.3,1.3,0,0,0-1.379,1.118,1.23,1.23,0,0,0,.713,1.582l1.771.4.386.085,2.583.572a1.3,1.3,0,0,0,1.378-1.122,1.224,1.224,0,0,0-.7-1.582" transform="translate(-166.773 -30.621)" fill="#f29d7e"/>
              <path id="Trazado_152737" data-name="Trazado 152737" d="M478.274,79.11l-.188-.045-2.939-.654-1.731-.385a1.3,1.3,0,0,0-1.4,1.113,1.389,1.389,0,0,0,.373,1.407l-.932-.212a1.456,1.456,0,0,0-1.641,1.2,1.4,1.4,0,0,0,.914,1.775l2.181.5c0,.009,1.177.277,1.177.277l2.457.559a1.458,1.458,0,0,0,1.64-1.2,1.478,1.478,0,0,0-.565-1.626,1.315,1.315,0,0,0,1.387-1.116,1.237,1.237,0,0,0-.732-1.589" transform="translate(-166.31 -27.616)" fill="#f29d7e"/>
              <path id="Trazado_152738" data-name="Trazado 152738" d="M460.669,80.211a1.849,1.849,0,0,0-.32,2.317,1.291,1.291,0,0,0,2.011.172l3.607-3.316a1.845,1.845,0,0,0,.318-2.315,1.293,1.293,0,0,0-2.01-.174Z" transform="translate(-162.879 -27.082)" fill="#e28e74"/>
              <path id="Trazado_152739" data-name="Trazado 152739" d="M472,75.811a1.29,1.29,0,0,1-.846,1.611l-2.93.914a1.287,1.287,0,0,1-.766-2.457l2.931-.914a1.291,1.291,0,0,1,1.611.846" transform="translate(-165.172 -26.519)" fill="#e28e74"/>
              <path id="Trazado_152740" data-name="Trazado 152740" d="M398.093,98.248s-1.453-5.356.269-8.64c0,0-3.365,1.09-3.1,3.513Z" transform="translate(-139.93 -31.724)" fill="#4f261b"/>
              <path id="Trazado_152741" data-name="Trazado 152741" d="M399.487,104.215s1.83-2.853,6.675-1.884c0,0-2.315,2.692-1.992,5.061,0,0-5.814,4.252-4.683-3.176" transform="translate(-141.377 -36.157)" fill="#4f261b"/>
              <path id="Trazado_152742" data-name="Trazado 152742" d="M457.8,26.635a26.935,26.935,0,0,1-2.454,3.134,3.743,3.743,0,0,1-6.49-1.822c-.388-2.175.3-3.944-.907-5.793-1.485-2.271-4.253-1.694-6.813-2.592-2.258-.792-3.46-3.219-4.215-5.489s-1.38-4.754-3.184-6.326C432.3,6.5,430.34,6.029,428.868,4.836S426.7,1.037,428.289,0a1.951,1.951,0,0,0,1.262,2.154,6.194,6.194,0,0,0,2.694.26c3.187-.132,6.767.245,8.835,2.674a32.829,32.829,0,0,0,2.182,2.931c1.689,1.585,4.265,1.581,6.58,1.652a9.211,9.211,0,0,1,4.649,1.057c1.5.974,1.684,2.871,3.133,3.781,2.767,1.739,5.665.762,7.746,4.036,1.351,2.126,1.558,4.907-.251,6.838-3.156,3.368-4.787-2.63-7.323,1.253" transform="translate(-151.305)" fill="#fbb03b"/>
              <path id="Trazado_152743" data-name="Trazado 152743" d="M465.253,29.4a15.749,15.749,0,0,1-1.069,1.982,2.086,2.086,0,0,1-3.616-1.015c-.216-1.212.622-2.59-.052-3.619-.827-1.265-2.822-.552-4.249-1.052-1.258-.441-1.928-1.793-2.348-3.058a7.569,7.569,0,0,0-1.774-3.524c-.8-.694-1.89-.957-2.71-1.621s-1.206-2.117-.323-2.694a1.087,1.087,0,0,0,.7,1.2,3.451,3.451,0,0,0,1.5.145c1.775-.074,3.77.136,4.922,1.49a18.22,18.22,0,0,0,1.216,1.632c.941.883,2.376.881,3.665.921a5.129,5.129,0,0,1,2.59.589c.837.543.939,1.6,1.745,2.107,1.542.969,3.156.424,4.315,2.249a3.077,3.077,0,0,1-.139,3.809c-1.758,1.876-2.965-1.7-4.378.462" transform="translate(-158.819 -5.24)" fill="#fcee21"/>
              <path id="Trazado_152744" data-name="Trazado 152744" d="M446.774,21.888a5.876,5.876,0,0,1-2.326-2.572,7.731,7.731,0,0,1-.707-3.417,4.694,4.694,0,0,0,2.99,3.682,10.245,10.245,0,0,1,1.15.409,1.4,1.4,0,0,1,.784.884,1,1,0,0,1-.773,1.147Z" transform="translate(-157.096 -5.629)" fill="#fcee21"/>
              <path id="Trazado_152745" data-name="Trazado 152745" d="M464.986,35.71c0,.862-.373,1.561-.835,1.561s-.834-.7-.834-1.561.373-1.561.834-1.561.835.7.835,1.561" transform="translate(-164.027 -12.09)" fill="#fcee21"/>
              <path id="Trazado_152746" data-name="Trazado 152746" d="M407.789,115l-5.312-5.346a1.622,1.622,0,1,0-2.291,2.276l5.312,5.346A1.622,1.622,0,1,0,407.789,115" transform="translate(-141.482 -38.622)" fill="#f29d7e"/>
              <path id="Trazado_152747" data-name="Trazado 152747" d="M359.292,71.4l25.829,17.7c-.107-1.8-6.128-19.817-11.2-23.174,0,0,.054,3.338-1.568,3.617,0,0,.355-3.411-4.2-5.518a1.7,1.7,0,0,1-.849,2.534c-.093-.031-.187-.064-.285-.094-.462-.425-2.433-1.583-1.736-2.7a5.624,5.624,0,0,0-2.593,2.831,7.984,7.984,0,0,0-4.082.769,2.257,2.257,0,0,1,1.495,2.976,6.446,6.446,0,0,0-.813,1.066" transform="translate(-126.957 -22.572)" fill="#753a09"/>
              <path id="Trazado_152748" data-name="Trazado 152748" d="M425.764,131.442a1.611,1.611,0,0,1-1.176-.509l-91.082-96.9a1.615,1.615,0,1,1,2.353-2.212l91.082,96.9a1.615,1.615,0,0,1-1.176,2.721" transform="translate(-117.915 -11.087)" fill="#ba8a58"/>
              <path id="Trazado_152749" data-name="Trazado 152749" d="M393.384,116.726a1.427,1.427,0,0,0,2.036,0,1.461,1.461,0,0,0-.028-2.054l-.082-.083c.056-.053.113-.107.168-.163a1.563,1.563,0,0,0,2.161-.059,1.6,1.6,0,0,0-.036-2.255l-.2-.2-.331-.335c.025-.1.043-.2.063-.3l.379.384a1.44,1.44,0,0,0,2.043.006,1.467,1.467,0,0,0-.031-2.054l-.2-.163-4.234-4.3a1.547,1.547,0,0,0,.271-1.143,1.647,1.647,0,0,0-1.809-1.426l-4.937.573a1.575,1.575,0,0,0-1.329,1.145c-.087.058-.171.116-.256.177a6.083,6.083,0,0,0-1.084,8.5l.514.681a6.193,6.193,0,0,0,1.761,1.581l.286.27,2.414,2.45a1.187,1.187,0,0,0,1.688-.01,1.2,1.2,0,0,0-.027-1.693l-.147-.15-.077-.083c.092-.016.191-.039.28-.059Z" transform="translate(-136.193 -36.315)" fill="#f29d7e"/>
              <path id="Trazado_152750" data-name="Trazado 152750" d="M369.2,98.836c-2.342-4.1,2.489-7.059-1.393-5.377-5.537,2.4-17.117,7.085-22.709,8.048,2.934-6.318,7.351-10.31,13.413-14.16,8.486-5.389.689-19.169-7.846-13.749-12.681,8.053-19.446,25.557-18.151,38.3.333,3.269,2.1,3.7,5.285,3.5,15.419-.961,17.516-5.467,29.227-11.305,3.775-1.882,4.1-1.884,2.174-5.254" transform="translate(-117.663 -25.616)" fill="#f29d7e"/>
              <path id="Trazado_152751" data-name="Trazado 152751" d="M469.328,173.189a6.6,6.6,0,0,1-.6,4.117.323.323,0,0,0,.558.326,7.145,7.145,0,0,0,.69-4.442c-.045-.409-.691-.413-.646,0" transform="translate(-165.926 -61.204)" fill="#42312a"/>
              <path id="Trazado_152752" data-name="Trazado 152752" d="M466.3,177.216a6.305,6.305,0,0,0,4.751-.255c.368-.193.042-.751-.326-.558a5.625,5.625,0,0,1-4.252.19.323.323,0,0,0-.172.623" transform="translate(-165.001 -62.437)" fill="#42312a"/>
              <path id="Trazado_152753" data-name="Trazado 152753" d="M473,176.477a6.105,6.105,0,0,1-.6,4.354.323.323,0,0,0,.558.326,6.824,6.824,0,0,0,.665-4.851c-.074-.408-.7-.235-.623.172" transform="translate(-167.227 -62.334)" fill="#42312a"/>
              <path id="Trazado_152754" data-name="Trazado 152754" d="M470.922,182.036a7.914,7.914,0,0,0,4.809-.05c.385-.146.218-.771-.172-.623a7.337,7.337,0,0,1-4.465.05.323.323,0,0,0-.172.623" transform="translate(-166.639 -64.2)" fill="#42312a"/>
              <path id="Trazado_152755" data-name="Trazado 152755" d="M556.483,42.994a2.278,2.278,0,0,1-1.009-2c-.273-2.369,1.862-14.507,1.862-14.507L547.3,25.36s-1.9,12.005-2.468,13.976a7.994,7.994,0,0,1-1.724,2.366c3.988,4.813,11.455,3.611,13.374,1.293" transform="translate(-192.275 -8.978)" fill="#f29d7e"/>
              <g id="Grupo_86916" data-name="Grupo 86916" transform="translate(352.054 16.383)" style="mix-blend-mode: multiply;isolation: isolate">
                <g id="Grupo_86915" data-name="Grupo 86915">
                  <g id="Grupo_86914" data-name="Grupo 86914" clip-path="url(#clip-path-8)">
                    <g id="Grupo_86913" data-name="Grupo 86913" transform="translate(0 0)">
                      <g id="Grupo_86912" data-name="Grupo 86912" clip-path="url(#clip-path-9)">
                        <rect id="Rectángulo_7456" data-name="Rectángulo 7456" width="18.572" height="16.112" transform="translate(-3.317 15.499) rotate(-77.918)" fill="url(#linear-gradient-2)"/>
                      </g>
                    </g>
                  </g>
                </g>
              </g>
              <g id="Grupo_86919" data-name="Grupo 86919" transform="translate(357.31 20.462)" opacity="0.58" style="mix-blend-mode: multiply;isolation: isolate">
                <g id="Grupo_86918" data-name="Grupo 86918">
                  <g id="Grupo_86917" data-name="Grupo 86917" clip-path="url(#clip-path-10)">
                    <path id="Trazado_152757" data-name="Trazado 152757" d="M557.887,40.479a7.238,7.238,0,0,0,1.215.063c.6-4.154,1.24-8.029,1.24-8.029l-7.175-.837c-.286,4.546,1.335,8.386,4.721,8.8" transform="translate(-553.135 -31.677)" fill="#cbc7ff"/>
                  </g>
                </g>
              </g>
              <path id="Trazado_152758" data-name="Trazado 152758" d="M563.471,22.77c.139,4.883-1.557,8.946-6.246,9.026-3.588.1-6.61-3.773-6.749-8.656s.973-8.876,6.245-9.026c5.806-.165,6.611,3.773,6.75,8.656" transform="translate(-194.879 -4.995)" fill="#f29d7e"/>
              <path id="Trazado_152759" data-name="Trazado 152759" d="M544.013,16.421c-1.031,2.463-2.847,5.133,2.337,10.669l3.291-1.233L547.022,18.7Z" transform="translate(-192.182 -5.813)" fill="#1b4e61"/>
              <path id="Trazado_152760" data-name="Trazado 152760" d="M566.508,25.079a.489.489,0,1,1-.5-.475.489.489,0,0,1,.5.475" transform="translate(-200.213 -8.71)"/>
              <path id="Trazado_152761" data-name="Trazado 152761" d="M553.413,29.258a3.466,3.466,0,0,1-.2-6.929Z" transform="translate(-194.661 -7.905)" fill="#ed6d53"/>
              <path id="Trazado_152762" data-name="Trazado 152762" d="M554.265,28.517a1.826,1.826,0,1,1-.1-3.65Z" transform="translate(-195.56 -8.804)" fill="#bd422a"/>
              <path id="Trazado_152763" data-name="Trazado 152763" d="M564.621,28.661a1.519,1.519,0,1,1-1.561-1.475,1.518,1.518,0,0,1,1.561,1.475" transform="translate(-198.816 -9.625)" fill="#ed6d53"/>
              <path id="Trazado_152764" data-name="Trazado 152764" d="M569.578,24.741l2.19,2.753a.562.562,0,0,1-.318.9l-1.871.408Z" transform="translate(-201.646 -8.759)" fill="#ed6d53"/>
              <path id="Trazado_152765" data-name="Trazado 152765" d="M555.178,23.579l.031,2.725.96.025a19.312,19.312,0,0,1,.105-2.861Z" transform="translate(-196.548 -8.308)" fill="#1b4e61"/>
              <path id="Trazado_152766" data-name="Trazado 152766" d="M563.327,22.455a3.83,3.83,0,0,1,.807-.214,4.7,4.7,0,0,1,.837-.049,3.707,3.707,0,0,1,.841.121,2.812,2.812,0,0,1,.407.142c.066.031.13.064.194.1l.093.054.043.029.012.014h0c-.046-.023-.153.043-.152.092a.147.147,0,0,1,.271.112.171.171,0,0,1-.178.09l-.06-.008-.053-.006-.1-.013c-.065-.008-.129-.014-.193-.017l-.382-.033c-.255-.017-.51-.032-.768-.039-.515-.025-1.036-.023-1.581-.085a.153.153,0,0,1-.135-.167.151.151,0,0,1,.1-.123" transform="translate(-199.399 -7.856)" fill="#035e80"/>
              <path id="Trazado_152767" data-name="Trazado 152767" d="M565.007,30.151s2.009,6-.1,6.82c-3.214,1.249-7.009-.242-8.346-.749-1.207-.458-1.24-5.829-1.24-5.829l-.094-2.535.961.025s.568,3.238,3.088,3.377c.868.048,3.092-1.435,5.734-1.109" transform="translate(-196.565 -9.862)" fill="#1b4e61"/>
              <path id="Trazado_152768" data-name="Trazado 152768" d="M569.44,33.113a3.458,3.458,0,0,0,.406-.038c.07.268.145.572.216.9a2.361,2.361,0,0,1-.6.1c-.8.023-1.453-.334-1.466-.8s.653-.136,1.45-.158" transform="translate(-201.084 -11.691)" fill="#fff"/>
              <path id="Trazado_152769" data-name="Trazado 152769" d="M561.664,9.176c-1-.971-2.913-.347-3.935.094a8.076,8.076,0,0,0-.95-.4,11.32,11.32,0,0,0-8.485.228,7.43,7.43,0,0,0-3.928,3.525,4.792,4.792,0,0,0-.373,5.012c1.667,3.559,6.475,1.722,7.79,1.1,1.752-.831,2.474-2.977,3.037-5.657,0,0,1.524-.7,4.706.95,1.789-.8,3.537-3.49,2.139-4.853" transform="translate(-192.398 -2.889)" fill="#1b4e61"/>
              <path id="Trazado_152770" data-name="Trazado 152770" d="M686.695,88.621a2.278,2.278,0,0,1-1.009-2c-.273-2.369,1.862-14.507,1.862-14.507l-10.034-1.125s-1.9,12.005-2.468,13.976a7.992,7.992,0,0,1-1.724,2.366c3.988,4.813,11.455,3.611,13.374,1.293" transform="translate(-238.374 -25.131)" fill="#f29d7e"/>
              <g id="Grupo_86924" data-name="Grupo 86924" transform="translate(436.167 45.856)" style="mix-blend-mode: multiply;isolation: isolate">
                <g id="Grupo_86923" data-name="Grupo 86923">
                  <g id="Grupo_86922" data-name="Grupo 86922" clip-path="url(#clip-path-8)">
                    <g id="Grupo_86921" data-name="Grupo 86921" transform="translate(0 0)">
                      <g id="Grupo_86920" data-name="Grupo 86920" clip-path="url(#clip-path-12)">
                        <rect id="Rectángulo_7459" data-name="Rectángulo 7459" width="18.573" height="16.112" transform="translate(-3.318 15.499) rotate(-77.918)" fill="url(#linear-gradient-3)"/>
                      </g>
                    </g>
                  </g>
                </g>
              </g>
              <g id="Grupo_86927" data-name="Grupo 86927" transform="translate(441.423 49.936)" opacity="0.58" style="mix-blend-mode: multiply;isolation: isolate">
                <g id="Grupo_86926" data-name="Grupo 86926">
                  <g id="Grupo_86925" data-name="Grupo 86925" clip-path="url(#clip-path-10)">
                    <path id="Trazado_152772" data-name="Trazado 152772" d="M688.1,86.105a7.236,7.236,0,0,0,1.215.063c.6-4.154,1.24-8.029,1.24-8.029l-7.175-.837c-.285,4.546,1.335,8.386,4.721,8.8" transform="translate(-683.346 -77.304)" fill="#cbc7ff"/>
                  </g>
                </g>
              </g>
              <path id="Trazado_152773" data-name="Trazado 152773" d="M693.683,68.4c.139,4.883-1.557,8.946-6.246,9.026-3.589.1-6.61-3.773-6.75-8.656s.974-8.876,6.246-9.026c5.805-.165,6.611,3.773,6.75,8.656" transform="translate(-240.977 -21.148)" fill="#f29d7e"/>
              <path id="Trazado_152774" data-name="Trazado 152774" d="M674.225,62.047c-1.031,2.463-2.847,5.133,2.337,10.669l3.291-1.233-2.618-7.162Z" transform="translate(-238.281 -21.966)" fill="#1b4e61"/>
              <path id="Trazado_152775" data-name="Trazado 152775" d="M696.719,70.706a.489.489,0,1,1-.5-.475.489.489,0,0,1,.5.475" transform="translate(-246.311 -24.864)"/>
              <path id="Trazado_152776" data-name="Trazado 152776" d="M683.625,74.885a3.466,3.466,0,1,1-.2-6.929Z" transform="translate(-240.76 -24.058)" fill="#ed6d53"/>
              <path id="Trazado_152777" data-name="Trazado 152777" d="M684.477,74.144a1.826,1.826,0,1,1-.1-3.651Z" transform="translate(-241.658 -24.956)" fill="#bd422a"/>
              <path id="Trazado_152778" data-name="Trazado 152778" d="M694.833,74.288a1.519,1.519,0,1,1-1.561-1.475,1.519,1.519,0,0,1,1.561,1.475" transform="translate(-244.914 -25.778)" fill="#ed6d53"/>
              <path id="Trazado_152779" data-name="Trazado 152779" d="M699.789,70.368l2.19,2.753a.562.562,0,0,1-.319.9l-1.871.408Z" transform="translate(-247.744 -24.912)" fill="#ed6d53"/>
              <path id="Trazado_152780" data-name="Trazado 152780" d="M685.39,69.206l.031,2.725.96.025a19.321,19.321,0,0,1,.105-2.861Z" transform="translate(-242.646 -24.461)" fill="#1b4e61"/>
              <path id="Trazado_152781" data-name="Trazado 152781" d="M693.539,68.082a3.831,3.831,0,0,1,.807-.214,4.7,4.7,0,0,1,.837-.049,3.709,3.709,0,0,1,.841.121,2.814,2.814,0,0,1,.407.142c.066.031.13.064.194.1l.093.054.043.029.012.014h0c-.046-.023-.153.043-.152.092a.146.146,0,0,1,.271.112.171.171,0,0,1-.178.09l-.06-.008-.053-.006-.1-.013c-.065-.008-.129-.014-.193-.017l-.383-.033c-.255-.017-.51-.032-.767-.039-.516-.025-1.036-.023-1.581-.085a.153.153,0,0,1-.135-.167.151.151,0,0,1,.1-.123" transform="translate(-245.497 -24.009)" fill="#035e80"/>
              <path id="Trazado_152782" data-name="Trazado 152782" d="M695.219,75.778s2.009,6-.1,6.82c-3.214,1.249-7.009-.242-8.346-.749-1.207-.458-1.24-5.829-1.24-5.829l-.094-2.535.96.025s.568,3.238,3.088,3.378c.867.048,3.091-1.436,5.733-1.11" transform="translate(-242.663 -26.016)" fill="#1b4e61"/>
              <path id="Trazado_152783" data-name="Trazado 152783" d="M699.652,78.74a3.46,3.46,0,0,0,.406-.038c.07.268.145.572.216.9a2.36,2.36,0,0,1-.6.1c-.8.023-1.453-.334-1.466-.8s.653-.136,1.45-.158" transform="translate(-247.182 -27.844)" fill="#fff"/>
              <path id="Trazado_152784" data-name="Trazado 152784" d="M691.875,54.8c-1-.971-2.913-.347-3.935.094a8.072,8.072,0,0,0-.95-.4,11.32,11.32,0,0,0-8.486.228,7.43,7.43,0,0,0-3.928,3.525,4.792,4.792,0,0,0-.373,5.012c1.667,3.559,6.475,1.722,7.79,1.1,1.752-.831,2.474-2.977,3.037-5.657,0,0,1.524-.7,4.706.95,1.789-.8,3.538-3.49,2.139-4.853" transform="translate(-238.496 -19.042)" fill="#1b4e61"/>
              <path id="Trazado_152785" data-name="Trazado 152785" d="M543.01,47.117c-.794.769-1.607,1.577-2.419,2.462a28.18,28.18,0,0,0,4.147,3.576,22.42,22.42,0,0,0,5.349,3.034l3.433-4.5a30.191,30.191,0,0,1-5.962-2.023c-2.555-1.277-4.549-2.552-4.549-2.552" transform="translate(-191.384 -16.681)" fill="#c5fcff"/>
              <path id="Trazado_152786" data-name="Trazado 152786" d="M562.543,50.78l-1.936,2.209,3.114,2.581a4.215,4.215,0,0,0,1.437-1.7,22.77,22.77,0,0,0-2.614-3.086" transform="translate(-198.47 -17.977)" fill="#c5fcff"/>
              <path id="Trazado_152787" data-name="Trazado 152787" d="M673.221,93.611c-.794.769-1.607,1.577-2.419,2.462a28.175,28.175,0,0,0,4.147,3.576,22.42,22.42,0,0,0,5.349,3.034l3.433-4.5a30.176,30.176,0,0,1-5.962-2.023c-2.555-1.277-4.549-2.552-4.549-2.552" transform="translate(-237.482 -33.141)" fill="#c5fcff"/>
              <path id="Trazado_152788" data-name="Trazado 152788" d="M692.754,97.274l-1.936,2.209,3.114,2.581a4.215,4.215,0,0,0,1.437-1.7,22.774,22.774,0,0,0-2.614-3.086" transform="translate(-244.568 -34.438)" fill="#c5fcff"/>
              <path id="Trazado_152789" data-name="Trazado 152789" d="M552.739,84.147a26.233,26.233,0,0,1,2.677-4.627c.959-1.385,1.916-2.681,2.733-4.036A15.157,15.157,0,0,0,560,71.176a16.242,16.242,0,0,0,.461-4.8,15.141,15.141,0,0,0-3.374-8.892,15.178,15.178,0,0,1,4.426,8.707,17.524,17.524,0,0,1-1.552,10.471c-.744,1.6-1.6,3.072-2.384,4.511a23.488,23.488,0,0,0-1.908,4.264,9.087,9.087,0,0,0-.344,4.063,7.368,7.368,0,0,0,1.453,3.413l-3.4,2.987a12.406,12.406,0,0,1-1.747-5.841,13.564,13.564,0,0,1,1.106-5.91" transform="translate(-195.287 -20.351)" fill="#e85f5b"/>
              <path id="Trazado_152790" data-name="Trazado 152790" d="M560.209,54.255l1.042.726-1.061,2.454L558.4,55.678l.923-1.273a.643.643,0,0,1,.888-.15" transform="translate(-197.688 -19.167)" fill="#e85f5b"/>
              <path id="Trazado_152791" data-name="Trazado 152791" d="M246.42,100.269a2.934,2.934,0,0,1-.773-2.781c.248-3.059,5.98-17.853,5.98-17.853L239.237,75.7s-5.407,14.684-6.613,17.03a10.293,10.293,0,0,1-2.769,2.556c3.831,7.075,13.562,7.426,16.564,4.978" transform="translate(-81.375 -26.802)" fill="#f29d7e"/>
              <g id="Grupo_86932" data-name="Grupo 86932" transform="translate(150.4 48.903)" style="mix-blend-mode: multiply;isolation: isolate">
                <g id="Grupo_86931" data-name="Grupo 86931">
                  <g id="Grupo_86930" data-name="Grupo 86930" clip-path="url(#clip-path-14)">
                    <g id="Grupo_86929" data-name="Grupo 86929" transform="translate(0 0)">
                      <g id="Grupo_86928" data-name="Grupo 86928" clip-path="url(#clip-path-15)">
                        <rect id="Rectángulo_7462" data-name="Rectángulo 7462" width="28.552" height="27.146" transform="matrix(0.395, -0.919, 0.919, 0.395, -8.185, 19.017)" fill="url(#linear-gradient-4)"/>
                      </g>
                    </g>
                  </g>
                </g>
              </g>
              <g id="Grupo_86935" data-name="Grupo 86935" transform="translate(159.127 54.635)" opacity="0.58" style="mix-blend-mode: multiply;isolation: isolate">
                <g id="Grupo_86934" data-name="Grupo 86934">
                  <g id="Grupo_86933" data-name="Grupo 86933" clip-path="url(#clip-path-16)">
                    <path id="Trazado_152793" data-name="Trazado 152793" d="M250.736,96.872a9.3,9.3,0,0,0,1.519.384c1.8-5.094,3.574-9.828,3.574-9.828l-8.852-2.851c-1.5,5.668-.411,10.923,3.76,12.3" transform="translate(-246.337 -84.578)" fill="#cbc7ff"/>
                  </g>
                </g>
              </g>
              <path id="Trazado_152794" data-name="Trazado 152794" d="M261.2,76.674c-1.046,6.2-4.2,10.907-10.145,9.836-4.557-.769-7.4-6.418-6.358-12.619s3.449-10.965,10.145-9.836c7.372,1.243,7.4,6.418,6.358,12.619" transform="translate(-86.551 -22.618)" fill="#f29d7e"/>
              <path id="Trazado_152795" data-name="Trazado 152795" d="M259.656,78.683c-.207-1.048-1.322-1.3-.77-2.176-2.555-.085-4.2-.065-5.814-.709a9.36,9.36,0,0,1-3.669-2.124c-1.2-1.366-.995-3.3-.464-4.917a7.244,7.244,0,0,1,1.581-2.866,6.886,6.886,0,0,1,3.145-1.864,24.338,24.338,0,0,1,4.789-.629,6.413,6.413,0,0,0-2.327-3.884c-.347-.229-2.2-1.651-3.672-2.653.012-1.466-1.792-2.2-1.792-2.2a1.341,1.341,0,0,1,.252.415,2.548,2.548,0,0,0-2.163-.353.571.571,0,0,1,.376.685s-.655-1.019-2.188-.246c0,0,.579.118.348.928l-.088.058c-.2.022-.755.036-.832-.469a1.056,1.056,0,0,0,.007,1.058c-.008,0,.26.206.26.206l-.32.257a.19.19,0,0,1-.066.076,3.077,3.077,0,0,0-.556,1.121A22.553,22.553,0,0,0,243,61.676a30.981,30.981,0,0,0-2.547,4.278c-.778,1.587-1.413,3.506-.579,5.065.54,1.01,1.66,1.778,1.7,2.923.029.764-.452,1.46-.525,2.221-.115,1.206.787,2.249,1.659,3.09a20.567,20.567,0,0,0,5.871,4.216,7.567,7.567,0,0,0,3.422.736,10.516,10.516,0,0,0,2.341-.5l2.817-.824A4.3,4.3,0,0,0,259,82.008a3.618,3.618,0,0,0,.652-3.325" transform="translate(-84.783 -19.338)" fill="#683726"/>
              <path id="Trazado_152796" data-name="Trazado 152796" d="M265.728,79.639a.63.63,0,1,1-.516-.725.629.629,0,0,1,.516.725" transform="translate(-93.632 -27.934)"/>
              <path id="Trazado_152797" data-name="Trazado 152797" d="M247.7,82.007a4.462,4.462,0,0,1,1.484-8.8Z" transform="translate(-86.375 -25.896)" fill="#ed6d53"/>
              <path id="Trazado_152798" data-name="Trazado 152798" d="M249.207,81.084a2.351,2.351,0,1,1,.782-4.637Z" transform="translate(-87.532 -27.053)" fill="#bd422a"/>
              <path id="Trazado_152799" data-name="Trazado 152799" d="M262.294,83.818a1.955,1.955,0,1,1-1.6-2.253,1.955,1.955,0,0,1,1.6,2.253" transform="translate(-91.484 -28.867)" fill="#ed6d53"/>
              <path id="Trazado_152800" data-name="Trazado 152800" d="M269.206,79.92l2.077,4.024A.725.725,0,0,1,270.655,85l-2.465.047Z" transform="translate(-94.946 -28.294)" fill="#ed6d53"/>
              <path id="Trazado_152801" data-name="Trazado 152801" d="M262.292,76.283a6.771,6.771,0,0,1,1.479-.094,8.278,8.278,0,0,1,1.474.2,6.571,6.571,0,0,1,1.421.5,5.171,5.171,0,0,1,.66.387c.1.078.2.157.3.24l.143.125.064.066.017.027h0a.247.247,0,0,0-.3.109.259.259,0,0,1,.432.288.3.3,0,0,1-.34.1l-.1-.035-.09-.027-.166-.057c-.109-.036-.22-.068-.33-.1l-.654-.189c-.437-.117-.876-.233-1.322-.333-.888-.222-1.8-.4-2.723-.694a.271.271,0,0,1-.177-.337.267.267,0,0,1,.209-.182" transform="translate(-92.78 -26.97)" fill="#683726"/>
              <path id="Trazado_152802" data-name="Trazado 152802" d="M268.816,90.362a4.464,4.464,0,0,0,.521.054c.023.356.041.758.048,1.187a3,3,0,0,1-.787-.03c-1.012-.171-1.751-.786-1.652-1.373s.858-.008,1.87.162" transform="translate(-94.503 -31.842)" fill="#fff"/>
              <path id="Trazado_152803" data-name="Trazado 152803" d="M210.5,102.834a37.354,37.354,0,0,0-17.563,25.034,50.7,50.7,0,0,0,2.757,29.283,15.919,15.919,0,0,0,3.6,5.81,11.661,11.661,0,0,0,8.707,2.94,11.178,11.178,0,0,0,8-4.231,20.838,20.838,0,0,0,2.286-4.533,45.677,45.677,0,0,1,5.661-10.089c.632-.83,1.3-1.634,2-2.424,4.774-18.156,7.217-34.173-15.454-41.789" transform="translate(-67.946 -36.406)" fill="#753a09"/>
              <path id="Trazado_152804" data-name="Trazado 152804" d="M216.168,182.8c-.042,2.685-4.462,15.1-14.782,14.155,0,0,2.009-1.052.866-4.077,0,0-1.757,6.174-10.413,3.794,0,0,2.681-1.287.377-5.345-.169-.068-.34-.136-.515-.211-1.023.113-3.764.667-3.421,3.446,0,0-2.554-3.681-.5-7.042a2.734,2.734,0,0,1-2.472-1.085s8.051-2.789,6.1-8.765Z" transform="translate(-65.602 -62.899)" fill="#753a09"/>
              <path id="Trazado_152805" data-name="Trazado 152805" d="M228.58,211.845a1.785,1.785,0,0,0,2.348.983,1.828,1.828,0,0,0,.956-2.384l-.055-.137c.091-.033.183-.068.272-.106a1.955,1.955,0,0,0,2.523.971,2,2,0,0,0,1.042-2.62l-.132-.322-.22-.546c.076-.1.146-.21.218-.319l.253.626a1.8,1.8,0,0,0,2.355.988,1.833,1.833,0,0,0,.952-2.384l-.154-.286-2.82-7a1.939,1.939,0,0,0,.863-1.189,2.059,2.059,0,0,0-1.4-2.515l-5.973-1.712a1.968,1.968,0,0,0-2.085.681c-.129.026-.253.052-.38.081a7.606,7.606,0,0,0-5.342,9.3l.266,1.033a7.731,7.731,0,0,0,1.273,2.67l.2.451,1.608,3.989a1.485,1.485,0,0,0,1.953.8,1.5,1.5,0,0,0,.784-1.968l-.1-.244-.049-.132c.114.025.238.047.352.067Z" transform="translate(-78.436 -68.619)" fill="#f29d7e"/>
              <path id="Trazado_152806" data-name="Trazado 152806" d="M227.83,99.951a2.217,2.217,0,0,1-.5,2.871s.475-4.566-5.622-7.385a2.279,2.279,0,0,1-1.137,3.392c-.125-.042-.251-.085-.38-.126-.619-.569-3.257-2.118-2.324-3.617,0,0-3.82,1.92-3.676,5.362-1.417-.127-3.978-.177-5.69.828,0,0,2.754.914,1.692,3.513a5.294,5.294,0,0,0-.347.524l.072.032c-.056.1-.1.19-.167.291l.268-.247L233.552,115.7c.665-1.632,1.061-11.252-5.722-15.746" transform="translate(-73.815 -33.663)" fill="#753a09"/>
              <path id="Trazado_152807" data-name="Trazado 152807" d="M208.476,114.282c-11.113,20.348-4.981,42.448,8.8,60.2,2.676,3.448,6.393,4.749,9.205,1.938,3.4-3.4,2.468-5.695-.215-9.151-4.9-6.312-5.4-14.67-7.03-22.357a32.365,32.365,0,0,1,3.183-22.482c4.983-9.125-8.956-17.285-13.945-8.151" transform="translate(-71.772 -39.045)" fill="#f29d7e"/>
              <path id="Trazado_152808" data-name="Trazado 152808" d="M161.453,139.806l-.183-.047-2.948-.63-1.723-.368c-.589-.127-1.236.448-1.448,1.289s.1,1.626.685,1.751l1.814.4.094.02,2.948.63c.585.121,1.231-.453,1.442-1.289s-.092-1.625-.682-1.751" transform="translate(-54.905 -49.119)" fill="#f29d7e"/>
              <path id="Trazado_152809" data-name="Trazado 152809" d="M162.364,134.535l-.248-.063-3.49-.767-2.731-.6a1.777,1.777,0,0,0-1.879,1.523,1.676,1.676,0,0,0,.972,2.156l2.413.54.526.117,3.519.779a1.771,1.771,0,0,0,1.878-1.529,1.668,1.668,0,0,0-.961-2.155" transform="translate(-54.502 -47.113)" fill="#f29d7e"/>
              <path id="Trazado_152810" data-name="Trazado 152810" d="M163.759,123.017l-.256-.061-4-.891-2.358-.525a1.779,1.779,0,0,0-1.91,1.516,1.9,1.9,0,0,0,.508,1.918l-1.269-.289a1.983,1.983,0,0,0-2.235,1.629,1.914,1.914,0,0,0,1.245,2.419l2.971.677c0,.012,1.6.378,1.6.378l3.348.762a1.988,1.988,0,0,0,2.235-1.634,2.013,2.013,0,0,0-.77-2.214,1.794,1.794,0,0,0,1.89-1.52,1.687,1.687,0,0,0-1-2.166" transform="translate(-53.871 -43.019)" fill="#f29d7e"/>
              <path id="Trazado_152811" data-name="Trazado 152811" d="M88.915,118.052a2.569,2.569,0,0,0-.858-1.008c-1.753-1.338-4.96-1.84-5.276-5.737-.334.692-6.514,4.937-10.27,9.9-1.857,2.456,2.681,2.147,3.616,4.79a13.14,13.14,0,0,0,4.036,5.852,10.524,10.524,0,0,0,6.639,2.393,3.577,3.577,0,0,0,2.172-.593,4.732,4.732,0,0,0,1.008-1.26A28.2,28.2,0,0,1,94.7,126.81c-9.494-5.165-4.678-6.1-5.784-8.757" transform="translate(-25.514 -39.406)" fill="#f29d7e"/>
              <path id="Trazado_152812" data-name="Trazado 152812" d="M113.539,110.217a2.074,2.074,0,0,1,.031-.815,34.55,34.55,0,0,1-5.944-.478,10.219,10.219,0,0,1-4.1-1.274c-1.475-1.028-1.652-2.827-1.442-4.4a6.332,6.332,0,0,1,1.015-2.9,8.561,8.561,0,0,1,2.782-2.267,28.477,28.477,0,0,1,4.031-1.866c-.184-.483-.284-1.005-.442-1.5-.627-1.946-2.2-3.415-3.709-4.792a7.985,7.985,0,0,0-1.918-1.424,5.226,5.226,0,0,0-4.418.222,12.383,12.383,0,0,0-3.537,2.856,58.409,58.409,0,0,0-6.051,8.329,4.974,4.974,0,0,0-1.222,2.878c0,.1.015.2.023.3a5.335,5.335,0,0,0,1.759,3.576c1.049.895,2.422,1.324,3.518,2.161a2.58,2.58,0,0,1,.859,1.008c.435,1.048-.286,2.218-.231,3.351.069,1.439,1.335,2.5,2.53,3.3,1.126.758,2.291,1.456,3.484,2.1.654.356,1.314.7,1.986,1.023a8.281,8.281,0,0,0,4.74,1.1,8.152,8.152,0,0,0,4.026-2.328,37.4,37.4,0,0,0,3.123-3.212,2.8,2.8,0,0,0,.851-1.655c.031-1.269-1.52-2.057-1.743-3.307" transform="translate(-31.372 -31.194)" fill="#683726"/>
              <path id="Trazado_152813" data-name="Trazado 152813" d="M110.442,104.8a6.332,6.332,0,0,0-1.015,2.9c-.211,1.572-.034,3.369,1.442,4.4a10.212,10.212,0,0,0,4.1,1.273,34.617,34.617,0,0,0,5.944.479c.228-1.039,1.046-2.045.824-3.1-.215-1.023-1.337-1.661-1.566-2.68a2.638,2.638,0,0,1,.12-1.347,6.765,6.765,0,0,1-.885-.116,1.819,1.819,0,0,1,.147.705.519.519,0,0,1-.008.057h-1.078a.274.274,0,0,1,.006.032.287.287,0,0,1-.279.3h-1.219a.28.28,0,0,1-.279-.279.286.286,0,0,1,.279-.3h.722a1.507,1.507,0,0,1,.407-.939,3.9,3.9,0,0,1-1.864-1.765.61.61,0,1,1,1.087-.552c.817,1.607,2.973,1.654,3.338,1.649a2.357,2.357,0,0,0,.052-1.024c-.249-1.245-1.665-1.759-2.63-2.622l-1.714.306a.222.222,0,1,1-.078-.437l1.419-.254a.77.77,0,0,0-.459-.815,28.623,28.623,0,0,0-4.031,1.866,8.57,8.57,0,0,0-2.782,2.267" transform="translate(-38.714 -35.638)" fill="#f29d7e"/>
              <path id="Trazado_152814" data-name="Trazado 152814" d="M119.821,102.44a.223.223,0,0,0,.258.18l1.714-.307a3.491,3.491,0,0,1-.373-.384l-1.419.254a.223.223,0,0,0-.18.258" transform="translate(-42.419 -36.085)" fill="#f38c65"/>
              <path id="Trazado_152815" data-name="Trazado 152815" d="M121.709,110.874a1.989,1.989,0,0,1,.012-.218H121a.28.28,0,0,0-.279.279.286.286,0,0,0,.279.3h1.219a.28.28,0,0,0,.28-.279.226.226,0,0,0-.006-.057h-.776c0-.01-.005-.019-.005-.03" transform="translate(-42.738 -39.175)" fill="#f38c65"/>
              <path id="Trazado_152816" data-name="Trazado 152816" d="M124.618,122.25h-.06a.658.658,0,0,0-.656.656v.264a.658.658,0,0,0,.656.655h.06a.658.658,0,0,0,.656-.655v-.264a.658.658,0,0,0-.656-.656" transform="translate(-43.865 -43.28)" fill="#fff"/>
              <path id="Trazado_152817" data-name="Trazado 152817" d="M122.263,110.141a1.857,1.857,0,0,0-.013.218,6.917,6.917,0,0,0,.782.03h1.077a.327.327,0,0,0,.008-.057,1.814,1.814,0,0,0-.147-.706,5.567,5.567,0,0,1-1.3-.423,1.5,1.5,0,0,0-.406.939" transform="translate(-43.28 -38.66)" fill="#5d2d1e"/>
              <path id="Trazado_152818" data-name="Trazado 152818" d="M121.065,105.432a.609.609,0,1,0-1.087.552,3.893,3.893,0,0,0,1.864,1.765,5.573,5.573,0,0,0,1.3.424,6.766,6.766,0,0,0,.885.116c.141.008.258.011.342.011s.136,0,.151,0a.61.61,0,0,0-.06-1.218H124.4c-.366.006-2.522-.041-3.339-1.649" transform="translate(-42.452 -37.208)" fill="#4f261b"/>
              <path id="Trazado_152819" data-name="Trazado 152819" d="M101.275,86.82a.869.869,0,0,1,.83.784s-1.389-1.143-3.628.24a.893.893,0,0,1,.862,1.1c-.041.032-.082.063-.123.1-.32.079-1.213.238-1.5-.391a1.161,1.161,0,0,0,.351,1.358c-.013.006.487.2.487.2l.109-.1-.109.1.227.087-.227-.087-.437.412c.012,0,.022,0,.034,0l-.116.112s-.846,1.274-.443,2.054l10.064-4.438c-.39-.57-3.447-2.779-6.381-1.534" transform="translate(-34.512 -30.604)" fill="#683726"/>
              <path id="Trazado_152820" data-name="Trazado 152820" d="M102.692,254.229a2.075,2.075,0,0,0,2.105,2.079,2.125,2.125,0,0,0,2.065-2.156v-.171c.112,0,.227,0,.339,0a2.272,2.272,0,0,0,2.3,2.141,2.33,2.33,0,0,0,2.26-2.373l0-.4v-.684c.125-.076.248-.163.373-.249v.784a2.093,2.093,0,0,0,2.111,2.088,2.131,2.131,0,0,0,2.061-2.158l-.042-.374-.006-8.767a2.25,2.25,0,0,0,1.446-.907,2.4,2.4,0,0,0-.421-3.321l-5.7-4.437a2.289,2.289,0,0,0-2.544-.169c-.15-.028-.295-.054-.445-.078a8.84,8.84,0,0,0-9.791,7.707l-.162,1.229a8.993,8.993,0,0,0,.214,3.432l.02.572,0,5a1.724,1.724,0,0,0,1.758,1.71,1.748,1.748,0,0,0,1.7-1.782v-.306l0-.163c.112.076.236.154.351.224Z" transform="translate(-34.895 -83.142)" fill="#f29d7e"/>
              <path id="Trazado_152821" data-name="Trazado 152821" d="M9.584,263.427H3a3.009,3.009,0,0,1-3-3c0-1.651.878-5.028,2.528-5.028l7.445,4.751c1.65,0,3.292-.831,3.292.819s-2.031,2.459-3.681,2.459" transform="translate(0 -90.418)" fill="#f29d7e"/>
              <path id="Trazado_152822" data-name="Trazado 152822" d="M126.032,131.827c-3.547-2.074-9.569-1.147-11.4,2.99a141.045,141.045,0,0,1-8.5,16.067c-5.766-4.713-9.991-9.8-15.193-15.083-7.539-7.653-16.759,2.126-9.223,9.778,7.443,7.557,11.385,13.445,19.667,20.056,3.326,2.655,8.451,4.192,11.666.5,6.508-7.473,11.333-13.968,15.333-23,1.822-4.112,1.838-8.857-2.349-11.306" transform="translate(-27.936 -46.293)" fill="#e28e74"/>
              <path id="Trazado_152823" data-name="Trazado 152823" d="M13.2,197.111c.966,3.119-.226,1.749.655,4.893.824,2.941,4.793,11.188,4.61,14.266-.16,2.692-3.185,4.663-5.037,6.293-2.628,2.311-5.289,4.926-8,7.136-3.419,2.784-4.24,3.871-2.792,6.416,1.215,2.136,4.628.736,6.778-.889,20.3-15.342,20.844-15.378,16.926-28.6-1.2-4.05-2.243-8.142-3.493-12.177-1.9-6.128-11.555-3.513-9.643,2.658" transform="translate(-0.691 -67.606)" fill="#683726"/>
              <path id="Trazado_152824" data-name="Trazado 152824" d="M78.516,263.685H71.932a3.009,3.009,0,0,1-3-3c0-1.65.878-5.028,2.528-5.028l7.445,4.751c1.65,0,3.292-.831,3.292.819s-2.031,2.459-3.681,2.459" transform="translate(-24.404 -90.509)" fill="#f29d7e"/>
              <path id="Trazado_152825" data-name="Trazado 152825" d="M73.426,136.633a27.187,27.187,0,0,1,.875,7.195,20.1,20.1,0,0,1-.6,5.632c-1.51,5.332-6.208,8.646-10.6,11.429a28.68,28.68,0,0,1-7.063,3.592c-2.224.654-4.565.752-6.766,1.494a21.769,21.769,0,0,0-5.006,2.661,23,23,0,0,0-4.981,4.172c-2.656,3.147-5.8,9.015-9.413,10.627-2.784,1.242-6.135.2-8.307-2.091a14.437,14.437,0,0,1-3.49-8.917c-.229-3.3,1.9-7.892,2.617-11.108,1.264-5.669,14.06-29.356,29.318-34.49,2.675-.9,5.13-2.059,8-2.187,6.83-.3,13.377,4.811,15.412,11.99" transform="translate(-6.395 -44.122)" fill="#753a09"/>
              <path id="Trazado_152826" data-name="Trazado 152826" d="M60.443,234.045c0-7.055.639-11.836-.475-18.114-.778-4.391,0-7.691-4.225-10.14-6.048-3.5-14.208-5.448-20.889-6.916-6.272-1.379-10.96,10.005-4.667,11.388,2.831.623,11.986,2.368,16.939,3.915a6.6,6.6,0,0,1,4.424,4.609,170.571,170.571,0,0,1,3.142,17.536c.385,2.667,1.808,4.256,4.176,3.594,2.869-.8,1.574-3.149,1.574-5.871" transform="translate(-9.632 -70.366)" fill="#753a09"/>
              <path id="Trazado_152827" data-name="Trazado 152827" d="M65.683,145.356c-.571,14.381,4.482,27.311,9.868,40.61a108.25,108.25,0,0,0,9.494,19.107,8.525,8.525,0,0,0,11.4,2.99c3.727-2.18,8.394-2.6,5.9-6.373-.942-1.428-4.7-7.951-5.531-9.447q-1.361-2.461-2.6-4.991-.793-1.621-1.537-3.267-.4-.889-.79-1.786c-.587-1.356.707,1.825-.273-.664-4.82-12.246-9.35-24.28-8.829-37.4.179-4.5-2.4-8.667-6.778-8.667-4.663,0-10.154,5.374-10.334,9.889" transform="translate(-23.238 -47.959)" fill="#f29d7e"/>
              <path id="Trazado_152828" data-name="Trazado 152828" d="M146.64,125.615c-3.7-1.531-8.039.764-9.689,5.125s.007,9.144,3.708,10.675l.937.384c3.7,1.524,8.04-.769,9.687-5.126s-.008-9.146-3.707-10.672Z" transform="translate(-48.258 -44.303)" fill="#e28e74"/>
              <path id="Trazado_152829" data-name="Trazado 152829" d="M145.7,127.479c.065,1.732,1.891.6,2.71,1.1-.857-5.039,6.361-1.174,7.805-5.365.251-.41-2.962-.689-3.12-1.351-.065-1.732,3.558-1.2,3.335-3.595-.317-1.322-2.869-1.76-3.6-3.335-.158-.661,1.984-.475,2.9-1.043s.344-1.481-.224-2.393c2.235-.885,1.034-4.443,3.269-5.327a5.126,5.126,0,0,1-1.3-3.694c-.134.124-.243.225-.311.291a8.13,8.13,0,0,0-1.526,1.981,6.913,6.913,0,0,1-3.141,2.939,4.907,4.907,0,0,0-2.052,1.484c-.275.444-.371.983-.656,1.42-.453.7-1.336,1.061-1.673,1.82-.205.461-.172,1-.358,1.466-.41,1.034-1.669,1.382-2.543,2.07a1.225,1.225,0,0,0-.57,1.216,1.84,1.84,0,0,1,.148.446.712.712,0,0,1-.158.415c-.638.926-1.8,1.526-2.068,2.617a3.714,3.714,0,0,0,.163,1.816l.769,2.935c.9.186,1.778.43,2.542.608-.252.41-.094,1.071-.345,1.481" transform="translate(-50.452 -36.279)" fill="#42312a"/>
              <path id="Trazado_152830" data-name="Trazado 152830" d="M158.941,117.275h1.03a2.256,2.256,0,0,1-.014-.23,16.138,16.138,0,0,1,.612-2.257,7.567,7.567,0,0,0-.109-2.329,18.82,18.82,0,0,1,.368-6.386,6.523,6.523,0,0,0,.047-2.948c-.125-.51.1-1.3-.174-1.714a4.786,4.786,0,0,1-.528-1.059.389.389,0,0,0-.649-.145c-.466.477-1.1,1.054-1.5,1.424a5.126,5.126,0,0,0,1.3,3.694c-2.236.884-1.034,4.442-3.27,5.327.568.913,1.136,1.826.223,2.393s-3.055.382-2.9,1.043c.727,1.574,3.278,2.012,3.595,3.335.224,2.393-3.4,1.862-3.335,3.595.158.661,3.372.941,3.12,1.351-1.444,4.191-8.662.326-7.805,5.364-.819-.5-2.645.634-2.71-1.1.251-.41.093-1.071.344-1.481-.764-.178-1.638-.421-2.542-.608l1.1,4.216a1.533,1.533,0,0,0,.262.616,1.567,1.567,0,0,0,1.455.289,51.411,51.411,0,0,0,12.074-2.895Z" transform="translate(-50.996 -35.433)" fill="#261c17"/>
              <path id="Trazado_152831" data-name="Trazado 152831" d="M139.773,126.346a2.519,2.519,0,0,0-.437,3.157,1.759,1.759,0,0,0,2.74.234l4.914-4.519a2.512,2.512,0,0,0,.433-3.154,1.762,1.762,0,0,0-2.739-.238Z" transform="translate(-49.197 -42.939)" fill="#e28e74"/>
              <path id="Trazado_152832" data-name="Trazado 152832" d="M103.175,115.217a4.462,4.462,0,0,1,1.484-8.8Z" transform="translate(-35.21 -37.653)" fill="#ed6d53"/>
              <path id="Trazado_152833" data-name="Trazado 152833" d="M104.682,114.294a2.351,2.351,0,1,1,.782-4.637Z" transform="translate(-36.366 -38.81)" fill="#bd422a"/>
              <path id="Trazado_152834" data-name="Trazado 152834" d="M118.961,115.01a1.955,1.955,0,1,1-1.6-2.253,1.955,1.955,0,0,1,1.6,2.253" transform="translate(-40.741 -39.91)" fill="#ed6d53"/>
              <path id="Trazado_152835" data-name="Trazado 152835" d="M125.8,111.71l2.725,3.617a.724.724,0,0,1-.441,1.149l-2.422.462Z" transform="translate(-44.487 -39.548)" fill="#ed6d53"/>
            </g>
          </g>
        </g>
      </g>
    </g>
    <path id="Trazado_152551" data-name="Trazado 152551" d="M858.178,64.165H845.327a5.108,5.108,0,0,1-5.108-5.108V46.206a5.108,5.108,0,0,1,5.108-5.108h12.851a5.108,5.108,0,0,1,5.108,5.108V59.057a5.108,5.108,0,0,1-5.108,5.108" transform="translate(-250.468 1487.617)" fill="#e85f5b"/>
    <path id="Trazado_152552" data-name="Trazado 152552" d="M877.944,68.666a5.188,5.188,0,0,1-.083-.856,3.107,3.107,0,0,1,1.515-2.535c1.1-.84,1.465-1.2,1.465-1.827,0-.642-.428-1.136-1.564-1.136a9.891,9.891,0,0,0-2.8.576c-.313,0-.51-.543-.51-1,0-.428.2-.725.84-.906a9.181,9.181,0,0,1,2.486-.313c2.3,0,3.424,1.185,3.424,2.7,0,1.169-.527,2.025-1.91,3-1.317.922-1.465,1.613-1.449,2.4,0,.247-.181.3-.708.3-.51,0-.642-.033-.708-.4m-.247,2.947c0-.807.247-1.2,1.1-1.2.823,0,1.119.346,1.119,1.2,0,.84-.3,1.2-1.119,1.2-.856,0-1.1-.362-1.1-1.2" transform="translate(-277.91 1472.596)" fill="#035e80"/>
    <path id="Trazado_152554" data-name="Trazado 152554" d="M877.944,68.666a5.188,5.188,0,0,1-.083-.856,3.107,3.107,0,0,1,1.515-2.535c1.1-.84,1.465-1.2,1.465-1.827,0-.642-.428-1.136-1.564-1.136a9.891,9.891,0,0,0-2.8.576c-.313,0-.51-.543-.51-1,0-.428.2-.725.84-.906a9.181,9.181,0,0,1,2.486-.313c2.3,0,3.424,1.185,3.424,2.7,0,1.169-.527,2.025-1.91,3-1.317.922-1.465,1.613-1.449,2.4,0,.247-.181.3-.708.3-.51,0-.642-.033-.708-.4m-.247,2.947c0-.807.247-1.2,1.1-1.2.823,0,1.119.346,1.119,1.2,0,.84-.3,1.2-1.119,1.2-.856,0-1.1-.362-1.1-1.2" transform="translate(-277.91 1472.596)" fill="#fff"/>
    <g id="Grupo_86955" data-name="Grupo 86955" transform="translate(489.94 1515.05)">
      <path id="Trazado_152555" data-name="Trazado 152555" d="M82.1,375.4H68.906a5.244,5.244,0,0,1-5.244-5.244V356.961a5.244,5.244,0,0,1,5.244-5.244H82.1a5.244,5.244,0,0,1,5.244,5.244v13.194A5.244,5.244,0,0,1,82.1,375.4" transform="translate(-63.662 -351.717)" fill="#e289a9"/>
      <path id="Trazado_152556" data-name="Trazado 152556" d="M101.791,378.983v1.639c0,.423-.237.473-.929.473-.71,0-.947-.051-.947-.473V379.05a7.307,7.307,0,0,1-2.13-.439c-.626-.237-.794-.507-.794-.963,0-.439.169-1.082.507-1.082a9.646,9.646,0,0,0,3.11.828c1.47,0,2.18-.71,2.18-1.758s-.676-1.656-2.434-2.113c-2.163-.558-3.38-1.656-3.38-3.448a3.315,3.315,0,0,1,2.924-3.4v-1.639c0-.423.237-.473.947-.473.693,0,.929.051.929.473v1.572a7.231,7.231,0,0,1,1.707.3c.642.186.828.456.828.879,0,.439-.186,1.082-.524,1.082a9.476,9.476,0,0,0-2.755-.609c-1.471,0-2.028.727-2.028,1.639,0,.93.592,1.42,2.265,1.859,2.366.625,3.634,1.724,3.634,3.735a3.537,3.537,0,0,1-3.11,3.482" transform="translate(-89.026 -361.499)" fill="#fff"/>
    </g>
    <g id="Grupo_86954" data-name="Grupo 86954" transform="translate(352.634 1546.549)">
      <g id="Grupo_86953" data-name="Grupo 86953" transform="translate(0 0)">
        <path id="Trazado_152557" data-name="Trazado 152557" d="M1101.313,273.038h-13.849a5.5,5.5,0,0,1-5.5-5.5V253.685a5.5,5.5,0,0,1,5.5-5.5h13.849a5.5,5.5,0,0,1,5.505,5.5v13.849a5.5,5.5,0,0,1-5.505,5.5" transform="translate(-1081.96 -248.18)" fill="#fcc14a"/>
      </g>
      <rect id="Rectángulo_7412" data-name="Rectángulo 7412" width="12.75" height="0.857" transform="translate(6.677 9.078)" fill="#fff"/>
      <rect id="Rectángulo_7413" data-name="Rectángulo 7413" width="12.75" height="0.857" transform="translate(6.677 14.435)" fill="#fff"/>
    </g>
    <g id="Grupo_86956" data-name="Grupo 86956" transform="translate(287.073 1526.112)">
      <path id="Trazado_152558" data-name="Trazado 152558" d="M579.629,170.312H565.567a5.589,5.589,0,0,1-5.589-5.589V150.661a5.589,5.589,0,0,1,5.589-5.589h14.061a5.589,5.589,0,0,1,5.589,5.589v14.061a5.589,5.589,0,0,1-5.589,5.589" transform="translate(-559.978 -145.072)" fill="#46acc3"/>
      <path id="Trazado_152559" data-name="Trazado 152559" d="M604.9,177.9c0-.883.27-1.315,1.207-1.315.9,0,1.225.378,1.225,1.315,0,.919-.324,1.315-1.225,1.315-.937,0-1.207-.4-1.207-1.315m.468-3.441c-.144-2.594-.306-5.458-.306-7.872,0-.468.252-.522,1.045-.522.811,0,1.063.054,1.063.522,0,2.414-.162,5.278-.306,7.872-.018.324-.2.36-.756.36-.54,0-.721-.036-.739-.36" transform="translate(-593.479 -160.726)" fill="#fff"/>
    </g>
  </g>
</svg>
