<svg xmlns="http://www.w3.org/2000/svg" xmlns:xlink="http://www.w3.org/1999/xlink" width="505" height="544" viewBox="0 0 505 544">
  <defs>
    <clipPath id="clip-path">
      <rect id="Rectángulo_7688" data-name="Rectángulo 7688" width="346.094" height="364.921" fill="none"/>
    </clipPath>
    <clipPath id="clip-path-3">
      <rect id="Rectángulo_7653" data-name="Rectángulo 7653" width="83.065" height="37.887" fill="none"/>
    </clipPath>
    <clipPath id="clip-path-4">
      <rect id="Rectángulo_7654" data-name="Rectángulo 7654" width="23.089" height="10.035" fill="none"/>
    </clipPath>
    <clipPath id="clip-path-5">
      <rect id="Rectángulo_7655" data-name="Rectángulo 7655" width="45.634" height="23.742" fill="none"/>
    </clipPath>
    <clipPath id="clip-path-7">
      <rect id="Rectángulo_7658" data-name="Rectángulo 7658" width="11.136" height="45.801" fill="none"/>
    </clipPath>
    <clipPath id="clip-path-9">
      <rect id="Rectángulo_7661" data-name="Rectángulo 7661" width="33.002" height="10.421" fill="none"/>
    </clipPath>
    <clipPath id="clip-path-10">
      <rect id="Rectángulo_7662" data-name="Rectángulo 7662" width="34.585" height="13.97" fill="none"/>
    </clipPath>
    <clipPath id="clip-path-11">
      <rect id="Rectángulo_7664" data-name="Rectángulo 7664" width="4.356" height="9.452" fill="none"/>
    </clipPath>
    <clipPath id="clip-path-12">
      <rect id="Rectángulo_7665" data-name="Rectángulo 7665" width="16.204" height="39.164" fill="none"/>
    </clipPath>
    <clipPath id="clip-path-13">
      <rect id="Rectángulo_7666" data-name="Rectángulo 7666" width="58.118" height="50.91" fill="none"/>
    </clipPath>
    <clipPath id="clip-path-14">
      <rect id="Rectángulo_7668" data-name="Rectángulo 7668" width="21.385" height="26.648" fill="none"/>
    </clipPath>
    <clipPath id="clip-path-15">
      <path id="Trazado_153041" data-name="Trazado 153041" d="M98.263,123.115a5.765,5.765,0,0,1-.179-.948c-.449-3.894,3.062-23.85,3.062-23.85l-16.5-1.849S81.518,116.2,80.59,119.444a3.348,3.348,0,0,1-.829,1.4Z" transform="translate(-79.761 -96.467)" fill="none"/>
    </clipPath>
    <linearGradient id="linear-gradient" x1="-1.942" y1="10.855" x2="-1.916" y2="10.855" gradientUnits="objectBoundingBox">
      <stop offset="0" stop-color="#f0c3a8"/>
      <stop offset="1" stop-color="#fff"/>
    </linearGradient>
    <clipPath id="clip-path-16">
      <rect id="Rectángulo_7669" data-name="Rectángulo 7669" width="11.85" height="14.582" fill="none"/>
    </clipPath>
    <clipPath id="clip-path-17">
      <rect id="Rectángulo_7670" data-name="Rectángulo 7670" width="43.286" height="66.547" fill="none"/>
    </clipPath>
    <clipPath id="clip-path-18">
      <rect id="Rectángulo_7671" data-name="Rectángulo 7671" width="5.912" height="12.664" fill="none"/>
    </clipPath>
    <clipPath id="clip-path-19">
      <rect id="Rectángulo_7672" data-name="Rectángulo 7672" width="75.186" height="43.557" fill="none"/>
    </clipPath>
    <clipPath id="clip-path-20">
      <rect id="Rectángulo_7674" data-name="Rectángulo 7674" width="17.283" height="26.12" fill="none"/>
    </clipPath>
    <clipPath id="clip-path-21">
      <path id="Trazado_153070" data-name="Trazado 153070" d="M270.261,121.537a5.446,5.446,0,0,0,.149-.892c.344-3.656.1-23.174.1-23.174l15.414-2.054s-.116,19.322.815,22.337a3.142,3.142,0,0,0,.8,1.294Z" transform="translate(-270.261 -95.417)" fill="none"/>
    </clipPath>
    <linearGradient id="linear-gradient-2" x1="-9.365" y1="9.87" x2="-9.33" y2="9.87" xlink:href="#linear-gradient"/>
    <clipPath id="clip-path-22">
      <rect id="Rectángulo_7675" data-name="Rectángulo 7675" width="12.608" height="13.679" fill="none"/>
    </clipPath>
    <clipPath id="clip-path-23">
      <rect id="Rectángulo_7676" data-name="Rectángulo 7676" width="4.653" height="0.606" fill="none"/>
    </clipPath>
    <clipPath id="clip-path-24">
      <rect id="Rectángulo_7677" data-name="Rectángulo 7677" width="4.629" height="0.875" fill="none"/>
    </clipPath>
    <clipPath id="clip-path-25">
      <rect id="Rectángulo_7678" data-name="Rectángulo 7678" width="25.83" height="14.496" fill="none"/>
    </clipPath>
    <clipPath id="clip-path-26">
      <rect id="Rectángulo_7679" data-name="Rectángulo 7679" width="19.556" height="6.656" fill="none"/>
    </clipPath>
    <clipPath id="clip-path-27">
      <rect id="Rectángulo_7681" data-name="Rectángulo 7681" width="57.184" height="35.831" fill="none"/>
    </clipPath>
    <clipPath id="clip-path-28">
      <rect id="Rectángulo_7682" data-name="Rectángulo 7682" width="9.184" height="34.087" fill="none"/>
    </clipPath>
    <clipPath id="clip-path-29">
      <rect id="Rectángulo_7683" data-name="Rectángulo 7683" width="15.455" height="34.536" fill="none"/>
    </clipPath>
    <clipPath id="clip-path-30">
      <rect id="Rectángulo_7684" data-name="Rectángulo 7684" width="4.385" height="56.001" fill="none"/>
    </clipPath>
    <clipPath id="clip-path-31">
      <rect id="Rectángulo_7685" data-name="Rectángulo 7685" width="15.704" height="93.914" fill="none"/>
    </clipPath>
    <clipPath id="clip-path-32">
      <rect id="Rectángulo_7686" data-name="Rectángulo 7686" width="13.24" height="34.54" fill="none"/>
    </clipPath>
  </defs>
  <g id="Grupo_88413" data-name="Grupo 88413" transform="translate(-285 -4358)">
    <rect id="Rectángulo_7450" data-name="Rectángulo 7450" width="505" height="544" rx="20" transform="translate(285 4358)" fill="#fcfbed"/>
    <g id="Grupo_87217" data-name="Grupo 87217" transform="translate(364.453 4432.58)">
      <g id="Grupo_87216" data-name="Grupo 87216" clip-path="url(#clip-path)">
        <g id="Grupo_87137" data-name="Grupo 87137">
          <g id="Grupo_87136" data-name="Grupo 87136" clip-path="url(#clip-path)">
            <g id="Grupo_87129" data-name="Grupo 87129" transform="translate(109.342)" opacity="0.48">
              <g id="Grupo_87128" data-name="Grupo 87128">
                <g id="Grupo_87127" data-name="Grupo 87127" clip-path="url(#clip-path-3)">
                  <path id="Trazado_153005" data-name="Trazado 153005" d="M214.86,37.887a8.978,8.978,0,0,0-5.321-16.823,11.427,11.427,0,0,0-18.932-8.453,16.684,16.684,0,0,0-32.492,7.574,13.765,13.765,0,0,0-20.032,17.7Z" transform="translate(-136.512)" fill="#46acc3"/>
                </g>
              </g>
            </g>
            <g id="Grupo_87132" data-name="Grupo 87132" transform="translate(171.942 51.893)" opacity="0.48">
              <g id="Grupo_87131" data-name="Grupo 87131">
                <g id="Grupo_87130" data-name="Grupo 87130" clip-path="url(#clip-path-4)">
                  <path id="Trazado_153006" data-name="Trazado 153006" d="M218.01,74.823a3.343,3.343,0,0,1,0-6.686c.094,0,.187.006.28.014a5.017,5.017,0,0,1,9.478.014,3.253,3.253,0,0,1,1.886.318,4.306,4.306,0,1,1,3.795,6.34Z" transform="translate(-214.668 -64.788)" fill="#46acc3"/>
                </g>
              </g>
            </g>
            <g id="Grupo_87135" data-name="Grupo 87135" transform="translate(120.603 82.889)" opacity="0.48">
              <g id="Grupo_87134" data-name="Grupo 87134">
                <g id="Grupo_87133" data-name="Grupo 87133" clip-path="url(#clip-path-5)">
                  <path id="Trazado_153007" data-name="Trazado 153007" d="M188.527,127.228a7.679,7.679,0,1,0-2.621-14.888,11.875,11.875,0,0,0-22.827-.494,8.274,8.274,0,1,0-4.231,15.382Z" transform="translate(-150.571 -103.486)" fill="#46acc3"/>
                </g>
              </g>
            </g>
          </g>
        </g>
        <path id="Trazado_153008" data-name="Trazado 153008" d="M146.443,248.862l-16.7-10.778-16.164,10.778v45.8h44v-45.8Z" transform="translate(-22.605 -47.386)" fill="#7ac4b2"/>
        <g id="Grupo_87215" data-name="Grupo 87215">
          <g id="Grupo_87214" data-name="Grupo 87214" clip-path="url(#clip-path)">
            <g id="Grupo_87140" data-name="Grupo 87140" transform="translate(123.838 201.476)" style="mix-blend-mode: multiply;isolation: isolate">
              <g id="Grupo_87139" data-name="Grupo 87139">
                <g id="Grupo_87138" data-name="Grupo 87138" clip-path="url(#clip-path-7)">
                  <rect id="Rectángulo_7657" data-name="Rectángulo 7657" width="11.136" height="45.8" fill="#cbc7ff"/>
                </g>
              </g>
            </g>
            <path id="Trazado_153009" data-name="Trazado 153009" d="M150.567,248.8c14.756,0,15.47,2.8-5.568-10.778-14.755,0-15.47-2.8,5.568,10.778" transform="translate(-26.73 -47.327)" fill="#e85f5b"/>
            <path id="Trazado_153010" data-name="Trazado 153010" d="M135.374,266.54c0-8.081,1.063-6.444-3.483-6.444,0,8.082-1.063,6.444,3.483,6.444" transform="translate(-26.229 -51.74)" fill="#184657"/>
            <path id="Trazado_153011" data-name="Trazado 153011" d="M135.374,286.107c0-8.081,1.063-6.443-3.483-6.443,0,8.081-1.063,6.443,3.483,6.443" transform="translate(-26.229 -55.635)" fill="#184657"/>
            <path id="Trazado_153012" data-name="Trazado 153012" d="M162.839,306.525c0-10.473,1.161-8.728-3.483-8.728,0,10.475-1.161,8.728,3.483,8.728" transform="translate(-31.691 -59.249)" fill="#184657"/>
            <path id="Trazado_153013" data-name="Trazado 153013" d="M261.966,248.862l-16.7-10.778L229.1,248.862v45.8h44v-45.8Z" transform="translate(-45.597 -47.386)" fill="#7ac4b2"/>
            <g id="Grupo_87143" data-name="Grupo 87143" transform="translate(216.368 201.476)" opacity="0.7" style="mix-blend-mode: multiply;isolation: isolate">
              <g id="Grupo_87142" data-name="Grupo 87142">
                <g id="Grupo_87141" data-name="Grupo 87141" clip-path="url(#clip-path-7)">
                  <rect id="Rectángulo_7659" data-name="Rectángulo 7659" width="11.136" height="45.8" fill="#cbc7ff"/>
                </g>
              </g>
            </g>
            <path id="Trazado_153014" data-name="Trazado 153014" d="M266.09,248.8c14.756,0,15.471,2.8-5.568-10.778-14.755,0-15.47-2.8,5.568,10.778" transform="translate(-49.722 -47.327)" fill="#e85f5b"/>
            <path id="Trazado_153015" data-name="Trazado 153015" d="M250.9,266.54c0-8.081,1.063-6.444-3.483-6.444,0,8.082-1.063,6.444,3.483,6.444" transform="translate(-49.222 -51.74)" fill="#184657"/>
            <path id="Trazado_153016" data-name="Trazado 153016" d="M250.9,286.107c0-8.081,1.063-6.443-3.483-6.443,0,8.081-1.063,6.443,3.483,6.443" transform="translate(-49.222 -55.635)" fill="#184657"/>
            <path id="Trazado_153017" data-name="Trazado 153017" d="M278.362,306.525c0-10.473,1.161-8.728-3.483-8.728,0,10.475-1.161,8.728,3.483,8.728" transform="translate(-54.684 -59.249)" fill="#184657"/>
            <path id="Trazado_153018" data-name="Trazado 153018" d="M360.695,228.637c36.69,31.5,73.217-12.195,22.22-67.247,3.67-62.859-50.692-63.26-46.158-1.354-51.924,56.053-14.57,101.663,23.938,68.6" transform="translate(-61.952 -22.674)" fill="#42966d"/>
            <path id="Trazado_153019" data-name="Trazado 153019" d="M384.679,268.5c-3.173-68.107-11.473-59.381-9.286-81.016,3.508-25.524-2.541-30.879-4.266-40.335-1-11.612,2.956-22.931.183-32.289-2.076.715,2.187-3.446-3.046,18.965-5.5,23.685,4.177,29.3-1.749,46.839-8.493,25.112,2.421,20.637-3.636,87.33,4.684,1.448,17.079,2.779,21.8.506" transform="translate(-72.224 -22.86)" fill="#184657"/>
            <g id="Grupo_87146" data-name="Grupo 87146" transform="translate(10.688 247.512)" style="mix-blend-mode: multiply;isolation: isolate">
              <g id="Grupo_87145" data-name="Grupo 87145">
                <g id="Grupo_87144" data-name="Grupo 87144" clip-path="url(#clip-path-9)">
                  <path id="Trazado_153020" data-name="Trazado 153020" d="M46.346,314.226c0,2.879-7.387,5.212-16.5,5.212s-16.5-2.333-16.5-5.212,7.387-5.21,16.5-5.21,16.5,2.333,16.5,5.21" transform="translate(-13.344 -309.016)" fill="#e6e6e6"/>
                </g>
              </g>
            </g>
            <path id="Trazado_153021" data-name="Trazado 153021" d="M51.814,178.721c0,3.038-1.865,6-1.985,8.936-.124,3.049,1.491,6.151,1.248,9.07-.256,3.057-2.369,5.844-2.747,8.732-.4,3.064.912,6.308.383,9.151-.571,3.068-2.976,5.61-3.684,8.381-.784,3.069.079,6.466-.854,9.116-1.08,3.065-3.906,5.116-5.157,7.537-1.567,3.028-1.8,6.558-3.588,8.424-3.217,3.361-13.636,3.382-16.875,0-1.786-1.867-2.022-5.4-3.588-8.426-1.253-2.421-4.079-4.473-5.158-7.54-.932-2.649-.069-6.045-.852-9.113-.707-2.769-3.111-5.31-3.682-8.377-.529-2.841.785-6.083.384-9.145-.378-2.888-2.492-5.675-2.747-8.732-.244-2.92,1.371-6.022,1.248-9.071-.119-2.941-1.986-5.9-1.986-8.94s1.866-6,1.985-8.936c.124-3.048-1.491-6.151-1.248-9.07.256-3.057,2.369-5.844,2.747-8.732.4-3.064-.912-6.308-.383-9.151.572-3.068,2.976-5.61,3.684-8.381.784-3.069-.078-6.466.855-9.116,1.079-3.065,3.9-5.116,5.157-7.537,1.567-3.028,1.8-6.558,3.588-8.424,3.217-3.361,13.636-3.382,16.875,0,1.786,1.867,2.022,5.4,3.588,8.426,1.253,2.422,4.079,4.473,5.158,7.54.932,2.649.069,6.045.852,9.113.707,2.769,3.112,5.31,3.683,8.377.529,2.841-.786,6.083-.384,9.145.378,2.888,2.492,5.675,2.747,8.731.244,2.92-1.371,6.022-1.247,9.072.119,2.941,1.985,5.9,1.985,8.94" transform="translate(-0.432 -21.266)" fill="#42966d"/>
            <path id="Trazado_153022" data-name="Trazado 153022" d="M31.8,153.232c1.278,6.377-.237,19.488.241,26.36.183,4.826,2.19,9.586,2.776,22.269.794,18.309-2.62-.281,2.046,40.112,1.259,10.023,2.195,30.864,2.6,41.041-4.332,4.334-12.144,2.333-13.281-.159.64-10.827,1.773-31.208,1.382-42a138.073,138.073,0,0,1,.476-27.167c3.7-23.157.281-25.733,1.135-36.16.416-5.1,1.411-11.021,1.982-16.191.928-8.972-.26-7.942.638-8.1" transform="translate(-5.212 -30.498)" fill="#184657"/>
            <path id="Trazado_153023" data-name="Trazado 153023" d="M166.123,165.949c0,13.2,18.373,5.853,19.419,17.92.868,10.019-17.351,7.927-16.007,19.277,1.693,14.3,12.843,6.72,17.472,15.232,4.214,7.748,2.784,13.738,13.441,13.738s11.44-.794,16.874-13.589c4.63-10.9,12.074-2.079,15.83-15.979,3.056-11.31-16.576-8.96-16.037-18.679.67-12.094,19.419-4.725,19.419-17.921s-18.015-5.889-19.419-17.919c-1.572-13.477,17.571-10.839,14.515-22.149-3.756-13.9-24.354.29-23.83-10.566.637-13.191,4.184-24.975-6.472-24.975s-5.435,15.144-6.471,24.973c-1.139,10.811-20.075-3.331-23.83,10.568-3.055,11.31,16.087,8.673,14.515,22.148-1.4,12.031-19.419,4.726-19.419,17.921" transform="translate(-33.064 -17.98)" fill="#42966d"/>
            <path id="Trazado_153024" data-name="Trazado 153024" d="M215.076,272.822c-8.427-157.628.847-92.256-6.191-153.178-1.2,7-.091,19.016-.276,28.79-.214,12-3.949,15.044-2.618,43.276.532,21.959-2.853,16.429-5.3,81.257Z" transform="translate(-39.944 -23.813)" fill="#184657"/>
            <g id="Grupo_87149" data-name="Grupo 87149" transform="translate(137.703 246.616)" style="mix-blend-mode: multiply;isolation: isolate">
              <g id="Grupo_87148" data-name="Grupo 87148">
                <g id="Grupo_87147" data-name="Grupo 87147" clip-path="url(#clip-path-10)">
                  <path id="Trazado_153025" data-name="Trazado 153025" d="M171.921,314.882c0,9.31,34.585,9.318,34.585,0s-34.585-9.318-34.585,0" transform="translate(-171.921 -307.897)" fill="#e6e6e6"/>
                </g>
              </g>
            </g>
            <path id="Trazado_153026" data-name="Trazado 153026" d="M208.323,236.994c1.444-3.692-3.389-4.215-3.077-8.266.3-3.87-4.465-3.059-5.487-6.9-.985-3.7-5.168-1.33-7.584-4.435-2.331-3-5.219.863-8.7-.9-3.394-1.715-4.343,3.032-8.246,2.877s-2.708,4.572-6.506,5.861c-3.665,1.243-1.044,5.345-4.22,7.709-3.14,2.338.624,5.433-1.79,8.624-2.352,3.109,2.083,5.093.632,8.8-1.444,3.691,3.39,4.215,3.077,8.266-.3,3.87,4.465,3.059,5.486,6.9.986,3.7,5.168,1.33,7.584,4.436,2.332,3,5.22-.863,8.7.895,3.395,1.716,4.342-3.031,8.246-2.876s2.707-4.572,6.506-5.861c3.665-1.244,1.044-5.346,4.22-7.71,3.139-2.337-.625-5.432,1.79-8.623,2.352-3.109-2.083-5.093-.633-8.8" transform="translate(-32.245 -43.016)" fill="#41b093"/>
            <path id="Trazado_153027" data-name="Trazado 153027" d="M194.88,298.551c-2.516-66.7-3.547-51.568-3.853-60.058-.3-4.854.651-31.287-1.524-1.194-.746,10.184-.686,42.338-1.694,61.181,1.53,1.25,5.54,1.23,7.071.071" transform="translate(-37.38 -44.409)" fill="#184657"/>
            <rect id="Rectángulo_7663" data-name="Rectángulo 7663" width="341.085" height="48.627" transform="translate(0 245.874)" fill="#fcfbed"/>
            <path id="Trazado_153028" data-name="Trazado 153028" d="M188.419,180.193a7.314,7.314,0,0,0,3.986-.537,40.065,40.065,0,0,1,7.359-1.993c2.683-.461,3.757.46,1.687,1.379a34.1,34.1,0,0,1-3.3,1.3,29.243,29.243,0,0,0,5.749.461c3.68,0,6.823-1,6.9.306s-2.223,1.534-2.223,1.534,3.219,0,2.912,1-5.059,1.533-5.059,1.533,1.763.384,1.61,1.61-4.37.614-4.37.614,2.147-.077,1.994,1.073-2.683,1.379-7.743,1.379a75.552,75.552,0,0,1-9.736-.69l-.153-8.969Z" transform="translate(-37.425 -35.336)" fill="#f29d7e"/>
            <g id="Grupo_87152" data-name="Grupo 87152" transform="translate(150.611 144.827)" opacity="0.7" style="mix-blend-mode: multiply;isolation: isolate">
              <g id="Grupo_87151" data-name="Grupo 87151">
                <g id="Grupo_87150" data-name="Grupo 87150" clip-path="url(#clip-path-11)">
                  <path id="Trazado_153029" data-name="Trazado 153029" d="M190.508,180.815a5.536,5.536,0,0,1-2.089.03h-.384l.153,8.969s1.721.254,4.2.453Z" transform="translate(-188.036 -180.815)" fill="#cbc7ff"/>
                </g>
              </g>
            </g>
            <path id="Trazado_153030" data-name="Trazado 153030" d="M95.926,438.6a20.543,20.543,0,0,1-1.3,6.363s17.785-1.533,17.479-1.457-2.53-3.143-2.376-4.676Z" transform="translate(-18.833 -87.295)" fill="#f29d7e"/>
            <path id="Trazado_153031" data-name="Trazado 153031" d="M93.97,445.924s-1.662,4.819-.831,6.149,2.493,1,12.63,1,21.272,1.163,21.771-.665-2.826-2.327-7.811-3.822a25.838,25.838,0,0,1-7.969-3.86Z" transform="translate(-18.491 -88.514)" fill="#faf8dc"/>
            <path id="Trazado_153032" data-name="Trazado 153032" d="M127.071,452.5c-1.9,1.288-12.106.3-21.468.3-10.137,0-11.8.332-12.63-1-.014-.022-.022-.054-.034-.078a3.059,3.059,0,0,0,.2,1.74c.831,1.33,2.493,1,12.63,1s21.272,1.163,21.771-.665a1.172,1.172,0,0,0-.469-1.3" transform="translate(-18.492 -89.908)" fill="#184657"/>
            <path id="Trazado_153033" data-name="Trazado 153033" d="M22.176,431.9l-3.833,7.589,16.329,1.457.767-4.14Z" transform="translate(-3.651 -85.961)" fill="#f29d7e"/>
            <path id="Trazado_153034" data-name="Trazado 153034" d="M17.79,440.647s-2.567,4.209-1.93,5.641,2.567.263,12.09,3.739c7.853,2.867,21.536,2.578,22.436,1.122,1.75-2.831-3.124-1.689-7.853-3.864A31.545,31.545,0,0,1,35,442.531Z" transform="translate(-3.137 -87.703)" fill="#faf8dc"/>
            <path id="Trazado_153035" data-name="Trazado 153035" d="M50.44,450.418c-2.161,1.243-14.75,1.346-22.157-1.358-9.522-3.476-11.452-2.307-12.09-3.739a1.208,1.208,0,0,1-.086-.348,3.373,3.373,0,0,0-.247,2.176c.638,1.432,2.568.263,12.09,3.74,7.853,2.867,21.536,2.578,22.436,1.121.487-.788.447-1.263.054-1.592" transform="translate(-3.137 -88.564)" fill="#184657"/>
            <path id="Trazado_153036" data-name="Trazado 153036" d="M47.146,237.752c-3.22,14.719-.92,55.2-4.14,78.193s-22.461,77.12-22.461,77.12c2.95,1.46,12.367,4.952,16.558,5.29,0,0,20.623-46.533,28.441-69.991s12.879-54.735,12.879-54.735,5.981,49.675,5.06,69.914-3.68,54.275-3.68,54.275c3.785.912,13.778,1.377,17.48.46,0,0,8.739-46.916,10.578-86.473a367.81,367.81,0,0,0-4.6-74.513l-34.037-7.82Z" transform="translate(-4.089 -45.672)" fill="#184657"/>
            <path id="Trazado_153037" data-name="Trazado 153037" d="M108.692,136.251c7.973,7.513,21.618,27.9,33.424,30.817s31.585,3.68,31.585,3.68l.46,10.579a98.638,98.638,0,0,1-35.57-1.226c-18.552-4.293-29.438-11.805-29.438-11.805Z" transform="translate(-21.633 -27.118)" fill="#faf8dc"/>
            <g id="Grupo_87155" data-name="Grupo 87155" transform="translate(87.059 109.133)" opacity="0.4" style="mix-blend-mode: multiply;isolation: isolate">
              <g id="Grupo_87154" data-name="Grupo 87154">
                <g id="Grupo_87153" data-name="Grupo 87153" clip-path="url(#clip-path-12)">
                  <path id="Trazado_153038" data-name="Trazado 153038" d="M123.428,175.415a148.878,148.878,0,0,0,1.467-21.032c-6.241-6.662-12.007-14.18-16.2-18.132l.368,25.572,2.159,7.757a87.825,87.825,0,0,0,12.209,5.835" transform="translate(-108.692 -136.251)" fill="#cbc7ff"/>
                </g>
              </g>
            </g>
            <g id="Grupo_87158" data-name="Grupo 87158" transform="translate(42.24 186.801)" opacity="0.7" style="mix-blend-mode: multiply;isolation: isolate">
              <g id="Grupo_87157" data-name="Grupo 87157">
                <g id="Grupo_87156" data-name="Grupo 87156" clip-path="url(#clip-path-13)">
                  <path id="Trazado_153039" data-name="Trazado 153039" d="M110.854,245.558c-.089-.621-.174-1.2-.256-1.754l-20.182,6.387.853-5.714L67.628,233.219,53.553,238.5c-.325,1.485-.593,3.236-.817,5.2a14.574,14.574,0,0,1,7.256-1.521c5.749.46,14.029,11.729,19.089,14.489a29.381,29.381,0,0,0,7.258,2.746c-.261,4.475-.718,10.106-1.509,14.963,0,0,.459,3.815,1.1,9.755l7.177-26.313,5.519-2.071c5.519-2.07,12.189-8.509,12.189-8.509Z" transform="translate(-52.736 -233.219)" fill="#cbc7ff"/>
                </g>
              </g>
            </g>
            <path id="Trazado_153040" data-name="Trazado 153040" d="M99.245,125.459c-1.189-.858-1.457-1.535-1.659-3.292-.449-3.894,3.062-23.85,3.062-23.85l-16.5-1.85s-3.131,19.738-4.059,22.978a13.154,13.154,0,0,1-2.834,3.889c6.555,7.912,18.832,5.937,21.987,2.125" transform="translate(-15.377 -19.2)" fill="#f29d7e"/>
            <g id="Grupo_87163" data-name="Grupo 87163" transform="translate(63.886 77.267)" style="mix-blend-mode: multiply;isolation: isolate">
              <g id="Grupo_87162" data-name="Grupo 87162">
                <g id="Grupo_87161" data-name="Grupo 87161" clip-path="url(#clip-path-14)">
                  <g id="Grupo_87160" data-name="Grupo 87160" transform="translate(0 0)">
                    <g id="Grupo_87159" data-name="Grupo 87159" clip-path="url(#clip-path-15)">
                      <rect id="Rectángulo_7667" data-name="Rectángulo 7667" width="30.534" height="26.489" transform="translate(-5.454 25.481) rotate(-77.918)" fill="url(#linear-gradient)"/>
                    </g>
                  </g>
                </g>
              </g>
            </g>
            <g id="Grupo_87166" data-name="Grupo 87166" transform="translate(73.421 77.742)" opacity="0.58" style="mix-blend-mode: multiply;isolation: isolate">
              <g id="Grupo_87165" data-name="Grupo 87165">
                <g id="Grupo_87164" data-name="Grupo 87164" clip-path="url(#clip-path-16)">
                  <path id="Trazado_153042" data-name="Trazado 153042" d="M99.479,111.531a11.854,11.854,0,0,0,2,.1c.987-6.827,2.038-13.2,2.038-13.2l-11.8-1.375c-.469,7.473,2.2,13.787,7.761,14.471" transform="translate(-91.665 -97.06)" fill="#cbc7ff"/>
                </g>
              </g>
            </g>
            <path id="Trazado_153043" data-name="Trazado 153043" d="M109.508,88.007c.229,8.028-2.56,14.707-10.268,14.84-5.9.167-10.868-6.2-11.1-14.232s1.6-14.593,10.269-14.84c9.544-.272,10.868,6.2,11.1,14.231" transform="translate(-17.539 -14.682)" fill="#f29d7e"/>
            <path id="Trazado_153044" data-name="Trazado 153044" d="M79.942,76.831c-1.695,4.049-4.681,8.439,3.843,17.54l5.41-2.026L84.89,80.57Z" transform="translate(-15.529 -15.292)" fill="#1b4e61"/>
            <path id="Trazado_153045" data-name="Trazado 153045" d="M109.708,88.462a.8.8,0,1,1-.827-.781.8.8,0,0,1,.827.781" transform="translate(-21.515 -17.451)"/>
            <path id="Trazado_153046" data-name="Trazado 153046" d="M93.17,96.057a5.7,5.7,0,1,1-.324-11.391Z" transform="translate(-17.377 -16.851)" fill="#ed6d53"/>
            <path id="Trazado_153047" data-name="Trazado 153047" d="M93.763,94.032a3,3,0,0,1-.171-6Z" transform="translate(-18.047 -17.521)" fill="#bd422a"/>
            <path id="Trazado_153048" data-name="Trazado 153048" d="M107.862,93.531a2.5,2.5,0,1,1-2.567-2.425,2.5,2.5,0,0,1,2.567,2.425" transform="translate(-20.474 -18.133)" fill="#ed6d53"/>
            <path id="Trazado_153049" data-name="Trazado 153049" d="M113.468,87.864l3.6,4.526a.925.925,0,0,1-.523,1.482l-3.077.671Z" transform="translate(-22.584 -17.488)" fill="#ed6d53"/>
            <path id="Trazado_153050" data-name="Trazado 153050" d="M94.375,86.359l.05,4.479L96,90.88a31.665,31.665,0,0,1,.172-4.7Z" transform="translate(-18.784 -17.152)" fill="#1b4e61"/>
            <path id="Trazado_153051" data-name="Trazado 153051" d="M105.211,84.917a6.348,6.348,0,0,1,1.328-.352,7.728,7.728,0,0,1,1.376-.08,6.084,6.084,0,0,1,1.382.2,4.7,4.7,0,0,1,.67.232q.162.078.318.164l.153.088.07.048.02.022h0c-.075-.038-.252.072-.251.152a.241.241,0,1,1,.445.185.284.284,0,0,1-.292.149l-.1-.014-.087-.009-.161-.021c-.106-.014-.211-.022-.317-.029l-.629-.054c-.418-.027-.838-.053-1.262-.064-.847-.042-1.7-.036-2.6-.14a.25.25,0,0,1-.222-.274.246.246,0,0,1,.157-.2" transform="translate(-20.909 -16.814)" fill="#035e80"/>
            <path id="Trazado_153052" data-name="Trazado 153052" d="M110.52,95.767s3.3,9.863-.167,11.212c-5.283,2.053-11.524-.4-13.722-1.232-1.983-.754-2.039-9.583-2.039-9.583L94.438,92l1.579.042s.934,5.324,5.077,5.552c1.426.079,5.081-2.36,9.426-1.824" transform="translate(-18.796 -18.31)" fill="#1b4e61"/>
            <path id="Trazado_153053" data-name="Trazado 153053" d="M113.747,98.993a5.588,5.588,0,0,0,.666-.062c.116.441.239.94.356,1.475a3.825,3.825,0,0,1-.994.158c-1.31.038-2.389-.549-2.411-1.31s1.073-.223,2.383-.26" transform="translate(-22.165 -19.673)" fill="#fff"/>
            <path id="Trazado_153054" data-name="Trazado 153054" d="M108.767,67.548c-1.637-1.6-4.79-.57-6.469.154a13.207,13.207,0,0,0-1.563-.65,18.611,18.611,0,0,0-13.951.375c-3.606,1.531-4.656,3.035-6.457,5.794a7.879,7.879,0,0,0-.614,8.241c2.74,5.852,10.646,2.83,12.807,1.8,2.881-1.366,4.068-4.894,4.994-9.3,0,0,2.505-1.159,7.737,1.563,2.941-1.31,5.816-5.737,3.516-7.979" transform="translate(-15.69 -13.112)" fill="#1b4e61"/>
            <path id="Trazado_153055" data-name="Trazado 153055" d="M75.034,125.154c-6.481,6.283-13.84,14.255-16.907,34.953s-6.286,60.408-6.286,60.408,7.82-3.067,15.178,1.533,15.025,11.5,27.6,9.659,16.1-9.506,16.1-9.506-1.686-24.377-.92-41.4-6.077-41.779-16.837-52.243l-2.789,3.181a43.485,43.485,0,0,1-8.585-2.913c-3.68-1.84-6.552-3.676-6.552-3.676" transform="translate(-10.318 -24.91)" fill="#faf8dc"/>
            <path id="Trazado_153056" data-name="Trazado 153056" d="M79.931,125.154c-1.144,1.109-2.314,2.272-3.484,3.547a40.616,40.616,0,0,0,5.972,5.15,32.3,32.3,0,0,0,7.7,4.37l4.944-6.478a43.485,43.485,0,0,1-8.585-2.913c-3.68-1.84-6.552-3.676-6.552-3.676" transform="translate(-15.215 -24.91)" fill="#fcfae9"/>
            <path id="Trazado_153057" data-name="Trazado 153057" d="M102.484,129.409,99.7,132.59l4.485,3.718a6.069,6.069,0,0,0,2.069-2.454,32.8,32.8,0,0,0-3.765-4.445" transform="translate(-19.843 -25.756)" fill="#fcfae9"/>
            <g id="Grupo_87169" data-name="Grupo 87169" transform="translate(56.379 116.797)" opacity="0.4" style="mix-blend-mode: multiply;isolation: isolate">
              <g id="Grupo_87168" data-name="Grupo 87168">
                <g id="Grupo_87167" data-name="Grupo 87167" clip-path="url(#clip-path-17)">
                  <path id="Trazado_153058" data-name="Trazado 153058" d="M113.487,184.918a73.767,73.767,0,0,0-.639-12.71c-2.851-2.386-8.3-7.22-11.473-11.821-4.446-6.44-9.659-14.719-15.485-14.566s-15.485,9.2-15.485,9.2c-.307,7.82,3.679,23.612,18.551,38.944,10.818,11.152,20.333,16.379,24.719,18.4-.334-8.28-.577-18.811-.187-27.448" transform="translate(-70.389 -145.82)" fill="#cbc7ff"/>
                </g>
              </g>
            </g>
            <path id="Trazado_153059" data-name="Trazado 153059" d="M168.055,211.383c3.373,1.3,7.819,4.216,10.119,4.906s9.429,1.38,14.719,4.063,4.676,3.22,4.676,3.22a27.638,27.638,0,0,1-9.429,3.757c-5.519,1.073-9.89-1.994-12.879-2.453s-10.2-1.917-10.2-1.917Z" transform="translate(-32.853 -42.072)" fill="#f29d7e"/>
            <g id="Grupo_87172" data-name="Grupo 87172" transform="translate(132.212 169.311)" opacity="0.7" style="mix-blend-mode: multiply;isolation: isolate">
              <g id="Grupo_87171" data-name="Grupo 87171">
                <g id="Grupo_87170" data-name="Grupo 87170" clip-path="url(#clip-path-18)">
                  <path id="Trazado_153060" data-name="Trazado 153060" d="M165.065,222.959s2.747.555,5.554,1.089c.883-3.2-.033-7.3-.969-11.973-.549-.257-1.085-.494-1.595-.691Z" transform="translate(-165.065 -211.383)" fill="#cbc7ff"/>
                </g>
              </g>
            </g>
            <path id="Trazado_153061" data-name="Trazado 153061" d="M83.568,143.959c10.609.71,22.179,29.548,35.581,37.878s30.795,15.4,30.795,15.4c.417,3.611-.663,11.647-3.35,13.517,0,0-15-2.829-38.454-15.089S77.581,172,74.313,167.848c-6.063-7.7-7.18-24.99,9.254-23.89" transform="translate(-13.976 -28.642)" fill="#fbf9e2"/>
            <path id="Trazado_153062" data-name="Trazado 153062" d="M323.251,362.624a19.717,19.717,0,0,1-6.269,3.008,24.912,24.912,0,0,1-10.023.6c-6.09-15.192-13.937-33.633-17.267-46.286-6.131-23.307-9.811-60.1-9.811-60.1s-11.655,42.012-11.958,76.97c-.1,11.683-.547,23.329-1.095,33.66a57.782,57.782,0,0,1-15.215.538c-2.378-16.241-5.556-37.859-6.076-55.053-.92-30.358,5.828-75.434,9.811-87.085,0,0,44.464-13.8,50.443-2.759s4.751,40.169,5.672,61.943,4.6,35.569,9.2,59.486c.943,4.908,1.813,10.036,2.59,15.082" transform="translate(-48.852 -44.151)" fill="#e85f5b"/>
            <path id="Trazado_153063" data-name="Trazado 153063" d="M265.134,407.4c-1.09,20.583-2.585,35.946-2.585,35.946h-2.457l-.46-5.828s-13.031,7.821-18.242,7.821c-1.343,0-2.475-.019-3.413-.052a1.07,1.07,0,0,1-.473-2.01c4.8-2.618,13.835-9.061,14.925-11.89.662-1.729-.69-11.011-2.511-23.448a57.713,57.713,0,0,0,15.215-.538" transform="translate(-47.159 -81.086)" fill="#f29d7e"/>
            <path id="Trazado_153064" data-name="Trazado 153064" d="M342.23,435.574l-2.143.616-.92-6.747s-.768-.92-5.367,4.908-11.807,7.359-14.871,7.052-1.84-2.148-1.84-2.148,9.5-5.823,11.959-11.959c1.122-2.8-2.755-13.288-7.879-26.08a24.912,24.912,0,0,0,10.023-.6,19.725,19.725,0,0,0,6.269-3.008c3.026,19.562,4.77,37.965,4.77,37.965" transform="translate(-63.062 -79.137)" fill="#f29d7e"/>
            <path id="Trazado_153065" data-name="Trazado 153065" d="M347.317,121.454c6.16-2.8,6.748-9.267,3.858-12.929s-2.787-5.656-8.135-10.364S335.2,94.08,329.5,92.488s-6.344-4.759-9.984-9.595-7.293-7.321-13.579-8.538-8.2.145-14.546-3.1-4.912-7.224-11.817-8.823c-8.273-1.915-12.1,4.96-12.389,11.617s11.855,20.93,11.855,20.93a79.642,79.642,0,0,1,5.8,6.487c4.12,4.942,6.578,5.988,14.019,5.779s10.933,2.242,13.839,5.068,8,4.115,12.555,3.271,7.815.378,11.558,3.22,8.265,3.671,10.506,2.652" transform="translate(-53.178 -12.361)" fill="#d6b88d"/>
            <g id="Grupo_87175" data-name="Grupo 87175" transform="translate(217.175 65.954)" style="mix-blend-mode: multiply;isolation: isolate">
              <g id="Grupo_87174" data-name="Grupo 87174">
                <g id="Grupo_87173" data-name="Grupo 87173" clip-path="url(#clip-path-19)">
                  <path id="Trazado_153066" data-name="Trazado 153066" d="M273.042,82.343l14.123,7.4c7.373,2,9.639-.27,13.063,3.636s6.822,7.931,10.4,8.847,9.237-.737,13.568,2.486,5.18,7.948,9.776,9.97,6.957,1.029,10.276,5.416a11.466,11.466,0,0,1,2.076,5.789,14.015,14.015,0,0,1-8.729-3.054c-3.743-2.841-7-4.064-11.558-3.22s-9.648-.446-12.554-3.271-6.4-5.276-13.839-5.068-9.9-.837-14.019-5.778a79.6,79.6,0,0,0-5.8-6.488,96.932,96.932,0,0,1-8.69-12.161Z" transform="translate(-271.14 -82.343)" fill="#cbc7ff"/>
                </g>
              </g>
            </g>
            <path id="Trazado_153067" data-name="Trazado 153067" d="M279.844,90.244a5.337,5.337,0,1,0,5.012-5.644,5.338,5.338,0,0,0-5.012,5.644" transform="translate(-55.696 -16.836)" fill="#ed6d53"/>
            <path id="Trazado_153068" data-name="Trazado 153068" d="M282.991,90.722a2.813,2.813,0,1,0,2.641-2.975,2.813,2.813,0,0,0-2.641,2.975" transform="translate(-56.323 -17.463)" fill="#bd422a"/>
            <path id="Trazado_153069" data-name="Trazado 153069" d="M273.344,138.934a83.854,83.854,0,0,0-12.928,2.733,34.781,34.781,0,0,1-1.136-8.047c-.131-1.548,1.186-3.648,2.149-5.565A9.412,9.412,0,0,1,266.2,123.5c1.2-.489,1.849-.984,2.026-2.855.344-3.656.1-23.174.1-23.174l15.414-2.054s-.116,19.322.815,22.337c.853,2.76,5.664,3.6,11.633,5.33-2.58,4.7-2.686,11.052-1.4,16.269-6.843-3.737-14.659-1.264-21.437-.421" transform="translate(-51.603 -18.991)" fill="#f29d7e"/>
            <g id="Grupo_87180" data-name="Grupo 87180" transform="translate(216.471 76.426)" style="mix-blend-mode: multiply;isolation: isolate">
              <g id="Grupo_87179" data-name="Grupo 87179">
                <g id="Grupo_87178" data-name="Grupo 87178" clip-path="url(#clip-path-20)">
                  <g id="Grupo_87177" data-name="Grupo 87177" transform="translate(0 0)">
                    <g id="Grupo_87176" data-name="Grupo 87176" clip-path="url(#clip-path-21)">
                      <rect id="Rectángulo_7673" data-name="Rectángulo 7673" width="22.82" height="29.391" transform="matrix(0.973, -0.23, 0.23, 0.973, -5.839, 1.378)" fill="url(#linear-gradient-2)"/>
                    </g>
                  </g>
                </g>
              </g>
            </g>
            <g id="Grupo_87183" data-name="Grupo 87183" transform="translate(216.706 76.828)" opacity="0.58" style="mix-blend-mode: multiply;isolation: isolate">
              <g id="Grupo_87182" data-name="Grupo 87182">
                <g id="Grupo_87181" data-name="Grupo 87181" clip-path="url(#clip-path-22)">
                  <path id="Trazado_153071" data-name="Trazado 153071" d="M277.236,108.7c-1.352.484-5.331,1.113-6.575.823-.159-6.118-.092-11.953-.092-11.953L283.1,95.918c.469,6.15-1.887,11.36-5.869,12.783" transform="translate(-270.555 -95.919)" fill="#cbc7ff"/>
                </g>
              </g>
            </g>
            <path id="Trazado_153072" data-name="Trazado 153072" d="M261.282,88.569c.525,7.68,3.83,13.777,10.328,13.432,5.53-.294,9.961-6.739,9.834-14.432s-3.37-13.685-11.061-13.441c-11.135.353-9.629,6.711-9.1,14.441" transform="translate(-51.929 -14.752)" fill="#f29d7e"/>
            <g id="Grupo_87186" data-name="Grupo 87186" transform="translate(218.409 67.568)" style="mix-blend-mode: multiply;isolation: isolate">
              <g id="Grupo_87185" data-name="Grupo 87185">
                <g id="Grupo_87184" data-name="Grupo 87184" clip-path="url(#clip-path-23)">
                  <path id="Trazado_153073" data-name="Trazado 153073" d="M277.286,84.806a5.653,5.653,0,0,0-2.277-.449,5.867,5.867,0,0,0-2.279.45.082.082,0,0,0-.042.108.083.083,0,0,0,.091.046,10.59,10.59,0,0,1,2.231-.25,7.632,7.632,0,0,1,1.115.058,10.868,10.868,0,0,1,1.109.191.086.086,0,0,0,.1-.064.082.082,0,0,0-.047-.091" transform="translate(-272.681 -84.358)" fill="#c3b9dd"/>
                </g>
              </g>
            </g>
            <g id="Grupo_87189" data-name="Grupo 87189" transform="translate(209.087 68.295)" style="mix-blend-mode: multiply;isolation: isolate">
              <g id="Grupo_87188" data-name="Grupo 87188">
                <g id="Grupo_87187" data-name="Grupo 87187" clip-path="url(#clip-path-24)">
                  <path id="Trazado_153074" data-name="Trazado 153074" d="M265.615,85.509A5.637,5.637,0,0,0,263.3,85.3a5.842,5.842,0,0,0-2.219.686.082.082,0,0,0,.066.148,10.558,10.558,0,0,1,2.192-.482,7.632,7.632,0,0,1,1.115-.059,11.082,11.082,0,0,1,1.123.073.085.085,0,0,0,.091-.074.082.082,0,0,0-.056-.086" transform="translate(-261.043 -85.265)" fill="#c3b9dd"/>
                </g>
              </g>
            </g>
            <path id="Trazado_153075" data-name="Trazado 153075" d="M275.1,88.332a.72.72,0,1,0,.676-.761.721.721,0,0,0-.676.761" transform="translate(-54.754 -17.429)"/>
            <path id="Trazado_153076" data-name="Trazado 153076" d="M262.284,89.038a.719.719,0,1,0,.676-.761.72.72,0,0,0-.676.761" transform="translate(-52.202 -17.57)"/>
            <path id="Trazado_153077" data-name="Trazado 153077" d="M261.492,91.964c.053-.006.1-.022.157-.026a2.333,2.333,0,0,1,.444,4.642,25.117,25.117,0,0,1-.567-4.09l-.034-.527" transform="translate(-52.045 -18.298)" fill="#ed6d53"/>
            <path id="Trazado_153078" data-name="Trazado 153078" d="M273.838,93.164a2.339,2.339,0,1,0,2.2-2.473,2.338,2.338,0,0,0-2.2,2.473" transform="translate(-54.501 -18.05)" fill="#ed6d53"/>
            <g id="Grupo_87192" data-name="Grupo 87192" transform="translate(209.064 58.976)" style="mix-blend-mode: multiply;isolation: isolate">
              <g id="Grupo_87191" data-name="Grupo 87191">
                <g id="Grupo_87190" data-name="Grupo 87190" clip-path="url(#clip-path-25)">
                  <path id="Trazado_153079" data-name="Trazado 153079" d="M265.09,79.021a16.754,16.754,0,0,1-4.077,2.256c.619-7.9,6.034-7.644,6.034-7.644L276.815,75l9.892,9.958.136,2.981c-10.637,1.961-13.149-12.407-18.675-13.3a8.1,8.1,0,0,1-3.079,4.377" transform="translate(-261.014 -73.631)" fill="#cbc7ff"/>
                </g>
              </g>
            </g>
            <path id="Trazado_153080" data-name="Trazado 153080" d="M265.349,97.542c.06,1.005,1.511,1.737,3.242,1.635s3.085-1,3.026-2.007-1.441-.17-3.172-.066-3.156-.566-3.1.439" transform="translate(-52.812 -19.242)" fill="#fff"/>
            <path id="Trazado_153081" data-name="Trazado 153081" d="M287.238,95.909a.451.451,0,1,0,.424-.477.451.451,0,0,0-.424.477" transform="translate(-57.169 -18.994)" fill="#fff"/>
            <g id="Grupo_87195" data-name="Grupo 87195" transform="translate(205.951 67.788)" opacity="0.45">
              <g id="Grupo_87194" data-name="Grupo 87194">
                <g id="Grupo_87193" data-name="Grupo 87193" clip-path="url(#clip-path-26)">
                  <path id="Trazado_153082" data-name="Trazado 153082" d="M257.562,90.345a2.178,2.178,0,0,1-.352-1.069l-.081-1.652a2.214,2.214,0,0,1,2.1-2.313l1.346-.066c-.992,1.708-1.972,3.422-3.009,5.1m7.138-4.978c-1.165,1.969-2.284,3.964-3.467,5.921l2.614-.129a2.213,2.213,0,0,0,2.1-2.313l-.081-1.652a2.206,2.206,0,0,0-1.163-1.826m9.522,5.282.362-.018a2.214,2.214,0,0,0,2.1-2.313l-.082-1.652a2.159,2.159,0,0,0-.189-.774c-.655,1.635-1.4,3.209-2.187,4.757m-4.195.183c1.08-2.025,2.114-4.061,3-6.2l-3.063.151a2.215,2.215,0,0,0-2.1,2.313l.082,1.652a2.207,2.207,0,0,0,2.081,2.084" transform="translate(-257.127 -84.632)" fill="#fff"/>
                </g>
              </g>
            </g>
            <path id="Trazado_153083" data-name="Trazado 153083" d="M259.284,91.882a2.733,2.733,0,0,1-2.724-2.6l-.081-1.652a2.735,2.735,0,0,1,2.592-2.86l4.324-.212a2.734,2.734,0,0,1,2.859,2.592l.082,1.652a2.735,2.735,0,0,1-2.592,2.86s-4.415.216-4.461.216m4.246-6.28-.083,0-4.324.213a1.692,1.692,0,0,0-1.6,1.766l.082,1.652a1.688,1.688,0,0,0,1.766,1.6l4.324-.213a1.692,1.692,0,0,0,1.6-1.766l-.081-1.652a1.692,1.692,0,0,0-1.683-1.6" transform="translate(-51.047 -16.83)" fill="#0d232b"/>
            <path id="Trazado_153084" data-name="Trazado 153084" d="M272.616,91.254a2.733,2.733,0,0,1-2.725-2.6l-.081-1.652a2.735,2.735,0,0,1,2.592-2.86l4.324-.212a2.734,2.734,0,0,1,2.86,2.591l.082,1.652a2.735,2.735,0,0,1-2.592,2.86s-4.415.216-4.46.216m4.245-6.28-.084,0-4.324.213a1.692,1.692,0,0,0-1.6,1.766l.082,1.652a1.683,1.683,0,0,0,1.766,1.6L277.024,90a1.692,1.692,0,0,0,1.6-1.766l-.082-1.652a1.69,1.69,0,0,0-1.682-1.6" transform="translate(-53.7 -16.705)" fill="#0d232b"/>
            <path id="Trazado_153085" data-name="Trazado 153085" d="M286.608,87.548s-1.372.106-1.737-.2a6.315,6.315,0,0,0-3.164.785l-.525-.9a7.229,7.229,0,0,1,3.33-.958c.278.024,1.012.044,1.108.291.285.733,1,.877.989.988" transform="translate(-55.964 -17.169)" fill="#0d232b"/>
            <rect id="Rectángulo_7680" data-name="Rectángulo 7680" width="1.836" height="1.044" transform="matrix(0.999, -0.049, 0.049, 0.999, 214.778, 70.447)" fill="#0d232b"/>
            <path id="Trazado_153086" data-name="Trazado 153086" d="M268.482,89.239,266.8,92.9a.641.641,0,0,0,.6.909l2.168-.062Z" transform="translate(-53.091 -17.761)" fill="#ed6d53"/>
            <path id="Trazado_153087" data-name="Trazado 153087" d="M278.1,71.388s-1.719-2.31-8.158-3.307c-5.452-.844-8.8.472-10.445,3.776-1.146,2.308.309,4.706,1.607,6.342,2.2-.485,3.219-1.859,6.525-5.2a21.724,21.724,0,0,1,3.859.89c3.077,1.165,5.826,12.88,16.356,10.94Z" transform="translate(-51.565 -13.501)" fill="#d6b88d"/>
            <g id="Grupo_87198" data-name="Grupo 87198" transform="translate(204.647 177.699)" style="mix-blend-mode: multiply;isolation: isolate">
              <g id="Grupo_87197" data-name="Grupo 87197">
                <g id="Grupo_87196" data-name="Grupo 87196" clip-path="url(#clip-path-27)">
                  <path id="Trazado_153088" data-name="Trazado 153088" d="M310.235,233.09c-1.61-6.871-2.983-9.05-7.254-10.332-13.013-3.9-45.589,6.111-45.635,6.119a70.863,70.863,0,0,0-1.848,6.909c12.122,2.6,15.818-3.953,17.641-4.149a11.8,11.8,0,0,0,9.276,6.132c5.081.366,12.156-3,17.555-4.292l.193,20.269c.784,6.547,9.351,2.928,12.519,3.079-.333-9-.969-17.4-2.447-23.734" transform="translate(-255.499 -221.855)" fill="#cbc7ff"/>
                </g>
              </g>
            </g>
            <path id="Trazado_153089" data-name="Trazado 153089" d="M272.49,147.44c3.795.576,13.224-.229,13.224-.229l-2.76,15.178-10.694.115Z" transform="translate(-54.188 -29.3)" fill="#eb7470"/>
            <path id="Trazado_153090" data-name="Trazado 153090" d="M281.064,127.088s-.755,21.521-13.633,30.606c0,0-10.234-10.695-8.739-28.862,0,0-13.454,6.209-18.053,16.9-3.681,8.559-8.164,24.263-17.364,34.153-1.37,1.471-2.769,2.925-4.167,4.342l8.937,8.937c2-1.987,4.029-4.191,6.038-6.61,12.419-14.949,15.639-20.929,15.639-20.929a22.149,22.149,0,0,0,5.06,8.739c3.68,3.68,1.15,13.8-1.84,23.458s-4.485,13.109-4.485,13.109,5.979,2.76,10.579,2.76c3.334,0,7.014-2.76,7.014-2.76a10.758,10.758,0,0,0,8.394,4.715c11.729.92,28.863-6.554,28.863-6.554s-5.979-14.489-8.05-28.058,2.53-23,2.53-23a71.172,71.172,0,0,1,9.624,10.155c4.058-2.895,8.316-5.523,12.592-8.133-10.338-16.149-26.414-31.352-38.94-32.973" transform="translate(-43.609 -25.294)" fill="#184657"/>
            <path id="Trazado_153091" data-name="Trazado 153091" d="M265.575,129.543a18.2,18.2,0,0,1,3.089-2.994.615.615,0,0,1,1,.4,124.37,124.37,0,0,0,2.984,16.275c2.185,8.164,4.025,14.028,4.025,14.028a95.62,95.62,0,0,0,7.244-16.558,79.957,79.957,0,0,0,3.22-15.179s.23-1.035,1.265-.46,4.715,2.07,4.715,2.07-.988,11.077-4.427,17.536a31.6,31.6,0,0,1-12.016,12.59s-5.865-4.254-8.739-13.683-2.357-14.029-2.357-14.029" transform="translate(-52.851 -24.856)" fill="#2d5666"/>
            <path id="Trazado_153092" data-name="Trazado 153092" d="M221.363,207.365a85.56,85.56,0,0,1-19.718,15.009L194.284,218s-7.359,3.91-8.509,2.759,2.07-2.759,6.669-5.29c3.914-2.152,11.991-8.969,19.981-17.046Z" transform="translate(-36.929 -39.493)" fill="#f4ae94"/>
            <g id="Grupo_87201" data-name="Grupo 87201" transform="translate(244.995 126.19)" opacity="0.7" style="mix-blend-mode: multiply;isolation: isolate">
              <g id="Grupo_87200" data-name="Grupo 87200">
                <g id="Grupo_87199" data-name="Grupo 87199" clip-path="url(#clip-path-28)">
                  <path id="Trazado_153093" data-name="Trazado 153093" d="M312.527,187.1c-2.07-13.568,2.529-23,2.529-23a79.63,79.63,0,0,0-9.084-6.554s-1.035,18.284,3.564,27.828a33.764,33.764,0,0,0,3.813,6.259c-.312-1.509-.593-3.027-.823-4.534" transform="translate(-305.873 -157.547)" fill="#cbc7ff"/>
                </g>
              </g>
            </g>
            <g id="Grupo_87204" data-name="Grupo 87204" transform="translate(193.648 122.856)" opacity="0.7" style="mix-blend-mode: multiply;isolation: isolate">
              <g id="Grupo_87203" data-name="Grupo 87203">
                <g id="Grupo_87202" data-name="Grupo 87202" clip-path="url(#clip-path-29)">
                  <path id="Trazado_153094" data-name="Trazado 153094" d="M245.033,174.771a69.455,69.455,0,0,0-3.266,13.148c9.8-12.118,12.465-17.057,12.465-17.057-1.495-4.37,2.99-17.479,2.99-17.479a69.375,69.375,0,0,0-12.189,21.387" transform="translate(-241.767 -153.384)" fill="#cbc7ff"/>
                </g>
              </g>
            </g>
            <g id="Grupo_87207" data-name="Grupo 87207" transform="translate(222.441 132.399)" style="mix-blend-mode: multiply;isolation: isolate">
              <g id="Grupo_87206" data-name="Grupo 87206">
                <g id="Grupo_87205" data-name="Grupo 87205" clip-path="url(#clip-path-30)">
                  <path id="Trazado_153095" data-name="Trazado 153095" d="M279.1,165.3c-1.38,6.095-.8,10.234.46,15.983s-1.84,37.257-1.84,37.257a9.488,9.488,0,0,0,2.664,2.76s2.281-25.068,1.591-31.738-2.529-10-2.875-13.684a100.788,100.788,0,0,1,0-10.579" transform="translate(-277.715 -165.299)" fill="#cbc7ff"/>
                </g>
              </g>
            </g>
            <g id="Grupo_87210" data-name="Grupo 87210" transform="translate(215.324 196.526)" style="mix-blend-mode: multiply;isolation: isolate">
              <g id="Grupo_87209" data-name="Grupo 87209">
                <g id="Grupo_87208" data-name="Grupo 87208" clip-path="url(#clip-path-31)">
                  <path id="Trazado_153096" data-name="Trazado 153096" d="M269.813,322.94c1.125,6.549,2.046,11.926,2.8,16.334.756-34.491,11.923-74.75,11.923-74.75-1.688-10.118-3.681-19.164-3.681-19.164s-16.1,48.142-11.039,77.58" transform="translate(-268.83 -245.36)" fill="#cbc7ff"/>
                </g>
              </g>
            </g>
            <path id="Trazado_153097" data-name="Trazado 153097" d="M366.108,243.589l-46.077,5.524a4.547,4.547,0,0,1-5.057-3.974l-3.517-29.331a4.547,4.547,0,0,1,3.974-5.057l46.077-5.525a4.549,4.549,0,0,1,5.056,3.974l3.516,29.331a4.547,4.547,0,0,1-3.974,5.057" transform="translate(-61.983 -40.84)" fill="#58676d"/>
            <path id="Trazado_153098" data-name="Trazado 153098" d="M365.246,245.024l-46.077,5.524a4.547,4.547,0,0,1-5.057-3.974L310.6,217.244a4.547,4.547,0,0,1,3.974-5.057l46.077-5.524a4.547,4.547,0,0,1,5.057,3.974l3.516,29.331a4.547,4.547,0,0,1-3.974,5.057" transform="translate(-61.812 -41.126)" fill="#0d232b"/>
            <g id="Grupo_87213" data-name="Grupo 87213" transform="translate(267.54 166.892)" opacity="0.7" style="mix-blend-mode: multiply;isolation: isolate">
              <g id="Grupo_87212" data-name="Grupo 87212">
                <g id="Grupo_87211" data-name="Grupo 87211" clip-path="url(#clip-path-32)">
                  <path id="Trazado_153099" data-name="Trazado 153099" d="M344.807,242.29l2.453.614-2.151-34.54-11.089,1.33c3.614,7.741,10.787,32.6,10.787,32.6" transform="translate(-334.02 -208.363)" fill="#cbc7ff"/>
                </g>
              </g>
            </g>
            <path id="Trazado_153100" data-name="Trazado 153100" d="M341.946,168.256c-4.277,2.61-8.534,5.238-12.592,8.132a43.836,43.836,0,0,1,4.635,7.323c3.707,7.6,5.919,12.216,7.244,20.105l12.667-2.01a87.8,87.8,0,0,0-3.353-16.025,77.913,77.913,0,0,0-8.6-17.525" transform="translate(-65.552 -33.488)" fill="#184657"/>
            <path id="Trazado_153101" data-name="Trazado 153101" d="M356.578,247.7c-.46,3.91-6.44,5.519-8.969,5.29s-2.07-4.139-2.07-4.139l-3.22.23c.69-2.53,4.139-6.44,4.139-6.44s-.69-11.958-1.84-24.148c-.22-2.36-.487-4.448-.8-6.343l12.667-2.01a178.426,178.426,0,0,1,.1,37.561" transform="translate(-68.132 -41.825)" fill="#f4aa8f"/>
            <path id="Trazado_153102" data-name="Trazado 153102" d="M258.254,443.026c-2.606,1.84-10.272,5.366-10.272,5.366a15.815,15.815,0,0,0-2.991-3.381,73.36,73.36,0,0,1-7.487,4.845,1.07,1.07,0,0,0,.474,2.01c.938.032,2.07.05,3.413.05,5.211,0,18.242-7.819,18.242-7.819l.46,5.828h2.456s.344-3.541.823-9.491a24.946,24.946,0,0,0-5.117,2.592" transform="translate(-47.159 -87.66)" fill="#0d232b"/>
            <path id="Trazado_153103" data-name="Trazado 153103" d="M318.929,448.183c3.064.308,10.271-1.228,14.871-7.051s5.367-4.908,5.367-4.908l.92,6.747,2.143-.617s-.4-4.18-1.138-10.671c-1.469.147-4.364,3.5-7.063,6.9a15.381,15.381,0,0,1-7.436,5l-3.157-2.339a49.3,49.3,0,0,1-6.347,4.791s-1.228,1.84,1.84,2.148" transform="translate(-63.062 -85.919)" fill="#0d232b"/>
            <path id="Trazado_153104" data-name="Trazado 153104" d="M358.19,246.267q.049-.9.094-1.866a57.45,57.45,0,0,1-11.178.226c.046.679.086,1.3.122,1.852,1.416.12,2.816.175,4.141.175a62.376,62.376,0,0,0,6.822-.386" transform="translate(-69.085 -48.643)" fill="#0d232b"/>
          </g>
        </g>
      </g>
    </g>
  </g>
</svg>
