<svg xmlns="http://www.w3.org/2000/svg" width="57" height="50.674" viewBox="0 0 57 50.674">
  <path id="hand-holding-usd-light" d="M25.4,13.428l5.581,1.593A2.027,2.027,0,0,1,30.428,19H26.777a3.817,3.817,0,0,1-2.236-.722.746.746,0,0,0-.97.119l-1.128,1.128a.8.8,0,0,0,.1,1.207,6.954,6.954,0,0,0,4.245,1.435h.139v2.375a.794.794,0,0,0,.792.792H29.3a.794.794,0,0,0,.792-.792V22.166h.139a5.357,5.357,0,0,0,5.116-3.483,5.219,5.219,0,0,0-3.473-6.709L26.025,10.3a2.027,2.027,0,0,1,.554-3.978H30.23a3.817,3.817,0,0,1,2.236.722.746.746,0,0,0,.97-.119L34.565,5.8a.8.8,0,0,0-.1-1.207A7.007,7.007,0,0,0,30.22,3.167h-.139V.792A.794.794,0,0,0,29.29,0H27.707a.794.794,0,0,0-.792.792V3.167h-.346A5.2,5.2,0,0,0,21.4,8.856,5.409,5.409,0,0,0,25.4,13.428ZM55.246,33.011a5.359,5.359,0,0,0-6.917-.119l-6.1,4.878A1.056,1.056,0,0,1,41.57,38H37.454a5.508,5.508,0,0,0,.475-3.2,5.7,5.7,0,0,0-5.72-4.72H17.94a9.466,9.466,0,0,0-5.7,1.9l-3.8,2.85H.792A.794.794,0,0,0,0,35.623v1.583A.794.794,0,0,0,.792,38H9.5l4.641-3.483a6.354,6.354,0,0,1,3.8-1.267H32.457a2.375,2.375,0,1,1,0,4.75H23.749a1.583,1.583,0,0,0,0,3.167H41.58a4.266,4.266,0,0,0,2.642-.92l6.1-4.869a2.2,2.2,0,0,1,2.81,0,2.1,2.1,0,0,1-.089,3.226l-9.975,7.986a4.207,4.207,0,0,1-2.642.92H.792A.794.794,0,0,0,0,48.3v1.583a.794.794,0,0,0,.792.792H40.423a7.358,7.358,0,0,0,4.611-1.623l9.984-7.986a5.282,5.282,0,0,0,.228-8.055Z" fill="#e85f5b"/>
</svg>
