<svg xmlns="http://www.w3.org/2000/svg" width="57.008" height="50.674" viewBox="0 0 57.008 50.674">
  <path id="comments-alt-dollar-light" d="M22.17,23.219a4.176,4.176,0,0,0,3.9-4.2A4.255,4.255,0,0,0,23.1,14.936L18.985,13.7a1.072,1.072,0,0,1-.712-1.047,1.027,1.027,0,0,1,.956-1.083H21.8a2.073,2.073,0,0,1,1.085.307.83.83,0,0,0,.99-.139L25,10.664a.788.788,0,0,0-.053-1.2,5.348,5.348,0,0,0-2.779-1.021V7.126a.792.792,0,0,0-.792-.792H19.8A.792.792,0,0,0,19,7.126V8.452a4.176,4.176,0,0,0-3.9,4.2,4.255,4.255,0,0,0,2.969,4.081l4.113,1.234a1.072,1.072,0,0,1,.712,1.047,1.027,1.027,0,0,1-.956,1.083H19.377a2.073,2.073,0,0,1-1.085-.307.829.829,0,0,0-.99.139L16.17,21.007a.788.788,0,0,0,.053,1.2A5.348,5.348,0,0,0,19,23.227v1.318a.792.792,0,0,0,.792.792h1.584a.792.792,0,0,0,.792-.792Zm28.5-7.383h-9.5v-9.5A6.334,6.334,0,0,0,34.838,0H6.334A6.334,6.334,0,0,0,0,6.334v19a6.334,6.334,0,0,0,6.334,6.334H9.5v5.145a1.189,1.189,0,0,0,1.193,1.19,1.172,1.172,0,0,0,.7-.235L19,33.464v4.541a6.334,6.334,0,0,0,6.334,6.334h9.5l10.775,6.1a1.174,1.174,0,0,0,.7.235,1.189,1.189,0,0,0,1.193-1.19V44.339h3.167a6.334,6.334,0,0,0,6.334-6.334V22.17A6.334,6.334,0,0,0,50.674,15.835ZM12.668,33.41V28.5H6.334a3.171,3.171,0,0,1-3.167-3.167v-19A3.171,3.171,0,0,1,6.334,3.167h28.5a3.171,3.171,0,0,1,3.167,3.167v19A3.171,3.171,0,0,1,34.838,28.5h-13.5Zm41.172,4.6a3.171,3.171,0,0,1-3.167,3.167H44.339v4.906l-8.667-4.906H25.337a3.171,3.171,0,0,1-3.167-3.167V31.671H34.838a6.334,6.334,0,0,0,6.334-6.334V19h9.5a3.171,3.171,0,0,1,3.167,3.167Z" fill="#e85f5b"/>
</svg>
