<svg xmlns="http://www.w3.org/2000/svg" width="74" height="74" viewBox="0 0 74 74">
  <g id="Grupo_87748" data-name="Grupo 87748" transform="translate(-647 -2886)">
    <path id="money-check-edit-alt-regular" d="M42.675,33.781h3.735a1.406,1.406,0,0,0,1.406-1.406V28.643a2.813,2.813,0,0,0-.824-1.989L26.648,6.311l-6.3,6.3L40.685,32.957A2.813,2.813,0,0,0,42.675,33.781ZM18.36,10.627l6.3-6.311L20.988.645a2.118,2.118,0,0,0-2.98,0l-3.33,3.329a2.11,2.11,0,0,0,0,2.971ZM11.954,37.3H13.36a.7.7,0,0,0,.7-.7V35.177a3.914,3.914,0,0,0,3.751-3.961A3.977,3.977,0,0,0,15.038,27.4l-3.955-1.187a1.147,1.147,0,0,1-.771-1.119,1.105,1.105,0,0,1,1.037-1.159H13.82a2.11,2.11,0,0,1,1.127.327.791.791,0,0,0,.418.123.679.679,0,0,0,.473-.187l1.033-.985a.7.7,0,0,0-.05-1.067,5.026,5.026,0,0,0-2.756-1V19.718a.7.7,0,0,0-.7-.7H11.954a.7.7,0,0,0-.7.7v1.417A3.914,3.914,0,0,0,7.5,25.1a3.977,3.977,0,0,0,2.776,3.814L14.231,30.1A1.147,1.147,0,0,1,15,31.216a1.105,1.105,0,0,1-1.037,1.159H11.494a2.117,2.117,0,0,1-1.122-.327.791.791,0,0,0-.418-.123.677.677,0,0,0-.473.187L8.444,33.1a.7.7,0,0,0,.05,1.067,5.033,5.033,0,0,0,2.756,1v1.432A.7.7,0,0,0,11.954,37.3ZM22.5,26.75h8l-4.219-4.219H22.5A1.406,1.406,0,0,0,21.1,23.937v1.406A1.406,1.406,0,0,0,22.5,26.75ZM21.1,32.375A1.406,1.406,0,0,0,22.5,33.781h15.03l-4.219-4.219H22.5A1.406,1.406,0,0,0,21.1,30.969Zm32.346-21.1H35.6L39.817,15.5H52.035V40.813H4.219V15.5H19.254l-.9-.9-1.986-1.986L15.035,11.28H2.813A2.813,2.813,0,0,0,0,14.093V42.22a2.813,2.813,0,0,0,2.813,2.813H53.441a2.813,2.813,0,0,0,2.813-2.813V14.093A2.813,2.813,0,0,0,53.441,11.28Z" transform="translate(656 2900.968)" fill="#fcfbed"/>
    <g id="Grupo_87747" data-name="Grupo 87747" transform="translate(389)">
      <rect id="Rectángulo_7997" data-name="Rectángulo 7997" width="74" height="74" transform="translate(258 2886)" fill="none"/>
    </g>
  </g>
</svg>
