<svg xmlns="http://www.w3.org/2000/svg" width="47.949" height="54.799" viewBox="0 0 47.949 54.799">
  <path id="calendar-alt-regular" d="M15.84,30.824H11.559a1.288,1.288,0,0,1-1.284-1.284V25.259a1.288,1.288,0,0,1,1.284-1.284H15.84a1.288,1.288,0,0,1,1.284,1.284V29.54A1.288,1.288,0,0,1,15.84,30.824ZM27.4,29.54V25.259a1.288,1.288,0,0,0-1.284-1.284H21.834a1.288,1.288,0,0,0-1.284,1.284V29.54a1.288,1.288,0,0,0,1.284,1.284h4.281A1.288,1.288,0,0,0,27.4,29.54Zm10.275,0V25.259a1.288,1.288,0,0,0-1.284-1.284H32.109a1.288,1.288,0,0,0-1.284,1.284V29.54a1.288,1.288,0,0,0,1.284,1.284H36.39A1.288,1.288,0,0,0,37.674,29.54ZM27.4,39.815V35.534a1.288,1.288,0,0,0-1.284-1.284H21.834a1.288,1.288,0,0,0-1.284,1.284v4.281A1.288,1.288,0,0,0,21.834,41.1h4.281A1.288,1.288,0,0,0,27.4,39.815Zm-10.275,0V35.534a1.288,1.288,0,0,0-1.284-1.284H11.559a1.288,1.288,0,0,0-1.284,1.284v4.281A1.288,1.288,0,0,0,11.559,41.1H15.84A1.288,1.288,0,0,0,17.125,39.815Zm20.549,0V35.534a1.288,1.288,0,0,0-1.284-1.284H32.109a1.288,1.288,0,0,0-1.284,1.284v4.281A1.288,1.288,0,0,0,32.109,41.1H36.39A1.288,1.288,0,0,0,37.674,39.815ZM47.949,11.987V49.661A5.139,5.139,0,0,1,42.811,54.8H5.137A5.139,5.139,0,0,1,0,49.661V11.987A5.139,5.139,0,0,1,5.137,6.85h5.137V1.284A1.288,1.288,0,0,1,11.559,0H15.84a1.288,1.288,0,0,1,1.284,1.284V6.85h13.7V1.284A1.288,1.288,0,0,1,32.109,0H36.39a1.288,1.288,0,0,1,1.284,1.284V6.85h5.137A5.139,5.139,0,0,1,47.949,11.987ZM42.811,49.019V17.125H5.137V49.019a.644.644,0,0,0,.642.642h36.39A.644.644,0,0,0,42.811,49.019Z" fill="#f3f1d2"/>
</svg>
