<svg xmlns="http://www.w3.org/2000/svg" width="74" height="74" viewBox="0 0 74 74">
  <g id="Grupo_87746" data-name="Grupo 87746" transform="translate(-258 -2886)">
    <path id="file-edit-regular" d="M38.21,10.023,29.543,1.357A4.958,4.958,0,0,0,26.041-.1H4.958A4.975,4.975,0,0,0,0,4.869V47.841A4.96,4.96,0,0,0,4.958,52.8h29.75a4.96,4.96,0,0,0,4.958-4.958V13.535a4.982,4.982,0,0,0-1.457-3.512Zm-3.9,3.109H26.444V5.272ZM4.958,47.841V4.869H21.486V15.612a2.473,2.473,0,0,0,2.479,2.479H34.708v29.75ZM21.806,24.092l4.834,4.834a.524.524,0,0,1,0,.744L14.813,41.5l-4.979.558A1.05,1.05,0,0,1,8.677,40.9l.558-4.979L21.063,24.092a.524.524,0,0,1,.744,0Zm8.574,1.839-2.014,2.014a.524.524,0,0,1-.744,0l-4.834-4.834a.524.524,0,0,1,0-.744L24.8,20.353a2.089,2.089,0,0,1,2.954,0l2.624,2.624a2.089,2.089,0,0,1,0,2.954Z" transform="translate(275 2897.1)" fill="#fcc14a"/>
    <rect id="Rectángulo_7997" data-name="Rectángulo 7997" width="74" height="74" transform="translate(258 2886)" fill="none"/>
  </g>
</svg>
