<svg xmlns="http://www.w3.org/2000/svg" xmlns:xlink="http://www.w3.org/1999/xlink" width="505" height="544" viewBox="0 0 505 544">
  <defs>
    <clipPath id="clip-path">
      <rect id="Rectángulo_7721" data-name="Rectángulo 7721" width="358.732" height="353.007" fill="none"/>
    </clipPath>
    <clipPath id="clip-path-3">
      <rect id="Rectángulo_7691" data-name="Rectángulo 7691" width="82.867" height="37.796" fill="#ffe8b9"/>
    </clipPath>
    <clipPath id="clip-path-4">
      <rect id="Rectángulo_7692" data-name="Rectángulo 7692" width="23.034" height="10.011" fill="#ffe8b9"/>
    </clipPath>
    <clipPath id="clip-path-5">
      <rect id="Rectángulo_7693" data-name="Rectángulo 7693" width="45.524" height="23.686" fill="none"/>
    </clipPath>
    <clipPath id="clip-path-7">
      <rect id="Rectángulo_7696" data-name="Rectángulo 7696" width="11.109" height="45.691" fill="none"/>
    </clipPath>
    <clipPath id="clip-path-9">
      <rect id="Rectángulo_7699" data-name="Rectángulo 7699" width="32.923" height="10.396" fill="none"/>
    </clipPath>
    <clipPath id="clip-path-10">
      <rect id="Rectángulo_7700" data-name="Rectángulo 7700" width="34.502" height="13.937" fill="none"/>
    </clipPath>
    <clipPath id="clip-path-11">
      <rect id="Rectángulo_7706" data-name="Rectángulo 7706" width="27.567" height="63.144" fill="none"/>
    </clipPath>
    <clipPath id="clip-path-12">
      <rect id="Rectángulo_7708" data-name="Rectángulo 7708" width="27.567" height="81.132" fill="none"/>
    </clipPath>
    <clipPath id="clip-path-13">
      <rect id="Rectángulo_7710" data-name="Rectángulo 7710" width="27.567" height="116.78" fill="none"/>
    </clipPath>
    <clipPath id="clip-path-14">
      <rect id="Rectángulo_7711" data-name="Rectángulo 7711" width="147.057" height="8.953" fill="none"/>
    </clipPath>
    <clipPath id="clip-path-15">
      <rect id="Rectángulo_7713" data-name="Rectángulo 7713" width="23.469" height="25.415" fill="none"/>
    </clipPath>
    <clipPath id="clip-path-16">
      <path id="Trazado_153145" data-name="Trazado 153145" d="M358.787,177.979a4.792,4.792,0,0,0-.033-.834c-.385-3.359-7.5-19.231-7.5-19.231l14.242-5.35s6.739,15.777,8.212,18.272a2.772,2.772,0,0,0,1.016.977Z" transform="translate(-351.25 -152.564)" fill="none"/>
    </clipPath>
    <linearGradient id="linear-gradient" x1="-8.562" y1="7.086" x2="-8.537" y2="7.086" gradientUnits="objectBoundingBox">
      <stop offset="0" stop-color="#f0c3a8"/>
      <stop offset="1" stop-color="#fff"/>
    </linearGradient>
    <clipPath id="clip-path-17">
      <rect id="Rectángulo_7714" data-name="Rectángulo 7714" width="10.457" height="14.044" fill="none"/>
    </clipPath>
    <clipPath id="clip-path-18">
      <rect id="Rectángulo_7715" data-name="Rectángulo 7715" width="85.504" height="34.076" fill="none"/>
    </clipPath>
    <clipPath id="clip-path-19">
      <rect id="Rectángulo_7716" data-name="Rectángulo 7716" width="42.495" height="8.603" fill="none"/>
    </clipPath>
    <clipPath id="clip-path-20">
      <rect id="Rectángulo_7717" data-name="Rectángulo 7717" width="11.36" height="22.949" fill="none"/>
    </clipPath>
  </defs>
  <g id="Grupo_88414" data-name="Grupo 88414" transform="translate(9888 7342)">
    <rect id="Rectángulo_7690" data-name="Rectángulo 7690" width="505" height="544" rx="20" transform="translate(-9888 -7342)" fill="#fcc14a"/>
    <g id="Grupo_87273" data-name="Grupo 87273" transform="translate(-9814.866 -7255.507)">
      <g id="Grupo_87272" data-name="Grupo 87272" clip-path="url(#clip-path)">
        <g id="Grupo_87228" data-name="Grupo 87228">
          <g id="Grupo_87227" data-name="Grupo 87227" clip-path="url(#clip-path)">
            <g id="Grupo_87220" data-name="Grupo 87220" transform="translate(226.74 36.837)">
              <g id="Grupo_87219" data-name="Grupo 87219">
                <g id="Grupo_87218" data-name="Grupo 87218" clip-path="url(#clip-path-3)">
                  <path id="Trazado_153105" data-name="Trazado 153105" d="M215.345,37.8a8.957,8.957,0,0,0-5.308-16.783A11.4,11.4,0,0,0,191.15,12.58a16.644,16.644,0,0,0-32.414,7.556A13.732,13.732,0,0,0,138.752,37.8Z" transform="translate(-137.184)" fill="#ffe8b9"/>
                </g>
              </g>
            </g>
            <g id="Grupo_87223" data-name="Grupo 87223" transform="translate(215.224 96.366)">
              <g id="Grupo_87222" data-name="Grupo 87222">
                <g id="Grupo_87221" data-name="Grupo 87221" clip-path="url(#clip-path-4)">
                  <path id="Trazado_153106" data-name="Trazado 153106" d="M218.675,74.8a3.335,3.335,0,1,1,0-6.67c.094,0,.186.006.279.014a5.006,5.006,0,0,1,9.456.014,3.242,3.242,0,0,1,1.881.317,4.3,4.3,0,1,1,3.786,6.325Z" transform="translate(-215.34 -64.788)" fill="#ffe8b9"/>
                </g>
              </g>
            </g>
            <g id="Grupo_87226" data-name="Grupo 87226" transform="translate(120.851 82.691)" opacity="0.48">
              <g id="Grupo_87225" data-name="Grupo 87225">
                <g id="Grupo_87224" data-name="Grupo 87224" clip-path="url(#clip-path-5)">
                  <path id="Trazado_153107" data-name="Trazado 153107" d="M189.108,127.172a7.66,7.66,0,1,0-2.615-14.852,11.846,11.846,0,0,0-22.772-.493,8.254,8.254,0,1,0-4.221,15.345Z" transform="translate(-151.243 -103.486)" fill="#46acc3"/>
                </g>
              </g>
            </g>
          </g>
        </g>
        <path id="Trazado_153108" data-name="Trazado 153108" d="M147.036,248.837l-16.664-10.752-16.126,10.752v45.691h43.9V248.837Z" transform="translate(-22.957 -47.842)" fill="#7ac4b2"/>
        <g id="Grupo_87271" data-name="Grupo 87271">
          <g id="Grupo_87270" data-name="Grupo 87270" clip-path="url(#clip-path)">
            <g id="Grupo_87231" data-name="Grupo 87231" transform="translate(124.079 200.994)" style="mix-blend-mode: multiply;isolation: isolate">
              <g id="Grupo_87230" data-name="Grupo 87230">
                <g id="Grupo_87229" data-name="Grupo 87229" clip-path="url(#clip-path-7)">
                  <rect id="Rectángulo_7695" data-name="Rectángulo 7695" width="11.109" height="45.691" fill="#cbc7ff"/>
                </g>
              </g>
            </g>
            <path id="Trazado_153109" data-name="Trazado 153109" d="M151.2,248.777c14.721,0,15.433,2.79-5.555-10.752-14.72,0-15.433-2.79,5.555,10.752" transform="translate(-27.122 -47.783)" fill="#e85f5b"/>
            <path id="Trazado_153110" data-name="Trazado 153110" d="M136.038,266.524c0-8.062,1.06-6.428-3.475-6.428,0,8.062-1.06,6.428,3.475,6.428" transform="translate(-26.617 -52.238)" fill="#184657"/>
            <path id="Trazado_153111" data-name="Trazado 153111" d="M136.038,286.091c0-8.062,1.06-6.428-3.475-6.428,0,8.062-1.06,6.428,3.475,6.428" transform="translate(-26.617 -56.17)" fill="#184657"/>
            <path id="Trazado_153112" data-name="Trazado 153112" d="M163.5,306.5c0-10.449,1.158-8.708-3.474-8.708,0,10.45-1.159,8.708,3.474,8.708" transform="translate(-32.131 -59.819)" fill="#184657"/>
            <path id="Trazado_153113" data-name="Trazado 153113" d="M262.559,248.837,245.9,238.085l-16.126,10.752v45.691h43.9V248.837Z" transform="translate(-46.171 -47.842)" fill="#7ac4b2"/>
            <g id="Grupo_87234" data-name="Grupo 87234" transform="translate(216.388 200.994)" opacity="0.7" style="mix-blend-mode: multiply;isolation: isolate">
              <g id="Grupo_87233" data-name="Grupo 87233">
                <g id="Grupo_87232" data-name="Grupo 87232" clip-path="url(#clip-path-7)">
                  <rect id="Rectángulo_7697" data-name="Rectángulo 7697" width="11.109" height="45.691" fill="#cbc7ff"/>
                </g>
              </g>
            </g>
            <path id="Trazado_153114" data-name="Trazado 153114" d="M266.723,248.777c14.721,0,15.434,2.79-5.555-10.752-14.72,0-15.433-2.79,5.555,10.752" transform="translate(-50.336 -47.783)" fill="#e85f5b"/>
            <path id="Trazado_153115" data-name="Trazado 153115" d="M251.561,266.524c0-8.062,1.06-6.428-3.475-6.428,0,8.062-1.06,6.428,3.475,6.428" transform="translate(-49.831 -52.238)" fill="#184657"/>
            <path id="Trazado_153116" data-name="Trazado 153116" d="M251.561,286.091c0-8.062,1.06-6.428-3.475-6.428,0,8.062-1.06,6.428,3.475,6.428" transform="translate(-49.831 -56.17)" fill="#184657"/>
            <path id="Trazado_153117" data-name="Trazado 153117" d="M279.025,306.5c0-10.449,1.158-8.708-3.474-8.708,0,10.45-1.159,8.708,3.474,8.708" transform="translate(-55.345 -59.819)" fill="#184657"/>
            <path id="Trazado_153118" data-name="Trazado 153118" d="M361.249,228.363c36.6,31.428,73.043-12.166,22.168-67.086,3.661-62.709-50.57-63.108-46.048-1.35-51.8,55.919-14.535,101.42,23.88,68.436" transform="translate(-62.684 -22.893)" fill="#42966d"/>
            <path id="Trazado_153119" data-name="Trazado 153119" d="M385.3,268.131c-3.165-67.944-11.446-59.239-9.264-80.823,3.5-25.463-2.535-30.805-4.256-40.239-1-11.584,2.949-22.876.183-32.211-2.071.714,2.182-3.438-3.039,18.92-5.487,23.629,4.167,29.228-1.744,46.727-8.473,25.052,2.415,20.588-3.627,87.121,4.673,1.445,17.038,2.773,21.747.505" transform="translate(-73.055 -23.08)" fill="#184657"/>
            <g id="Grupo_87237" data-name="Grupo 87237" transform="translate(11.199 246.92)" style="mix-blend-mode: multiply;isolation: isolate">
              <g id="Grupo_87236" data-name="Grupo 87236">
                <g id="Grupo_87235" data-name="Grupo 87235" clip-path="url(#clip-path-9)">
                  <path id="Trazado_153120" data-name="Trazado 153120" d="M46.939,314.215c0,2.871-7.37,5.2-16.461,5.2s-16.461-2.328-16.461-5.2,7.37-5.2,16.461-5.2,16.461,2.328,16.461,5.2" transform="translate(-14.016 -309.016)" fill="#e6e6e6"/>
                </g>
              </g>
            </g>
            <path id="Trazado_153121" data-name="Trazado 153121" d="M52.367,178.549c0,3.031-1.861,5.982-1.98,8.915-.124,3.042,1.488,6.136,1.245,9.048-.255,3.05-2.364,5.83-2.741,8.711-.4,3.057.91,6.293.382,9.129-.57,3.061-2.969,5.6-3.675,8.361-.782,3.062.079,6.451-.852,9.094-1.077,3.058-3.9,5.1-5.145,7.519-1.563,3.021-1.8,6.542-3.58,8.4-3.209,3.353-13.6,3.374-16.834,0-1.782-1.863-2.018-5.383-3.58-8.406-1.25-2.416-4.069-4.463-5.145-7.522-.931-2.642-.07-6.03-.851-9.092-.706-2.762-3.1-5.3-3.673-8.356-.528-2.834.783-6.068.383-9.123-.377-2.881-2.486-5.661-2.741-8.711-.244-2.913,1.368-6.007,1.245-9.049-.119-2.934-1.981-5.887-1.981-8.918s1.862-5.982,1.98-8.915c.124-3.041-1.488-6.136-1.245-9.048.255-3.049,2.364-5.83,2.741-8.711.4-3.057-.91-6.293-.382-9.129.571-3.061,2.969-5.6,3.675-8.36.782-3.063-.078-6.452.853-9.095,1.076-3.058,3.9-5.1,5.144-7.519,1.563-3.021,1.8-6.542,3.58-8.4,3.209-3.353,13.6-3.374,16.834,0,1.782,1.863,2.018,5.383,3.58,8.406,1.25,2.416,4.069,4.463,5.146,7.522.93,2.642.069,6.03.85,9.092.706,2.763,3.1,5.3,3.674,8.356.527,2.834-.784,6.069-.384,9.124.377,2.881,2.486,5.66,2.741,8.71.244,2.913-1.368,6.007-1.244,9.049.119,2.934,1.98,5.886,1.98,8.918" transform="translate(-0.571 -21.47)" fill="#42966d"/>
            <path id="Trazado_153122" data-name="Trazado 153122" d="M32.458,153.232c1.275,6.362-.237,19.442.241,26.3.183,4.814,2.185,9.563,2.77,22.216.792,18.265-2.614-.28,2.041,40.016,1.256,10,2.189,30.79,2.6,40.943-4.321,4.324-12.115,2.328-13.249-.159.638-10.8,1.769-31.133,1.379-41.9a137.743,137.743,0,0,1,.475-27.1c3.693-23.1.28-25.671,1.132-36.073.415-5.087,1.408-10.994,1.977-16.152.927-8.95-.259-7.923.637-8.083" transform="translate(-5.397 -30.792)" fill="#184657"/>
            <path id="Trazado_153123" data-name="Trazado 153123" d="M166.795,165.769c0,13.164,18.329,5.839,19.372,17.877.866,9.995-17.309,7.908-15.968,19.231,1.689,14.264,12.812,6.7,17.43,15.2,4.2,7.729,2.777,13.705,13.409,13.705s11.413-.792,16.834-13.557c4.619-10.875,12.045-2.074,15.792-15.94,3.048-11.283-16.536-8.938-16-18.634.669-12.066,19.372-4.714,19.372-17.878s-17.972-5.875-19.372-17.877c-1.568-13.444,17.529-10.812,14.48-22.1-3.747-13.866-24.3.289-23.773-10.542.635-13.16,4.174-24.915-6.456-24.915s-5.422,15.108-6.456,24.914c-1.136,10.785-20.027-3.324-23.773,10.542-3.048,11.283,16.049,8.652,14.48,22.1-1.4,12-19.372,4.714-19.372,17.878" transform="translate(-33.517 -18.153)" fill="#42966d"/>
            <path id="Trazado_153124" data-name="Trazado 153124" d="M215.714,272.456c-8.407-157.251.845-92.035-6.176-152.812-1.2,6.985-.091,18.97-.276,28.721-.213,11.975-3.939,15.008-2.611,43.172.531,21.906-2.846,16.39-5.287,81.063Z" transform="translate(-40.463 -24.042)" fill="#184657"/>
            <g id="Grupo_87240" data-name="Grupo 87240" transform="translate(137.911 246.026)" style="mix-blend-mode: multiply;isolation: isolate">
              <g id="Grupo_87239" data-name="Grupo 87239">
                <g id="Grupo_87238" data-name="Grupo 87238" clip-path="url(#clip-path-10)">
                  <path id="Trazado_153125" data-name="Trazado 153125" d="M172.593,314.865c0,9.288,34.5,9.3,34.5,0s-34.5-9.3-34.5,0" transform="translate(-172.593 -307.897)" fill="#e6e6e6"/>
                </g>
              </g>
            </g>
            <path id="Trazado_153126" data-name="Trazado 153126" d="M208.884,236.944c1.441-3.683-3.382-4.2-3.07-8.246.3-3.861-4.453-3.052-5.473-6.881-.984-3.695-5.156-1.326-7.566-4.424-2.325-2.988-5.207.861-8.679-.893-3.386-1.711-4.332,3.024-8.226,2.87s-2.7,4.561-6.491,5.847c-3.656,1.24-1.042,5.332-4.21,7.692-3.132,2.332.622,5.419-1.786,8.6-2.347,3.1,2.078,5.081.63,8.779-1.441,3.682,3.382,4.2,3.07,8.246-.3,3.86,4.454,3.052,5.473,6.881.984,3.694,5.156,1.326,7.566,4.424,2.325,2.988,5.207-.861,8.679.893,3.386,1.711,4.332-3.024,8.226-2.87s2.7-4.561,6.491-5.847c3.656-1.241,1.041-5.332,4.209-7.692,3.132-2.332-.622-5.419,1.787-8.6,2.346-3.1-2.078-5.081-.631-8.779" transform="translate(-32.691 -43.43)" fill="#41b093"/>
            <path id="Trazado_153127" data-name="Trazado 153127" d="M195.535,298.371c-2.51-66.543-3.538-51.445-3.843-59.915-.3-4.842.65-31.212-1.521-1.191-.744,10.159-.685,42.236-1.69,61.035,1.526,1.247,5.527,1.227,7.054.071" transform="translate(-37.875 -44.837)" fill="#184657"/>
            <path id="Trazado_153170" data-name="Trazado 153170" d="M0,0H340.27V48.511H0Z" transform="translate(0.537 245.286)" fill="#fcc14a"/>
            <rect id="Rectángulo_7702" data-name="Rectángulo 7702" width="110.266" height="63.144" transform="translate(29.074 48.895)" fill="#e289a9"/>
            <rect id="Rectángulo_7703" data-name="Rectángulo 7703" width="110.266" height="81.132" transform="translate(29.074 112.039)" fill="#faf8dc"/>
            <path id="Trazado_153171" data-name="Trazado 153171" d="M0,0H110.266V116.779H0Z" transform="translate(29.074 193.172)" fill="#e85f5b"/>
            <g id="Grupo_87243" data-name="Grupo 87243" transform="translate(111.773 48.895)" style="mix-blend-mode: multiply;isolation: isolate">
              <g id="Grupo_87242" data-name="Grupo 87242">
                <g id="Grupo_87241" data-name="Grupo 87241" clip-path="url(#clip-path-11)">
                  <rect id="Rectángulo_7705" data-name="Rectángulo 7705" width="27.567" height="63.144" transform="translate(0)" fill="#cbc7ff"/>
                </g>
              </g>
            </g>
            <g id="Grupo_87246" data-name="Grupo 87246" transform="translate(111.773 112.039)" style="mix-blend-mode: multiply;isolation: isolate">
              <g id="Grupo_87245" data-name="Grupo 87245">
                <g id="Grupo_87244" data-name="Grupo 87244" clip-path="url(#clip-path-12)">
                  <rect id="Rectángulo_7707" data-name="Rectángulo 7707" width="27.567" height="81.132" transform="translate(0 0)" fill="#cbc7ff"/>
                </g>
              </g>
            </g>
            <g id="Grupo_87249" data-name="Grupo 87249" transform="translate(111.773 193.171)" style="mix-blend-mode: multiply;isolation: isolate">
              <g id="Grupo_87248" data-name="Grupo 87248">
                <g id="Grupo_87247" data-name="Grupo 87247" clip-path="url(#clip-path-13)">
                  <rect id="Rectángulo_7709" data-name="Rectángulo 7709" width="27.567" height="116.779" transform="translate(0 0.001)" fill="#cbc7ff"/>
                </g>
              </g>
            </g>
            <path id="Trazado_153128" data-name="Trazado 153128" d="M49.5,418.765A15.315,15.315,0,1,1,34.186,403.45,15.315,15.315,0,0,1,49.5,418.765" transform="translate(-3.792 -81.072)" fill="#357e9a"/>
            <path id="Trazado_153129" data-name="Trazado 153129" d="M44.053,420.595a8.036,8.036,0,1,1-8.037-8.037,8.037,8.037,0,0,1,8.037,8.037" transform="translate(-5.622 -82.902)" fill="#184657"/>
            <path id="Trazado_153130" data-name="Trazado 153130" d="M198.7,418.765a15.315,15.315,0,1,1-15.315-15.315A15.315,15.315,0,0,1,198.7,418.765" transform="translate(-33.774 -81.072)" fill="#357e9a"/>
            <path id="Trazado_153131" data-name="Trazado 153131" d="M193.255,420.595a8.036,8.036,0,1,1-8.037-8.037,8.037,8.037,0,0,1,8.037,8.037" transform="translate(-35.604 -82.902)" fill="#184657"/>
            <g id="Grupo_87252" data-name="Grupo 87252" transform="translate(16.476 322.377)" opacity="0.7" style="mix-blend-mode: multiply;isolation: isolate">
              <g id="Grupo_87251" data-name="Grupo 87251">
                <g id="Grupo_87250" data-name="Grupo 87250" clip-path="url(#clip-path-14)">
                  <path id="Trazado_153132" data-name="Trazado 153132" d="M169.821,412.4h27.837a15.295,15.295,0,0,0-27.837,0" transform="translate(-50.601 -403.449)" fill="#cbc7ff"/>
                  <path id="Trazado_153133" data-name="Trazado 153133" d="M20.619,412.4H48.456a15.295,15.295,0,0,0-27.837,0" transform="translate(-20.619 -403.449)" fill="#cbc7ff"/>
                  <path id="Trazado_153134" data-name="Trazado 153134" d="M169.821,412.4h27.837a15.295,15.295,0,0,0-27.837,0" transform="translate(-50.601 -403.449)" fill="#41b093"/>
                  <path id="Trazado_153135" data-name="Trazado 153135" d="M20.619,412.4H48.456a15.295,15.295,0,0,0-27.837,0" transform="translate(-20.619 -403.449)" fill="#41b093"/>
                </g>
              </g>
            </g>
            <path id="Trazado_153136" data-name="Trazado 153136" d="M174.937,402.475H4.6a4.6,4.6,0,0,1-4.6-4.6V392.5a4.6,4.6,0,0,1,4.6-4.6H174.937a4.6,4.6,0,0,1,4.6,4.6v5.376a4.6,4.6,0,0,1-4.6,4.6" transform="translate(0 -77.947)" fill="#184657"/>
            <path id="Trazado_153137" data-name="Trazado 153137" d="M209.413,367.407a2.123,2.123,0,0,1-2.09-2.494l22.147-124.068a2.12,2.12,0,0,1,2.087-1.748h25.917a2.12,2.12,0,1,1,0,4.241H233.334L211.5,365.658a2.12,2.12,0,0,1-2.085,1.748" transform="translate(-41.654 -48.046)" fill="#184657"/>
            <path id="Trazado_153138" data-name="Trazado 153138" d="M249.336,223.694c.036-.618.809-.662,1.624-.535-.773-.3-1.477-.728-1.444-1.3.038-.638,1.212-.691,2.355-.59-1.133-.265-2.278-.72-2.235-1.471.047-.8,1.671-.766,3.137-.568-1.04-.286-2.027-.726-1.99-1.359.039-.675,2.34-.644,4.587-.45l-.348-.042c-1.174-.142-1-1.831,1.935-1.513s10.963-.152,26.564-3.574c14.182-3.11,28.733-9.617,38.808-14.488,3.217,2.95,6.885,9.4,8.229,12.93-7.053,4.03-17.013,6.2-27.28,9.247-18.437,5.466-25.071,5.846-41.438,6.484-8.559.334-12.58-1.445-12.5-2.77" transform="translate(-50.103 -39.748)" fill="#f29d7e"/>
            <path id="Trazado_153139" data-name="Trazado 153139" d="M312.078,225.379a2.933,2.933,0,0,0-5.629,1.653,2.865,2.865,0,0,0,.161.414c1.776-.491,3.624-1.024,5.562-1.593a2.905,2.905,0,0,0-.094-.474" transform="translate(-61.556 -44.866)" fill="#ed6d53"/>
            <path id="Trazado_153140" data-name="Trazado 153140" d="M368.989,395.914c-.157,10.048-1.413,20.83-1.1,26.325a84.7,84.7,0,0,0,.941,9.028H342.167s1.7-3.219,7.981-3.847c4.207-.421,5.5-5.024,5.5-12.09s-2.355-19-2.355-19Z" transform="translate(-68.757 -79.558)" fill="#f4a88c"/>
            <path id="Trazado_153141" data-name="Trazado 153141" d="M438.982,394.081c1.413,7.222,1.831,25.016,2.3,28.784s.523,7.379.523,7.379h-24.79s.419-2.983,2.617-3.088c7.067-.337,8.461-1.256,9.717-3.978s-3.4-22.347-5.129-27.842,14.759-1.256,14.759-1.256" transform="translate(-83.799 -78.876)" fill="#f4a88c"/>
            <path id="Trazado_153142" data-name="Trazado 153142" d="M414.554,260.86c2.669,9.42,2.2,14.288,1.413,19.469-.965,6.372-.456,34.927,6.281,52.125,10.826,27.64,10.826,60.05,10.826,60.05-2.55,1.358-9.567,2.031-12.762,1.511,0,0-17.533-49.314-25.7-64.073-7.565-13.675-18.683-38.466-18.683-38.466l20.882-30.616Z" transform="translate(-75.542 -52.419)" fill="#184657"/>
            <path id="Trazado_153143" data-name="Trazado 153143" d="M406.083,261.057a55.837,55.837,0,0,1-9.368,36.687c-6.961,10.1-17.479,20.305-21.562,46.055-3.935,24.819-3.563,51.264-3.563,51.264-2.98.835-11.1.616-14.945-.169a584.21,584.21,0,0,1-2.531-59.26c.314-32.029,15.7-73.479,15.7-73.479Z" transform="translate(-71.153 -52.459)" fill="#315a69"/>
            <path id="Trazado_153144" data-name="Trazado 153144" d="M374.673,186.528c-4.72,5.9-14.474,5.708-16.539,4.844-3.715-1.555-4.157-2.545-5.747-5.716,5.986-6.018,6.716-5.471,6.368-8.511-.385-3.358-7.5-19.231-7.5-19.231l14.242-5.35s6.739,15.778,8.212,18.272c.89,1.508,5.156,3.5,7.113,5.093-.925,4.3-3.318,7.069-6.144,10.6" transform="translate(-70.583 -30.657)" fill="#f29d7e"/>
            <g id="Grupo_87257" data-name="Grupo 87257" transform="translate(280.667 121.907)" style="mix-blend-mode: multiply;isolation: isolate">
              <g id="Grupo_87256" data-name="Grupo 87256">
                <g id="Grupo_87255" data-name="Grupo 87255" clip-path="url(#clip-path-15)">
                  <g id="Grupo_87254" data-name="Grupo 87254" transform="translate(0 0)">
                    <g id="Grupo_87253" data-name="Grupo 87253" clip-path="url(#clip-path-16)">
                      <rect id="Rectángulo_7712" data-name="Rectángulo 7712" width="32.268" height="33.158" transform="matrix(0.898, -0.441, 0.441, 0.898, -10.055, 4.938)" fill="url(#linear-gradient)"/>
                    </g>
                  </g>
                </g>
              </g>
            </g>
            <g id="Grupo_87260" data-name="Grupo 87260" transform="translate(280.625 123.219)" opacity="0.58" style="mix-blend-mode: multiply;isolation: isolate">
              <g id="Grupo_87259" data-name="Grupo 87259">
                <g id="Grupo_87258" data-name="Grupo 87258" clip-path="url(#clip-path-17)">
                  <path id="Trazado_153146" data-name="Trazado 153146" d="M357.042,167.788a10.168,10.168,0,0,1-1.654.463c-2.112-5.533-4.191-10.672-4.191-10.672l9.622-3.372c1.8,6.171.757,11.961-3.777,13.582" transform="translate(-351.197 -154.206)" fill="#cbc7ff"/>
                </g>
              </g>
            </g>
            <path id="Trazado_153147" data-name="Trazado 153147" d="M344.319,148.968c.722,6.857,3.856,12.222,10.43,11.455,5.04-.53,8.539-6.518,7.819-13.375s-3.027-12.234-10.43-11.455c-8.153.857-8.54,6.518-7.819,13.375" transform="translate(-69.14 -27.232)" fill="#f29d7e"/>
            <path id="Trazado_153148" data-name="Trazado 153148" d="M370.507,135.866c1.9,3.252,4.945,6.647-1.269,15.363l-4.834-1.107,2.32-10.51Z" transform="translate(-73.226 -27.302)" fill="#283b42"/>
            <path id="Trazado_153149" data-name="Trazado 153149" d="M348.071,149.155a.69.69,0,1,0,.614-.758.689.689,0,0,0-.614.758" transform="translate(-69.943 -29.819)"/>
            <path id="Trazado_153150" data-name="Trazado 153150" d="M362.189,153.849a4.891,4.891,0,1,0-1.024-9.729Z" transform="translate(-72.575 -28.955)" fill="#ed6d53"/>
            <path id="Trazado_153151" data-name="Trazado 153151" d="M328.269,200.18c-.419,3.459,5.875,12.623,5.875,12.623L350.7,192.7l-2.1-1.623a103.45,103.45,0,0,0-12.508,5.318,65.762,65.762,0,0,1-7.82,3.784" transform="translate(-65.961 -38.397)" fill="#e85f5b"/>
            <g id="Grupo_87263" data-name="Grupo 87263" transform="translate(199.232 152.681)" opacity="0.7" style="mix-blend-mode: multiply;isolation: isolate">
              <g id="Grupo_87262" data-name="Grupo 87262">
                <g id="Grupo_87261" data-name="Grupo 87261" clip-path="url(#clip-path-18)">
                  <path id="Trazado_153152" data-name="Trazado 153152" d="M334.839,192.7l-2.1-1.623a103.45,103.45,0,0,0-12.508,5.318,65.692,65.692,0,0,1-7.82,3.784,3.654,3.654,0,0,0,.015.851,158.834,158.834,0,0,1-28.906,9.908c-15.6,3.422-23.628,3.892-26.565,3.573s-3.108,1.37-1.935,1.513l.348.042c-2.246-.193-4.547-.225-4.587.45-.037.634.951,1.073,1.991,1.359-1.467-.2-3.091-.235-3.137.569-.044.75,1.1,1.2,2.234,1.47-1.143-.1-2.317-.048-2.354.59-.034.574.671,1,1.444,1.3-.816-.128-1.589-.083-1.624.535-.077,1.325,3.944,3.1,12.5,2.77,13.705-.535,20.589-.89,33.292-4.2.01.022.015.045.026.066,1.776-.491,3.624-1.024,5.562-1.593l0-.009c.83-.239,1.677-.485,2.56-.747,10.266-3.044,20.226-5.216,27.279-9.247a44.49,44.49,0,0,0-3.645-7.053Z" transform="translate(-249.335 -191.077)" fill="#cbc7ff"/>
                </g>
              </g>
            </g>
            <path id="Trazado_153153" data-name="Trazado 153153" d="M362.007,152.13a2.578,2.578,0,1,0-.539-5.128Z" transform="translate(-72.636 -29.537)" fill="#bd422a"/>
            <path id="Trazado_153154" data-name="Trazado 153154" d="M349.552,153.309a2.143,2.143,0,1,0,1.907-2.356,2.143,2.143,0,0,0-1.907,2.356" transform="translate(-70.239 -30.331)" fill="#ed6d53"/>
            <path id="Trazado_153155" data-name="Trazado 153155" d="M344.466,149.052l-2.567,4.265a.794.794,0,0,0,.615,1.2l2.674.223Z" transform="translate(-68.68 -29.952)" fill="#ed6d53"/>
            <path id="Trazado_153156" data-name="Trazado 153156" d="M360.842,145.627l.467,3.817-1.339.216a27.138,27.138,0,0,0-.682-3.982Z" transform="translate(-72.198 -29.263)" fill="#283b42"/>
            <path id="Trazado_153157" data-name="Trazado 153157" d="M345.081,137.117c-1.812-1.239-2.163-5.193,2.875-7.728a15.98,15.98,0,0,1,11.914-1.273c3.243.892,4.618,2.838,4.97,2.832-.161-.723-1.008-1.582-.451-3.622,1.044-3.829,7.068-4.132,9.181-1.514s2.559,6.85-1.175,8.995c-1.671.96-5-.575-6.015-1.3-.088.866,1.261,2.368.8,5.626-.772,5.493-8.43,3.747-10.386,3.121-2.607-.834-4.019-3.7-5.31-7.345,0,0-2.264-.7-6.405,2.213" transform="translate(-69.097 -24.938)" fill="#283b42"/>
            <path id="Trazado_153158" data-name="Trazado 153158" d="M350.633,146.07c-.376.1-.747.165-1.113.229l-1.086.186c-.359.06-.714.129-1.067.2-.176.038-.353.074-.528.117l-.553.136a.3.3,0,0,1-.045.01.2.2,0,0,1-.074,0,.219.219,0,0,1-.149-.1.207.207,0,0,1,.357-.208.2.2,0,0,0-.141-.1.36.36,0,0,0-.066,0,.165.165,0,0,0-.028,0s.012-.016.018-.022l.054-.05.119-.1c.081-.062.167-.118.253-.173a3.891,3.891,0,0,1,.543-.274,5.367,5.367,0,0,1,1.153-.329,6.52,6.52,0,0,1,1.181-.086,4.92,4.92,0,0,1,1.17.148.213.213,0,0,1,0,.412" transform="translate(-69.526 -29.239)" fill="#035e80"/>
            <path id="Trazado_153159" data-name="Trazado 153159" d="M345.117,155.447s-1.685,8.769,1.422,9.521c4.729,1.144,9.76-1.652,11.534-2.614,1.6-.867.642-8.386.642-8.386l-.344-3.564-1.338.216s-.187,4.636-3.686,5.3c-1.2.23-4.594-1.428-8.229-.476" transform="translate(-69.259 -30.223)" fill="#283b42"/>
            <path id="Trazado_153160" data-name="Trazado 153160" d="M345.471,158.59a4.9,4.9,0,0,1-.575.023c-.048.388-.1.826-.133,1.3a3.319,3.319,0,0,0,.864.021c1.119-.118,1.97-.74,1.9-1.39s-.939-.067-2.058.05" transform="translate(-69.279 -31.797)" fill="#fff"/>
            <g id="Grupo_87266" data-name="Grupo 87266" transform="translate(296.883 207.708)" style="mix-blend-mode: multiply;isolation: isolate">
              <g id="Grupo_87265" data-name="Grupo 87265">
                <g id="Grupo_87264" data-name="Grupo 87264" clip-path="url(#clip-path-19)">
                  <path id="Trazado_153161" data-name="Trazado 153161" d="M414.038,263.083c-6.8,3.454-17.689,6.071-24.807,5.338s-17.689-.628-17.689-.628l.733-2.826,41.24-5.024Z" transform="translate(-371.543 -259.943)" fill="#cbc7ff"/>
                </g>
              </g>
            </g>
            <path id="Trazado_153162" data-name="Trazado 153162" d="M247.373,240.326a2.161,2.161,0,0,1-2.161-2.161v-12.5a2.161,2.161,0,1,1,4.321,0v12.5a2.16,2.16,0,0,1-2.161,2.161" transform="translate(-49.275 -44.912)" fill="#184657"/>
            <path id="Trazado_153163" data-name="Trazado 153163" d="M255.678,240.326a2.16,2.16,0,0,1-2.161-2.161v-12.5a2.161,2.161,0,1,1,4.321,0v12.5a2.16,2.16,0,0,1-2.161,2.161" transform="translate(-50.943 -44.912)" fill="#184657"/>
            <path id="Trazado_153164" data-name="Trazado 153164" d="M244.5,232.1c.036-.618.809-.662,1.624-.535-.773-.3-1.477-.728-1.444-1.3.038-.638,1.212-.691,2.355-.59-1.133-.265-2.279-.72-2.235-1.47.047-.8,1.671-.767,3.137-.569-1.04-.286-2.028-.726-1.99-1.359.039-.675,2.34-.643,4.587-.45l-.348-.042c-1.174-.142-1-1.831,1.935-1.513s10.963-.152,26.564-3.573c14.182-3.111,28.733-9.618,38.808-14.488,3.217,2.949,6.885,9.4,8.228,12.929-7.052,4.03-17.012,6.2-27.279,9.247-18.437,5.466-25.071,5.846-41.438,6.484-8.559.335-12.581-1.444-12.5-2.77" transform="translate(-49.132 -41.437)" fill="#f29d7e"/>
            <path id="Trazado_153165" data-name="Trazado 153165" d="M307.244,233.785a2.933,2.933,0,0,0-5.629,1.653,2.864,2.864,0,0,0,.161.414c1.776-.491,3.624-1.024,5.562-1.593a2.908,2.908,0,0,0-.094-.474" transform="translate(-60.585 -46.555)" fill="#ed6d53"/>
            <path id="Trazado_153166" data-name="Trazado 153166" d="M372.631,179.011c12.194,3.847,20.358,21.693,26.377,40.585a122.747,122.747,0,0,1,5.339,24.807s-5.024,4.239-19.783,5.652-21.98-.314-21.98-.314-5.024-20.724-10.52-28.1-6.107-8.478-6.107-8.478-8.061,3.023-13.267,4.87a31.421,31.421,0,0,1-4.869-7.389,63.022,63.022,0,0,1-2.686-7.557s10.243-5.541,15.784-9.74a155.966,155.966,0,0,1,16.289-10.412,27.882,27.882,0,0,1,15.424-3.923" transform="translate(-65.335 -35.963)" fill="#e85f5b"/>
            <g id="Grupo_87269" data-name="Grupo 87269" transform="translate(280.706 172.801)" opacity="0.7" style="mix-blend-mode: multiply;isolation: isolate">
              <g id="Grupo_87268" data-name="Grupo 87268">
                <g id="Grupo_87267" data-name="Grupo 87267" clip-path="url(#clip-path-20)">
                  <path id="Trazado_153167" data-name="Trazado 153167" d="M362.3,239.206a44.729,44.729,0,0,0-4.983-10.074c-5.5-7.379-6.023-8.52-6.023-8.52,6.3-2.77,8.126-4.355,8.126-4.355s4.507,14.008,2.88,22.949" transform="translate(-351.298 -216.257)" fill="#cbc7ff"/>
                </g>
              </g>
            </g>
            <path id="Trazado_153168" data-name="Trazado 153168" d="M341.841,438.485s.168-2.267,1.595-2.855,5.878-1.175,7.389-1.427,2.939-2.183,2.939-2.183,4.366,2.687,8.145,2.519a20.409,20.409,0,0,0,6.381-1.259l.755,5.206Z" transform="translate(-68.692 -86.813)" fill="#035e80"/>
            <path id="Trazado_153169" data-name="Trazado 153169" d="M416.691,438.325s.162-2.267,1.542-2.855a43.323,43.323,0,0,1,6.538-1.427,11.484,11.484,0,0,0,3.591-1.847,13.518,13.518,0,0,0,7.123,2.183,19.17,19.17,0,0,0,6.169-1.259l.73,5.206Z" transform="translate(-83.733 -86.848)" fill="#035e80"/>
            <rect id="Rectángulo_7718" data-name="Rectángulo 7718" width="25.944" height="1.256" transform="translate(332.787 351.316)" fill="#283b42"/>
            <rect id="Rectángulo_7719" data-name="Rectángulo 7719" width="27.943" height="1.256" transform="translate(272.7 351.316)" fill="#283b42"/>
          </g>
        </g>
      </g>
    </g>
  </g>
</svg>
