<svg xmlns="http://www.w3.org/2000/svg" width="74" height="74" viewBox="0 0 74 74">
  <g id="Grupo_87749" data-name="Grupo 87749" transform="translate(-258 -2886)">
    <rect id="Rectángulo_7997" data-name="Rectángulo 7997" width="74" height="74" transform="translate(258 2886)" fill="none"/>
    <path id="money-check-alt-regular" d="M57.978,32H3.051A3.052,3.052,0,0,0,0,35.051V71.669a3.052,3.052,0,0,0,3.051,3.051H57.978a3.052,3.052,0,0,0,3.051-3.051V35.051A3.052,3.052,0,0,0,57.978,32ZM56.453,70.144H4.577V36.577H56.453ZM28.226,59.463h7.629a.763.763,0,0,0,.763-.763V55.649a.763.763,0,0,0-.763-.763H28.226a.763.763,0,0,0-.763.763V58.7A.763.763,0,0,0,28.226,59.463Zm22.886-4.577H43.484a.763.763,0,0,0-.763.763V58.7a.763.763,0,0,0,.763.763h7.629a.763.763,0,0,0,.763-.763V55.649A.763.763,0,0,0,51.112,54.886ZM28.226,51.835H51.112a.763.763,0,0,0,.763-.763V48.02a.763.763,0,0,0-.763-.763H28.226a.763.763,0,0,0-.763.763v3.051A.763.763,0,0,0,28.226,51.835Zm-15.38,1.69,4.023,1.091a.862.862,0,0,1,.676.791.9.9,0,0,1-.959.83H14.075a2.374,2.374,0,0,1-1.122-.281.722.722,0,0,0-.881.113l-1.151,1.214a.708.708,0,0,0,.108,1.067,5.377,5.377,0,0,0,2.7.908v.97a.763.763,0,0,0,.763.763H16.02a.763.763,0,0,0,.763-.763v-.977a3.844,3.844,0,0,0,.885-7.578L13.645,50.58a.862.862,0,0,1-.676-.791.9.9,0,0,1,.959-.83H16.44a2.375,2.375,0,0,1,1.122.281.723.723,0,0,0,.881-.113l1.151-1.214a.708.708,0,0,0-.108-1.067,5.377,5.377,0,0,0-2.7-.908v-.97a.763.763,0,0,0-.763-.763H14.495a.763.763,0,0,0-.763.763v.977a3.844,3.844,0,0,0-.885,7.578Z" transform="translate(264.485 2869.64)" fill="#fcc14a"/>
  </g>
</svg>
