<svg id="Grupo_87648" data-name="Grupo 87648" xmlns="http://www.w3.org/2000/svg" xmlns:xlink="http://www.w3.org/1999/xlink" width="400" height="289.024" viewBox="0 0 400 289.024">
  <defs>
    <clipPath id="clip-path">
      <rect id="Rectángulo_7954" data-name="Rectángulo 7954" width="400" height="289.024" fill="none"/>
    </clipPath>
    <clipPath id="clip-path-2">
      <rect id="Rectángulo_7933" data-name="Rectángulo 7933" width="399.999" height="289.025" fill="none"/>
    </clipPath>
    <clipPath id="clip-path-3">
      <rect id="Rectángulo_7883" data-name="Rectángulo 7883" width="135.027" height="131.473" fill="none"/>
    </clipPath>
    <clipPath id="clip-path-4">
      <rect id="Rectángulo_7886" data-name="Rectángulo 7886" width="25.868" height="105.064" fill="none"/>
    </clipPath>
    <clipPath id="clip-path-5">
      <rect id="Rectángulo_7888" data-name="Rectángulo 7888" width="23.946" height="84.76" fill="none"/>
    </clipPath>
    <clipPath id="clip-path-6">
      <rect id="Rectángulo_7891" data-name="Rectángulo 7891" width="22.38" height="5.518" fill="none"/>
    </clipPath>
    <clipPath id="clip-path-7">
      <rect id="Rectángulo_7894" data-name="Rectángulo 7894" width="9.555" height="92.64" fill="none"/>
    </clipPath>
    <clipPath id="clip-path-8">
      <rect id="Rectángulo_7895" data-name="Rectángulo 7895" width="125.174" height="122.746" fill="none"/>
    </clipPath>
    <clipPath id="clip-path-9">
      <rect id="Rectángulo_7896" data-name="Rectángulo 7896" width="4.596" height="23.402" fill="none"/>
    </clipPath>
    <clipPath id="clip-path-10">
      <rect id="Rectángulo_7899" data-name="Rectángulo 7899" width="14.958" height="18.378" fill="none"/>
    </clipPath>
    <clipPath id="clip-path-11">
      <rect id="Rectángulo_7901" data-name="Rectángulo 7901" width="128.819" height="84.062" fill="none"/>
    </clipPath>
    <clipPath id="clip-path-12">
      <rect id="Rectángulo_7929" data-name="Rectángulo 7929" width="50.817" height="20.566" fill="none"/>
    </clipPath>
    <clipPath id="clip-path-13">
      <rect id="Rectángulo_7941" data-name="Rectángulo 7941" width="83.932" height="149.226" fill="none"/>
    </clipPath>
    <clipPath id="clip-path-14">
      <rect id="Rectángulo_7935" data-name="Rectángulo 7935" width="17.51" height="23.417" fill="none"/>
    </clipPath>
    <clipPath id="clip-path-15">
      <path id="Trazado_153456" data-name="Trazado 153456" d="M411.819,608.953a5.464,5.464,0,0,1-.275-.864c-.864-3.579.123-22.553.123-22.553H396.074s-.658,18.891-1.152,22.018a3.153,3.153,0,0,1-.613,1.4Z" transform="translate(-394.309 -585.536)" fill="none"/>
    </clipPath>
    <linearGradient id="linear-gradient" x1="-4.348" y1="6.199" x2="-4.337" y2="6.199" gradientUnits="objectBoundingBox">
      <stop offset="0" stop-color="#f0c3a8"/>
      <stop offset="1" stop-color="#fff"/>
    </linearGradient>
    <clipPath id="clip-path-16">
      <rect id="Rectángulo_7936" data-name="Rectángulo 7936" width="11.157" height="12.639" fill="none"/>
    </clipPath>
    <clipPath id="clip-path-17">
      <rect id="Rectángulo_7937" data-name="Rectángulo 7937" width="1.77" height="4.413" fill="none"/>
    </clipPath>
    <clipPath id="clip-path-18">
      <rect id="Rectángulo_7938" data-name="Rectángulo 7938" width="21.55" height="10.469" fill="none"/>
    </clipPath>
    <clipPath id="clip-path-19">
      <rect id="Rectángulo_7939" data-name="Rectángulo 7939" width="12.494" height="42.667" fill="none"/>
    </clipPath>
    <clipPath id="clip-path-20">
      <rect id="Rectángulo_7940" data-name="Rectángulo 7940" width="7.7" height="25.266" fill="none"/>
    </clipPath>
    <clipPath id="clip-path-22">
      <rect id="Rectángulo_7942" data-name="Rectángulo 7942" width="77.433" height="119.523" fill="none"/>
    </clipPath>
    <clipPath id="clip-path-23">
      <rect id="Rectángulo_7943" data-name="Rectángulo 7943" width="5.277" height="11.12" fill="none"/>
    </clipPath>
    <clipPath id="clip-path-24">
      <rect id="Rectángulo_7944" data-name="Rectángulo 7944" width="149.307" height="136.972" fill="none"/>
    </clipPath>
    <clipPath id="clip-path-25">
      <rect id="Rectángulo_7945" data-name="Rectángulo 7945" width="53.644" height="23.114" fill="none"/>
    </clipPath>
    <clipPath id="clip-path-26">
      <rect id="Rectángulo_7946" data-name="Rectángulo 7946" width="7.511" height="10.469" fill="none"/>
    </clipPath>
    <clipPath id="clip-path-27">
      <rect id="Rectángulo_7947" data-name="Rectángulo 7947" width="3.195" height="3.194" fill="none"/>
    </clipPath>
    <clipPath id="clip-path-28">
      <rect id="Rectángulo_7948" data-name="Rectángulo 7948" width="3.098" height="2.04" fill="none"/>
    </clipPath>
    <clipPath id="clip-path-29">
      <rect id="Rectángulo_7949" data-name="Rectángulo 7949" width="2.148" height="1.485" fill="none"/>
    </clipPath>
    <clipPath id="clip-path-30">
      <rect id="Rectángulo_7950" data-name="Rectángulo 7950" width="15.145" height="9.421" fill="none"/>
    </clipPath>
    <clipPath id="clip-path-31">
      <rect id="Rectángulo_7951" data-name="Rectángulo 7951" width="12.677" height="10.474" fill="none"/>
    </clipPath>
    <clipPath id="clip-path-32">
      <rect id="Rectángulo_7952" data-name="Rectángulo 7952" width="11.433" height="9.007" fill="none"/>
    </clipPath>
  </defs>
  <g id="Grupo_87647" data-name="Grupo 87647" clip-path="url(#clip-path)">
    <rect id="Rectángulo_7872" data-name="Rectángulo 7872" width="67.287" height="32.431" transform="translate(279.954 107.252)" fill="#46acc3"/>
    <path id="Trazado_153423" data-name="Trazado 153423" d="M1054.3,388.015H987.014v-.348H1054.3Zm0,2.626H987.014v.348H1054.3Zm0,2.974H987.014v.348H1054.3Zm0,2.974H987.014v.348H1054.3Zm0,2.975H987.014v.348H1054.3Zm0,3.385H987.014V402.6H1054.3Zm0,2.626H987.014v.348H1054.3Zm0,2.974H987.014v.348H1054.3Zm0,2.975H987.014v.348H1054.3Zm0,2.974H987.014v.348H1054.3Z" transform="translate(-707.06 -277.71)" fill="#45565c"/>
    <path id="Trazado_153424" data-name="Trazado 153424" d="M929.02,351.748V319.317l-33.643,32.431V296.031H859.093V402.48h36.283v68.145h67.287V319.317Z" transform="translate(-615.422 -212.066)" fill="#c3e4dc"/>
    <rect id="Rectángulo_7873" data-name="Rectángulo 7873" width="1.827" height="6.129" transform="translate(299.871 134.108)" fill="#184657"/>
    <rect id="Rectángulo_7874" data-name="Rectángulo 7874" width="1.827" height="6.129" transform="translate(333.161 134.108)" fill="#184657"/>
    <rect id="Rectángulo_7875" data-name="Rectángulo 7875" width="1.827" height="6.129" transform="translate(260.12 133.962)" fill="#184657"/>
    <rect id="Rectángulo_7876" data-name="Rectángulo 7876" width="1.827" height="6.129" transform="translate(333.822 178.364)" fill="#184657"/>
    <rect id="Rectángulo_7877" data-name="Rectángulo 7877" width="1.827" height="6.129" transform="translate(333.343 156.74)" fill="#184657"/>
    <g id="Grupo_87589" data-name="Grupo 87589" transform="translate(0 -0.001)">
      <g id="Grupo_87588" data-name="Grupo 87588" clip-path="url(#clip-path-2)">
        <path id="Trazado_153425" data-name="Trazado 153425" d="M911.56,351.582a8.515,8.515,0,1,1-8.514-8.514,8.515,8.515,0,0,1,8.514,8.514" transform="translate(-640.808 -245.76)" fill="#0d232b"/>
        <path id="Trazado_153426" data-name="Trazado 153426" d="M929.473,357.824c-.491.49-3.986,3.191-4.477,2.7s2.21-3.986,2.7-4.477a1.256,1.256,0,1,1,1.776,1.776" transform="translate(-662.59 -254.795)" fill="#41b093"/>
        <path id="Trazado_153427" data-name="Trazado 153427" d="M904.314,364.358c.67.18,4.757,1.857,4.577,2.527s-4.557.079-5.227-.1a1.256,1.256,0,1,1,.65-2.427" transform="translate(-646.683 -260.981)" fill="#41b093"/>
        <path id="Trazado_153428" data-name="Trazado 153428" d="M923.843,378.675c-.18-.67-.77-5.048-.1-5.227s2.347,3.907,2.527,4.577a1.256,1.256,0,1,1-2.427.65" transform="translate(-661.511 -267.519)" fill="#41b093"/>
        <path id="Trazado_153429" data-name="Trazado 153429" d="M909.887,364.26a5.836,5.836,0,1,1,5.836-5.836,5.843,5.843,0,0,1-5.836,5.836m0-11.324a5.488,5.488,0,1,0,5.488,5.488,5.494,5.494,0,0,0-5.488-5.488" transform="translate(-647.628 -252.579)" fill="#035e80"/>
        <path id="Trazado_153430" data-name="Trazado 153430" d="M917.037,368.579a3.005,3.005,0,1,1,3-3.005,3.009,3.009,0,0,1-3,3.005m0-5.662a2.657,2.657,0,1,0,2.656,2.657,2.66,2.66,0,0,0-2.656-2.657" transform="translate(-654.778 -259.73)" fill="#035e80"/>
        <rect id="Rectángulo_7878" data-name="Rectángulo 7878" width="0.349" height="8.493" transform="translate(262.085 105.844)" fill="#035e80"/>
        <rect id="Rectángulo_7879" data-name="Rectángulo 7879" width="0.348" height="8.493" transform="matrix(0.309, -0.951, 0.951, 0.309, 262.205, 106.009)" fill="#035e80"/>
        <rect id="Rectángulo_7880" data-name="Rectángulo 7880" width="8.493" height="0.348" transform="matrix(0.588, -0.809, 0.809, 0.588, 262.119, 105.742)" fill="#035e80"/>
        <rect id="Rectángulo_7881" data-name="Rectángulo 7881" width="0.349" height="8.493" transform="translate(257.126 99.075) rotate(-36)" fill="#035e80"/>
        <rect id="Rectángulo_7882" data-name="Rectángulo 7882" width="8.493" height="0.348" transform="matrix(0.951, -0.309, 0.309, 0.951, 254.129, 108.304)" fill="#035e80"/>
        <path id="Trazado_153431" data-name="Trazado 153431" d="M83.154,515.243a28.274,28.274,0,0,0-4.387,34.184H207.574l-.043-.424a30.685,30.685,0,0,0-4.343-52.573,26.3,26.3,0,0,0-17.212-41.341,16.874,16.874,0,0,0-12.7-23.788,24.321,24.321,0,1,0-47.9,1.4,28.711,28.711,0,0,0-33.878,42.222,21.038,21.038,0,0,0-8.34,40.316" transform="translate(-50.531 -289.046)" fill="#41b093"/>
        <g id="Grupo_87560" data-name="Grupo 87560" transform="translate(8.565 128.908)" opacity="0.21" style="mix-blend-mode: overlay;isolation: isolate">
          <g id="Grupo_87559" data-name="Grupo 87559">
            <g id="Grupo_87558" data-name="Grupo 87558" clip-path="url(#clip-path-3)">
              <path id="Trazado_153432" data-name="Trazado 153432" d="M153.857,555.156a25.472,25.472,0,0,1,3.952,30.8H41.767l.039-.382a27.644,27.644,0,0,1,3.913-47.363,23.692,23.692,0,0,1,15.507-37.244,15.2,15.2,0,0,1,11.441-21.431,21.911,21.911,0,1,1,43.156,1.264,25.866,25.866,0,0,1,30.521,38.038,18.953,18.953,0,0,1,7.513,36.321" transform="translate(-30.197 -454.479)" fill="#f4ffd4"/>
            </g>
          </g>
        </g>
        <path id="Trazado_153433" data-name="Trazado 153433" d="M484.7,173.616H595.359v115.96h38.459v73.863H484.7Z" transform="translate(-347.219 -124.371)" fill="#46acc3"/>
        <rect id="Rectángulo_7884" data-name="Rectángulo 7884" width="64.328" height="10.896" transform="translate(222.271 154.308)" fill="#46acc3"/>
        <g id="Grupo_87563" data-name="Grupo 87563" transform="translate(222.271 49.245)" opacity="0.7" style="mix-blend-mode: multiply;isolation: isolate">
          <g id="Grupo_87562" data-name="Grupo 87562">
            <g id="Grupo_87561" data-name="Grupo 87561" clip-path="url(#clip-path-4)">
              <rect id="Rectángulo_7885" data-name="Rectángulo 7885" width="25.868" height="105.064" transform="translate(0 0)" fill="#cbc7ff"/>
            </g>
          </g>
        </g>
        <g id="Grupo_87566" data-name="Grupo 87566" transform="translate(262.653 154.308)" opacity="0.7" style="mix-blend-mode: multiply;isolation: isolate">
          <g id="Grupo_87565" data-name="Grupo 87565">
            <g id="Grupo_87564" data-name="Grupo 87564" clip-path="url(#clip-path-5)">
              <rect id="Rectángulo_7887" data-name="Rectángulo 7887" width="23.946" height="84.759" transform="translate(0 0)" fill="#cbc7ff"/>
            </g>
          </g>
        </g>
        <rect id="Rectángulo_7889" data-name="Rectángulo 7889" width="77.32" height="5.518" transform="translate(157.686 196.387)" fill="#41b093"/>
        <g id="Grupo_87569" data-name="Grupo 87569" transform="translate(212.625 196.387)" style="mix-blend-mode: multiply;isolation: isolate">
          <g id="Grupo_87568" data-name="Grupo 87568">
            <g id="Grupo_87567" data-name="Grupo 87567" clip-path="url(#clip-path-6)">
              <rect id="Rectángulo_7890" data-name="Rectángulo 7890" width="22.38" height="5.518" fill="#cbc7ff"/>
            </g>
          </g>
        </g>
        <rect id="Rectángulo_7892" data-name="Rectángulo 7892" width="67.172" height="37.163" transform="translate(167.833 201.905)" fill="#184657"/>
        <rect id="Rectángulo_7893" data-name="Rectángulo 7893" width="61.623" height="34.818" transform="translate(170.608 204.25)" fill="#285362"/>
        <g id="Grupo_87572" data-name="Grupo 87572" transform="translate(230.893 57.344)" opacity="0.53" style="mix-blend-mode: multiply;isolation: isolate">
          <g id="Grupo_87571" data-name="Grupo 87571">
            <g id="Grupo_87570" data-name="Grupo 87570" clip-path="url(#clip-path-7)">
              <path id="Trazado_153434" data-name="Trazado 153434" d="M816.1,225.225h-2.056V202.17H816.1Zm0,11.449h-2.056v23.055H816.1Zm0,35.082h-2.056V294.81H816.1Zm7.5-52.919h-2.056v23.055H823.6Zm0,33.146h-2.056v23.055H823.6Z" transform="translate(-814.043 -202.17)" fill="#86b2c2"/>
            </g>
          </g>
        </g>
        <g id="Grupo_87575" data-name="Grupo 87575" transform="translate(137.479 66.526)" style="mix-blend-mode: multiply;isolation: isolate">
          <g id="Grupo_87574" data-name="Grupo 87574">
            <g id="Grupo_87573" data-name="Grupo 87573" clip-path="url(#clip-path-8)">
              <path id="Trazado_153435" data-name="Trazado 153435" d="M569.49,235.959H484.7v-1.414H569.49Zm0,15.919H484.7v1.415H569.49Zm0,17.333H484.7v1.415H569.49Zm0,17.333H484.7v1.414H569.49Zm0,17.333H484.7v1.415H569.49Zm0,17.333H484.7v1.415H569.49Zm40.381,17.333H484.7v1.415H609.871Zm0,17.333H484.7v1.414H609.871Z" transform="translate(-484.697 -234.545)" fill="#86b2c2"/>
            </g>
          </g>
        </g>
        <g id="Grupo_87578" data-name="Grupo 87578" transform="translate(272.318 176.128)" style="mix-blend-mode: multiply;isolation: isolate">
          <g id="Grupo_87577" data-name="Grupo 87577">
            <g id="Grupo_87576" data-name="Grupo 87576" clip-path="url(#clip-path-9)">
              <path id="Trazado_153436" data-name="Trazado 153436" d="M964.686,626.645h-4.6V620.96h4.6Zm0,12.033h-4.6v5.685h4.6Z" transform="translate(-960.09 -620.96)" fill="#86b2c2"/>
            </g>
          </g>
        </g>
        <rect id="Rectángulo_7897" data-name="Rectángulo 7897" width="56.12" height="18.378" transform="translate(162.759 30.867)" fill="#7ac4b2"/>
        <g id="Grupo_87581" data-name="Grupo 87581" transform="translate(203.921 30.867)" style="mix-blend-mode: multiply;isolation: isolate">
          <g id="Grupo_87580" data-name="Grupo 87580">
            <g id="Grupo_87579" data-name="Grupo 87579" clip-path="url(#clip-path-10)">
              <rect id="Rectángulo_7898" data-name="Rectángulo 7898" width="14.958" height="18.378" transform="translate(0)" fill="#cbc7ff"/>
            </g>
          </g>
        </g>
        <rect id="Rectángulo_7900" data-name="Rectángulo 7900" width="2.903" height="11.426" transform="translate(188.924 19.441)" fill="#035e80"/>
        <path id="Trazado_153437" data-name="Trazado 153437" d="M653.636,11.071A11.074,11.074,0,1,1,642.562,0a11.074,11.074,0,0,1,11.074,11.073m-11.074-6.38a6.38,6.38,0,1,0,6.38,6.38,6.38,6.38,0,0,0-6.38-6.38" transform="translate(-452.374 0.002)" fill="#e85f5b"/>
        <path id="Trazado_153438" data-name="Trazado 153438" d="M662,668.935a17.333,17.333,0,0,0-11.352-22.86,21.584,21.584,0,0,0-13.66-38.3c-.287,0-.571.007-.855.018a23.059,23.059,0,1,0-40.78-21.442,14.386,14.386,0,0,0-24.754,9.977c0,.262.008.521.022.779a26.179,26.179,0,0,0-32.981,31.2A32.252,32.252,0,0,0,518,668.935Z" transform="translate(-369.868 -410.555)" fill="#41b093"/>
        <g id="Grupo_87584" data-name="Grupo 87584" transform="translate(171.262 174.106)" opacity="0.21" style="mix-blend-mode: overlay;isolation: isolate">
          <g id="Grupo_87583" data-name="Grupo 87583">
            <g id="Grupo_87582" data-name="Grupo 87582" clip-path="url(#clip-path-11)">
              <path id="Trazado_153439" data-name="Trazado 153439" d="M604.815,697.893a15.205,15.205,0,0,1,9.958-20.054,18.935,18.935,0,0,1,11.983-33.6c.251,0,.5.006.75.016a20.229,20.229,0,1,1,35.775-18.81A12.62,12.62,0,0,1,685,634.2c0,.229-.007.457-.019.683a22.966,22.966,0,0,1,28.933,27.367,28.293,28.293,0,0,1,17.235,35.642Z" transform="translate(-603.804 -613.831)" fill="#f4ffd4"/>
            </g>
          </g>
        </g>
        <path id="Trazado_153440" data-name="Trazado 153440" d="M423.49,102.242a2.874,2.874,0,0,1,0-5.748c.081,0,.161.006.241.012a4.314,4.314,0,0,1,8.149.012,2.8,2.8,0,0,1,1.622.273,3.7,3.7,0,1,1,3.263,5.451Z" transform="translate(-301.314 -67.062)" fill="#bce1e9"/>
        <path id="Trazado_153441" data-name="Trazado 153441" d="M26.357,320.062a2.874,2.874,0,1,1,0-5.748c.081,0,.161.006.241.012a4.314,4.314,0,0,1,8.149.012,2.8,2.8,0,0,1,1.622.273,3.7,3.7,0,1,1,3.263,5.451Z" transform="translate(-16.822 -223.1)" fill="#bce1e9"/>
        <path id="Trazado_153442" data-name="Trazado 153442" d="M1090.34,256.192a1.8,1.8,0,1,1,0-3.6c.051,0,.1,0,.151.008a2.7,2.7,0,0,1,5.109.007,1.846,1.846,0,0,1,.222-.015,1.789,1.789,0,0,1,.794.186,2.321,2.321,0,1,1,2.046,3.418Z" transform="translate(-779.788 -179.651)" fill="#bce1e9"/>
        <path id="Trazado_153443" data-name="Trazado 153443" d="M240.524,255.315a7.1,7.1,0,1,0-2.422-13.76A10.974,10.974,0,0,0,217,241.1a7.647,7.647,0,1,0-3.911,14.217Z" transform="translate(-147.172 -167.178)" fill="#bce1e9"/>
        <path id="Trazado_153444" data-name="Trazado 153444" d="M354.238,913.183H1.165a1.324,1.324,0,0,1,0-2.63H354.238a1.324,1.324,0,0,1,0,2.63" transform="translate(0 -652.285)" fill="#5693aa"/>
        <rect id="Rectángulo_7902" data-name="Rectángulo 7902" width="11.165" height="32.733" transform="translate(258.664 51.322)" fill="#035e80"/>
        <rect id="Rectángulo_7903" data-name="Rectángulo 7903" width="0.127" height="16.726" transform="translate(260.408 51.322)" fill="#41b093"/>
        <rect id="Rectángulo_7904" data-name="Rectángulo 7904" width="0.19" height="16.726" transform="translate(261.34 51.322)" fill="#41b093"/>
        <rect id="Rectángulo_7905" data-name="Rectángulo 7905" width="0.254" height="16.726" transform="translate(262.272 51.322)" fill="#41b093"/>
        <rect id="Rectángulo_7906" data-name="Rectángulo 7906" width="0.317" height="16.726" transform="translate(263.203 51.322)" fill="#41b093"/>
        <rect id="Rectángulo_7907" data-name="Rectángulo 7907" width="0.381" height="16.726" transform="translate(264.135 51.322)" fill="#41b093"/>
        <rect id="Rectángulo_7908" data-name="Rectángulo 7908" width="0.444" height="16.726" transform="translate(265.067 51.322)" fill="#41b093"/>
        <rect id="Rectángulo_7909" data-name="Rectángulo 7909" width="0.507" height="16.726" transform="translate(265.999 51.322)" fill="#41b093"/>
        <rect id="Rectángulo_7910" data-name="Rectángulo 7910" width="0.571" height="16.726" transform="translate(266.93 51.322)" fill="#41b093"/>
        <rect id="Rectángulo_7911" data-name="Rectángulo 7911" width="0.19" height="16.726" transform="translate(259.413 51.322)" fill="#41b093"/>
        <rect id="Rectángulo_7912" data-name="Rectángulo 7912" width="0.008" height="16.726" transform="translate(258.664 51.322)" fill="#41b093"/>
        <rect id="Rectángulo_7913" data-name="Rectángulo 7913" width="0.317" height="16.726" transform="translate(267.862 51.322)" fill="#41b093"/>
        <rect id="Rectángulo_7914" data-name="Rectángulo 7914" width="0.127" height="16.007" transform="translate(260.408 68.048)" fill="#41b093"/>
        <rect id="Rectángulo_7915" data-name="Rectángulo 7915" width="0.19" height="16.007" transform="translate(261.34 68.048)" fill="#41b093"/>
        <rect id="Rectángulo_7916" data-name="Rectángulo 7916" width="0.254" height="16.007" transform="translate(262.271 68.048)" fill="#41b093"/>
        <rect id="Rectángulo_7917" data-name="Rectángulo 7917" width="0.317" height="16.007" transform="translate(263.203 68.048)" fill="#41b093"/>
        <rect id="Rectángulo_7918" data-name="Rectángulo 7918" width="0.381" height="16.007" transform="translate(264.135 68.048)" fill="#41b093"/>
        <rect id="Rectángulo_7919" data-name="Rectángulo 7919" width="0.444" height="16.007" transform="translate(265.067 68.048)" fill="#41b093"/>
        <rect id="Rectángulo_7920" data-name="Rectángulo 7920" width="0.507" height="16.007" transform="translate(265.999 68.048)" fill="#41b093"/>
        <rect id="Rectángulo_7921" data-name="Rectángulo 7921" width="0.571" height="16.007" transform="translate(266.93 68.048)" fill="#41b093"/>
        <rect id="Rectángulo_7922" data-name="Rectángulo 7922" width="0.19" height="16.007" transform="translate(259.413 68.048)" fill="#41b093"/>
        <rect id="Rectángulo_7923" data-name="Rectángulo 7923" width="0.008" height="16.007" transform="translate(258.664 68.048)" fill="#41b093"/>
        <rect id="Rectángulo_7924" data-name="Rectángulo 7924" width="0.317" height="16.007" transform="translate(267.862 68.048)" fill="#41b093"/>
        <rect id="Rectángulo_7925" data-name="Rectángulo 7925" width="0.571" height="16.726" transform="translate(268.857 51.322)" fill="#41b093"/>
        <rect id="Rectángulo_7926" data-name="Rectángulo 7926" width="0.317" height="16.726" transform="translate(268.179 51.322)" fill="#41b093"/>
        <rect id="Rectángulo_7927" data-name="Rectángulo 7927" width="0.571" height="16.007" transform="translate(268.857 68.048)" fill="#41b093"/>
        <rect id="Rectángulo_7928" data-name="Rectángulo 7928" width="0.317" height="16.007" transform="translate(268.179 68.048)" fill="#41b093"/>
        <g id="Grupo_87587" data-name="Grupo 87587" transform="translate(262.231 30.867)" opacity="0.2">
          <g id="Grupo_87586" data-name="Grupo 87586">
            <g id="Grupo_87585" data-name="Grupo 87585" clip-path="url(#clip-path-12)">
              <path id="Trazado_153445" data-name="Trazado 153445" d="M975.345,114.013c-.021-3.194-4.725-4.78-8.077-3.639-6.128,2.087-6.155-.75-10.086-.7-4.757.064-5.561,1.359-7.358,1.332-3.56-.052-4.724-1.841-7.422-2.094-4.06-.381-5.646.444-8.564,1.713-2.615,1.137-4.524-.508-7.061,1.648-2.281,1.939-2.315,3.806-2.22,7.58.1,3.824,0,9.531,0,9.531H928.2s.063-8.136.6-10.2c1.84-1.269,4.778-1.522,7.315-.887s4.5-2.03,8.056-.381c2.705,1.256,4.631-2.474,8.437-.7a12.871,12.871,0,0,0,6.851,1.459c2.353-.239,6.174-1.825,7.739-1.078,4.655,2.22,8.162-.313,8.141-3.593" transform="translate(-924.529 -108.822)" fill="#46acc3"/>
            </g>
          </g>
        </g>
        <path id="Trazado_153446" data-name="Trazado 153446" d="M262.929,543.708V383.527a7.369,7.369,0,0,1,7.369-7.369h72.846a7.369,7.369,0,0,1,7.369,7.369V543.708a7.369,7.369,0,0,1-7.369,7.369H270.3a7.369,7.369,0,0,1-7.369-7.369" transform="translate(-188.352 -269.465)" fill="#97acb3"/>
        <path id="Trazado_153447" data-name="Trazado 153447" d="M257.961,547.132V387.022a7.793,7.793,0,0,1,7.793-7.793h72.887a7.793,7.793,0,0,1,7.793,7.793v160.11a7.793,7.793,0,0,1-7.793,7.793H265.754a7.793,7.793,0,0,1-7.793-7.793" transform="translate(-184.794 -271.665)" fill="#0c252e"/>
        <path id="Trazado_153448" data-name="Trazado 153448" d="M261.066,547.324V386.239a6.916,6.916,0,0,1,6.916-6.917h73.751a6.916,6.916,0,0,1,6.916,6.917V547.324a6.916,6.916,0,0,1-6.916,6.917H267.983a6.917,6.917,0,0,1-6.916-6.917" transform="translate(-187.018 -271.731)" fill="#184657"/>
        <rect id="Rectángulo_7930" data-name="Rectángulo 7930" width="83.932" height="149.226" transform="translate(75.874 118.947)" fill="#fcc14a"/>
        <path id="Trazado_153449" data-name="Trazado 153449" d="M350.156,567.309H266.224V418.083h83.932Zm.506-149.732H265.718V567.816h84.945Z" transform="translate(-190.35 -299.136)"/>
        <path id="Trazado_153450" data-name="Trazado 153450" d="M402.851,973.208v-.373a.441.441,0,0,1,.44-.441h5.535a.441.441,0,0,1,.44.441v.373a.44.44,0,0,1-.44.44h-5.535a.44.44,0,0,1-.44-.44" transform="translate(-288.587 -696.586)" fill="#035e80"/>
        <path id="Trazado_153451" data-name="Trazado 153451" d="M411.67,399.088a.951.951,0,1,1,.987-.95.969.969,0,0,1-.987.95" transform="translate(-294.198 -284.53)"/>
        <rect id="Rectángulo_7931" data-name="Rectángulo 7931" width="83.932" height="4.562" transform="translate(75.874 118.561)" fill="#0d232b"/>
        <path id="Trazado_153452" data-name="Trazado 153452" d="M280.889,424.483a.709.709,0,1,1-.707-.671.69.69,0,0,1,.707.671m4.245-.671a.672.672,0,1,0,.707.671.69.69,0,0,0-.707-.671m-9.622,0a.672.672,0,1,0,.707.671.69.69,0,0,0-.707-.671" transform="translate(-196.86 -303.602)" fill="#e6e5ce"/>
        <path id="Trazado_153453" data-name="Trazado 153453" d="M540.941,424.483a.713.713,0,1,1-.712-.671.692.692,0,0,1,.712.671m-4.319-.671a.672.672,0,1,0,.712.671.692.692,0,0,0-.712-.671" transform="translate(-383.906 -303.602)" fill="#e6e5ce"/>
        <rect id="Rectángulo_7932" data-name="Rectángulo 7932" width="5.505" height="1.342" transform="translate(115.086 120.12)" fill="#e6e5ce"/>
      </g>
    </g>
    <g id="Grupo_87611" data-name="Grupo 87611" transform="translate(75.874 118.947)">
      <g id="Grupo_87610" data-name="Grupo 87610" clip-path="url(#clip-path-13)">
        <path id="Trazado_153454" data-name="Trazado 153454" d="M297.28,668.287c-15.707-.47-35.145,6.547-43.125,14.777-3.477,10-14.255,27.381-12.865,35.638,1.384,8.217,7.128,10.257,9.3,9.562a14.972,14.972,0,0,0,9.735-9.156,127.079,127.079,0,0,1,7.823-16.4s.247,11.247,1.743,30.451,2.993,29.179,2.993,29.179,14.714,3.242,28.68.5,21.448-7.482,21.448-7.482-5.986-15.961-5.736-29.179,2.156-18.252,2.156-18.252,10.975,13.516,11.474,23.991-6.564,24.438-6.564,24.438a9.069,9.069,0,0,1,5.237,3.658,11.937,11.937,0,0,1,1.663,5.487s16.46-12.636,15.795-34.084-15.4-48.125-23.652-53.913c-6.017-4.221-12.223-8.8-26.106-9.214" transform="translate(-248.637 -597.666)" fill="#faf8dc"/>
        <path id="Trazado_153455" data-name="Trazado 153455" d="M407.788,611.461c-.422-.813-2.476-1.243-2.752-3.373-.472-3.652.123-22.553.123-22.553H389.566s-.658,18.891-1.152,22.018c-.3,1.89-2.525,3.108-3.19,3.773,2.465,4.025,18.516,6.335,22.564.135" transform="translate(-351.834 -538.402)" fill="#f29d7e"/>
        <g id="Grupo_87594" data-name="Grupo 87594" transform="translate(35.967 47.133)" style="mix-blend-mode: multiply;isolation: isolate">
          <g id="Grupo_87593" data-name="Grupo 87593">
            <g id="Grupo_87592" data-name="Grupo 87592" clip-path="url(#clip-path-14)">
              <g id="Grupo_87591" data-name="Grupo 87591">
                <g id="Grupo_87590" data-name="Grupo 87590" clip-path="url(#clip-path-15)">
                  <rect id="Rectángulo_7934" data-name="Rectángulo 7934" width="24.876" height="19.515" transform="translate(-2.065 23.234) rotate(-84.92)" fill="url(#linear-gradient)"/>
                </g>
              </g>
            </g>
          </g>
        </g>
        <g id="Grupo_87597" data-name="Grupo 87597" transform="translate(42.169 47.133)" opacity="0.58" style="mix-blend-mode: multiply;isolation: isolate">
          <g id="Grupo_87596" data-name="Grupo 87596">
            <g id="Grupo_87595" data-name="Grupo 87595" clip-path="url(#clip-path-16)">
              <path id="Trazado_153457" data-name="Trazado 153457" d="M425.069,598.174a11.1,11.1,0,0,0,1.875-.132c.138-6.479.388-12.506.388-12.506H416.175c.418,7.021,3.626,12.638,8.894,12.638" transform="translate(-416.175 -585.536)" fill="#cbc7ff"/>
            </g>
          </g>
        </g>
        <path id="Trazado_153458" data-name="Trazado 153458" d="M400.474,559.434a5.353,5.353,0,1,1-5.353-5.353,5.353,5.353,0,0,1,5.353,5.353" transform="translate(-355.09 -515.869)" fill="#ed6d53"/>
        <path id="Trazado_153459" data-name="Trazado 153459" d="M404.337,565.828a2.821,2.821,0,1,1-2.821-2.821,2.821,2.821,0,0,1,2.821,2.821" transform="translate(-361.484 -522.264)" fill="#bd422a"/>
        <path id="Trazado_153460" data-name="Trazado 153460" d="M428.733,538.149c0,7.544-2.8,13.742-10.039,13.66-5.545,0-10.039-6.116-10.039-13.66s1.893-13.66,10.039-13.66c8.97,0,10.039,6.116,10.039,13.66" transform="translate(-368.619 -494.671)" fill="#f29d7e"/>
        <path id="Trazado_153461" data-name="Trazado 153461" d="M433.614,560.005a.755.755,0,1,1-.755-.755.755.755,0,0,1,.755.755" transform="translate(-385.416 -519.572)"/>
        <path id="Trazado_153462" data-name="Trazado 153462" d="M470.6,560.233a.665.665,0,1,1-.665-.665.665.665,0,0,1,.665.665" transform="translate(-412.038 -519.8)"/>
        <path id="Trazado_153463" data-name="Trazado 153463" d="M471.611,574.139a2.346,2.346,0,0,0,1.859,2.294,25.244,25.244,0,0,0,.363-4.392c0-.081,0-.161,0-.241a2.343,2.343,0,0,0-2.221,2.339" transform="translate(-413.718 -528.563)" fill="#ed6d53"/>
        <path id="Trazado_153464" data-name="Trazado 153464" d="M429.882,573.833a2.345,2.345,0,1,1-2.345-2.345,2.345,2.345,0,0,1,2.345,2.345" transform="translate(-380.465 -528.339)" fill="#ed6d53"/>
        <path id="Trazado_153465" data-name="Trazado 153465" d="M455.207,560.7l1.9,3.561a.644.644,0,0,1-.548.946l-2.174.067Z" transform="translate(-401.376 -520.611)" fill="#ed6d53"/>
        <path id="Trazado_153466" data-name="Trazado 153466" d="M452.807,583.113c0,1.01-1.409,1.829-3.148,1.829s-3.148-.819-3.148-1.829,1.432-.256,3.171-.256,3.125-.754,3.125.256" transform="translate(-395.738 -536.29)" fill="#fff"/>
        <path id="Trazado_153467" data-name="Trazado 153467" d="M408.727,557.5l-.072,4.207,1.481.082a29.817,29.817,0,0,1,.288-4.413Z" transform="translate(-368.619 -518.233)" fill="#1b4e61"/>
        <g id="Grupo_87600" data-name="Grupo 87600" transform="translate(40.036 39.147)" opacity="0.74" style="mix-blend-mode: multiply;isolation: isolate">
          <g id="Grupo_87599" data-name="Grupo 87599">
            <g id="Grupo_87598" data-name="Grupo 87598" clip-path="url(#clip-path-17)">
              <path id="Trazado_153468" data-name="Trazado 153468" d="M408.727,557.5l-.072,4.207,1.481.082a29.817,29.817,0,0,1,.288-4.413Z" transform="translate(-408.655 -557.38)" fill="#cbc7ff"/>
            </g>
          </g>
        </g>
        <path id="Trazado_153469" data-name="Trazado 153469" d="M380.822,507.688c1.83-1.555,2.469-9.134-4.257-10.482-5.175-1.037-10.223.7-12.859,3.158s-4.848,4.105-8.393,2.469a7.373,7.373,0,0,0-9.385,2.828,5.048,5.048,0,0,0,2.909,7.637c3,.637,4.544-2.353,7.463-.591,4.361,2.633,6.583,2.716,8.64,1.81,2.742-1.206,4.114-3.045,5.1-7.159,0,0,7.488,1.152,10.78.329" transform="translate(-323.094 -474.908)" fill="#1b4e61"/>
        <g id="Grupo_87603" data-name="Grupo 87603" transform="translate(25.399 29.662)" style="mix-blend-mode: multiply;isolation: isolate">
          <g id="Grupo_87602" data-name="Grupo 87602">
            <g id="Grupo_87601" data-name="Grupo 87601" clip-path="url(#clip-path-18)">
              <path id="Trazado_153470" data-name="Trazado 153470" d="M372.592,524.752c-1.893,1.4-4.114,3.292-6.912,2.551a7.29,7.29,0,0,0-7.159,1.975,10.2,10.2,0,0,0-1.471,3.3c.113.035.227.066.344.09,3,.637,4.544-2.353,7.463-.591,4.361,2.633,6.583,2.716,8.64,1.81,2.742-1.206,4.114-3.045,5.1-7.159-.329-3.127-4.114-3.374-6.007-1.975" transform="translate(-357.049 -523.938)" fill="#cbc7ff"/>
            </g>
          </g>
        </g>
        <path id="Trazado_153471" data-name="Trazado 153471" d="M424.6,550.306a8.153,8.153,0,0,1,.746-.389,7.157,7.157,0,0,1,.8-.272,6.027,6.027,0,0,1,1.707-.2,6.369,6.369,0,0,1,.865.108l.213.047.419.125c.069.025.136.055.2.082A3.6,3.6,0,0,1,431,550.8a.227.227,0,0,1-.272.35l-.032-.016a7.107,7.107,0,0,0-1.4-.5,7.941,7.941,0,0,0-1.467-.2,7.468,7.468,0,0,0-.748.006c-.252,0-.5.039-.756.057-.128,0-.253.035-.381.051l-.385.053c-.257.043-.513.1-.783.128l-.022,0a.229.229,0,0,1-.142-.424" transform="translate(-379.964 -512.549)" fill="#de4e31"/>
        <path id="Trazado_153472" data-name="Trazado 153472" d="M460.536,550.333a6.794,6.794,0,0,1,.555-.4c.2-.118.4-.219.611-.319a6.316,6.316,0,0,1,.659-.237,4.556,4.556,0,0,1,.7-.131,3.146,3.146,0,0,1,1.465.159c.118.048.235.1.347.157a2.869,2.869,0,0,1,.318.213,1.73,1.73,0,0,1,.5.6.223.223,0,0,1-.313.29l-.061-.035a2.684,2.684,0,0,0-.492-.243,2.888,2.888,0,0,0-.532-.145,4.112,4.112,0,0,0-1.129-.016c-.193.006-.389.059-.586.081l-.6.126c-.2.059-.4.1-.609.153s-.411.113-.631.151l-.017,0a.232.232,0,0,1-.187-.406" transform="translate(-405.725 -512.387)" fill="#de4e31"/>
        <path id="Trazado_153473" data-name="Trazado 153473" d="M280.827,649.675s5.337-13.329,5.543-14.537.882-9.283,2.011-13.215c1.055-3.673,1.736-4.623,2.4-4.405s-.455,5.875-.455,5.875,1.175-7,2.695-6.782-.647,7.185-.647,7.185,1.719-8.128,3.292-7.834-.822,8.334-.822,8.334,1.81-6.768,3.23-6.4c1.168.307-.579,7.089-1.331,9.807a.342.342,0,0,0,.569.313,16.364,16.364,0,0,0,2.08-2.336,1.775,1.775,0,0,1,1.828-.766.768.768,0,0,1,.617,1.128c-.313.521-.8,1.419-1.549,2.966-1.758,3.627-3.985,5.644-4.925,9.128s-3.032,14.289-3.032,14.289a34.593,34.593,0,0,1-5.678-.544,39.591,39.591,0,0,1-5.824-2.209" transform="translate(-277.048 -560.193)" fill="#f29d7e"/>
        <g id="Grupo_87606" data-name="Grupo 87606" transform="translate(6.047 85.977)" opacity="0.7" style="mix-blend-mode: multiply;isolation: isolate">
          <g id="Grupo_87605" data-name="Grupo 87605">
            <g id="Grupo_87604" data-name="Grupo 87604" clip-path="url(#clip-path-19)">
              <path id="Trazado_153474" data-name="Trazado 153474" d="M288.823,765.151a15.368,15.368,0,0,0,5.642-7.2c2.254-5.5,4.227-9.63,5.627-12.368.138-5.667,3.181-16.258-.875-23.1-1.439,8.082-4.984,36.16-10.394,42.667" transform="translate(-288.823 -722.484)" fill="#cbc7ff"/>
            </g>
          </g>
        </g>
        <g id="Grupo_87609" data-name="Grupo 87609" transform="translate(70.797 93.626)" opacity="0.7" style="mix-blend-mode: multiply;isolation: isolate">
          <g id="Grupo_87608" data-name="Grupo 87608">
            <g id="Grupo_87607" data-name="Grupo 87607" clip-path="url(#clip-path-20)">
              <path id="Trazado_153475" data-name="Trazado 153475" d="M517.106,766.083c1.623-6.78.927-16.631.927-16.631s5.331,7.534,6.49,13.792a19.256,19.256,0,0,1-1.622,11.474s-1.97-3.129-3.245-4.984-2.55-3.651-2.55-3.651" transform="translate(-517.106 -749.452)" fill="#cbc7ff"/>
            </g>
          </g>
        </g>
      </g>
    </g>
    <g id="Grupo_87646" data-name="Grupo 87646" transform="translate(0 -0.001)">
      <g id="Grupo_87645" data-name="Grupo 87645" clip-path="url(#clip-path-2)">
        <g id="Grupo_87614" data-name="Grupo 87614" transform="translate(74.398 108.501)" opacity="0.34">
          <g id="Grupo_87613" data-name="Grupo 87613">
            <g id="Grupo_87612" data-name="Grupo 87612" clip-path="url(#clip-path-22)">
              <path id="Trazado_153476" data-name="Trazado 153476" d="M262.3,502.056V392.38c0-5.438,3.269-9.846,7.3-9.846h70.133Z" transform="translate(-262.298 -382.534)" fill="#fff"/>
            </g>
          </g>
        </g>
        <path id="Trazado_153477" data-name="Trazado 153477" d="M858.474,549.476c-1.708,5.143,3.027,16.295,10.679,25.734S883.624,591.55,887.793,595s6.189,4.84,6.757,4.223c.277-.3-.209-.787-.779-1.205.622.329,1.29.574,1.548.293.274-.3-.222-.856-.772-1.332.62.4,1.332.722,1.655.371.341-.371-.373-1.081-1.1-1.657.6.354,1.232.612,1.472.289.437-.586-2.718-2.922-3.695-3.624.453.32,1.344.937,1.82,1.194a.706.706,0,0,0,.888-.26c.108-.212-.1-.4-.817-.994a89.086,89.086,0,0,1-11.9-10.942c-6.9-7.36-13.885-18.08-15.68-24.666-.249-.916-.618-2.617-.842-3.521-1.9-2.389-6.06-9.148-7.87-3.7" transform="translate(-614.729 -392.139)" fill="#f29d7e"/>
        <path id="Trazado_153478" data-name="Trazado 153478" d="M898.739,646.166q1.282,1.569,2.527,3.042a1.983,1.983,0,1,0-2.527-3.042" transform="translate(-643.823 -462.491)" fill="#ed6d53"/>
        <g id="Grupo_87617" data-name="Grupo 87617" transform="translate(247.901 168.21)" style="mix-blend-mode: multiply;isolation: isolate">
          <g id="Grupo_87616" data-name="Grupo 87616">
            <g id="Grupo_87615" data-name="Grupo 87615" clip-path="url(#clip-path-23)">
              <path id="Trazado_153479" data-name="Trazado 153479" d="M878.985,593.045c1.117,4.731-1.277,11.12-1.277,11.12s-2.728-4.17-3.611-5.773,4.888-5.347,4.888-5.347" transform="translate(-874.005 -593.045)" fill="#cbc7ff"/>
            </g>
          </g>
        </g>
        <path id="Trazado_153480" data-name="Trazado 153480" d="M1005,372.772a36.1,36.1,0,0,0-.465-47.71l-10.43-11.621a3.283,3.283,0,0,0-4.636-.25l-35.9,32.218a3.283,3.283,0,0,0-.251,4.636l16.55,18.441c2.161,2.408,2.525,5.79.843,7.96-9.256,11.939-33.959,33.093-48.005,42.587-2.339,1.58-5.779.9-8-1.579l-16.28-18.141a3.283,3.283,0,0,0-4.636-.25l-35.9,32.218a3.283,3.283,0,0,0-.251,4.636l10.881,12.125a36.106,36.106,0,0,0,47.329,5.641c29.987-20.621,65.895-54.007,89.153-80.909" transform="translate(-613.778 -223.756)" fill="#035e80"/>
        <g id="Grupo_87620" data-name="Grupo 87620" transform="translate(243.02 88.595)" opacity="0.27">
          <g id="Grupo_87619" data-name="Grupo 87619">
            <g id="Grupo_87618" data-name="Grupo 87618" clip-path="url(#clip-path-24)">
              <path id="Trazado_153481" data-name="Trazado 153481" d="M910.482,629.628,898.423,616.19a3.283,3.283,0,0,0-4.636-.251l-35.9,32.218a3.283,3.283,0,0,0-.25,4.636s11.68,12.992,12.091,13.408Z" transform="translate(-856.798 -529.229)" fill="#fff"/>
              <path id="Trazado_153482" data-name="Trazado 153482" d="M1235.766,313.442a3.283,3.283,0,0,0-4.636-.25l-35.9,32.218a3.282,3.282,0,0,0-.25,4.635l12.059,13.437,40.725-36.548q-.748-.955-1.568-1.871Z" transform="translate(-1098.457 -312.352)" fill="#fff"/>
            </g>
          </g>
        </g>
        <path id="Trazado_153483" data-name="Trazado 153483" d="M745.011,424.717a4.791,4.791,0,0,1,4.058-6.5c2.645-.144,3.455-.937,7.469-.428s4.682,1.806,7.5,3.635,4.41.915,7.837.649a11.366,11.366,0,0,1,8.736,2.576c2.879,2.22,3.019,3.549,6.784,5.031s4.922-.621,8.2,1.719c3.923,2.8,4.172,11.424,1.654,14.248-4.391,4.924-15.315-1.8-15.315-1.8a45.273,45.273,0,0,0-4.94-.032c-3.652.1-5.021-.553-7.726-3.8s-5.061-3.815-7.356-3.991a8.443,8.443,0,0,1-6.108-4.118c-1.351-2.257-3.1-3.186-5.712-3.713s-4.668-2.142-5.075-3.479" transform="translate(-533.503 -299.168)" fill="#e85f5b"/>
        <g id="Grupo_87623" data-name="Grupo 87623" transform="translate(212.005 125.142)" style="mix-blend-mode: multiply;isolation: isolate">
          <g id="Grupo_87622" data-name="Grupo 87622">
            <g id="Grupo_87621" data-name="Grupo 87621" clip-path="url(#clip-path-25)">
              <path id="Trazado_153484" data-name="Trazado 153484" d="M801.094,459.052l-16.033-4.913c-3.622-2.388-3.5-4.207-6.454-4.2s-5.94.073-7.674-1.108-3.155-4.211-6.155-4.845-5.33.779-7.917-.42-3.051-2.577-6.166-2.342a6.509,6.509,0,0,0-3.245,1.29,7.959,7.959,0,0,0,4.579,2.571c2.616.527,4.361,1.456,5.712,3.713a8.443,8.443,0,0,0,6.108,4.118c2.295.177,4.65.744,7.356,3.991s4.074,3.9,7.726,3.8a45.259,45.259,0,0,1,4.94.032s8.134,4.957,13.243,3.192Z" transform="translate(-747.45 -441.2)" fill="#cbc7ff"/>
            </g>
          </g>
        </g>
        <path id="Trazado_153485" data-name="Trazado 153485" d="M827.337,523.6a47.651,47.651,0,0,1,6.609,3.553,19.761,19.761,0,0,0,1.9-4.2c.318-.823-.064-2.177-.283-3.375a5.343,5.343,0,0,0-1.871-3.243,1.581,1.581,0,0,1-.648-1.879c.4-2.047,8.488-8.593,8.488-8.593l-6.855-5.565s-8.51,8.382-9.908,9.5c-1.425,1.142-3.824,1.532-7.352,1.519a13.382,13.382,0,0,1-1.833,9.09c4.326-.945,8.19,1.651,11.749,3.193" transform="translate(-584.257 -358.388)" fill="#f29d7e"/>
        <g id="Grupo_87626" data-name="Grupo 87626" transform="translate(249.212 141.548)" opacity="0.58" style="mix-blend-mode: multiply;isolation: isolate">
          <g id="Grupo_87625" data-name="Grupo 87625">
            <g id="Grupo_87624" data-name="Grupo 87624" clip-path="url(#clip-path-26)">
              <path id="Trazado_153486" data-name="Trazado 153486" d="M879.109,506.683a11.082,11.082,0,0,0,2.48,2.83c2.375-2.537,4.548-5.039,4.548-5.039l-4.7-5.43c-2.519,2.433-3.484,5.533-2.331,7.639" transform="translate(-878.627 -499.044)" fill="#cbc7ff"/>
            </g>
          </g>
        </g>
        <path id="Trazado_153487" data-name="Trazado 153487" d="M882.825,488.115a3.031,3.031,0,1,1-.658-4.235,3.031,3.031,0,0,1,.658,4.235" transform="translate(-628.498 -346.214)" fill="#ed6d53"/>
        <g id="Grupo_87629" data-name="Grupo 87629" transform="translate(250.282 138.515)" opacity="0.49">
          <g id="Grupo_87628" data-name="Grupo 87628">
            <g id="Grupo_87627" data-name="Grupo 87627" clip-path="url(#clip-path-27)">
              <path id="Trazado_153488" data-name="Trazado 153488" d="M885.288,490.891a1.6,1.6,0,1,1-.347-2.232,1.6,1.6,0,0,1,.347,2.232" transform="translate(-882.402 -488.351)" fill="#bd422a"/>
            </g>
          </g>
        </g>
        <path id="Trazado_153489" data-name="Trazado 153489" d="M892.949,490.259c-2.521,3.449-5.908,5.278-8.886,3.1-2.534-1.853-2.72-6.251-.375-9.822s5.709-5.442,9.236-2.878c5.066,3.682,2.546,6.15.025,9.6" transform="translate(-631.86 -343.476)" fill="#f29d7e"/>
        <g id="Grupo_87632" data-name="Grupo 87632" transform="translate(255.886 139.237)" style="mix-blend-mode: multiply;isolation: isolate">
          <g id="Grupo_87631" data-name="Grupo 87631">
            <g id="Grupo_87630" data-name="Grupo 87630" clip-path="url(#clip-path-28)">
              <path id="Trazado_153490" data-name="Trazado 153490" d="M902.235,490.9a4.025,4.025,0,0,1,.882.248,4.855,4.855,0,0,1,.815.424,5.334,5.334,0,0,1,.721.569,3.924,3.924,0,0,1,.594.7.064.064,0,0,1-.1.08,8.609,8.609,0,0,0-.658-.6,6.8,6.8,0,0,0-.71-.519,6.022,6.022,0,0,0-.762-.436,8.669,8.669,0,0,0-.814-.346h0a.064.064,0,0,1,.035-.123" transform="translate(-902.159 -490.895)" fill="#c3b9dd"/>
            </g>
          </g>
        </g>
        <g id="Grupo_87635" data-name="Grupo 87635" transform="translate(260.924 142.752)" style="mix-blend-mode: multiply;isolation: isolate">
          <g id="Grupo_87634" data-name="Grupo 87634">
            <g id="Grupo_87633" data-name="Grupo 87633" clip-path="url(#clip-path-29)">
              <path id="Trazado_153491" data-name="Trazado 153491" d="M922.068,504.557a6.053,6.053,0,0,0-.45-.421,4.442,4.442,0,0,0-1.617-.846.064.064,0,0,0-.046.119,8.707,8.707,0,0,1,.775.431,6.017,6.017,0,0,1,.712.513c.166.131.323.273.476.419a.944.944,0,0,1,.15-.214" transform="translate(-919.919 -503.287)" fill="#c3b9dd"/>
            </g>
          </g>
        </g>
        <path id="Trazado_153492" data-name="Trazado 153492" d="M903.9,498.544a.409.409,0,1,1-.089-.571.409.409,0,0,1,.089.571" transform="translate(-646.993 -356.672)"/>
        <path id="Trazado_153493" data-name="Trazado 153493" d="M920.577,510.62a.409.409,0,1,1-.089-.571.409.409,0,0,1,.089.571" transform="translate(-658.938 -365.323)"/>
        <path id="Trazado_153494" data-name="Trazado 153494" d="M915.63,515.85c-.023-.02-.042-.042-.067-.06a1.325,1.325,0,0,0-1.639,2.08,14.28,14.28,0,0,0,1.528-1.778l.178-.242" transform="translate(-654.364 -369.308)" fill="#ed6d53"/>
        <path id="Trazado_153495" data-name="Trazado 153495" d="M896.848,503.04a1.328,1.328,0,1,1-.289-1.856,1.328,1.328,0,0,1,.289,1.856" transform="translate(-640.749 -358.846)" fill="#ed6d53"/>
        <g id="Grupo_87638" data-name="Grupo 87638" transform="translate(249.063 135.851)" style="mix-blend-mode: multiply;isolation: isolate">
          <g id="Grupo_87637" data-name="Grupo 87637">
            <g id="Grupo_87636" data-name="Grupo 87636" clip-path="url(#clip-path-30)">
              <path id="Trazado_153496" data-name="Trazado 153496" d="M890.319,484.744a12.657,12.657,0,0,0,.928,3.633c2.96-3.62,1.759-6.629,1.759-6.629l-6.228-2.793-7.7,1.7-.971,1.368c4.431,4.162,10.1-2.033,12.98-.774a5.876,5.876,0,0,0-.764,3.5" transform="translate(-878.103 -478.956)" fill="#cbc7ff"/>
            </g>
          </g>
        </g>
        <path id="Trazado_153497" data-name="Trazado 153497" d="M910.767,505.847l-.322,2.262a.364.364,0,0,1-.567.249l-1.016-.7Z" transform="translate(-651.075 -362.369)" fill="#ed6d53"/>
        <path id="Trazado_153498" data-name="Trazado 153498" d="M903.325,515.447c-.337.462-1.255.365-2.05-.216s-1.165-1.426-.828-1.888.74.362,1.535.942,1.681.7,1.343,1.161" transform="translate(-644.957 -367.643)" fill="#fff"/>
        <path id="Trazado_153499" data-name="Trazado 153499" d="M895.846,481.634a7,7,0,0,0-3.144-8.406,8.442,8.442,0,0,0-6.2-.888l-8.782,3.422c4.432,4.162,9.344-.587,11.172-.2a12.353,12.353,0,0,1,2.116.761c-1.3,3.417,1.972,4.1,2.068,5.416.128,1.76-2.955,4.184-2.688,4.379s4.312-1.183,5.462-4.486" transform="translate(-628.763 -338.196)" fill="#e85f5b"/>
        <path id="Trazado_153500" data-name="Trazado 153500" d="M672.478,980.471l-1.118-.4-.846,2.338,1.267-.062Z" transform="translate(-480.331 -702.082)" fill="#1b4e61"/>
        <path id="Trazado_153501" data-name="Trazado 153501" d="M677.816,809.334a2.625,2.625,0,0,1-1.229-.183,5.8,5.8,0,0,1-3.2-3.536,9.759,9.759,0,0,0-3.168-4.494c2.153-6.132,8.171-23.564,10.407-33.089,2.744-11.693,5.118-26.194,8.867-36.829l10.331,2.946a128.314,128.314,0,0,0-3.9,12.96c-2.1,8.259-3.576,15.7-9.262,29.773-4.854,12.01-9.831,24.929-9.974,26.2-.338,2.989,1.28,5.479,1.123,6.257" transform="translate(-480.12 -523.805)" fill="#f29d7e"/>
        <g id="Grupo_87641" data-name="Grupo 87641" transform="translate(206.783 208.812)" style="mix-blend-mode: multiply;isolation: isolate">
          <g id="Grupo_87640" data-name="Grupo 87640">
            <g id="Grupo_87639" data-name="Grupo 87639" clip-path="url(#clip-path-31)">
              <path id="Trazado_153502" data-name="Trazado 153502" d="M741.715,739.137l-10.331-2.946c-.845,2.4-1.62,5-2.346,7.711a15.94,15.94,0,0,1,7.675,1.254,10.023,10.023,0,0,1,2.577,1.509c1.4-4.855,2.425-7.527,2.425-7.527" transform="translate(-729.038 -736.191)" fill="#ccc"/>
            </g>
          </g>
        </g>
        <path id="Trazado_153503" data-name="Trazado 153503" d="M675.276,986.157A5.141,5.141,0,0,1,671.9,983.7c-.951-1.624-1.709-3.982-2.814-4.957-.246.523-.393,1.085-.752,1.976a5.378,5.378,0,0,1-.862-.8s.29-.811.779-2.2a9.754,9.754,0,0,1,3.168,4.494,5.8,5.8,0,0,0,3.2,3.536,2.629,2.629,0,0,0,1.229.182c-.043.208-.21.293-.574.234" transform="translate(-478.154 -700.394)" fill="#236780"/>
        <path id="Trazado_153504" data-name="Trazado 153504" d="M736.348,832.594a1.984,1.984,0,1,1-1.19-2.54,1.984,1.984,0,0,1,1.19,2.54" transform="translate(-524.734 -594.534)" fill="#ed6d53"/>
        <path id="Trazado_153505" data-name="Trazado 153505" d="M676.587,982.724a2.63,2.63,0,0,0,1.229.183c.095-.473-.463-1.578-.841-3.04a2.882,2.882,0,0,1-2.468-1.29,9.408,9.408,0,0,0-3.869-5.078c-.151.433-.292.835-.418,1.194a9.759,9.759,0,0,1,3.168,4.494,5.8,5.8,0,0,0,3.2,3.536" transform="translate(-480.12 -697.378)" fill="#184657"/>
        <path id="Trazado_153506" data-name="Trazado 153506" d="M817.063,1000.9l-1.188.031.064,2.486,1.158-.519Z" transform="translate(-584.462 -717.009)" fill="#1b4e61"/>
        <path id="Trazado_153507" data-name="Trazado 153507" d="M815.771,818.8a2.629,2.629,0,0,1-1.211.277,5.8,5.8,0,0,1-4.268-2.127,9.758,9.758,0,0,0-4.588-3.03c-.229-6.495-1.886-22.315-2.31-38.71-.33-12.763-.119-22.649.144-34.122l11.257-.85s-.8,9.287-1.384,18.586c-.6,9.43-.633,11.576-1.034,24.916-.389,12.948-.262,28.41.067,29.642.774,2.907,3.189,4.635,3.326,5.418" transform="translate(-575.401 -530.277)" fill="#f29d7e"/>
        <path id="Trazado_153508" data-name="Trazado 153508" d="M821.581,1005.319a5.141,5.141,0,0,1-4.036-1.061c-1.477-1.166-3.043-3.086-4.428-3.591-.038.577.03,1.153.02,2.114a5.381,5.381,0,0,1-1.095-.432s-.025-.861-.079-2.337a9.755,9.755,0,0,1,4.588,3.03,5.8,5.8,0,0,0,4.268,2.127,2.632,2.632,0,0,0,1.211-.277c.036.209-.089.349-.449.427" transform="translate(-581.66 -716.37)" fill="#236780"/>
        <g id="Grupo_87644" data-name="Grupo 87644" transform="translate(228.039 211.247)" style="mix-blend-mode: multiply;isolation: isolate">
          <g id="Grupo_87643" data-name="Grupo 87643">
            <g id="Grupo_87642" data-name="Grupo 87642" clip-path="url(#clip-path-32)">
              <path id="Trazado_153509" data-name="Trazado 153509" d="M803.981,753.781a14.824,14.824,0,0,1,5.107-1.292,12.476,12.476,0,0,1,5.62,1.138c.385-5.111.706-8.852.706-8.852l-11.258.85c-.064,2.791-.125,5.489-.175,8.156" transform="translate(-803.981 -744.775)" fill="#ccc"/>
            </g>
          </g>
        </g>
        <path id="Trazado_153510" data-name="Trazado 153510" d="M825.806,838.325a1.984,1.984,0,1,1-2.035-1.932,1.984,1.984,0,0,1,2.035,1.932" transform="translate(-588.734 -599.16)" fill="#ed6d53"/>
        <path id="Trazado_153511" data-name="Trazado 153511" d="M820.687,1002.187a2.63,2.63,0,0,0,1.211-.277,8.965,8.965,0,0,0-1.5-2.007,2.939,2.939,0,0,1-2.986-.381,9.15,9.15,0,0,0-5.634-3.674c.022.42.039.817.052,1.181a9.757,9.757,0,0,1,4.588,3.03,5.8,5.8,0,0,0,4.268,2.127" transform="translate(-581.528 -713.387)" fill="#184657"/>
        <path id="Trazado_153512" data-name="Trazado 153512" d="M741.739,600.82c-1.218,2.77-8.146,7.662-13.057,15.225s-10.051,25.3-10.051,25.3,5.89,2.957,19.362,5.931c13.251,2.925,18.49,2.88,18.49,2.88a134.185,134.185,0,0,0,3.511-20.637c1.246-12.511-2.577-17.786-2.185-21.673Z" transform="translate(-514.8 -430.404)" fill="#faf8dc"/>
        <path id="Trazado_153513" data-name="Trazado 153513" d="M879.815,557.029c.687,1.225-.019,12.258-.019,12.258l4.24-2.216s-1.369-3.693-2.169-7a5.209,5.209,0,0,0-2.052-3.039" transform="translate(-630.253 -399.034)" fill="#0d232b"/>
        <path id="Trazado_153514" data-name="Trazado 153514" d="M822.512,549.334a15.414,15.414,0,0,0-1.638-.928c.166-2.272.478-7.091.2-7.685a9.043,9.043,0,0,0-1.354-1.765,1.9,1.9,0,0,1-.259-1.336s-.192.68-3.392-.469a9.658,9.658,0,0,1-4.8-4.513c-1.641,1.19-2.831,1.477-5.416,1.641l-1.421,7.678c-1.645-.443-2.634-.643-2.634-.643l-3.654,3.966-1.522,7.6s1.757,1.314,8.246,4.377,9.08,3.221,9.08,3.221l2.071-2.742s3.785-.234,5.209-1.874c2.231-2.57,1.289-6.53,1.289-6.53" transform="translate(-570.667 -381.561)" fill="#0d232b"/>
        <path id="Trazado_153515" data-name="Trazado 153515" d="M799.136,552.278c-2.2,4.952,1.427,16.512,8.125,26.651s12.813,17.671,16.626,21.512,5.689,5.419,6.314,4.86c.305-.273-.132-.8-.658-1.275.587.388,1.227.7,1.512.442.3-.27-.138-.874-.638-1.4.578.458,1.255.848,1.611.53.375-.336-.266-1.112-.934-1.756.559.41,1.166.729,1.437.431.492-.541-2.421-3.173-3.325-3.967.42.363,1.246,1.063,1.7,1.366a.706.706,0,0,0,.909-.172c.128-.2-.06-.405-.717-1.068a89.07,89.07,0,0,1-10.782-12.048c-6.156-8-12.061-19.345-13.205-26.074-.159-.936-.362-2.665-.5-3.587-1.658-2.563-5.14-9.694-7.472-4.444" transform="translate(-572.01 -394.283)" fill="#f29d7e"/>
        <path id="Trazado_153516" data-name="Trazado 153516" d="M830.924,652.2q1.122,1.687,2.219,3.273a1.983,1.983,0,1,0-2.219-3.273" transform="translate(-595.243 -466.905)" fill="#ed6d53"/>
        <path id="Trazado_153517" data-name="Trazado 153517" d="M882.827,700.472a23.786,23.786,0,0,1-4.622,4.473q.482.549.936,1.049a17.68,17.68,0,0,0,1.635-1.305,29.452,29.452,0,0,0,3-3.17q-.452-.49-.949-1.047" transform="translate(-629.113 -501.791)" fill="#0d232b"/>
        <path id="Trazado_153518" data-name="Trazado 153518" d="M806.547,538.4c-4.185-.123-7.219,1.057-8.3,4.729a14.534,14.534,0,0,0-.5,6.469,8.354,8.354,0,0,1,4.22-1.422,10.929,10.929,0,0,1,4.221.839c.017-.364.356-10.614.356-10.614" transform="translate(-571.365 -385.684)" fill="#283b42"/>
      </g>
    </g>
  </g>
</svg>
